<?xml version="1.0" standalone="no"?>
<!DOCTYPE svg PUBLIC "-//W3C//DTD SVG 20010904//EN"
 "http://www.w3.org/TR/2001/REC-SVG-20010904/DTD/svg10.dtd">
<svg version="1.0" xmlns="http://www.w3.org/2000/svg"
 width="1800.000000pt" height="1800.000000pt" viewBox="0 0 1800.000000 1800.000000"
 preserveAspectRatio="xMidYMid meet">
<g transform="translate(0.000000,1800.000000) scale(0.100000,-0.100000)"
fill="#000000" stroke="none">
<path d="M6681 14391 c-7 -4 -33 -7 -59 -6 -26 1 -56 -4 -67 -12 -11 -7 -31
-13 -45 -13 -33 -1 -97 -58 -106 -95 -3 -17 -24 -53 -45 -81 -22 -28 -39 -54
-39 -58 0 -4 -10 -20 -21 -36 -19 -25 -21 -37 -16 -96 6 -62 4 -69 -22 -108
-41 -60 -46 -96 -22 -152 31 -69 28 -115 -9 -142 -22 -16 -30 -31 -30 -53 0
-16 -7 -46 -15 -66 -8 -19 -15 -55 -15 -79 0 -37 -4 -45 -27 -56 -27 -13 -28
-15 -28 -103 -1 -71 -5 -96 -19 -118 -17 -25 -18 -42 -14 -152 5 -99 3 -127
-8 -136 -16 -13 -19 -91 -4 -119 7 -13 5 -31 -5 -60 -8 -24 -15 -54 -15 -69
-1 -14 -7 -44 -15 -66 -11 -30 -14 -108 -16 -327 -1 -257 0 -291 15 -307 9
-10 20 -35 23 -55 7 -43 70 -106 107 -106 13 0 29 -6 36 -14 6 -8 43 -27 81
-42 65 -26 72 -26 122 -14 35 8 82 10 142 5 128 -9 195 -10 235 -1 32 7 39 4
81 -38 l46 -46 101 -6 c94 -6 101 -6 118 15 16 19 29 21 110 21 l91 0 27 -39
c27 -38 28 -39 101 -43 61 -3 78 -7 99 -27 17 -16 24 -31 21 -42 -5 -14 1 -20
22 -24 15 -4 40 -11 54 -16 18 -7 34 -6 52 2 29 13 57 0 57 -27 0 -8 11 -16
25 -20 14 -3 49 -30 77 -58 29 -29 86 -81 126 -115 39 -34 72 -68 72 -76 0 -7
20 -26 44 -42 30 -19 46 -36 48 -53 2 -17 16 -32 45 -48 23 -12 58 -45 79 -72
21 -28 46 -52 55 -55 11 -4 22 -24 29 -53 6 -26 14 -57 17 -69 4 -17 1 -23
-11 -23 -8 0 -32 -16 -52 -36 -33 -34 -35 -40 -30 -78 17 -109 18 -129 6 -152
-8 -14 -10 -35 -5 -56 11 -49 26 -186 27 -238 0 -68 -11 -119 -39 -179 -21
-44 -23 -60 -16 -85 6 -19 6 -55 1 -91 -5 -33 -13 -105 -18 -160 -8 -98 -54
-258 -77 -273 -6 -4 -13 -29 -18 -57 -4 -27 -16 -67 -28 -87 -16 -30 -18 -42
-9 -62 13 -30 1 -89 -27 -127 -12 -16 -21 -38 -21 -51 0 -13 -7 -32 -15 -42
-8 -11 -15 -36 -15 -57 0 -21 -7 -42 -16 -50 -12 -10 -14 -23 -9 -59 5 -38 3
-49 -14 -64 -18 -17 -21 -30 -19 -111 1 -50 -3 -98 -8 -106 -5 -8 -10 -25 -11
-39 -1 -14 -5 -40 -9 -58 -4 -20 -2 -38 5 -46 10 -12 7 -23 -15 -55 -25 -38
-26 -48 -27 -158 0 -98 -3 -122 -18 -141 -13 -16 -18 -40 -17 -80 0 -55 -21
-124 -42 -137 -17 -10 -11 -44 11 -66 17 -17 19 -28 14 -62 -4 -23 -14 -54
-21 -69 -13 -26 -12 -31 31 -95 25 -36 45 -75 45 -85 0 -10 10 -32 22 -48 20
-28 27 -30 83 -30 48 0 68 5 98 25 21 15 37 34 37 45 0 11 25 47 55 81 30 34
55 70 55 81 0 45 46 79 65 48 3 -6 12 -10 18 -10 9 0 12 20 12 64 0 47 5 69
18 83 11 13 17 36 17 70 0 31 5 55 14 62 7 6 16 28 18 49 3 21 15 58 27 82 50
102 62 152 65 265 2 61 7 119 13 130 6 11 11 62 12 113 0 54 6 102 13 115 7
12 13 53 13 91 l0 70 48 24 47 25 0 56 c0 35 6 65 16 79 12 18 14 42 10 125
-3 56 -7 127 -8 157 -2 34 -12 72 -26 99 -42 81 -42 186 2 238 14 18 23 42 23
66 1 21 7 48 15 60 15 23 16 53 3 99 -6 22 -2 34 19 59 27 31 34 63 16 74 -19
12 -10 67 14 96 22 25 23 33 14 59 -14 42 -1 128 37 230 9 25 14 57 11 74 -4
20 3 45 24 88 18 35 30 74 30 98 0 26 7 45 19 57 18 17 28 70 30 166 1 10 13
29 27 42 15 14 27 37 29 57 3 33 26 86 42 97 5 3 19 23 32 44 12 20 31 42 41
47 11 6 22 26 26 45 6 34 47 75 73 75 6 0 20 6 31 12 16 10 24 10 40 0 11 -6
45 -12 77 -12 39 0 62 -5 75 -17 11 -9 33 -16 54 -15 47 2 119 -54 128 -98 4
-21 14 -34 33 -41 40 -15 93 -58 93 -74 0 -8 14 -34 30 -58 17 -25 30 -52 30
-60 0 -8 11 -22 25 -31 14 -10 30 -27 36 -39 6 -12 21 -42 34 -67 17 -32 24
-62 25 -105 0 -36 7 -68 15 -79 19 -24 19 -41 2 -58 -21 -21 -27 -169 -12
-272 9 -63 10 -97 3 -118 -6 -16 -8 -50 -5 -75 3 -26 0 -57 -5 -69 -11 -23 -8
-30 68 -176 13 -27 30 -48 38 -48 18 0 46 -33 46 -56 0 -10 7 -28 15 -38 8
-11 15 -37 15 -58 0 -24 12 -64 31 -101 22 -43 33 -82 36 -127 3 -36 14 -82
25 -103 10 -21 16 -47 13 -57 -15 -47 49 -161 102 -181 14 -5 27 -18 30 -29 3
-10 16 -26 28 -34 13 -9 30 -28 37 -43 20 -42 114 -103 157 -103 48 0 56 6 85
70 21 45 26 70 26 138 0 87 -18 140 -63 190 -19 20 -20 26 -8 57 13 36 7 90
-10 100 -5 4 -9 20 -9 36 0 26 -6 32 -47 50 -54 23 -73 42 -73 76 0 13 -13 47
-30 76 -16 30 -30 64 -30 76 0 12 -6 32 -14 44 -18 28 -35 142 -24 159 4 7 5
36 2 64 -5 44 -3 54 20 81 25 30 25 30 22 196 -2 133 0 169 11 178 8 7 13 31
14 58 0 175 5 280 14 292 6 8 10 48 9 89 -1 63 -6 84 -32 132 -30 57 -30 58
-25 180 3 79 10 131 19 145 8 12 14 28 14 35 0 8 14 30 31 51 30 36 56 46 74
28 6 -6 44 -27 85 -48 52 -27 83 -50 102 -78 83 -117 98 -141 98 -160 0 -11
12 -33 28 -49 47 -50 62 -80 62 -120 0 -31 12 -57 58 -125 31 -47 60 -94 64
-104 4 -10 22 -25 39 -35 46 -25 108 -81 125 -114 10 -19 22 -28 39 -28 16 0
36 -13 57 -37 32 -35 119 -123 139 -140 5 -4 34 -34 63 -65 32 -34 62 -58 74
-58 24 0 84 -30 95 -47 4 -7 24 -15 45 -19 46 -9 99 -30 107 -44 3 -5 21 -10
40 -10 59 0 146 -28 171 -55 20 -22 32 -25 91 -26 37 -1 73 -1 80 0 7 1 28 -5
49 -14 20 -8 40 -13 44 -10 5 3 20 0 33 -6 18 -8 30 -8 47 1 16 9 25 9 33 1 6
-6 35 -11 65 -11 56 0 83 -9 119 -43 19 -17 27 -19 48 -9 18 8 32 9 45 2 10
-5 34 -10 54 -10 19 0 38 -4 41 -10 3 -5 26 -10 51 -10 30 0 54 -7 73 -21 26
-19 95 -32 168 -30 13 0 33 -13 52 -35 27 -34 32 -36 66 -30 44 9 84 -5 138
-47 27 -21 45 -28 64 -24 14 2 54 -1 90 -9 35 -7 70 -11 77 -8 8 3 17 1 21 -5
3 -6 21 -11 38 -11 33 0 75 -22 90 -47 5 -8 27 -13 53 -13 31 0 54 -7 71 -20
14 -11 41 -20 59 -20 37 0 132 -23 163 -39 11 -6 29 -11 41 -11 12 0 42 -12
66 -26 32 -19 48 -24 56 -16 8 8 18 5 37 -7 112 -77 154 -101 177 -101 11 0
23 -3 27 -6 3 -4 23 -8 44 -10 74 -6 94 -13 113 -36 11 -12 19 -26 20 -30 0
-5 31 -8 68 -8 60 0 71 -3 89 -24 12 -13 35 -27 51 -31 17 -3 36 -13 43 -21 6
-8 20 -14 30 -14 10 0 20 -4 24 -9 3 -6 30 -22 61 -36 30 -14 71 -41 91 -60
29 -28 46 -35 92 -40 31 -3 81 -11 111 -17 30 -6 71 -13 90 -15 58 -8 119 -41
113 -62 -6 -25 41 -61 79 -61 26 0 67 -24 122 -71 5 -5 12 -25 15 -46 5 -30
13 -41 38 -54 17 -8 59 -41 94 -72 62 -56 63 -57 123 -57 40 0 70 -6 84 -16
17 -12 35 -14 70 -9 64 8 149 -11 242 -54 40 -18 57 -35 71 -72 8 -22 19 -28
57 -34 26 -4 63 -7 82 -7 19 1 45 -1 57 -4 31 -6 65 -45 57 -64 -11 -26 -12
-94 -3 -112 6 -10 18 -18 28 -18 11 0 46 -13 78 -29 62 -31 88 -65 72 -93 -11
-20 30 -51 51 -38 19 12 77 -27 88 -60 8 -21 25 -36 65 -54 30 -14 60 -26 67
-26 8 0 35 -23 61 -51 43 -46 46 -55 48 -105 0 -30 -3 -54 -8 -54 -4 0 -25
-16 -45 -36 -35 -34 -37 -40 -32 -78 9 -57 27 -106 53 -142 21 -29 21 -33 7
-75 -8 -24 -26 -54 -40 -67 -13 -13 -24 -34 -24 -49 0 -35 -37 -93 -60 -93
-23 0 -36 -17 -44 -57 -3 -18 -9 -46 -12 -62 l-6 -28 -110 -6 c-85 -5 -116 -3
-137 8 -23 12 -44 12 -124 3 -87 -11 -98 -10 -116 6 -16 15 -36 17 -152 13
-74 -3 -176 -10 -227 -17 -92 -12 -93 -12 -132 14 -24 16 -54 26 -75 26 -20 0
-53 9 -75 20 -22 11 -48 20 -59 20 -11 0 -22 4 -25 9 -11 17 -71 19 -115 4
-40 -14 -48 -13 -72 1 -30 18 -111 21 -172 7 -24 -6 -50 -6 -68 1 -24 8 -35 6
-64 -12 -26 -16 -34 -27 -30 -39 21 -52 17 -77 -15 -105 -31 -26 -32 -28 -28
-95 3 -56 9 -77 36 -117 47 -72 82 -150 82 -185 0 -21 9 -40 30 -59 17 -15 30
-34 30 -42 0 -23 39 -58 64 -58 19 0 27 -10 41 -47 20 -52 72 -117 118 -147
16 -11 37 -39 48 -63 17 -39 21 -43 54 -43 25 0 41 7 57 25 25 29 38 32 38 9
0 -9 6 -28 14 -42 8 -15 25 -54 38 -87 30 -78 35 -88 88 -167 24 -38 50 -68
56 -68 6 0 39 -20 72 -44 42 -31 70 -44 91 -44 16 1 41 -6 55 -15 14 -10 32
-17 41 -17 9 0 18 -12 21 -30 4 -16 16 -35 28 -43 21 -14 99 -34 169 -44 31
-4 41 -12 57 -42 17 -34 46 -66 139 -155 18 -17 31 -40 31 -53 0 -26 49 -82
72 -84 7 0 31 -23 53 -51 22 -29 54 -59 70 -68 35 -18 75 -91 75 -135 0 -16 7
-52 15 -79 20 -67 19 -131 -4 -196 -29 -81 -74 -160 -93 -160 -5 0 -33 -18
-62 -40 -39 -30 -62 -40 -89 -40 -52 0 -69 -29 -71 -127 -2 -78 -2 -78 -48
-127 -34 -36 -51 -47 -65 -42 -13 4 -29 -2 -47 -19 -15 -14 -34 -25 -43 -25
-19 0 -83 -38 -83 -50 0 -5 -8 -11 -19 -15 -10 -3 -25 -24 -34 -46 -21 -52
-41 -47 -45 12 -2 26 -10 49 -19 57 -23 17 -106 15 -150 -3 -41 -17 -204 -21
-233 -5 -11 6 -55 15 -99 20 -93 12 -202 0 -263 -30 -36 -17 -43 -18 -68 -5
-20 10 -50 13 -106 10 -45 -3 -91 0 -106 6 -23 9 -31 7 -55 -15 -32 -30 -42
-32 -69 -11 -10 8 -32 15 -47 15 -16 0 -43 11 -61 25 -42 32 -57 31 -90 -1
-24 -25 -30 -26 -93 -21 -56 4 -71 2 -94 -15 -42 -32 -132 -28 -187 8 -38 25
-54 28 -143 32 l-101 4 -33 -32 c-32 -31 -35 -32 -67 -20 -18 7 -42 22 -54 32
-22 20 -74 24 -91 7 -8 -8 -17 -8 -31 0 -36 19 -131 13 -168 -10 -19 -11 -34
-24 -34 -29 0 -4 -21 -18 -46 -30 -25 -12 -67 -38 -94 -56 -45 -31 -56 -34
-123 -34 -57 0 -84 5 -123 24 -42 21 -52 22 -74 11 -46 -23 -101 -45 -112 -45
-7 0 -26 -13 -43 -29 -28 -28 -35 -30 -120 -31 -49 -1 -117 1 -151 5 -56 7
-62 6 -77 -15 -14 -20 -21 -21 -64 -15 -64 9 -248 9 -298 0 -22 -4 -51 -18
-64 -31 -13 -13 -29 -24 -35 -25 -6 -1 -30 -2 -52 -3 -23 -1 -53 -10 -68 -19
-20 -14 -37 -16 -77 -11 -42 6 -55 3 -79 -15 -20 -14 -44 -21 -73 -21 -27 0
-49 -6 -57 -15 -16 -19 -51 -19 -76 0 -25 19 -58 19 -74 0 -17 -21 -171 -21
-211 0 -16 8 -43 23 -61 32 -20 10 -71 19 -133 24 -110 8 -191 23 -211 40 -7
5 -30 9 -50 7 -31 -2 -39 -8 -44 -28 -5 -22 -11 -25 -65 -26 -71 -1 -105 14
-158 67 -37 38 -78 51 -92 29 -9 -14 -73 -12 -77 3 -3 8 -31 12 -91 13 -47 0
-92 5 -99 10 -7 6 -53 10 -103 10 -85 -1 -90 -2 -102 -26 -11 -23 -17 -26 -42
-22 -5 1 -14 15 -21 31 -15 36 -64 61 -121 61 -23 0 -50 6 -58 14 -9 8 -49 24
-90 35 -40 11 -79 25 -86 31 -9 8 -20 8 -32 2 -10 -5 -66 -13 -125 -16 -88 -6
-111 -5 -131 8 -29 19 -169 17 -234 -4 -40 -12 -44 -12 -81 14 -44 30 -99 48
-123 41 -10 -3 -20 -1 -24 5 -10 16 -74 40 -108 40 -17 0 -45 11 -64 26 -26
20 -44 25 -76 23 -50 -3 -95 8 -120 29 -10 9 -47 18 -91 21 -40 4 -81 13 -90
20 -10 8 -43 18 -74 22 -35 5 -61 14 -69 25 -7 10 -57 32 -110 50 -75 25 -103
30 -122 22 -18 -6 -36 -5 -61 5 -19 8 -57 20 -85 26 -30 7 -62 24 -80 42 -21
19 -41 29 -62 29 -36 0 -154 57 -228 110 -70 50 -109 63 -205 67 -62 3 -87 1
-95 -9 -21 -26 -53 -38 -79 -28 -39 15 -96 0 -125 -32 -20 -22 -37 -29 -72
-32 -26 -2 -52 -7 -58 -10 -6 -4 -19 -2 -30 4 -11 5 -45 10 -76 10 -57 0 -101
-16 -125 -44 -24 -30 -113 -67 -189 -78 -45 -7 -84 -18 -96 -29 -11 -10 -40
-21 -63 -25 -73 -12 -109 -28 -255 -118 -20 -13 -62 -23 -112 -28 -172 -17
-221 -25 -246 -37 -20 -10 -32 -10 -47 -2 -28 15 -67 14 -100 -3 -50 -25 -102
-29 -143 -11 -31 14 -49 15 -110 7 -57 -7 -81 -6 -106 4 -17 8 -34 10 -37 5
-3 -5 -31 -9 -61 -10 -44 0 -60 5 -84 24 -27 23 -31 24 -67 12 -23 -8 -73 -13
-122 -11 -68 1 -88 6 -105 22 -12 11 -33 20 -47 20 -67 -1 -196 16 -205 27
-20 23 -54 35 -127 41 -41 4 -80 13 -90 21 -9 8 -22 12 -28 8 -6 -4 -22 3 -34
14 -18 17 -30 20 -50 15 -17 -4 -33 -1 -44 8 -30 25 -93 58 -111 58 -10 0 -24
7 -31 15 -7 8 -25 15 -41 15 -19 0 -34 9 -49 30 -17 23 -29 30 -55 30 -20 0
-50 11 -71 25 -21 14 -45 23 -54 20 -11 -3 -34 10 -62 35 -33 28 -55 40 -77
40 -22 0 -43 11 -72 37 -27 25 -50 37 -64 35 -12 -2 -35 8 -51 21 -41 34 -73
49 -91 43 -14 -6 -52 9 -63 24 -3 3 -24 17 -47 30 -24 13 -44 33 -47 46 -4 15
-18 26 -43 34 -42 14 -95 44 -119 67 -8 9 -33 25 -54 37 -64 34 -173 111 -199
140 -14 14 -30 26 -37 26 -6 0 -17 7 -24 15 -7 8 -20 15 -29 15 -39 1 -151
131 -151 176 0 11 -11 31 -25 44 -13 13 -36 45 -50 72 -14 26 -43 67 -65 89
-24 25 -40 51 -40 66 0 13 -7 26 -18 30 -24 8 -72 54 -72 69 0 22 -34 73 -56
85 -12 6 -27 22 -33 35 -6 13 -29 44 -51 68 -22 24 -40 48 -40 53 0 5 -13 22
-29 39 -47 48 -81 105 -81 135 0 16 -13 54 -29 86 -16 32 -32 84 -36 116 -6
50 -16 70 -64 135 -32 42 -65 83 -74 91 -9 7 -17 19 -17 27 0 7 -16 39 -35 72
-32 53 -66 131 -82 187 -4 11 -26 46 -50 77 -37 49 -43 63 -43 106 0 32 -5 54
-15 62 -8 7 -15 18 -15 25 0 12 -45 101 -61 121 -5 6 -19 40 -30 75 -12 35
-36 89 -55 120 -19 31 -34 63 -34 72 0 16 -44 99 -72 136 -12 16 -18 41 -18
74 0 36 -5 53 -17 63 -24 17 -24 131 1 168 17 26 39 172 36 236 0 19 -2 89 -4
155 -1 66 -6 139 -10 162 -5 28 -3 55 8 87 20 59 20 71 -1 91 -13 14 -14 21
-5 34 48 67 60 144 33 209 -11 26 -11 38 -2 59 7 15 15 84 17 153 4 77 11 138
20 161 20 45 15 258 -6 306 -13 31 -13 34 13 61 24 25 27 36 27 96 0 93 8 105
65 99 54 -7 64 8 45 70 -12 41 -12 41 26 74 22 18 46 33 54 33 8 0 25 8 38 18
18 14 24 33 33 112 6 52 13 135 16 183 5 91 21 130 71 175 11 9 28 42 38 72
35 111 46 128 92 145 l42 17 0 58 c0 56 2 60 38 87 20 15 46 33 57 39 14 7 21
24 23 50 2 27 13 49 36 74 18 19 40 48 50 64 17 26 21 28 64 22 64 -9 92 18
92 85 0 44 3 50 31 65 17 8 40 13 52 10 14 -3 38 12 88 56 37 33 70 69 72 79
5 19 31 33 79 43 33 7 45 40 27 73 -12 23 -11 27 10 44 16 13 39 19 75 19 29
0 59 7 70 15 11 8 29 15 40 15 29 0 86 36 86 55 0 18 31 35 64 35 14 0 27 4
30 9 3 5 31 11 61 13 41 4 62 11 83 30 15 14 45 28 67 31 22 4 80 27 128 52
48 25 95 45 103 45 8 0 27 14 41 30 20 25 32 30 67 30 56 0 119 44 148 105 18
37 27 45 50 45 22 0 28 -5 28 -21 0 -24 36 -79 52 -79 16 0 68 60 68 79 0 25
40 60 77 67 27 5 36 2 62 -26 28 -31 29 -32 40 -12 6 11 11 27 11 34 0 33 118
66 135 38 3 -5 23 -10 44 -10 30 0 42 6 55 25 9 13 31 32 48 41 27 14 37 15
66 4 31 -11 39 -9 83 14 47 26 51 27 191 22 134 -5 144 -7 163 -28 26 -30 117
-58 189 -58 32 0 70 -7 87 -16 22 -11 38 -13 57 -6 20 6 37 3 74 -15 28 -14
66 -23 93 -23 25 0 59 -7 75 -15 16 -8 57 -18 90 -22 33 -3 63 -10 66 -14 3
-5 16 -9 30 -9 14 0 35 -7 49 -16 24 -16 89 -11 101 7 3 5 16 9 28 9 34 0 60
43 52 85 -4 19 -2 36 4 40 22 13 8 49 -35 91 -25 24 -45 52 -45 62 0 27 -38
72 -60 72 -11 0 -24 9 -30 20 -6 11 -17 20 -24 20 -8 0 -28 13 -45 29 -17 16
-54 37 -81 46 -27 9 -73 29 -102 46 -34 18 -68 29 -94 29 -22 0 -49 7 -60 15
-10 8 -33 15 -50 15 -17 0 -37 6 -43 14 -6 7 -31 19 -55 26 -44 12 -86 5 -140
-22 -20 -10 -68 4 -98 29 -9 8 -42 21 -73 29 -56 15 -57 15 -91 -11 -19 -14
-34 -32 -34 -39 0 -8 -6 -16 -12 -18 -25 -9 -38 4 -38 37 0 19 -6 37 -12 41
-24 15 -83 3 -109 -22 -18 -17 -28 -21 -36 -13 -16 16 -109 6 -173 -19 -30
-12 -76 -22 -102 -22 -25 0 -53 -3 -62 -6 -23 -9 -19 -32 6 -36 38 -5 29 -22
-25 -47 -63 -29 -126 -38 -156 -21 -14 7 -27 8 -34 2 -7 -5 -25 -12 -42 -16
-16 -4 -51 -21 -78 -37 -26 -16 -55 -29 -64 -29 -9 0 -37 -14 -63 -30 -37 -23
-64 -32 -116 -37 -75 -6 -94 -15 -94 -44 0 -24 -29 -39 -74 -39 -20 0 -36 -3
-36 -7 0 -16 -68 -53 -96 -53 -18 0 -43 -11 -62 -27 -18 -14 -43 -31 -55 -38
-18 -8 -23 -22 -27 -65 -4 -47 -8 -55 -27 -58 -11 -2 -43 9 -71 23 -61 32
-119 27 -173 -16 -53 -41 -111 -69 -155 -75 -22 -3 -49 -7 -61 -10 -29 -6 -95
-77 -109 -117 -6 -18 -19 -34 -30 -35 -10 -2 -32 -10 -49 -18 -16 -7 -46 -14
-65 -16 -32 -3 -34 -5 -35 -39 -1 -21 -10 -44 -22 -56 -24 -24 -94 -53 -128
-53 -15 0 -29 -9 -36 -22 -7 -13 -23 -31 -36 -41 -26 -21 -30 -52 -8 -61 22
-8 18 -42 -8 -58 -12 -8 -40 -18 -61 -22 -22 -4 -49 -14 -60 -22 -11 -8 -33
-14 -48 -14 -16 0 -39 -11 -55 -27 -40 -39 -109 -93 -119 -93 -5 -1 -27 -18
-48 -40 -34 -34 -39 -44 -38 -81 3 -56 -26 -89 -78 -89 -29 0 -39 -6 -53 -29
-9 -16 -17 -46 -17 -66 0 -29 -7 -44 -31 -66 -32 -30 -32 -30 -26 -104 l7 -75
-34 -14 c-40 -17 -50 -56 -35 -148 12 -76 7 -101 -30 -134 -39 -34 -79 -133
-90 -221 -4 -29 -10 -55 -13 -58 -4 -4 -26 -9 -50 -12 -33 -4 -52 -15 -80 -44
-21 -21 -38 -45 -38 -53 0 -8 -18 -38 -40 -67 -29 -39 -39 -60 -34 -74 3 -11
8 -35 11 -52 4 -27 2 -33 -14 -33 -10 0 -28 7 -40 15 -16 11 -23 12 -30 2 -13
-17 1 -289 17 -328 18 -43 1 -79 -38 -79 -20 0 -35 -9 -50 -30 -20 -26 -22
-41 -22 -150 0 -113 -2 -124 -30 -183 -17 -35 -30 -74 -30 -87 0 -13 -7 -31
-15 -40 -13 -14 -15 -45 -13 -171 1 -85 1 -237 0 -339 -2 -181 -1 -186 24
-233 20 -38 25 -56 19 -85 -17 -97 -17 -143 0 -162 9 -10 15 -23 14 -29 -2 -5
-30 -36 -61 -70 -83 -88 -81 -79 -54 -206 5 -21 1 -42 -14 -70 l-21 -40 24
-21 c33 -28 54 -78 61 -143 3 -29 12 -63 19 -75 15 -22 22 -54 36 -166 7 -53
17 -78 55 -135 25 -38 46 -77 46 -87 0 -26 31 -89 58 -119 22 -24 47 -95 59
-164 3 -16 11 -37 17 -45 7 -8 21 -33 31 -55 11 -22 23 -43 28 -46 21 -16 77
-117 77 -140 0 -18 14 -40 45 -70 25 -24 45 -51 45 -61 0 -9 27 -45 59 -80 83
-88 149 -172 166 -213 8 -19 22 -51 31 -71 8 -21 31 -56 50 -79 18 -23 34 -50
34 -60 0 -10 11 -33 25 -51 14 -18 25 -38 25 -44 0 -6 20 -40 45 -74 25 -35
45 -69 45 -76 0 -27 87 -134 136 -167 18 -13 37 -38 44 -57 6 -19 22 -42 36
-50 13 -9 24 -22 24 -29 1 -20 37 -57 57 -57 35 0 62 -31 103 -115 25 -52 48
-86 60 -90 13 -4 20 -15 20 -31 0 -19 35 -61 137 -164 76 -77 143 -144 148
-150 6 -6 36 -35 68 -65 32 -30 62 -66 67 -80 10 -28 45 -34 82 -14 18 10 24
7 45 -20 15 -19 34 -31 47 -31 19 0 25 -7 30 -39 5 -34 18 -49 92 -113 47 -40
115 -101 151 -136 67 -64 86 -73 101 -46 14 25 47 13 50 -19 3 -21 9 -27 28
-27 13 0 51 -13 84 -30 65 -33 114 -39 127 -15 8 13 17 13 58 4 28 -6 65 -13
84 -16 22 -4 47 -20 74 -49 40 -42 44 -44 100 -44 32 0 74 -7 94 -15 19 -8 55
-15 79 -15 24 0 47 -6 51 -12 14 -22 82 -48 124 -48 34 0 46 -6 79 -41 l39
-41 63 6 c35 4 107 9 161 12 l97 5 41 -32 41 -32 30 18 c49 29 235 11 297 -29
22 -14 232 -14 261 0 14 7 35 26 48 43 25 34 58 40 76 16 10 -14 26 -15 121
-6 188 17 268 31 384 67 25 8 84 14 133 14 89 0 129 11 170 47 13 12 35 14
105 9 48 -3 107 -8 131 -12 54 -8 94 8 144 58 27 27 38 47 38 68 0 23 10 41
43 70 23 22 54 51 68 65 15 14 36 25 48 25 14 0 28 11 39 30 16 28 21 31 72
30 42 -1 212 14 227 19 1 1 9 14 18 30 8 16 31 39 51 51 34 22 37 22 70 7 23
-11 41 -14 56 -8 71 27 96 31 139 22 70 -15 143 -43 153 -59 19 -32 48 -52 75
-52 17 0 44 -13 67 -31 22 -17 53 -37 69 -43 42 -18 149 -113 155 -138 8 -32
49 -57 105 -64 57 -8 75 -18 75 -46 0 -13 14 -25 45 -38 25 -11 45 -24 45 -30
0 -6 17 -18 38 -26 20 -8 51 -22 69 -30 19 -8 63 -14 112 -14 71 0 88 -4 138
-30 38 -20 70 -30 100 -30 33 0 56 -8 89 -31 l45 -31 45 23 44 24 14 -21 c22
-31 69 -47 118 -40 55 8 54 8 180 -4 91 -9 112 -9 137 5 17 8 38 15 49 15 10
0 27 7 38 15 27 20 167 21 184 0 16 -19 34 -19 50 0 16 19 80 19 106 0 30 -23
156 -20 178 4 25 27 107 17 171 -23 38 -23 60 -30 92 -28 142 7 129 10 178
-38 l46 -45 192 -5 c129 -4 202 -10 223 -19 28 -13 36 -12 97 17 94 45 123 43
178 -12 55 -55 116 -76 259 -87 58 -5 133 -11 168 -15 48 -4 68 -2 87 10 23
15 130 34 251 43 39 3 80 -1 114 -11 30 -9 76 -16 102 -16 27 0 59 -5 71 -12
12 -6 42 -15 67 -19 25 -4 62 -10 82 -14 34 -7 41 -4 84 34 35 31 55 41 81 41
27 0 35 5 43 25 5 14 13 25 17 25 14 0 79 -23 113 -41 36 -18 76 -17 116 3 21
10 73 7 157 -8 39 -7 77 14 77 41 0 7 18 28 39 46 95 82 92 81 120 70 63 -25
125 -33 166 -20 22 7 47 18 55 24 33 27 92 32 218 19 50 -5 68 -2 89 11 20 14
46 17 110 16 l84 -2 45 40 46 40 40 -25 c32 -21 47 -24 72 -18 40 9 370 9 460
-1 84 -9 196 18 196 48 0 19 25 40 84 71 64 34 97 33 149 -5 37 -27 48 -30 92
-26 28 2 74 0 104 -5 43 -8 63 -6 97 7 30 11 54 14 76 9 35 -8 217 -15 358
-14 74 1 90 4 125 27 38 25 45 26 158 24 111 -2 121 -1 143 20 13 12 24 33 24
45 0 13 14 34 32 49 27 23 32 35 36 81 2 30 8 54 12 54 14 0 28 -25 32 -55 4
-35 30 -45 56 -22 9 9 46 19 82 23 73 8 107 25 112 57 3 22 16 27 131 44 25 3
43 14 55 30 9 14 45 55 80 92 34 36 65 73 67 81 3 8 25 24 48 36 26 12 59 43
85 77 24 31 49 57 56 57 8 0 19 7 26 15 7 8 22 15 35 15 12 0 33 9 46 21 13
11 36 27 51 35 43 22 88 130 88 211 0 33 7 50 32 79 44 50 56 138 27 203 -10
24 -19 55 -19 70 0 14 -14 44 -30 65 -17 22 -30 44 -30 50 0 6 -16 22 -35 35
-24 16 -38 36 -46 65 -25 89 -73 165 -180 286 -22 25 -54 65 -72 90 -35 48
-75 62 -116 40 -17 -8 -26 -5 -56 21 -19 17 -35 39 -35 48 0 23 -24 44 -80 69
-25 11 -58 33 -75 49 -16 15 -46 40 -65 54 -19 15 -55 46 -80 70 -47 46 -180
207 -180 219 0 3 -18 14 -40 24 -22 10 -45 26 -50 37 -6 10 -21 19 -33 19 -29
0 -43 10 -51 36 -4 12 -26 29 -56 42 -34 15 -57 34 -74 61 -14 22 -30 42 -36
46 -5 3 -10 10 -10 16 0 13 44 11 57 -2 8 -8 17 -8 31 0 26 14 81 14 177 0 57
-9 78 -9 89 1 9 7 43 11 88 9 131 -3 229 10 271 39 31 21 48 25 107 24 64 0
76 3 121 34 33 22 63 34 84 34 19 0 36 4 39 9 3 4 19 11 36 14 18 4 30 13 30
22 0 24 66 81 125 110 59 28 127 101 161 175 12 25 33 70 48 101 25 52 27 67
29 189 1 127 0 134 -21 148 l-22 14 20 25 c24 31 25 66 3 103 -15 26 -15 31
-1 52 8 13 18 44 22 71 6 39 4 54 -14 81 -12 21 -17 37 -11 41 6 3 10 20 9 38
-1 18 4 43 11 55 18 34 5 57 -60 107 -52 41 -59 50 -59 82 0 24 -9 47 -30 73
-16 21 -30 43 -30 49 0 5 -9 15 -20 21 -11 6 -20 19 -20 29 0 25 -28 47 -70
56 -48 11 -100 35 -130 61 -14 12 -51 31 -83 42 -37 13 -71 35 -97 61 -48 49
-97 71 -155 71 -29 0 -47 6 -60 20 -10 11 -23 20 -30 20 -6 0 -36 25 -67 55
-46 45 -62 55 -90 55 -22 0 -42 7 -53 20 -10 11 -29 20 -42 20 -27 0 -93 46
-93 64 0 22 -58 56 -95 56 -21 0 -38 6 -41 14 -3 8 -16 17 -30 20 -13 4 -24
13 -24 21 0 8 -17 25 -38 39 -20 13 -43 31 -51 40 -7 9 -24 16 -36 16 -14 0
-25 7 -28 20 -3 11 -17 22 -33 25 -50 11 -54 14 -54 33 0 24 -37 72 -55 72 -7
0 -18 7 -25 15 -7 8 -21 15 -31 15 -10 0 -28 13 -41 30 -12 16 -31 32 -42 36
-45 12 -86 39 -86 56 0 11 -12 23 -27 29 -16 6 -36 15 -45 20 -10 5 -24 9 -32
9 -9 0 -23 8 -33 19 -10 10 -38 22 -63 26 -25 4 -57 14 -72 21 -15 8 -35 14
-45 14 -10 0 -49 16 -87 35 -37 19 -78 35 -89 35 -12 0 -34 12 -49 27 -22 21
-40 27 -81 30 -28 2 -56 9 -62 16 -25 33 -103 76 -149 82 -31 4 -58 16 -75 31
-14 13 -33 24 -41 24 -9 0 -33 9 -55 20 -22 11 -50 20 -63 20 -13 0 -36 8 -50
18 -19 13 -42 18 -74 17 -35 -1 -52 3 -64 16 -10 11 -31 23 -48 28 -17 6 -49
17 -71 25 -22 8 -54 15 -71 16 -19 0 -41 9 -55 24 -17 16 -39 25 -75 28 -33 3
-82 20 -137 48 -79 39 -91 42 -136 36 -44 -6 -51 -4 -61 14 -6 11 -19 20 -28
20 -10 0 -23 5 -30 12 -12 12 -71 36 -112 45 -14 3 -34 12 -45 19 -11 8 -38
14 -60 14 -22 0 -49 7 -59 15 -11 8 -29 15 -40 15 -33 0 -95 25 -109 43 -8 12
-30 18 -74 20 -34 2 -68 8 -75 14 -21 18 -129 47 -183 50 -159 8 -187 12 -221
32 -24 15 -52 21 -91 21 -39 0 -62 5 -75 17 -16 14 -37 17 -116 15 -90 -2
-101 0 -152 27 -34 18 -79 32 -118 36 -46 5 -70 14 -89 31 -14 13 -34 24 -44
24 -10 0 -27 12 -38 26 -12 15 -51 42 -88 60 -37 19 -71 41 -76 49 -4 8 -17
15 -28 15 -11 0 -23 10 -29 24 -5 14 -17 29 -28 35 -10 5 -31 28 -47 50 -17
25 -36 41 -48 41 -26 0 -87 38 -87 54 0 20 -49 60 -73 61 -44 2 -47 10 -47
135 0 117 -1 120 -25 136 -14 9 -37 41 -51 70 -14 30 -29 54 -33 54 -4 0 -15
24 -24 53 -11 36 -31 66 -62 97 -25 24 -45 49 -45 56 0 6 -16 27 -35 47 -38
39 -54 82 -36 100 16 16 14 57 -4 63 -8 4 -15 18 -15 34 0 16 -5 30 -11 32
-16 5 -41 76 -46 133 -3 31 -13 58 -25 72 -11 12 -17 26 -14 31 3 5 -6 22 -20
37 -18 20 -24 35 -21 53 6 34 -10 79 -45 123 -24 30 -28 43 -23 70 5 30 2 38
-29 68 -28 27 -36 43 -36 70 0 20 -7 45 -15 55 -20 27 -20 161 0 209 11 26 15
84 16 229 2 175 0 197 -17 223 -10 17 -24 34 -31 38 -7 4 -20 22 -29 40 -26
51 -54 76 -93 82 -81 13 -124 30 -134 53 -6 12 -16 22 -24 22 -7 0 -19 12 -25
28 -7 15 -17 34 -24 42 -6 8 -14 26 -17 40 -3 14 -15 52 -27 84 -18 47 -20 63
-11 78 6 10 11 36 11 58 0 30 -6 45 -25 62 -15 13 -28 37 -31 60 -4 21 -10 38
-15 38 -5 0 -26 16 -47 35 -40 36 -120 75 -153 75 -12 0 -23 10 -29 26 -7 17
-15 24 -25 20 -8 -3 -21 1 -29 9 -11 11 -41 15 -124 15 -107 0 -109 0 -138 30
-38 39 -63 39 -71 -1 -6 -29 -8 -30 -42 -24 -20 4 -40 11 -45 16 -14 13 -323
12 -332 -2 -3 -6 -16 -8 -29 -5 -28 7 -42 -9 -47 -54 -4 -41 -34 -60 -115 -71
-33 -4 -73 -20 -105 -40 -61 -38 -31 -37 -419 -24 -206 6 -281 5 -327 -5 -56
-11 -64 -11 -104 9 -25 11 -62 21 -84 21 -21 1 -50 7 -64 15 -14 8 -38 15 -55
15 -16 0 -41 7 -55 15 -15 9 -54 14 -98 15 -61 0 -79 4 -113 27 -22 14 -59 30
-82 34 -76 14 -160 38 -170 48 -6 6 -25 11 -42 11 -23 0 -35 7 -45 25 -7 13
-29 30 -48 36 -24 8 -38 21 -48 44 -16 38 -68 67 -154 84 -30 6 -75 16 -100
22 -25 6 -56 12 -70 14 -14 3 -47 9 -75 15 -27 6 -61 12 -75 14 -14 2 -37 8
-51 14 -14 6 -31 7 -38 3z m290 -529 c74 -7 92 -12 125 -38 60 -47 134 -94
147 -94 7 -1 29 -7 51 -15 27 -9 46 -11 63 -4 27 10 73 0 126 -28 15 -8 69
-19 120 -24 51 -5 111 -11 135 -15 30 -4 49 -2 67 10 31 20 79 21 95 1 9 -10
31 -15 72 -15 47 0 70 -6 113 -30 30 -16 62 -30 72 -30 10 0 36 -9 56 -19 39
-20 81 -16 112 9 27 22 68 7 96 -34 31 -47 47 -54 115 -55 38 -1 56 -6 69 -21
10 -11 38 -32 62 -46 44 -26 45 -26 89 -9 27 10 52 14 66 9 13 -4 55 -8 94 -9
53 -1 79 -7 106 -23 19 -12 45 -22 56 -22 11 0 24 -4 27 -10 8 -13 61 -13 86
1 16 8 32 5 75 -15 30 -14 72 -26 92 -26 21 0 42 -4 48 -9 5 -4 33 -16 61 -25
43 -13 56 -14 73 -4 16 10 26 10 52 0 61 -24 133 -42 208 -53 41 -6 109 -21
150 -35 42 -13 98 -24 129 -24 38 0 71 -8 110 -27 31 -14 72 -29 91 -32 32 -6
35 -10 38 -43 2 -20 10 -42 18 -48 22 -19 17 -44 -16 -75 -30 -29 -39 -59 -20
-70 15 -9 12 -63 -5 -88 -17 -26 -11 -37 30 -61 50 -29 71 -72 78 -159 6 -64
4 -83 -10 -103 -14 -22 -15 -32 -4 -75 12 -44 11 -52 -8 -82 -11 -18 -34 -45
-51 -60 -18 -17 -30 -37 -30 -52 0 -35 -25 -70 -67 -95 -31 -18 -34 -24 -29
-50 3 -17 9 -44 12 -60 7 -36 -12 -114 -32 -131 -8 -6 -29 -15 -47 -18 -31 -6
-32 -9 -37 -61 -4 -45 -13 -66 -48 -113 -33 -44 -48 -57 -60 -51 -10 4 -31 9
-49 12 -25 3 -34 -1 -49 -23 -34 -52 -64 -59 -234 -56 -85 1 -160 7 -166 12
-9 7 -77 10 -184 8 -14 -1 -70 5 -125 11 -55 7 -111 13 -125 15 -14 1 -32 5
-41 9 -20 9 -94 14 -350 24 -167 6 -200 10 -216 25 -22 19 -55 22 -84 7 -15
-9 -30 -5 -68 17 l-49 27 -28 -32 c-31 -34 -64 -41 -84 -17 -7 8 -24 15 -38
15 -18 0 -40 15 -73 50 -26 28 -53 50 -60 50 -8 0 -25 -9 -39 -20 -21 -17 -41
-20 -133 -20 -73 0 -118 5 -135 14 -58 29 -104 46 -129 46 -14 0 -42 12 -62
27 -49 38 -139 52 -225 37 -39 -6 -83 8 -126 42 -8 6 -33 17 -55 24 -22 8 -86
35 -142 62 -61 29 -115 48 -136 48 -31 0 -38 5 -60 43 -14 23 -38 53 -53 67
-16 14 -36 36 -44 48 -8 12 -37 30 -65 40 -39 14 -55 26 -72 57 -13 22 -23 50
-23 61 0 12 -7 27 -15 34 -10 8 -15 31 -15 67 0 48 -3 57 -31 80 l-30 26 5 91
c11 191 15 212 48 241 29 26 29 27 24 113 -3 48 -5 94 -6 102 0 8 2 31 5 50 6
35 -14 102 -35 115 -15 9 -12 43 4 52 13 8 20 41 32 148 6 50 34 95 61 95 24
0 73 91 73 137 0 34 5 45 22 54 13 7 43 34 66 61 24 26 52 48 62 48 10 0 23 7
31 16 10 12 25 14 63 10 28 -3 90 -9 137 -14z m2633 3 c14 -10 41 -15 66 -13
36 2 46 -2 64 -25 12 -15 31 -27 43 -27 13 0 33 -14 48 -34 15 -19 47 -45 72
-57 25 -12 48 -32 53 -45 6 -15 18 -24 30 -24 12 0 24 -9 29 -22 5 -13 25 -39
46 -58 20 -19 42 -47 50 -63 13 -26 12 -28 -17 -43 -28 -15 -31 -14 -53 6 -19
18 -37 23 -91 24 -49 2 -70 7 -79 19 -9 13 -28 17 -71 17 -36 1 -67 6 -78 15
-13 10 -23 11 -31 5 -8 -7 -23 -5 -44 6 -18 9 -45 16 -59 16 -82 -2 -97 0
-123 22 -21 18 -44 24 -104 29 -43 3 -82 10 -88 16 -6 6 -20 11 -30 11 -25 0
-46 28 -47 59 0 60 62 107 155 118 22 2 50 9 62 15 16 8 26 8 35 1 9 -8 28 -3
68 17 68 34 66 33 94 15z m-6948 -2060 c3 -8 3 -19 -1 -25 -10 -16 -35 7 -28
26 7 18 22 18 29 -1z m14194 -7596 c0 -15 -30 -23 -42 -11 -6 6 -7 15 -4 20 7
12 46 4 46 -9z"/>
<path d="M6813 12350 c-31 -13 -30 -51 2 -88 20 -24 35 -31 78 -35 54 -6 125
-19 192 -36 22 -6 54 -13 70 -17 17 -4 35 -11 41 -16 7 -4 25 -8 40 -7 16 1
52 -4 79 -11 28 -6 77 -16 110 -21 33 -6 83 -14 110 -20 28 -6 75 -14 105 -19
60 -9 171 -39 239 -64 24 -9 53 -16 64 -16 11 0 38 -8 61 -19 74 -33 143 -51
197 -51 32 0 59 -6 69 -15 12 -11 44 -15 121 -16 57 -1 122 -6 144 -11 22 -6
76 -16 120 -24 121 -20 165 -30 178 -43 6 -6 28 -11 48 -11 41 0 115 -24 139
-44 19 -18 93 -38 146 -41 22 -1 64 -8 92 -15 40 -11 57 -11 77 -2 19 9 38 9
71 2 30 -7 51 -7 64 0 28 15 83 12 108 -6 18 -13 53 -17 160 -18 166 -3 182 1
182 48 0 28 -6 38 -32 54 -29 16 -55 19 -198 21 -91 1 -199 6 -240 11 -41 6
-109 12 -150 15 -41 3 -91 11 -110 19 -48 18 -127 38 -175 44 -22 2 -47 10
-55 17 -8 7 -28 15 -45 18 -64 12 -131 30 -141 38 -6 5 -49 13 -96 18 -47 4
-92 12 -99 17 -8 5 -61 12 -119 16 -58 3 -136 14 -175 23 -38 9 -95 20 -125
25 -30 5 -73 14 -95 20 -22 6 -53 15 -70 19 -16 5 -58 20 -92 35 -34 14 -72
26 -83 26 -12 0 -31 5 -43 12 -12 6 -42 15 -67 19 -25 4 -88 15 -140 24 -52 8
-118 17 -145 20 -28 2 -71 11 -95 20 -25 9 -66 18 -93 20 -26 1 -58 10 -72 19
-13 9 -35 16 -49 16 -13 0 -51 6 -83 14 -78 20 -193 28 -220 16z"/>
<path d="M5247 11173 c-4 -3 -24 -8 -45 -9 -68 -5 -111 -16 -123 -30 -6 -8
-17 -14 -23 -14 -6 0 -19 -8 -27 -18 -9 -11 -26 -26 -39 -35 -21 -14 -24 -28
-31 -123 l-9 -106 43 -81 c40 -75 47 -83 107 -115 56 -30 73 -35 134 -34 45 0
78 -5 90 -14 28 -19 158 -19 196 1 32 16 50 43 50 73 0 10 15 36 34 58 33 38
34 41 29 110 -4 56 -2 72 11 83 27 23 18 58 -35 131 -45 61 -56 70 -82 70 -35
0 -114 27 -138 47 -16 13 -130 19 -142 6z"/>
<path d="M6732 10028 c-7 -7 -12 -18 -12 -24 0 -7 -12 -20 -27 -29 -39 -23
-73 -80 -73 -120 0 -18 -8 -47 -17 -63 -16 -29 -16 -32 0 -66 9 -20 14 -42 11
-49 -6 -17 35 -54 66 -59 16 -2 26 -10 28 -23 7 -48 13 -65 23 -65 6 0 25 -12
42 -26 24 -21 38 -25 66 -21 97 15 130 25 157 50 16 15 32 27 36 27 5 0 8 17
8 38 0 20 7 50 16 67 9 17 13 43 10 60 -2 16 1 57 8 90 l13 60 -33 40 c-71 85
-85 95 -139 97 -97 3 -111 5 -132 17 -27 14 -36 14 -51 -1z"/>
<path d="M4865 9761 c-72 -7 -159 -47 -163 -76 -2 -11 -11 -26 -20 -33 -11 -8
-16 -26 -16 -53 1 -38 -1 -42 -33 -56 -27 -11 -33 -18 -27 -31 4 -9 8 -38 9
-63 0 -43 4 -50 59 -100 32 -30 64 -57 71 -61 6 -4 24 -25 40 -47 21 -31 36
-42 64 -46 20 -4 45 -10 57 -15 11 -4 27 -4 34 0 8 5 24 3 39 -4 32 -17 136
-9 152 10 6 8 19 14 28 14 9 0 25 7 35 15 11 8 34 15 52 15 18 0 44 4 58 10
23 8 26 15 26 54 0 26 6 48 15 56 20 17 20 140 0 197 -17 49 -74 133 -90 133
-11 0 -34 11 -126 62 -38 21 -59 25 -125 25 -43 -1 -106 -3 -139 -6z"/>
</g>
</svg>
