<?xml version="1.0" standalone="no"?>
<!DOCTYPE svg PUBLIC "-//W3C//DTD SVG 20010904//EN"
 "http://www.w3.org/TR/2001/REC-SVG-20010904/DTD/svg10.dtd">
<svg version="1.0" xmlns="http://www.w3.org/2000/svg"
 width="1800.000000pt" height="1800.000000pt" viewBox="0 0 1800.000000 1800.000000"
 preserveAspectRatio="xMidYMid meet">
<g transform="translate(0.000000,1800.000000) scale(0.100000,-0.100000)"
fill="#000000" stroke="none">
<path d="M6568 14625 c-21 -12 -37 -13 -79 -5 -92 18 -117 13 -181 -31 -62
-42 -133 -67 -224 -78 -28 -4 -63 -16 -79 -26 -70 -50 -144 -71 -159 -46 -15
23 -46 17 -83 -15 -21 -19 -48 -34 -61 -34 -15 0 -29 -10 -39 -28 -11 -20 -32
-32 -77 -46 -33 -11 -77 -31 -96 -46 -19 -15 -45 -30 -56 -34 -12 -4 -29 -15
-39 -26 -11 -12 -31 -20 -50 -20 -18 0 -43 -8 -56 -17 -36 -27 -81 -49 -110
-56 -14 -4 -46 -25 -71 -47 -33 -29 -55 -40 -78 -40 -41 0 -65 -13 -120 -65
-25 -24 -70 -56 -100 -71 -70 -36 -154 -98 -175 -130 -9 -14 -36 -34 -61 -44
-32 -14 -48 -28 -55 -49 -8 -21 -39 -51 -107 -98 -52 -37 -108 -80 -123 -95
-15 -16 -34 -28 -41 -28 -15 0 -47 -30 -79 -72 -11 -15 -42 -41 -69 -59 -28
-18 -50 -35 -50 -39 0 -10 -102 -113 -130 -131 -14 -9 -34 -34 -45 -55 -28
-55 -56 -84 -82 -84 -21 0 -45 -26 -113 -126 -34 -49 -51 -66 -88 -86 -18 -10
-39 -33 -49 -55 -9 -21 -29 -51 -43 -68 -15 -16 -34 -57 -44 -90 -10 -33 -30
-76 -45 -95 -32 -42 -60 -99 -61 -122 0 -10 -14 -33 -30 -52 -21 -23 -32 -49
-37 -82 -3 -27 -17 -73 -30 -102 -13 -29 -23 -66 -23 -82 0 -16 -4 -31 -9 -34
-4 -3 -11 -23 -14 -44 -4 -24 -18 -49 -37 -67 -16 -16 -30 -39 -30 -51 0 -13
-11 -40 -25 -60 -18 -26 -25 -50 -25 -83 0 -26 -7 -56 -15 -67 -8 -12 -30 -54
-50 -95 -20 -41 -49 -84 -63 -96 -24 -20 -28 -32 -34 -110 -6 -91 -33 -255
-49 -309 -5 -17 -9 -78 -9 -135 0 -64 -4 -109 -11 -116 -10 -10 -13 -68 -20
-473 -1 -92 9 -238 18 -260 6 -14 19 -52 29 -85 10 -33 24 -67 30 -75 26 -32
37 -95 24 -134 -9 -28 -9 -43 1 -70 9 -25 10 -41 2 -58 -14 -31 -10 -165 6
-208 7 -19 23 -53 34 -76 13 -28 18 -51 14 -72 -5 -24 0 -39 25 -73 25 -35 31
-53 32 -99 1 -42 8 -64 24 -85 14 -17 22 -42 22 -65 0 -24 7 -43 20 -55 11
-10 20 -28 20 -39 1 -12 14 -39 30 -61 16 -22 37 -51 47 -64 9 -13 17 -40 17
-60 1 -24 10 -50 27 -72 14 -19 38 -55 53 -81 15 -26 58 -71 97 -103 82 -66
92 -66 187 -4 68 44 74 45 92 24 26 -31 114 -9 152 39 11 13 18 39 18 67 0 37
-5 50 -30 74 -21 20 -30 38 -30 61 0 34 -31 112 -63 158 -39 55 -92 295 -80
358 6 34 -24 132 -47 153 -12 11 -20 31 -20 49 0 17 -7 40 -15 50 -9 12 -15
42 -15 74 0 30 -7 68 -14 85 -8 18 -17 61 -19 97 -2 36 -18 125 -36 198 -17
73 -31 155 -31 181 0 27 -8 69 -18 93 -29 66 -34 120 -16 147 11 15 14 32 9
54 -3 18 -5 48 -3 67 3 38 3 193 0 225 -1 11 3 49 8 85 6 36 15 151 21 255 7
125 15 197 23 210 8 12 14 43 14 70 0 28 7 78 16 111 9 34 16 71 16 82 0 11 6
25 14 31 8 7 17 28 21 49 4 20 25 72 47 117 56 111 85 183 95 237 3 15 11 33
19 39 8 6 14 20 14 31 0 24 13 49 56 105 19 25 34 54 34 65 0 11 13 37 29 57
15 20 38 54 49 77 12 23 32 48 46 58 14 9 26 22 26 30 0 7 12 31 26 52 15 21
35 66 46 99 11 33 31 71 44 85 13 14 27 41 30 60 4 19 22 52 41 73 18 20 33
42 33 47 0 6 10 20 22 32 12 12 33 44 47 72 l26 51 70 5 69 5 14 40 c33 96 46
117 81 133 23 12 43 33 61 67 23 42 33 51 61 56 40 6 45 9 121 66 31 24 59 52
63 62 3 12 33 29 83 48 67 25 77 32 80 55 3 26 25 51 61 72 11 6 44 27 73 47
49 33 173 79 214 79 9 0 63 26 118 58 56 32 117 66 136 75 56 28 79 43 103 64
34 32 59 41 94 36 25 -4 40 1 64 21 19 16 43 26 63 26 20 0 40 8 51 20 10 11
30 20 45 20 14 0 35 7 46 15 25 19 56 19 99 -2 33 -16 38 -16 86 1 48 18 52
18 90 0 35 -15 50 -16 112 -7 62 8 78 7 115 -9 58 -24 101 -23 170 6 31 13 98
38 149 56 l92 31 84 -15 c46 -9 110 -16 143 -16 32 0 77 -5 99 -10 22 -6 90
-14 152 -19 61 -5 121 -14 132 -20 11 -7 84 -11 175 -11 110 0 167 -4 193 -14
76 -29 89 -28 116 3 52 62 143 77 224 37 26 -14 81 -34 121 -46 64 -19 79 -21
115 -10 53 15 67 15 152 -5 39 -9 93 -20 121 -24 29 -4 58 -12 65 -18 26 -20
89 -23 131 -6 51 20 107 5 160 -43 45 -40 81 -59 130 -68 21 -4 45 -14 54 -24
10 -9 39 -33 66 -53 26 -20 57 -48 68 -62 20 -25 24 -26 163 -29 l143 -3 49
-36 c28 -19 65 -42 84 -49 52 -21 91 -58 91 -88 0 -14 14 -47 31 -74 29 -45
35 -49 68 -48 67 3 70 2 81 -40 9 -33 15 -40 35 -40 67 0 120 -43 141 -116 13
-47 19 -53 70 -79 31 -16 74 -43 96 -62 22 -18 56 -38 77 -44 20 -6 57 -26 82
-45 24 -19 62 -46 84 -61 22 -15 58 -43 81 -63 22 -19 52 -45 67 -57 14 -12
31 -41 37 -65 7 -24 17 -52 24 -63 7 -11 16 -38 20 -60 4 -22 17 -50 29 -63
21 -22 41 -79 55 -153 4 -20 23 -55 42 -78 19 -23 51 -60 71 -84 20 -23 40
-58 43 -77 9 -44 84 -195 113 -228 12 -13 25 -34 29 -46 4 -11 19 -39 33 -61
35 -55 53 -102 58 -155 4 -52 42 -178 54 -186 5 -3 9 -22 9 -43 0 -20 4 -41 9
-46 6 -6 13 -46 17 -90 4 -50 15 -97 29 -125 12 -25 25 -71 29 -103 3 -32 13
-71 21 -86 7 -15 16 -50 19 -77 18 -188 47 -345 71 -390 28 -53 28 -80 -2
-198 -8 -32 -15 -100 -17 -150 -1 -50 -7 -111 -13 -136 -25 -96 -35 -153 -44
-243 -8 -86 -23 -167 -48 -262 -6 -22 -11 -57 -11 -78 0 -22 -6 -51 -14 -65
-8 -15 -22 -56 -31 -92 -10 -36 -29 -89 -42 -119 -14 -30 -23 -64 -20 -78 3
-17 -3 -29 -19 -42 -46 -36 -30 -108 45 -201 11 -14 21 -39 21 -56 0 -22 8
-36 30 -52 16 -12 33 -22 38 -22 5 0 15 -7 22 -15 7 -8 20 -15 30 -15 9 0 30
-10 46 -22 27 -22 65 -35 178 -60 37 -9 53 -8 68 1 17 10 27 9 62 -7 71 -35
119 -51 186 -63 36 -6 74 -20 86 -30 12 -12 35 -19 58 -19 20 0 54 -9 74 -20
79 -42 161 -78 193 -85 56 -10 112 -37 147 -69 36 -34 38 -42 16 -67 -11 -12
-14 -27 -10 -43 5 -19 17 -28 61 -41 44 -12 58 -22 71 -48 9 -17 36 -54 60
-80 25 -28 41 -54 37 -62 -3 -8 7 -29 21 -46 14 -17 26 -35 26 -41 0 -5 13
-27 29 -47 16 -20 30 -45 32 -56 3 -11 13 -21 23 -23 42 -8 94 -53 100 -85 5
-24 36 -61 123 -145 64 -62 127 -115 139 -118 12 -3 36 -25 53 -49 43 -61 100
-86 176 -80 33 3 64 10 69 15 6 6 29 10 52 10 37 0 45 4 61 30 10 17 29 33 43
36 77 17 97 37 78 79 -9 21 -7 30 17 65 l28 40 -18 47 c-12 33 -37 65 -77 102
-32 30 -58 61 -58 69 0 8 11 35 24 61 13 25 31 65 41 88 10 23 26 50 36 59 11
10 19 23 19 30 0 13 65 74 80 74 5 0 24 16 42 36 18 20 52 56 75 82 l42 46
-25 22 c-13 13 -24 28 -24 33 0 14 87 51 121 51 15 0 51 14 79 30 28 17 58 30
66 30 8 0 17 8 21 18 18 55 46 100 68 110 14 6 38 33 54 59 38 62 77 81 120
58 17 -8 31 -19 31 -23 0 -4 13 -22 30 -40 28 -31 33 -32 87 -29 32 2 73 12
90 21 42 21 77 20 147 -4 40 -13 70 -17 105 -13 43 5 50 3 74 -23 14 -15 29
-44 32 -65 4 -24 18 -47 41 -67 33 -30 35 -33 28 -80 -5 -42 -2 -56 20 -94 21
-36 26 -58 26 -109 0 -35 -5 -84 -11 -109 -8 -34 -7 -53 5 -85 27 -75 35 -140
30 -235 -3 -52 -6 -140 -8 -195 -4 -105 -28 -213 -63 -275 -10 -19 -27 -57
-37 -85 -16 -44 -59 -136 -102 -217 -8 -16 -20 -40 -28 -55 -7 -16 -25 -50
-39 -78 -89 -173 -127 -259 -127 -284 0 -11 -14 -46 -30 -79 -17 -34 -30 -74
-30 -89 0 -32 -23 -111 -41 -145 -7 -13 -16 -55 -19 -95 -6 -60 -11 -77 -36
-105 -17 -19 -36 -50 -43 -69 -27 -70 -44 -115 -57 -146 -8 -17 -14 -37 -14
-45 0 -24 -41 -123 -61 -143 -10 -12 -24 -36 -30 -55 -7 -19 -24 -53 -37 -75
-14 -22 -33 -60 -42 -85 -19 -52 -115 -176 -159 -205 -17 -11 -37 -38 -46 -62
-9 -24 -32 -62 -52 -85 -43 -52 -116 -198 -139 -277 -13 -49 -14 -69 -6 -104
6 -23 9 -53 5 -65 -6 -26 30 -72 57 -72 9 0 25 -9 34 -19 15 -16 15 -22 4 -40
-17 -28 -2 -42 53 -42 55 -1 181 16 233 31 29 9 45 9 67 0 24 -10 42 -7 126
20 69 22 113 30 147 28 l49 -3 44 60 c24 33 52 73 61 89 9 16 32 46 50 66 17
21 32 46 32 57 0 10 7 28 15 39 8 10 15 29 15 42 0 13 6 35 14 50 8 15 17 54
21 87 4 33 12 68 16 77 5 10 14 41 19 69 6 29 24 82 41 118 31 66 79 204 79
229 0 7 9 38 19 70 11 31 23 86 27 122 3 36 12 72 19 80 6 8 27 58 45 110 43
123 49 135 134 265 64 98 74 119 89 195 9 47 17 99 17 115 1 61 21 87 85 110
58 22 61 25 95 93 19 38 41 76 48 85 22 25 40 109 41 182 0 39 6 86 14 105 8
19 18 64 22 100 4 36 12 76 16 89 6 15 4 44 -6 86 -14 56 -14 69 0 136 19 95
19 111 -6 232 -11 56 -18 119 -16 140 3 20 -1 68 -9 105 -18 84 -18 116 0 150
25 50 27 105 6 168 -11 33 -20 87 -20 122 0 34 -7 79 -15 99 -10 25 -14 51 -9
79 4 31 1 51 -14 80 -22 42 -128 154 -147 154 -6 0 -27 16 -46 36 -45 48 -103
84 -133 84 -27 0 -72 47 -82 86 -8 31 -42 49 -118 63 -33 6 -78 22 -101 35
-28 17 -46 22 -56 15 -8 -5 -22 -9 -33 -9 -15 0 -17 5 -12 33 8 45 -14 95 -62
139 -33 29 -50 37 -118 47 -43 7 -91 20 -105 28 -25 15 -30 14 -80 -14 -54
-31 -111 -40 -274 -46 -68 -3 -144 -41 -157 -79 -10 -28 -13 -30 -52 -24 -129
20 -131 20 -190 -18 -31 -20 -59 -43 -63 -52 -3 -8 -29 -28 -57 -44 -43 -24
-57 -40 -86 -97 -41 -78 -81 -107 -166 -118 -66 -8 -133 -44 -173 -93 -56 -68
-61 -72 -85 -72 -15 0 -38 -15 -61 -39 -33 -35 -40 -38 -61 -29 -30 14 -50 -2
-60 -45 -9 -45 -22 -57 -58 -57 -37 0 -89 -30 -112 -65 -9 -14 -24 -25 -33
-25 -32 0 -102 41 -113 65 -6 14 -34 38 -62 54 -28 16 -64 43 -80 60 -17 17
-35 31 -42 31 -6 0 -33 18 -59 39 -26 22 -59 42 -72 46 -40 10 -94 49 -157
114 -33 34 -66 61 -73 61 -20 0 -93 51 -93 65 0 18 -67 75 -87 75 -9 0 -31 11
-49 25 -18 14 -41 25 -51 25 -11 0 -32 14 -49 31 -16 17 -45 39 -64 48 -97 44
-114 83 -81 190 11 38 21 78 21 89 0 11 7 36 15 55 8 20 17 78 21 129 17 289
28 388 53 462 20 60 22 73 12 108 -9 30 -9 48 -1 74 7 20 9 52 6 72 -3 20 -10
69 -17 107 -6 39 -13 90 -15 115 -2 25 -8 92 -15 150 -6 58 -13 141 -15 185
-8 189 -22 342 -34 367 -10 22 -10 33 0 57 14 36 2 102 -37 188 -12 30 -23 67
-23 83 0 16 -5 32 -11 36 -7 4 -9 21 -6 40 4 21 1 39 -7 47 -24 24 -40 62 -47
112 -8 56 -26 107 -51 145 -9 14 -22 48 -29 75 -6 28 -17 65 -25 83 -8 18 -17
51 -20 75 -4 23 -17 67 -29 97 -13 30 -26 67 -29 81 -3 14 -23 46 -45 71 -22
24 -43 58 -47 74 -4 16 -13 38 -20 49 -8 11 -14 36 -14 55 0 29 -6 41 -30 58
-22 17 -30 31 -30 53 0 19 -9 38 -24 52 -13 12 -34 42 -47 66 -13 24 -33 60
-44 80 -10 20 -24 54 -30 76 -10 40 -10 40 -74 50 -63 10 -64 11 -84 55 -66
150 -71 156 -118 146 -42 -8 -62 5 -97 63 -34 55 -85 81 -120 62 -15 -8 -28
-7 -51 5 -21 10 -36 12 -48 6 -21 -11 -53 -1 -72 21 -9 12 -10 25 -3 51 10 35
9 37 -39 77 -27 22 -49 49 -49 58 0 9 -6 26 -14 36 -12 17 -17 18 -39 6 -29
-16 -43 -10 -128 56 -34 27 -60 55 -64 71 -4 15 -13 35 -22 44 -8 9 -22 32
-31 50 -15 28 -23 34 -62 38 -54 7 -98 34 -102 63 -3 19 -11 23 -58 27 -50 5
-56 8 -71 38 -18 39 -35 52 -69 52 -39 0 -126 60 -156 108 -17 27 -34 42 -48
43 -12 0 -50 10 -86 22 -48 16 -70 30 -85 53 -34 53 -81 78 -155 80 -74 3
-144 17 -183 37 -17 9 -44 13 -70 10 -38 -5 -48 -1 -87 31 -65 52 -108 70
-165 69 -42 -1 -55 3 -80 26 -55 50 -81 61 -147 61 -37 0 -72 6 -83 14 -35 24
-94 38 -158 38 -115 0 -123 -2 -170 -33 -56 -37 -75 -35 -150 17 -45 31 -58
35 -96 31 -30 -3 -57 1 -88 15 -53 23 -121 18 -164 -13 -15 -10 -38 -19 -51
-19 -12 0 -54 -11 -92 -24 -66 -23 -72 -24 -115 -9 -25 8 -50 19 -56 23 -5 4
-39 10 -73 14 -35 3 -68 9 -74 12 -6 4 -27 8 -47 9 -20 1 -55 8 -78 16 -34 10
-58 10 -135 0 -51 -7 -106 -14 -123 -16 -16 -2 -51 -9 -76 -15 -49 -12 -126
-5 -289 24 -47 9 -85 16 -85 15 0 0 -12 -6 -27 -14z m5390 -5703 c-2 -9 -11
-18 -21 -20 -19 -4 -32 20 -23 43 8 22 48 0 44 -23z"/>
<path d="M8085 10241 c-129 -8 -151 -18 -273 -119 -81 -66 -88 -94 -66 -247 8
-49 14 -113 14 -142 0 -60 44 -183 83 -235 17 -22 58 -50 114 -78 162 -80 146
-76 195 -57 24 9 64 17 89 17 39 0 48 4 67 30 12 16 22 33 22 38 0 5 18 23 40
41 29 23 40 39 40 59 0 15 9 44 20 65 17 32 20 58 21 180 2 133 0 146 -25 207
-24 59 -88 137 -173 211 -19 17 -60 40 -65 37 -2 -1 -48 -4 -103 -7z"/>
<path d="M5171 9944 c-66 -25 -108 -51 -152 -94 -15 -14 -34 -31 -42 -38 -17
-13 -29 -49 -46 -148 -21 -116 -12 -173 39 -250 15 -23 35 -66 45 -95 10 -30
30 -70 46 -90 15 -19 31 -47 34 -62 7 -27 37 -54 123 -112 31 -21 55 -29 80
-27 21 1 64 3 97 5 75 4 105 18 134 65 12 20 41 50 63 66 37 27 39 31 34 65
-11 64 -3 120 22 159 11 16 13 34 7 65 -4 23 -8 63 -9 89 -1 29 -8 54 -20 66
-19 22 -57 87 -80 137 -30 65 -179 197 -241 214 -51 14 -58 13 -134 -15z"/>
<path d="M7375 8694 c-14 -11 -39 -15 -80 -13 -35 1 -84 -5 -117 -15 -42 -13
-62 -14 -77 -7 -10 6 -43 11 -72 10 -30 0 -92 2 -139 4 -47 1 -89 0 -95 -3
-28 -14 -85 -33 -125 -40 -121 -23 -140 -37 -140 -107 0 -42 64 -151 93 -158
63 -16 240 6 299 36 24 12 55 11 63 -1 9 -15 76 -12 105 5 14 8 50 14 81 15
32 0 63 6 75 14 14 11 35 13 75 9 32 -3 64 -1 76 5 15 8 27 7 48 -4 22 -11 36
-12 58 -4 39 13 74 4 120 -33 29 -22 36 -34 31 -49 -3 -11 -7 -48 -9 -82 -2
-33 -10 -78 -19 -98 -9 -21 -16 -47 -16 -58 0 -32 -45 -112 -82 -146 -69 -63
-194 -152 -224 -158 -17 -4 -46 -22 -64 -41 -30 -31 -40 -35 -83 -35 -35 0
-65 -8 -106 -30 -38 -20 -71 -30 -101 -30 -119 0 -178 -6 -193 -19 -21 -17
-23 -84 -2 -101 8 -7 17 -28 21 -49 8 -45 30 -81 50 -81 8 0 26 7 39 16 18 11
35 14 57 9 58 -12 204 -3 221 14 6 6 36 11 66 11 33 1 64 7 75 15 14 11 34 13
70 9 44 -5 59 -2 110 26 33 18 82 47 109 66 27 19 61 34 76 34 34 0 45 8 66
50 10 19 36 53 59 75 43 43 86 109 122 186 12 26 27 50 33 53 6 4 11 19 11 34
0 15 7 40 15 56 8 15 15 36 15 45 0 9 5 22 11 28 7 7 12 77 15 182 l4 172 -45
44 c-25 24 -45 48 -45 53 0 5 -12 18 -27 28 -23 15 -44 18 -110 16 -68 -3 -89
1 -125 19 -35 18 -59 22 -125 21 -46 0 -85 4 -88 9 -9 14 -37 10 -60 -7z"/>
<path d="M5420 8674 c-25 -29 -48 -35 -93 -23 -39 9 -51 8 -108 -16 -35 -14
-80 -30 -99 -35 -19 -5 -61 -18 -92 -29 -53 -18 -171 -33 -243 -31 -99 3 -135
0 -163 -14 -17 -9 -51 -16 -76 -16 -62 0 -153 -39 -215 -92 -28 -25 -41 -29
-85 -28 -120 4 -133 1 -164 -30 -27 -27 -37 -30 -91 -30 -61 0 -117 -18 -156
-51 -24 -20 -61 -29 -135 -36 -40 -3 -66 -13 -95 -33 -22 -16 -58 -39 -80 -51
-22 -12 -54 -32 -72 -45 -18 -14 -46 -24 -64 -24 -35 0 -94 -32 -103 -55 -4
-11 -13 -14 -31 -9 -22 5 -27 1 -42 -32 -10 -23 -17 -68 -18 -109 -1 -38 -6
-79 -13 -91 -7 -14 -8 -39 -2 -80 14 -95 29 -163 40 -184 5 -10 10 -36 10 -58
0 -27 6 -45 21 -58 35 -31 65 -86 72 -130 4 -22 23 -89 42 -148 27 -82 35
-124 35 -174 -2 -158 28 -490 49 -545 6 -16 11 -55 11 -87 0 -32 5 -80 11
-107 10 -40 9 -59 -5 -105 -21 -72 -21 -70 10 -104 l27 -28 -47 -41 c-25 -22
-46 -43 -46 -48 0 -4 -16 -30 -35 -58 -38 -56 -55 -105 -55 -162 0 -26 -6 -42
-22 -55 -72 -56 -88 -79 -88 -125 0 -29 -7 -53 -20 -70 -25 -31 -27 -116 -4
-152 12 -18 13 -31 5 -62 -5 -21 -13 -83 -16 -138 -6 -86 -5 -103 9 -114 9 -7
16 -18 16 -23 0 -5 9 -29 20 -54 11 -24 20 -61 20 -81 -1 -21 3 -62 8 -91 8
-52 17 -64 73 -98 23 -15 52 -54 103 -137 10 -16 31 -36 48 -45 16 -10 51 -38
78 -63 47 -46 99 -70 181 -83 25 -5 54 -23 97 -65 52 -49 62 -63 62 -92 0 -21
12 -51 30 -78 20 -30 30 -56 30 -83 0 -21 9 -55 20 -75 11 -21 20 -54 20 -73
0 -19 7 -57 15 -84 8 -27 15 -62 15 -78 0 -16 11 -51 25 -78 14 -27 25 -62 25
-77 0 -16 6 -37 14 -48 7 -11 16 -37 20 -57 4 -20 21 -58 39 -85 19 -26 43
-69 56 -95 12 -25 28 -49 36 -52 9 -3 15 -18 15 -35 0 -20 9 -37 31 -55 27
-23 39 -26 105 -26 44 0 90 6 111 15 45 19 72 19 93 0 9 -8 31 -15 50 -16 19
-1 51 -6 70 -11 28 -8 47 -5 90 11 61 23 126 27 165 9 23 -10 31 -8 73 22 37
27 58 34 103 37 70 3 113 21 164 68 31 28 45 35 65 30 74 -18 89 -17 153 14
48 23 82 32 138 36 41 3 92 10 114 16 56 15 74 13 99 -10 51 -48 127 -53 211
-15 55 26 60 26 124 14 49 -9 73 -9 94 -1 16 6 52 11 82 11 62 0 85 7 85 26 0
19 33 34 75 34 19 0 47 7 61 16 14 10 43 16 67 16 61 -1 135 16 188 44 27 14
64 24 87 24 42 0 125 40 152 73 17 21 69 36 155 46 77 8 111 31 118 78 4 19
14 44 23 54 16 18 19 18 35 3 16 -14 20 -14 51 0 19 9 52 17 74 17 21 0 60 8
85 16 43 15 48 15 70 -1 32 -22 33 -21 79 20 43 39 34 38 170 16 35 -6 61 -5
71 1 10 6 25 5 47 -7 17 -9 37 -16 45 -16 7 0 35 -20 60 -45 31 -30 57 -45 75
-46 62 -2 118 3 129 13 19 15 73 -1 113 -34 58 -49 144 -74 160 -47 17 26 64
12 101 -30 62 -70 106 -94 165 -92 37 1 55 -3 65 -15 7 -9 38 -27 67 -40 68
-30 174 -33 212 -7 17 12 46 17 104 17 69 1 86 5 110 24 35 27 63 28 71 3 3
-11 16 -26 29 -35 13 -8 34 -31 46 -50 12 -20 27 -36 34 -36 6 0 32 20 56 45
47 48 74 55 113 31 37 -22 160 -41 185 -27 12 6 22 18 22 25 0 32 97 78 193
92 41 5 53 3 87 -20 22 -15 62 -29 88 -33 26 -3 56 -10 67 -16 11 -6 54 -11
96 -12 86 -3 112 -13 134 -55 13 -25 22 -30 51 -30 19 0 44 -5 55 -11 14 -7
29 -7 54 2 30 11 37 11 47 -3 8 -10 37 -18 76 -22 36 -4 78 -16 99 -29 26 -15
56 -22 97 -23 85 -2 98 2 124 42 27 41 77 74 112 74 14 0 45 14 70 30 25 16
50 30 56 30 6 0 17 7 24 15 17 21 42 19 90 -6 45 -24 100 -21 130 6 9 8 32 15
52 15 20 0 44 8 57 19 32 28 78 33 146 15 201 -52 259 -62 269 -45 4 6 17 11
29 11 31 0 141 54 190 93 38 29 47 32 109 30 37 -1 80 -9 97 -17 16 -9 34 -16
39 -16 5 0 33 23 62 50 46 44 58 50 94 50 23 0 47 5 54 12 7 7 33 15 59 18 40
4 49 9 57 32 8 21 6 32 -7 46 -9 10 -17 26 -17 35 0 29 31 19 66 -20 l32 -38
34 32 c33 31 86 50 158 55 30 3 38 9 56 43 20 40 21 40 85 43 35 2 90 -2 122
-8 55 -11 60 -10 121 20 71 35 132 104 142 161 12 65 28 79 90 79 45 0 63 5
94 27 51 37 61 62 66 163 4 82 3 86 -23 114 -42 44 -63 79 -63 102 0 34 -69
133 -99 142 -60 17 -174 7 -251 -22 -41 -16 -82 -35 -91 -42 -8 -8 -24 -14
-35 -14 -37 -1 -113 -58 -135 -102 -30 -60 -47 -77 -85 -84 -22 -4 -49 -23
-81 -57 l-47 -51 -76 -2 c-41 -2 -101 -3 -132 -3 -55 0 -60 -2 -106 -45 -45
-42 -54 -46 -99 -46 -37 0 -60 -7 -88 -25 -21 -15 -45 -23 -54 -20 -11 3 -25
-3 -36 -15 -32 -36 -78 -58 -135 -65 -30 -4 -84 -18 -119 -31 -35 -13 -71 -24
-80 -24 -10 0 -50 -16 -90 -36 -67 -33 -78 -35 -130 -29 -51 6 -65 3 -123 -24
-72 -34 -100 -37 -138 -16 -14 8 -42 14 -64 15 -31 0 -44 -6 -70 -34 -56 -59
-133 -72 -178 -29 -27 26 -28 26 -95 14 -37 -7 -84 -15 -103 -18 -19 -3 -51
-16 -70 -29 -35 -24 -74 -31 -84 -15 -8 12 -99 41 -131 41 -14 0 -36 5 -48 11
-11 7 -51 11 -88 10 -63 -2 -68 -1 -71 21 -4 31 -92 88 -136 88 -19 0 -61 7
-93 15 -33 9 -64 13 -70 9 -5 -3 -46 -7 -90 -8 -76 -2 -81 -4 -117 -38 -36
-35 -40 -36 -119 -38 -46 -1 -102 -2 -125 -1 -24 0 -76 0 -117 0 -40 1 -80 6
-87 12 -11 9 -29 9 -72 0 -31 -6 -84 -16 -117 -23 -157 -30 -230 -15 -249 50
-12 41 -55 66 -103 59 -26 -5 -39 0 -63 19 -27 23 -35 25 -86 18 -57 -7 -112
4 -166 32 -14 8 -49 14 -77 14 -30 0 -62 7 -76 16 -17 11 -38 14 -71 11 -69
-8 -127 28 -139 84 -8 34 -22 36 -82 13 -35 -14 -49 -15 -69 -5 -35 16 -51 14
-83 -10 -36 -26 -65 -19 -86 21 -8 16 -24 34 -34 40 -26 14 -77 13 -100 -2
-15 -9 -25 -9 -46 0 -14 7 -66 12 -115 12 l-89 0 -3 -41 c-3 -37 -7 -43 -48
-65 -25 -13 -53 -35 -63 -49 -41 -55 -68 -52 -152 15 -36 29 -45 32 -92 27
-46 -5 -57 -2 -90 22 -21 16 -49 41 -63 56 -26 28 -133 85 -161 85 -8 0 -30
16 -49 35 -19 19 -40 35 -47 35 -7 0 -28 13 -46 30 -19 16 -41 30 -49 30 -8 0
-27 13 -43 30 -16 17 -35 30 -43 30 -26 0 -82 66 -82 98 0 46 -21 94 -52 120
-58 49 -70 77 -73 170 -2 59 2 102 13 134 15 44 14 49 -1 66 -30 33 -17 152
24 212 9 14 20 36 24 50 4 14 16 36 26 49 11 13 19 30 19 38 0 8 15 20 33 28
32 13 117 98 117 116 0 5 8 9 17 9 9 0 28 10 42 23 15 13 52 32 83 42 54 18
60 18 126 2 93 -23 94 -22 142 18 49 41 70 43 117 14 34 -21 36 -21 71 -5 46
23 52 16 77 -99 12 -58 24 -89 34 -92 9 -2 36 -14 60 -25 l43 -20 69 20 c56
16 76 18 104 9 32 -9 38 -8 72 20 21 16 40 41 43 54 5 20 14 25 60 31 61 9
130 3 173 -14 21 -8 34 -8 50 1 12 6 45 16 72 21 28 5 62 12 76 15 19 5 38 -1
69 -20 42 -26 45 -27 96 -15 29 7 73 10 99 8 44 -5 46 -5 60 28 8 19 19 34 25
34 6 0 34 17 63 38 72 53 173 97 254 111 23 4 53 15 67 24 14 9 32 17 39 17
33 0 64 68 46 102 -8 15 -5 30 10 64 12 24 21 49 21 56 0 7 9 27 20 43 28 42
26 52 -21 99 -39 38 -45 41 -118 48 -89 8 -241 -1 -258 -14 -9 -7 -23 -4 -45
9 -50 29 -75 33 -121 18 -23 -8 -53 -17 -67 -19 -14 -3 -48 -20 -76 -38 -49
-32 -55 -33 -140 -31 -161 3 -307 20 -364 41 -37 14 -79 21 -128 21 -51 0 -87
7 -119 21 -25 11 -66 20 -92 20 -33 0 -57 7 -83 25 -20 14 -40 25 -44 25 -12
0 -33 -34 -34 -53 0 -10 -6 -20 -14 -23 -14 -5 -92 31 -102 47 -10 17 -45 9
-115 -27 -67 -35 -73 -36 -109 -24 -28 9 -46 10 -71 1 -25 -8 -45 -7 -74 1
-55 16 -224 11 -252 -8 -13 -8 -23 -21 -23 -28 0 -14 -43 -27 -97 -29 -53 -1
-73 26 -73 98 0 35 -6 78 -14 96 -9 21 -11 40 -6 50 6 10 2 25 -11 45 -11 16
-24 39 -29 52 -5 12 -14 22 -19 22 -25 0 -42 63 -46 172 -3 61 -10 127 -16
146 -6 19 -9 54 -5 79 4 31 -1 72 -18 136 -38 147 -39 160 -16 237 19 65 20
73 6 117 -9 27 -23 84 -32 128 -9 44 -22 98 -29 120 -7 22 -19 87 -25 145 -11
97 -20 139 -56 245 -8 22 -18 76 -24 120 -11 76 -53 185 -72 185 -5 0 -13 11
-19 24 -7 14 -35 36 -68 52 -31 15 -68 36 -82 45 -16 11 -41 17 -71 16 -36 -2
-52 3 -70 21 -14 12 -53 33 -87 47 l-63 24 -21 -23 c-46 -48 -234 -26 -292 34
-31 32 -58 37 -100 18 -21 -9 -31 -9 -46 0 -25 16 -44 15 -59 -4z m410 -479
c9 -11 33 -15 84 -15 65 0 74 -3 104 -29 18 -17 32 -40 32 -53 0 -13 9 -49 20
-81 43 -128 72 -272 74 -367 1 -53 5 -101 9 -107 4 -6 9 -39 12 -73 4 -39 14
-78 29 -104 29 -50 39 -129 37 -295 -1 -128 10 -193 50 -276 31 -67 40 -124
23 -156 -19 -38 -19 -184 2 -240 19 -56 34 -128 40 -203 3 -32 12 -72 20 -87
7 -15 14 -50 15 -76 0 -26 6 -97 13 -158 13 -111 11 -131 -17 -195 -25 -57
-49 -133 -52 -170 -11 -106 -15 -124 -34 -144 -13 -14 -23 -46 -31 -101 -6
-44 -16 -105 -22 -135 -13 -69 -12 -170 2 -184 5 -5 10 -21 10 -34 0 -13 5
-33 12 -45 6 -12 12 -38 14 -57 1 -19 8 -55 15 -80 6 -25 16 -61 21 -81 5 -21
25 -53 47 -76 32 -31 38 -44 34 -66 -4 -22 1 -35 26 -59 17 -16 45 -58 62 -92
31 -61 67 -114 101 -148 9 -9 27 -36 38 -59 18 -35 20 -46 10 -69 -9 -21 -9
-34 -1 -48 15 -28 14 -79 -1 -91 -7 -6 -29 -23 -48 -39 -66 -54 -116 -71 -305
-102 -61 -10 -142 -40 -191 -70 -38 -24 -56 -24 -204 -1 -55 8 -135 -10 -163
-38 -16 -16 -95 -14 -153 4 -72 22 -125 19 -184 -11 -78 -39 -105 -44 -184
-34 -66 8 -75 7 -129 -17 -53 -24 -65 -26 -115 -17 -32 5 -113 6 -182 3 -74
-4 -130 -3 -137 2 -16 13 -139 257 -147 292 -4 16 -16 38 -26 50 -11 11 -22
37 -25 56 -9 54 -28 87 -105 186 -77 97 -74 91 -90 218 -8 65 -8 98 0 122 9
28 8 40 -9 74 -12 22 -21 56 -21 75 0 19 -4 38 -10 41 -5 3 -10 28 -10 54 0
27 -9 69 -20 94 -11 24 -26 78 -34 118 -8 41 -25 97 -37 124 -23 50 -25 72
-29 254 -1 56 -7 105 -15 121 -7 14 -11 38 -8 52 3 17 -3 43 -16 69 -17 31
-21 56 -19 104 1 40 -3 69 -11 79 -8 10 -16 63 -20 148 -4 73 -12 143 -19 155
-7 12 -12 36 -12 54 0 17 -6 52 -14 78 -50 160 -48 152 -42 310 3 93 10 160
18 174 20 34 17 287 -3 357 -38 127 -44 159 -44 230 0 55 -5 83 -17 103 -11
15 -18 45 -18 73 0 25 -8 74 -17 109 -17 63 -17 65 5 108 19 38 30 47 87 70
36 15 78 27 94 27 16 0 37 10 49 23 12 12 34 35 49 50 15 15 50 39 77 53 28
14 62 36 76 49 35 33 68 43 110 33 22 -5 58 -4 97 4 55 10 67 9 102 -7 39 -17
43 -17 98 0 67 21 186 30 298 23 22 -1 45 5 64 19 25 19 37 21 103 16 57 -4
81 -2 106 11 17 9 47 16 67 16 19 0 44 6 55 12 15 10 27 10 51 1 25 -10 47 -9
103 2 39 7 84 18 99 24 16 6 44 11 63 11 45 0 73 15 84 46 11 28 59 34 80 9z
m-2147 -3086 c15 -23 27 -53 27 -72 0 -17 7 -59 15 -92 28 -115 14 -218 -28
-202 -8 3 -18 20 -22 37 -4 17 -15 36 -26 43 -10 6 -19 17 -19 23 0 6 -9 19
-19 28 -17 16 -18 20 -5 44 17 34 18 74 0 132 -12 40 -12 48 2 73 22 37 42 34
75 -14z"/>
</g>
</svg>
