<?xml version="1.0" standalone="no"?>
<!DOCTYPE svg PUBLIC "-//W3C//DTD SVG 20010904//EN"
 "http://www.w3.org/TR/2001/REC-SVG-20010904/DTD/svg10.dtd">
<svg version="1.0" xmlns="http://www.w3.org/2000/svg"
 width="600.000000pt" height="600.000000pt" viewBox="0 0 600.000000 600.000000"
 preserveAspectRatio="xMidYMid meet">
<g transform="translate(0.000000,600.000000) scale(0.066667,-0.066667)"
fill="#000000" stroke="none">
<path d="M6329 8837 c-46 -48 -114 -101 -150 -119 -115 -57 -145 -87 -123
-122 47 -76 -14 -210 -146 -323 -85 -74 -166 -196 -186 -282 -15 -62 -118 -42
-135 27 -5 18 -21 37 -36 41 -57 14 -83 109 -72 261 9 131 8 140 -19 140 -88
0 -117 -242 -49 -409 44 -106 18 -216 -117 -498 -8 -17 -25 -54 -37 -83 -12
-29 -47 -79 -76 -112 l-53 -60 22 65 c42 120 48 342 11 381 -86 92 -101 253
-41 441 37 116 37 140 2 140 -40 0 -145 -297 -147 -418 -2 -60 6 -86 39 -129
98 -129 40 -492 -114 -716 -105 -153 -96 -149 -312 -124 -104 13 -280 21 -394
19 -268 -5 -261 -12 -241 211 13 148 19 170 59 220 24 30 57 76 73 102 16 26
63 95 106 153 83 113 142 266 142 367 0 71 -4 72 -68 19 -342 -289 -452 -235
-253 124 45 82 98 120 137 99 59 -31 86 26 40 85 -58 74 -139 49 -349 -106
-162 -120 -227 -82 -227 133 0 81 46 166 79 146 8 -5 11 -3 6 6 -11 18 73 96
89 82 7 -6 3 1 -8 16 -27 35 -144 34 -229 -2 -74 -32 -127 -94 -186 -218 -45
-95 -72 -101 -137 -29 -67 73 -15 267 118 438 57 74 23 84 -59 18 -76 -61
-236 -138 -264 -127 -23 9 -174 -129 -223 -204 -24 -36 -24 -34 -26 83 l-1
120 -93 -101 c-51 -55 -117 -111 -146 -125 -66 -32 -134 -94 -151 -139 -8 -20
-21 -30 -31 -24 -30 18 -7 208 37 291 26 50 33 78 22 85 -22 13 -79 -56 -162
-196 -191 -324 -215 -343 -217 -178 -2 70 6 100 40 156 46 75 51 96 26 111
-19 12 -78 -52 -157 -169 -42 -62 -62 -79 -93 -79 -143 0 -280 -215 -341 -535
-3 -18 -30 -78 -59 -134 -30 -55 -54 -118 -55 -140 -4 -155 -73 -44 -87 142
-10 128 -24 143 -66 71 -85 -146 13 -415 203 -556 56 -42 74 -102 28 -100 -22
1 -65 3 -95 5 -77 3 -147 71 -147 143 0 68 -13 74 -66 32 l-43 -35 36 -71 c19
-39 54 -85 77 -102 22 -17 58 -56 78 -88 36 -54 43 -57 117 -57 147 -1 160
-14 53 -57 -97 -38 -243 -146 -229 -168 4 -7 71 17 148 54 77 36 144 66 148
66 5 0 -11 -35 -35 -79 -24 -43 -44 -89 -44 -102 0 -33 -68 -121 -83 -108 -6
7 -7 3 -1 -7 28 -49 98 15 222 202 82 123 87 120 87 -47 l0 -142 51 -17 c42
-13 71 -46 157 -177 57 -88 129 -187 159 -220 66 -75 74 -101 65 -242 -9 -128
9 -154 128 -189 43 -13 73 -36 105 -82 26 -37 61 -67 84 -72 21 -5 53 -31 70
-57 17 -27 64 -98 103 -158 102 -157 227 -197 313 -98 54 62 52 63 211 -201
31 -52 59 -118 62 -147 4 -28 10 -76 14 -105 9 -72 -31 -112 -111 -112 -53 0
-125 -26 -227 -82 -45 -26 -212 -201 -280 -295 -104 -144 -146 -262 -149 -418
-2 -78 -8 -182 -14 -230 -11 -88 10 -219 47 -295 29 -61 52 -142 52 -186 0
-107 111 -211 222 -207 60 3 134 -64 148 -134 23 -116 262 -269 422 -269 257
0 253 -1 328 73 27 28 66 47 107 53 228 37 609 279 676 430 12 29 27 117 31
195 l9 143 60 -2 c120 -4 487 -163 575 -249 38 -37 43 -51 37 -106 -24 -222
-113 -339 -192 -252 -19 22 -38 27 -69 21 -62 -12 -78 34 -26 76 53 44 70 82
56 127 -6 22 -18 60 -25 85 -16 56 -101 56 -222 1 -102 -47 -322 -255 -322
-305 0 -51 -43 -137 -77 -155 -102 -55 10 -324 162 -392 l67 -29 141 68 c162
79 185 82 242 32 l43 -36 -90 -91 c-49 -50 -85 -91 -78 -91 31 0 -52 -101
-215 -262 -276 -273 -585 -653 -585 -721 0 -7 -9 -23 -20 -36 -12 -13 -42 -63
-69 -112 -26 -49 -61 -106 -77 -126 -16 -20 -29 -46 -29 -57 0 -11 -18 -45
-39 -77 -128 -186 -350 -741 -288 -721 10 4 36 64 58 133 72 226 184 454 278
564 36 42 66 90 66 106 0 28 134 275 174 320 12 13 21 28 21 34 0 9 41 68 161
234 111 152 426 466 469 466 27 0 31 -6 24 -41 -13 -61 -15 -187 -3 -223 5
-17 3 -77 -5 -133 -27 -194 45 -505 180 -777 90 -179 120 -220 253 -341 l123
-112 -8 -68 c-5 -37 -13 -90 -17 -118 -17 -95 43 -54 62 43 12 59 22 81 37 76
234 -67 323 -73 562 -39 443 64 826 172 930 263 16 14 55 30 86 35 141 21 459
236 598 405 43 51 82 94 88 97 53 21 25 -463 -30 -529 -11 -14 -9 -24 7 -38
61 -50 117 467 62 572 -11 22 -15 46 -8 53 67 68 174 373 201 576 11 86 29
192 38 236 10 44 14 89 9 101 -4 12 -2 22 6 22 22 0 18 41 -4 49 -31 10 -21
160 15 229 67 127 170 187 324 187 88 0 105 5 189 62 108 72 109 71 160 -68
169 -466 180 -1404 20 -1668 -31 -51 -23 -77 14 -47 13 10 8 -4 -12 -32 -21
-29 -55 -132 -86 -253 -28 -111 -66 -243 -86 -291 -26 -64 -30 -88 -16 -88 11
0 31 32 46 71 14 39 41 112 60 162 36 92 60 183 74 280 4 31 24 75 43 98 58
69 84 134 84 210 0 39 11 132 24 207 23 133 32 614 13 697 -4 21 -11 71 -14
113 -26 305 -70 497 -151 653 -24 45 -23 46 36 103 32 32 68 75 79 96 24 43
158 226 197 267 31 34 32 56 3 95 -12 16 -22 46 -22 68 0 21 -13 50 -30 64
-59 51 -15 186 107 328 59 68 73 95 73 139 l0 55 -49 -56 c-66 -75 -158 -140
-199 -140 -50 0 -74 -41 -74 -122 0 -109 -190 -302 -212 -215 -21 84 209 443
320 500 68 35 214 179 214 211 0 12 -28 -8 -64 -47 -35 -38 -92 -86 -127 -108
-164 -101 -412 -479 -385 -585 13 -53 -79 -103 -201 -107 -135 -6 -213 -76
-213 -192 0 -21 -6 -42 -14 -47 -7 -4 -18 -28 -23 -53 -31 -139 -242 -134
-301 7 -44 104 -30 189 41 256 35 33 52 45 38 28 -35 -42 -33 -50 19 -68 25
-9 45 -22 45 -29 0 -58 112 32 262 209 53 63 203 214 334 336 130 121 260 251
289 288 29 37 87 87 129 112 78 45 171 141 171 177 0 11 -40 -21 -88 -71 -87
-88 -128 -109 -141 -71 -4 11 -38 -10 -88 -57 -101 -94 -204 -169 -320 -232
l-90 -50 142 145 c78 80 148 145 156 145 26 0 213 204 256 279 24 41 73 112
109 159 37 47 64 93 61 103 -8 24 -149 -142 -190 -222 -49 -96 -49 -77 -1 45
24 60 43 120 43 135 1 14 6 26 13 26 14 0 121 141 133 177 5 14 -22 -8 -59
-49 -76 -85 -92 -85 -69 -2 8 32 18 71 21 87 13 65 28 97 69 144 24 27 43 61
43 75 0 17 -11 9 -32 -23 -51 -80 -45 -20 8 82 36 70 32 193 -6 214 -43 23
-105 154 -105 221 0 39 -12 70 -38 101 -35 40 -36 46 -14 63 20 14 21 23 6 51
-43 80 25 314 123 425 72 81 77 123 7 56 -64 -62 -122 -169 -150 -274 -19 -74
-22 -77 -31 -40 -24 93 57 298 173 438 81 99 74 124 -10 33 -115 -125 -191
-304 -194 -458 -2 -71 -11 -147 -20 -170 -22 -55 0 -111 65 -168 40 -36 53
-59 57 -108 3 -35 15 -74 27 -88 11 -14 -38 12 -109 59 -179 116 -232 134
-376 122 -124 -9 -129 -8 -92 28 17 18 30 20 52 8 75 -40 164 81 339 459 75
163 171 320 262 429 72 87 75 111 6 43 -50 -48 -53 -49 -53 -17 0 61 47 263
78 335 49 115 20 119 -34 5 -35 -76 -53 -144 -65 -244 -15 -128 -20 -142 -71
-195 -78 -80 -163 -242 -163 -309 0 -78 -167 -401 -225 -435 -80 -47 -234 -1
-400 120 -27 19 -54 35 -60 35 -7 0 -33 11 -57 24 -64 34 -244 80 -315 81 -33
0 -97 18 -143 39 -45 21 -126 50 -181 65 -229 64 -295 113 -569 424 -185 211
-318 269 -667 292 -278 18 -398 81 -398 209 0 84 48 194 89 205 28 7 31 19 31
117 0 215 250 523 425 524 23 0 26 12 23 86 -9 207 196 444 402 465 95 10 118
80 43 130 -95 62 -196 8 -358 -191 -65 -81 -147 -165 -181 -186 -34 -21 -115
-77 -181 -125 -136 -98 -197 -122 -213 -82 -5 15 -1 31 9 37 14 9 12 14 -6 21
-77 30 -250 -15 -305 -78 l-35 -39 24 58 c13 32 41 97 61 143 l38 84 -38 102
c-39 104 -52 293 -24 363 8 18 12 -17 10 -90 -3 -204 109 -385 240 -389 58 -2
64 5 87 111 14 64 96 174 163 217 l64 42 -70 -73 c-87 -91 -116 -160 -114
-266 2 -88 -19 -130 -66 -130 -38 0 -35 -25 4 -35 48 -12 84 13 96 69 6 27 18
58 27 69 12 15 10 25 -11 40 -29 22 -11 62 71 153 17 19 24 34 17 34 -7 0 -29
-15 -49 -34 l-37 -33 19 35 c41 79 148 165 219 176 59 8 67 14 61 40 -8 29 40
92 97 125 85 49 171 270 160 411 l-4 58 -84 -86z m46 -102 c-22 -109 -72 -198
-142 -251 -70 -53 -67 -29 7 60 64 78 116 176 130 248 5 24 12 41 16 37 4 -4
-1 -46 -11 -94z m-53 -1 c-34 -82 -92 -165 -134 -193 -25 -16 -38 -38 -38 -65
0 -64 -33 -117 -82 -132 l-46 -14 43 84 c31 63 41 100 37 149 l-5 65 100 65
c55 35 104 71 110 81 25 40 36 10 15 -40z m-3119 -13 c-17 -13 -44 -33 -60
-44 -45 -33 -15 -44 32 -11 72 50 86 56 72 33 -17 -28 -39 -54 -70 -87 -40
-40 -117 -220 -127 -298 -11 -81 -96 -201 -208 -295 -49 -41 -86 -92 -128
-178 -101 -206 -68 -200 121 21 262 305 399 434 450 423 59 -12 57 -35 -8 -76
-28 -19 -52 -41 -52 -49 0 -61 136 73 142 140 13 145 176 310 306 310 l51 0
-70 -81 c-83 -97 -144 -221 -144 -294 0 -39 -18 -76 -68 -142 -74 -99 -73 -98
-52 -98 33 0 163 200 155 239 -4 21 -1 55 7 76 14 37 14 37 25 -15 6 -29 17
-59 23 -67 40 -54 30 -94 -34 -137 -136 -91 -252 -192 -248 -217 3 -13 -31
-60 -74 -104 -102 -104 -89 -118 17 -18 93 88 174 132 213 117 22 -8 10 -20
-58 -58 -47 -27 -118 -72 -157 -100 -39 -29 -80 -50 -91 -48 -35 7 -227 -106
-318 -187 -51 -46 -191 -100 -199 -78 -3 11 -43 -3 -106 -38 -107 -61 -123
-55 -60 20 68 82 307 225 374 225 12 0 21 7 21 15 0 46 -220 -54 -345 -157
-66 -56 -152 -173 -126 -173 7 0 -8 -20 -31 -45 -66 -69 -32 -72 42 -4 36 33
82 69 102 79 19 11 3 -9 -36 -44 -39 -35 -71 -75 -71 -89 1 -18 9 -13 32 17
44 59 142 123 262 170 57 22 141 69 186 103 80 62 239 158 260 158 6 0 0 -17
-13 -37 -24 -36 -20 -68 9 -68 8 0 14 13 14 29 0 37 130 153 239 213 103 56
134 96 102 128 -19 19 -29 19 -79 -2 -81 -33 -85 -14 -10 51 83 72 204 145
297 179 40 15 117 58 171 95 188 131 285 158 285 77 0 -18 -5 -20 -20 -7 -16
13 -31 9 -64 -16 -29 -22 -36 -25 -23 -7 12 14 18 29 13 34 -15 15 -133 -138
-185 -241 -29 -58 -90 -148 -136 -200 -46 -52 -79 -99 -73 -105 18 -18 173
164 211 248 49 106 57 100 19 -13 -25 -74 -50 -111 -132 -191 -112 -111 -188
-217 -173 -241 14 -22 42 -20 34 3 -17 47 235 322 253 276 5 -14 20 -25 33
-25 19 0 18 -4 -5 -22 -28 -21 -28 -22 -2 -23 37 0 68 18 239 137 80 56 146
94 146 84 0 -31 -29 -121 -41 -130 -7 -5 -31 -32 -54 -60 -49 -60 -245 -226
-266 -226 -8 0 -14 -12 -14 -28 0 -37 -181 -223 -285 -292 -115 -77 -204 -156
-191 -169 6 -6 33 9 60 34 27 25 99 83 161 128 105 77 300 268 300 295 0 6 57
61 128 120 70 60 127 103 126 97 -1 -7 -48 -53 -105 -102 -71 -63 -101 -98
-95 -116 7 -25 -91 -148 -172 -214 -47 -38 -180 -128 -191 -128 -11 0 -131
-79 -166 -109 -29 -26 -30 -32 -11 -68 19 -38 18 -41 -13 -50 -41 -12 -88 -14
-60 -3 11 4 19 14 19 23 0 8 -12 11 -26 5 -19 -7 -16 1 10 29 20 21 31 43 25
49 -6 6 -29 -10 -51 -37 -32 -38 -49 -46 -80 -39 -68 14 -63 -22 5 -37 36 -8
53 -16 38 -16 -31 -2 -36 -32 -5 -32 12 0 35 -17 52 -38 29 -38 31 -38 77 -14
67 34 73 17 7 -21 -30 -18 -49 -39 -44 -48 7 -10 19 -8 37 9 25 23 28 22 37
-8 12 -36 43 -33 50 5 4 17 -2 22 -18 16 -13 -5 -24 -2 -24 7 0 10 7 17 15 17
8 0 38 47 68 105 l53 105 48 -24 c73 -37 236 -202 236 -240 0 -40 -131 -426
-154 -454 -12 -14 -38 -18 -83 -13 l-66 8 5 -169 c7 -213 18 -195 -399 -617
-330 -333 -382 -371 -475 -346 -52 14 -60 23 -128 133 -71 113 -68 117 58 117
74 0 177 44 177 76 0 21 -14 17 -56 -16 -51 -40 -273 -44 -305 -6 -18 22 -12
23 64 13 163 -20 199 -5 350 148 74 76 163 162 198 193 72 61 80 87 30 87 -22
0 -43 -16 -59 -45 -14 -25 -38 -50 -53 -55 -14 -5 -55 -32 -89 -60 -35 -28
-129 -81 -210 -119 -81 -38 -165 -78 -187 -90 -79 -42 -119 -29 -184 58 -30
39 -61 61 -104 72 -124 33 -122 26 -91 363 6 73 4 86 -17 86 -15 0 -22 10 -18
26 13 63 -289 364 -366 364 -49 0 -61 49 -57 228 l4 121 -58 28 c-31 15 -107
38 -169 51 -122 25 -190 51 -235 89 l-30 25 30 -8 c47 -11 113 -22 193 -32 41
-4 86 -15 100 -23 49 -26 67 -13 25 18 -23 17 -49 45 -59 63 -15 30 -15 31 8
12 14 -12 29 -18 34 -13 4 4 -19 29 -52 54 -123 98 -146 409 -36 500 28 23 17
-116 -14 -173 -50 -95 83 -405 165 -382 9 2 26 -9 38 -25 45 -60 44 -6 -1 93
-26 56 -51 117 -56 135 -6 19 -22 41 -37 48 -34 18 -76 106 -75 153 1 20 5 27
9 17 4 -11 22 -19 40 -19 32 1 32 1 3 23 -29 22 -33 62 -23 225 l3 60 14 -60
c15 -67 79 -279 115 -383 12 -37 31 -74 41 -83 26 -22 40 -74 43 -170 4 -79
45 -211 62 -194 4 4 -3 36 -15 72 -13 35 -23 95 -23 133 0 38 -11 126 -23 196
-15 85 -18 141 -9 175 14 50 8 72 -15 57 -7 -4 -14 -56 -14 -116 l-1 -107 -23
52 c-13 28 -27 87 -31 131 -5 50 -15 79 -28 79 -54 0 -66 335 -14 413 14 22
22 49 17 60 -9 25 77 155 118 178 16 9 38 25 50 35 25 23 43 24 56 3 6 -9 0
-24 -12 -34 -13 -10 -33 -38 -46 -62 -13 -25 -24 -36 -24 -24 -2 50 -31 -15
-68 -152 -55 -205 -80 -346 -67 -380 9 -23 12 -18 14 23 1 29 17 113 36 188
l34 135 2 -102 c1 -55 9 -114 17 -130 11 -20 9 -43 -7 -83 -22 -51 -22 -55 2
-50 16 3 32 31 44 77 33 131 86 83 60 -55 -9 -46 -8 -46 15 -17 14 18 21 44
16 67 -69 318 -44 503 97 712 61 90 65 86 20 -16 -69 -157 -83 -256 -72 -503
7 -153 16 -222 27 -218 9 3 16 27 14 53 -1 26 4 47 12 47 7 0 13 19 13 42 0
61 52 252 81 296 14 21 22 43 18 50 -5 7 14 39 41 71 64 75 172 235 189 280 8
22 10 2 5 -59 -16 -184 23 -250 86 -148 32 52 148 158 174 158 7 0 45 32 84
71 45 44 72 62 72 47 0 -37 -148 -238 -187 -253 -73 -28 -260 -360 -203 -360
8 0 15 7 15 15 0 34 203 212 288 253 53 25 83 48 73 54 -24 15 -176 -73 -254
-147 -51 -48 -61 -54 -46 -25 38 75 93 150 110 150 20 0 103 96 166 191 23 35
45 64 50 64 8 0 -6 -125 -21 -176 -6 -20 -3 -34 7 -34 8 0 22 23 30 51 34 126
175 273 309 323 48 17 101 42 118 54 42 29 56 27 18 -2z m-17 -390 c10 -44 3
-54 -101 -151 -62 -58 -152 -155 -202 -216 -49 -61 -107 -128 -128 -148 l-40
-36 37 74 c20 40 78 114 129 164 109 105 214 241 202 262 -11 17 14 121 49
202 l26 60 9 -82 c5 -46 13 -103 19 -129z m-1185 -14 c-15 -58 7 -172 33 -172
18 0 16 -11 -8 -58 -16 -31 -39 -104 -51 -161 -17 -77 -23 -90 -24 -51 0 29 9
90 22 135 26 98 25 90 9 90 -7 0 -22 -32 -33 -70 -11 -39 -22 -63 -26 -52 -12
36 61 377 81 377 4 0 2 -17 -3 -38z m4591 -52 c57 -21 52 -75 -7 -75 -64 0
-175 -60 -260 -141 -109 -103 -114 -83 -10 43 92 111 145 157 203 175 16 6 31
11 32 12 2 0 20 -6 42 -14z m-4792 -288 c-4 -99 -15 -168 -26 -179 -33 -33
-29 146 5 270 30 104 31 99 21 -91z m2175 146 c0 -3 -8 -11 -17 -17 -11 -7
-14 -4 -7 7 11 17 24 23 24 10z m1078 -76 c-20 -105 5 -232 59 -296 48 -55 4
-39 -47 19 -64 70 -72 146 -31 284 28 97 38 94 19 -7z m-3318 -47 c-5 -6 -10
-1 -10 10 0 11 5 16 10 10 6 -6 6 -14 0 -20z m4435 -149 c-35 -76 -37 -90 -21
-144 10 -33 16 -61 13 -63 -2 -2 -34 -13 -70 -24 -160 -51 -350 -300 -393
-514 -9 -43 -34 -116 -56 -161 -31 -63 -40 -105 -40 -176 0 -78 -4 -93 -23
-86 -12 5 -63 20 -112 33 -50 13 -97 31 -105 40 -9 9 -96 32 -195 51 -232 45
-338 78 -338 106 0 33 45 76 69 67 56 -22 186 372 191 579 2 116 4 121 38 121
54 0 18 -296 -50 -414 -44 -75 -45 -81 -15 -81 12 0 22 5 22 11 0 6 51 65 113
130 61 65 112 128 112 140 0 38 58 131 115 186 82 77 305 133 239 59 -63 -69
111 -86 189 -19 79 68 324 240 345 242 6 1 -7 -37 -28 -83z m-4916 -227 c-6
-62 50 -204 121 -308 56 -80 32 -88 -25 -9 -95 131 -136 249 -114 335 14 57
26 46 18 -18z m2846 -50 c-15 -25 -30 -38 -33 -29 -4 15 38 75 54 75 3 0 -6
-21 -21 -46z m-59 -108 c-28 -47 -115 -144 -136 -152 -13 -5 13 31 57 80 82
90 99 106 79 72z m-2484 -191 c58 -121 67 -146 42 -130 -50 31 -157 280 -121
280 3 0 39 -68 79 -150z m-184 105 c5 -8 5 -15 1 -15 -4 0 -11 7 -16 15 -6 8
-6 15 -2 15 4 0 11 -7 17 -15z m1237 -21 c0 -3 -10 -10 -23 -15 -14 -5 -20 -2
-14 6 8 14 37 21 37 9z m-1005 -104 c0 -19 -7 -11 -29 35 -17 35 -16 36 6 8
13 -16 23 -35 23 -43z m2294 9 c-10 -15 -47 -51 -80 -82 -34 -30 -57 -59 -52
-64 5 -5 44 24 86 65 55 53 77 67 77 49 0 -53 -188 -190 -226 -166 -36 23 -57
16 -80 -28 -21 -41 -114 -69 -114 -34 0 20 74 75 115 85 19 5 35 15 35 23 0
25 -41 13 -103 -32 -34 -25 -62 -39 -62 -31 0 23 124 102 212 136 44 17 108
47 141 68 71 44 77 45 51 11z m-2695 -94 l9 -52 -20 45 c-11 24 -17 50 -13 57
11 17 14 10 24 -50z m2681 -108 c-18 -15 -44 -27 -57 -27 -17 0 -19 -5 -8 -16
12 -12 28 -10 56 9 l39 25 0 -58 c-1 -96 -16 -99 -96 -23 -42 39 -66 72 -55
75 10 3 46 28 81 54 71 55 110 17 40 -39z m-300 -102 c0 -8 -3 -15 -7 -15 -3
0 -10 7 -15 15 -6 8 -3 15 6 15 9 0 16 -7 16 -15z m-2010 -32 c14 -9 -2 -11
-45 -4 -99 14 -144 38 -52 26 41 -5 85 -15 97 -22z m1898 2 c-40 -16 -77 -26
-81 -22 -10 10 91 51 126 51 16 0 -4 -13 -45 -29z m54 -23 c-28 -12 -58 -21
-67 -21 -24 2 67 43 95 43 12 0 0 -10 -28 -22z m433 -8 c0 -8 46 -64 102 -124
56 -59 135 -151 175 -205 41 -54 85 -105 97 -115 51 -39 29 -553 -26 -608 -12
-12 -176 183 -202 239 -17 37 -41 45 -41 14 0 -26 52 -94 146 -191 43 -45 79
-95 79 -111 0 -80 -238 -495 -277 -483 -8 3 -29 61 -46 131 -60 234 -80 286
-135 347 -30 33 -61 80 -70 103 -17 49 -42 59 -42 17 0 -27 59 -118 95 -145
35 -28 184 -461 168 -488 -16 -25 -113 -44 -153 -29 -20 8 -72 14 -116 14 -84
0 -394 40 -416 54 -28 17 -11 71 45 138 65 79 259 364 322 472 37 63 40 78 26
127 -9 31 -16 92 -16 135 l0 79 66 0 67 0 48 124 c26 68 68 186 93 262 l46
139 -32 35 c-34 36 -44 85 -18 85 8 0 15 -7 15 -16z m-2363 -57 c-8 -7 -41
-23 -74 -36 -33 -13 -87 -35 -120 -49 -83 -34 -49 -4 57 52 81 42 171 64 137
33z m38 -8 c0 -3 -12 -15 -26 -26 -24 -19 -25 -18 -6 6 20 25 32 33 32 20z
m16 -41 c-17 -19 -44 -52 -62 -73 l-31 -37 18 37 c19 41 91 123 100 114 3 -3
-8 -21 -25 -41z m3108 -266 c21 -4 11 -63 -12 -72 -23 -9 -82 40 -82 67 0 11
51 14 94 5z m241 -77 c24 0 25 -4 10 -22 -15 -19 -14 -23 7 -23 16 0 23 -8 18
-21 -4 -11 15 -40 44 -66 48 -43 66 -78 39 -78 -7 0 -32 20 -55 44 -23 25 -48
41 -55 37 -7 -4 -13 3 -13 16 0 20 -23 27 -71 22 -12 -1 -31 43 -33 74 -1 15
10 17 39 10 37 -9 39 -8 20 17 -18 24 -18 25 0 9 12 -11 34 -19 50 -19z m-170
8 c0 -3 -8 -11 -17 -17 -11 -7 -14 -4 -7 7 11 17 24 23 24 10z m323 -57 c6
-27 17 -56 25 -66 9 -12 4 -23 -17 -35 -27 -14 -34 -11 -49 23 -9 21 -25 35
-34 32 -10 -4 -18 14 -21 44 -1 29 4 51 13 51 9 0 13 -7 8 -15 -6 -8 -3 -15 5
-15 8 0 25 -11 38 -24 13 -13 24 -16 24 -8 0 9 -11 22 -25 29 -13 8 -19 22
-14 31 17 26 36 7 47 -47z m257 -63 c20 -20 19 -26 -2 -48 -31 -30 -79 6 -63
46 11 30 36 31 65 2z m-3412 -5 c32 -14 132 -140 123 -156 -14 -21 -62 -13
-98 17 -35 29 -35 29 -3 21 28 -7 32 -3 24 24 -9 37 -70 83 -92 70 -8 -5 -18
1 -22 14 -10 24 22 28 68 10z m3927 -60 c0 -6 -17 -36 -38 -67 -21 -31 -54
-88 -74 -127 -29 -56 -38 -66 -46 -45 -7 17 3 48 26 83 20 30 48 81 62 112 23
48 70 79 70 44z m-1310 -29 c45 -58 53 -79 24 -69 -27 10 -78 64 -79 84 0 21
34 11 55 -15z m392 -5 c10 -16 24 -27 30 -23 7 4 13 -7 14 -24 1 -17 16 -46
33 -64 52 -55 34 -62 -21 -8 -29 28 -57 46 -63 40 -5 -5 0 -10 11 -10 18 0 18
-3 0 -14 -24 -15 16 -76 49 -76 23 0 85 -62 85 -85 0 -32 -18 -24 -85 43 -36
34 -68 59 -72 55 -5 -5 10 -27 33 -51 l42 -42 -46 9 c-90 18 -90 -11 0 -88 47
-41 91 -73 98 -73 7 0 18 -7 25 -14 7 -8 3 -9 -10 -1 -20 11 -20 9 -1 -13 16
-21 23 -22 33 -7 12 19 16 13 19 -33 2 -14 15 -21 38 -18 36 4 36 3 7 -29 -16
-18 -20 -28 -10 -22 11 6 19 8 19 4 0 -4 4 -20 9 -35 5 -16 3 -21 -4 -12 -17
20 -85 58 -75 41 4 -7 -9 -12 -29 -11 -20 1 -34 8 -32 16 2 7 12 13 23 11 32
-3 15 18 -72 90 -57 47 -86 62 -94 50 -7 -12 -34 6 -80 55 -79 82 -77 117 2
40 68 -67 67 -47 -2 30 -30 33 -49 60 -43 60 6 0 -1 13 -15 30 -27 29 -74 32
-115 6 -11 -6 -14 -4 -8 5 6 9 2 20 -9 23 -14 6 -14 12 2 28 12 11 17 13 12 4
-16 -28 49 -13 72 17 22 28 26 26 98 -48 83 -86 96 -90 35 -11 -46 61 -40 79
14 36 43 -34 68 -40 43 -10 -18 21 -6 85 16 85 7 0 10 7 4 15 -5 9 -14 12 -20
9 -6 -4 -11 6 -11 22 0 38 27 37 51 -2z m-362 6 c-5 -5 -14 -5 -20 0 -5 6 -1
10 10 10 11 0 16 -4 10 -10z m520 -28 c-5 -13 -12 -20 -16 -16 -4 4 -3 14 3
23 15 24 23 19 13 -7z m258 9 l-30 -12 30 -8 c21 -5 22 -8 5 -9 -13 -1 -33 8
-43 21 -16 19 -12 22 24 21 37 -1 39 -3 14 -13z m391 -42 c-15 -15 -28 8 -15
28 9 15 13 15 18 0 3 -10 2 -23 -3 -28z m160 -15 c-14 -31 -40 -80 -57 -109
-17 -29 -40 -73 -51 -97 -16 -35 -23 -39 -27 -20 -8 36 127 282 156 282 2 0
-7 -25 -21 -56z m-794 -76 l-9 -35 -35 34 c-38 35 -49 67 -17 49 15 -8 15 -6
0 10 -43 45 -18 65 26 21 33 -33 42 -53 35 -79z m738 76 c-5 -14 -11 -30 -12
-34 -1 -4 -8 -14 -15 -22 -7 -9 -26 -38 -43 -66 -39 -67 -51 -52 -17 22 49
107 122 191 87 100z m-508 -11 c-11 -27 14 -31 25 -4 11 27 39 -17 30 -48 -5
-17 -1 -15 16 6 23 27 24 27 25 -23 1 -28 5 -43 9 -33 11 28 35 23 36 -7 1
-16 4 -19 9 -8 16 39 50 21 35 -18 -11 -28 -9 -35 6 -29 25 10 41 -61 19 -83
-11 -11 -11 -16 0 -16 9 0 21 11 26 25 7 18 15 20 26 9 9 -9 25 -13 35 -9 11
3 23 -3 28 -16 6 -16 2 -20 -16 -13 -16 6 -20 3 -13 -8 6 -10 20 -18 32 -18
12 0 22 -11 22 -24 0 -21 2 -21 24 0 30 31 37 30 25 -1 -5 -14 -3 -21 5 -16 8
5 15 -4 15 -20 0 -16 -6 -29 -12 -29 -7 0 -12 8 -12 17 0 11 -9 10 -25 -4 -22
-18 -24 -17 -12 2 11 20 10 20 -14 1 -25 -20 -69 -35 -69 -23 0 35 21 54 32
28 9 -23 11 -20 9 13 -3 48 -7 49 -44 16 -27 -24 -28 -24 -19 0 6 15 3 25 -7
25 -10 0 -14 6 -9 13 4 8 -10 18 -31 24 -33 8 -36 13 -20 32 11 12 13 21 5 19
-22 -7 -85 33 -127 79 -22 24 -48 43 -59 43 -14 0 -11 -7 7 -20 24 -18 25 -21
3 -29 -36 -14 -58 107 -30 158 12 20 23 11 15 -11z m680 14 c0 -4 -6 -19 -14
-33 -15 -27 -71 -155 -105 -240 -20 -50 -37 -61 -53 -34 -9 14 98 258 130 296
16 19 42 26 42 11z m2691 -63 c-75 -130 -96 -162 -96 -150 0 27 115 221 131
221 4 0 -12 -32 -35 -71z m-4041 41 c0 -8 -6 -15 -14 -15 -8 0 -18 7 -23 15
-6 8 1 15 14 15 12 0 23 -7 23 -15z m1418 -155 c-37 -78 -68 -152 -68 -163 0
-29 -40 -82 -53 -69 -11 11 123 327 165 385 41 57 17 -27 -44 -153z m-171 106
c-13 -13 -17 -11 -17 6 0 30 20 50 28 28 3 -10 -2 -25 -11 -34z m103 -37 c-23
-48 -57 -130 -77 -184 -24 -66 -37 -87 -40 -65 -6 40 118 334 141 335 9 0 -2
-39 -24 -86z m-3936 32 c-5 -13 -9 -35 -10 -48 0 -18 -6 -15 -21 12 -23 41
-18 60 17 60 15 0 20 -8 14 -24z m4062 -84 c-22 -44 -43 -72 -47 -62 -3 10 13
54 35 98 22 44 43 72 47 62 3 -10 -13 -54 -35 -98z m-73 78 c5 -8 5 -15 1 -15
-4 0 -11 7 -16 15 -6 8 -6 15 -2 15 4 0 11 -7 17 -15z m140 -79 c-17 -43 -48
-127 -68 -186 -21 -60 -47 -116 -59 -126 -36 -30 -26 47 24 171 25 62 45 118
45 125 0 7 14 35 30 62 46 75 64 44 28 -46z m-1483 49 c0 -8 -7 -15 -15 -15
-8 0 -15 7 -15 15 0 8 7 15 15 15 8 0 15 -7 15 -15z m1133 -81 c-43 -93 -62
-108 -47 -38 9 47 67 141 79 129 3 -3 -11 -44 -32 -91z m182 56 c-5 -5 -10 -1
-10 10 0 11 5 16 10 10 6 -5 6 -14 0 -20z m233 -49 c-24 -15 -50 -76 -34 -76
9 0 16 7 16 16 0 9 6 12 14 7 14 -8 5 -64 -14 -90 -7 -9 -20 -55 -31 -102 -18
-80 -36 -114 -53 -97 -3 3 11 59 31 124 21 65 34 121 31 124 -4 4 -11 -5 -16
-21 -5 -16 -22 -62 -37 -102 -16 -40 -26 -79 -21 -86 4 -7 1 -13 -7 -13 -38 0
-28 59 39 233 16 41 34 87 39 102 9 24 14 25 33 9 13 -10 17 -23 10 -28z
m-893 -11 c-5 -5 -14 -5 -20 0 -5 6 -1 10 10 10 11 0 16 -4 10 -10z m-315 -68
c-5 -12 -8 -8 -9 9 0 16 3 25 8 20 5 -5 6 -18 1 -29z m1002 -75 c-27 -83 -52
-125 -52 -87 0 29 63 182 72 173 3 -3 -6 -42 -20 -86z m-694 -40 c88 -77 258
-163 245 -124 -8 25 -5 30 14 23 25 -10 29 -25 12 -42 -6 -7 -11 -25 -11 -42
0 -22 -29 -47 -105 -89 -348 -194 -372 -515 -67 -901 79 -100 76 -124 -24
-192 -451 -305 -519 -501 -225 -654 101 -53 101 -57 12 -85 -213 -68 -556 -5
-825 150 -64 37 -167 95 -229 129 -204 113 -646 599 -680 749 -6 22 -14 58
-19 78 -25 99 -12 106 200 106 105 0 213 5 239 12 44 12 54 7 124 -58 l76 -71
0 -117 c0 -129 11 -180 32 -147 7 11 13 27 13 36 0 8 -7 4 -15 -8 -11 -18 -15
-13 -15 19 0 44 25 56 40 19 19 -52 65 -14 65 53 0 16 8 30 19 30 32 2 72 11
98 23 14 6 35 12 46 15 12 2 27 12 33 22 11 18 35 24 145 34 38 4 49 -1 49
-22 0 -26 -50 -52 -86 -45 -28 5 -141 -66 -128 -80 6 -7 0 -9 -15 -3 -14 5
-26 3 -26 -5 0 -8 -8 -13 -19 -11 -10 2 -18 -7 -18 -19 0 -33 -26 -46 -52 -25
-21 15 -21 14 -3 -9 26 -32 16 -45 -35 -45 -21 0 -38 -5 -38 -12 0 -7 -10 -9
-22 -4 -34 13 -28 -16 12 -53 62 -58 130 -67 228 -31 100 38 206 126 195 162
-4 14 -1 35 7 47 13 20 15 20 15 0 1 -17 6 -15 23 7 14 19 20 47 15 75 -6 36
-5 39 6 16 11 -25 14 -19 15 30 0 44 -3 54 -14 37 -12 -19 -15 -19 -15 4 0 14
7 26 15 26 8 0 15 12 15 26 1 15 48 77 105 139 179 192 234 331 186 466 -29
79 -15 115 35 97 78 -29 259 165 259 277 0 42 35 37 93 -13z m-1923 -24 c0 -3
-8 -11 -17 -17 -11 -7 -14 -4 -7 7 11 17 24 23 24 10z m1210 -62 c26 -39 10
-111 -25 -111 -9 0 -41 -17 -72 -37 -72 -49 -78 -48 -78 15 0 165 102 244 175
133z m-1294 -61 c-30 -47 -81 -121 -113 -165 -32 -43 -58 -93 -58 -111 0 -29
-6 -32 -47 -23 -26 5 -62 9 -81 9 -27 0 320 372 350 375 2 0 -21 -38 -51 -85z
m1835 55 c-1 -18 -8 -24 -16 -16 -7 7 -9 21 -3 30 15 24 21 19 19 -14z m1118
-13 c-2 -9 2 -17 10 -17 22 0 -7 -82 -30 -86 -39 -7 -89 45 -79 82 10 41 30
44 40 8 6 -22 9 -21 18 8 11 34 48 38 41 5z m1388 -36 c115 -42 318 -155 398
-224 l48 -41 -62 0 c-109 -1 -210 -62 -385 -231 -74 -73 -91 -115 -43 -111 17
1 26 10 21 22 -4 11 3 19 17 19 13 0 24 9 24 20 0 56 167 160 257 160 25 0 70
13 102 29 79 41 344 47 421 11 90 -42 270 -158 352 -226 40 -34 42 -41 26 -77
-20 -43 -176 -261 -204 -284 -10 -9 -31 -76 -46 -150 -36 -171 -122 -345 -228
-460 -44 -48 -80 -98 -80 -111 0 -34 -135 -209 -346 -449 -101 -116 -211 -244
-244 -285 -67 -86 -66 -80 20 151 31 85 54 168 50 188 -14 72 50 187 275 487
112 150 147 216 114 216 -6 0 -28 -28 -47 -63 -20 -34 -85 -127 -144 -206 -60
-79 -130 -181 -156 -226 -56 -98 -57 -92 -15 61 23 83 48 137 87 184 162 195
201 272 210 408 7 96 4 127 -10 127 -82 0 100 410 214 480 67 42 67 42 67 -80
0 -116 -27 -201 -132 -407 -44 -88 -74 -248 -45 -248 18 0 42 68 42 118 0 22
24 91 54 152 180 373 165 638 -27 480 -99 -82 -225 -354 -220 -476 11 -309 16
-294 -170 -524 -48 -59 -87 -119 -87 -133 0 -91 -149 -562 -178 -562 -43 0
-333 -300 -518 -536 -40 -52 -83 -94 -94 -94 -22 0 -51 -59 -40 -79 14 -23 33
-8 96 75 36 48 86 109 111 137 25 27 51 59 58 71 6 12 18 18 26 13 8 -5 13 -3
11 5 -8 27 307 351 321 330 29 -44 131 142 132 242 0 19 3 19 13 4 21 -34 -97
-360 -157 -433 -50 -61 -66 -110 -36 -110 8 0 25 20 38 45 12 25 32 45 43 45
24 0 76 56 76 83 0 16 111 146 508 598 15 17 65 86 110 152 45 65 115 167 156
225 83 118 139 251 172 411 13 60 33 119 46 132 12 12 49 62 82 111 59 87 91
118 58 56 -19 -35 -57 -160 -112 -365 -19 -75 -42 -159 -51 -187 -10 -32 -10
-57 -1 -68 39 -47 -104 -232 -464 -600 -161 -165 -378 -387 -481 -492 -103
-106 -193 -211 -199 -233 -41 -146 79 -317 225 -319 l57 -1 -76 -34 c-76 -35
-157 -113 -157 -153 0 -19 -106 -127 -137 -139 -26 -9 46 152 85 193 78 82 48
238 -61 309 -51 33 -65 24 -167 -102 -132 -163 -158 -211 -161 -303 -2 -63
-11 -89 -45 -130 -24 -28 -56 -78 -71 -111 -15 -33 -27 -49 -28 -35 0 39 48
136 83 165 22 19 25 29 12 43 -19 19 -90 -72 -99 -129 -2 -16 -10 -38 -17 -49
-6 -11 -20 -110 -31 -221 -12 -134 -27 -213 -43 -238 -52 -78 -77 -180 -77
-312 0 -79 -7 -137 -18 -148 -40 -40 -44 243 -4 318 10 19 10 47 -1 87 -37
139 -15 310 61 474 23 49 45 107 50 128 4 21 32 70 61 108 100 131 57 188 -56
74 -72 -72 -75 -79 -78 -163 -2 -68 -15 -112 -60 -200 -62 -123 -54 -59 -104
-754 -4 -55 -1 -101 6 -101 19 0 27 61 38 284 12 243 28 306 44 171 6 -57 4
-126 -7 -178 -20 -98 -9 -229 26 -303 34 -73 20 -84 -204 -162 -53 -19 4 -23
79 -6 120 27 181 87 193 190 5 44 23 109 39 146 17 37 24 71 16 76 -7 5 -24
-14 -36 -41 -23 -49 -23 -49 -18 48 6 105 58 247 95 261 12 5 18 16 12 24 -5
9 -4 37 1 64 l11 48 17 -52 c12 -36 25 -51 43 -48 17 3 28 -9 34 -38 17 -73
22 -82 45 -74 15 6 22 0 22 -20 0 -17 10 -30 22 -30 16 0 20 11 14 43 -10 47
27 133 62 147 12 4 22 18 22 29 0 12 14 21 31 21 75 0 223 134 287 262 27 53
190 225 202 213 32 -32 -288 -434 -392 -494 -103 -60 -176 -132 -168 -165 4
-15 -10 -69 -31 -120 -28 -70 -39 -124 -41 -216 -3 -118 -5 -124 -51 -163 -56
-48 -169 -191 -219 -280 -40 -69 -22 -147 34 -147 14 0 35 -14 45 -31 11 -17
40 -40 65 -50 l45 -19 -37 -24 c-49 -33 -209 -86 -257 -86 -22 0 -45 -13 -57
-31 -21 -36 -102 -81 -219 -121 -109 -37 -114 -34 -23 14 145 78 194 125 159
154 -30 24 -30 24 14 50 44 26 113 146 97 171 -4 7 16 36 45 64 129 124 377
539 290 486 -10 -6 -12 22 -5 88 16 157 0 209 -59 197 -53 -11 -85 -43 -85
-86 0 -24 8 -21 46 20 56 60 74 44 73 -68 -2 -260 -126 -501 -350 -683 -80
-64 -82 -68 -50 -82 48 -20 48 -20 19 -53 -54 -59 -329 -191 -345 -165 -5 7
31 31 78 55 48 23 89 46 91 53 3 6 28 25 57 43 28 17 51 38 51 45 0 22 -42 16
-56 -7 -13 -23 -100 -69 -214 -114 -126 -50 -265 -12 -230 62 10 20 26 56 36
82 17 41 32 50 122 73 113 30 189 77 164 102 -11 11 -22 11 -35 -1 -23 -18
-230 -78 -272 -78 -24 0 -21 7 16 42 25 22 50 57 56 77 8 26 15 30 23 15 10
-16 17 -16 35 -1 15 12 60 18 124 15 l100 -3 28 55 c16 30 35 55 42 55 8 0 27
22 44 50 17 27 48 59 69 70 42 22 50 45 16 45 -12 0 -59 -37 -104 -82 -58 -59
-93 -83 -121 -83 -22 0 -58 -9 -80 -21 -120 -60 -131 -32 -30 75 24 26 53 80
64 120 11 41 21 59 22 42 1 -39 46 -84 46 -47 0 13 17 52 37 88 23 40 38 89
38 126 0 51 24 230 73 547 6 37 16 76 23 87 6 11 14 35 16 53 2 18 7 39 10 48
3 8 -1 17 -9 20 -19 6 -72 -140 -96 -266 -10 -50 -35 -137 -55 -193 -41 -112
-43 -124 -23 -124 7 0 24 29 36 64 26 74 31 35 9 -64 -9 -37 -16 -101 -16
-142 -1 -71 -35 -186 -50 -171 -4 4 -1 47 7 96 27 166 -10 129 -74 -74 -47
-146 -115 -256 -161 -257 -10 0 -37 -17 -60 -38 -24 -21 -68 -50 -100 -64 -39
-18 -55 -33 -49 -48 10 -28 -81 -31 -108 -4 -10 10 -22 13 -28 7 -23 -23 29
-46 103 -47 69 0 79 4 86 34 5 18 28 44 51 56 57 29 56 29 38 -23 -18 -50 -98
-120 -138 -120 -14 0 -25 -6 -25 -14 0 -19 97 -37 123 -24 11 6 7 0 -9 -13
-16 -13 -31 -39 -34 -58 -2 -18 -8 -59 -14 -90 -11 -66 45 -101 159 -101 64 0
82 -38 30 -64 -50 -25 104 9 184 41 47 19 86 29 86 22 0 -7 18 -6 40 2 21 8
43 11 47 7 4 -4 -11 -14 -32 -22 -22 -8 -40 -22 -40 -30 0 -37 -323 -163 -334
-131 -5 13 -14 12 -35 -3 -16 -11 -10 -4 12 17 22 21 49 41 60 45 11 4 15 12
10 18 -14 14 -74 -18 -110 -60 -27 -30 -35 -32 -73 -15 l-43 18 58 26 c85 38
100 47 106 65 9 27 -115 53 -203 43 -76 -9 -80 -8 -70 21 12 40 -15 73 -90
107 -47 21 -54 28 -34 36 14 6 26 20 26 31 0 12 15 21 35 21 90 0 106 81 31
151 -30 29 -36 30 -36 9 0 -14 5 -25 11 -25 16 0 50 -76 41 -91 -4 -6 -34 -16
-66 -21 -41 -7 -57 -17 -51 -31 5 -14 -13 -23 -65 -30 -196 -27 -267 -61 -201
-96 24 -13 39 -11 68 7 116 76 287 22 280 -88 -5 -79 -6 -78 53 -48 23 13 81
23 129 23 84 0 112 -17 60 -36 -15 -5 -44 -19 -64 -31 -51 -29 -237 -57 -285
-44 -20 6 -61 12 -90 14 -29 2 -85 8 -124 15 -83 13 -91 -3 -22 -44 l49 -29
-60 -12 c-124 -23 -178 -16 -237 33 -92 76 -128 179 -64 179 26 0 31 23 8 37
-48 30 4 121 75 130 34 5 38 13 42 86 l5 80 48 -7 c26 -4 94 -25 151 -47 141
-53 249 -45 249 18 0 9 20 40 45 68 25 28 45 59 45 67 0 9 51 58 113 108 126
103 157 151 157 239 0 70 53 236 127 398 58 128 83 152 38 37 -31 -77 -42
-197 -16 -171 8 8 25 62 38 119 16 69 46 138 86 200 53 82 177 396 177 449 0
41 -30 16 -44 -37 -22 -79 -109 -207 -242 -352 -130 -142 -163 -192 -127 -192
13 0 23 7 23 17 0 19 44 73 184 223 74 79 102 101 94 75 -20 -70 -101 -191
-126 -189 -48 3 -257 -481 -257 -595 0 -52 -49 -136 -82 -141 -17 -2 -49 -8
-72 -14 -38 -9 -41 -6 -41 38 0 58 23 106 51 106 24 0 99 59 77 59 -99 3 -158
-55 -158 -154 1 -70 19 -90 74 -82 l47 7 -54 -44 c-38 -32 -72 -45 -120 -48
-52 -4 -76 -15 -110 -51 -51 -54 -124 -63 -172 -21 -22 20 -28 21 -22 5 25
-79 222 -163 222 -96 0 21 15 50 34 66 50 42 66 35 21 -10 -21 -21 -40 -53
-43 -71 -7 -52 -91 -50 -228 4 -162 65 -273 60 -236 -11 28 -52 21 -92 -19
-101 -55 -14 -101 -72 -102 -129 0 -28 -8 -59 -16 -69 -8 -10 -10 -36 -5 -56
12 -46 -10 -49 -51 -8 -20 20 -30 50 -30 89 0 66 -28 92 -150 143 -37 16 -78
38 -90 50 -12 12 8 6 45 -13 94 -47 330 -62 330 -21 0 15 11 39 24 54 21 23
22 34 7 72 -11 24 -14 52 -9 61 6 9 -20 50 -58 90 -38 41 -76 91 -84 113 -9
24 -38 48 -80 66 -89 38 -238 242 -252 347 -6 37 -88 65 -88 30 0 -9 9 -16 20
-16 11 0 44 -49 74 -109 73 -149 135 -230 203 -265 32 -16 77 -55 100 -86 24
-32 63 -79 88 -106 25 -26 46 -64 48 -82 1 -19 7 -45 12 -57 7 -15 -1 -28 -24
-38 -21 -9 -32 -25 -29 -43 6 -35 -191 -26 -264 12 -120 62 -257 427 -258 687
0 145 15 171 102 169 l70 -1 10 -67 c15 -99 27 -122 124 -238 93 -112 101
-117 126 -87 12 15 9 32 -13 64 -36 56 -36 88 2 170 34 76 29 99 -9 41 -40
-61 -50 -133 -28 -198 l19 -58 -37 45 c-21 24 -52 61 -70 82 -56 63 -70 95
-70 162 -1 92 -54 164 -95 127 -42 -38 -77 -8 -86 73 -7 59 -9 62 -26 36 -48
-81 7 284 59 387 27 54 117 161 117 139 0 -6 15 0 33 13 19 12 38 23 42 23 16
0 -10 -185 -38 -272 -47 -151 -9 -172 103 -56 40 42 89 81 109 86 19 5 35 16
35 25 -1 26 -94 7 -130 -26 l-34 -32 0 48 c0 90 141 328 185 312 26 -9 70 18
70 43 0 73 -173 -75 -237 -203 l-33 -67 8 76 c7 63 4 79 -16 87 -19 7 -22 20
-15 58 17 83 55 191 67 191 7 0 21 20 31 44 44 108 265 196 492 196 68 0 89 6
101 27 8 15 42 81 75 146 83 163 200 226 540 293 187 36 368 128 460 232 59
68 63 62 29 -47 -16 -49 -36 -116 -45 -150 -17 -62 -181 -329 -182 -296 0 10
8 23 17 29 11 7 9 14 -8 24 -36 20 -32 33 60 180 110 179 96 190 -102 75 -285
-164 -436 -228 -538 -228 -47 0 -134 -88 -134 -136 0 -44 25 -35 35 12 14 70
42 94 115 100 86 6 265 81 420 175 67 41 131 74 141 74 11 0 32 14 47 30 24
27 67 41 67 23 0 -4 -36 -63 -80 -131 -61 -94 -83 -143 -89 -200 -6 -47 -32
-119 -69 -188 -80 -151 -71 -176 74 -200 l54 -9 -24 -71 c-24 -70 -60 -141
-61 -121 0 5 7 28 15 50 35 90 -50 136 -124 66 -50 -48 -105 -67 -243 -82
l-90 -10 48 37 c109 82 124 108 126 226 1 78 4 95 12 63 6 -25 18 -59 27 -76
9 -17 16 -44 14 -60 -3 -35 42 -47 74 -20 18 14 21 35 14 81 -7 46 -3 67 14
82 13 10 23 34 23 52 0 18 13 72 30 120 35 102 31 113 -42 113 -161 -1 -381
-130 -356 -209 10 -30 -52 -114 -143 -197 -52 -47 -76 -89 -50 -89 12 0 122
114 189 197 38 45 53 77 48 98 -10 37 83 125 133 125 19 1 47 11 63 23 33 26
143 30 143 6 0 -32 -47 -187 -68 -226 -12 -22 -23 -69 -23 -105 -2 -44 -5 -56
-12 -35 -6 16 -20 48 -31 70 -23 46 -11 135 22 162 24 21 16 45 -15 45 -36 0
-85 -103 -103 -214 -18 -113 -32 -140 -111 -212 -43 -39 -61 -45 -165 -50
-413 -20 -663 -159 -643 -358 7 -65 3 -110 -15 -157 -33 -94 -86 -425 -68
-431 10 -3 9 -21 -1 -49 -8 -24 -10 -56 -4 -70 6 -15 12 -80 13 -146 4 -188
52 -265 219 -349 70 -35 133 -64 140 -64 37 0 -101 276 -182 363 -101 109
-108 197 -18 256 73 47 96 43 48 -9 -58 -61 -39 -105 29 -69 71 38 60 -18 -11
-58 -34 -19 -5 -114 80 -270 80 -149 96 -150 43 -3 -22 59 -39 115 -39 126 0
29 109 101 126 84 27 -27 40 -16 30 26 -14 58 -14 58 -72 7 -29 -25 -66 -50
-83 -55 -18 -6 -31 -23 -32 -43 -1 -23 -8 -15 -23 27 -20 56 -20 60 16 97 70
74 54 131 -28 98 -28 -12 -28 -11 -4 24 33 48 32 85 -5 96 -24 8 -27 16 -15
38 10 19 10 31 0 38 -9 5 -28 -18 -43 -52 -15 -33 -45 -77 -67 -97 -73 -68
-54 -180 48 -280 58 -56 175 -273 152 -281 -7 -3 -52 14 -100 37 -122 59 -190
186 -181 335 3 54 0 112 -8 130 -17 38 71 212 125 250 29 21 29 23 5 75 -44
91 24 251 119 285 20 7 26 20 20 43 -45 172 203 278 460 197 52 -17 77 -19 89
-7 19 19 14 21 -134 54 -251 54 -399 -14 -453 -208 -8 -31 -32 -69 -52 -85
-67 -52 -101 -146 -91 -248 9 -79 -64 -260 -91 -228 -11 13 54 360 80 425 25
63 27 86 14 144 -43 186 178 304 599 320 316 12 499 51 499 106 0 13 14 22 38
22 31 0 37 -7 37 -44 0 -25 -16 -63 -37 -88 -43 -51 -48 -70 -15 -58 12 5 -16
-41 -62 -103 -55 -73 -81 -120 -75 -136 11 -29 54 -2 54 33 0 11 51 89 113
173 61 84 112 164 112 177 0 14 10 38 22 54 49 65 12 112 -88 112 -29 0 -56 6
-61 14 -13 21 89 202 216 385 101 145 118 177 126 251 11 92 62 244 94 281 24
28 28 50 6 37 -21 -14 31 104 167 373 69 137 117 251 113 266 -11 41 138 434
257 676 113 232 114 252 18 252 -44 0 -149 -71 -149 -102 -1 -11 -6 -16 -13
-12 -6 4 -12 -6 -12 -22 0 -40 6 -37 68 30 48 52 126 91 144 73 4 -4 -35 -98
-87 -208 -52 -111 -102 -218 -111 -239 -36 -82 -46 156 -12 266 15 48 -20 44
-38 -4 -8 -22 -16 -118 -17 -214 -3 -270 -46 -331 -252 -359 -218 -29 -281
409 -110 755 89 182 99 189 209 169 78 -15 101 -14 154 7 108 44 226 25 335
-53 22 -16 29 -16 41 2 10 17 3 27 -28 40 -23 10 -70 35 -105 57 -61 39 -68
40 -216 30 -237 -15 -235 24 15 215 143 110 319 124 541 45z m-4872 27 c0 -3
-8 -11 -17 -17 -11 -7 -14 -4 -7 7 11 17 24 23 24 10z m-45 -52 c0 -23 -95
-72 -161 -83 -92 -15 -81 16 12 36 42 9 91 26 109 39 37 26 40 26 40 8z m3600
-23 c0 -24 -8 -38 -22 -38 -42 0 -27 59 18 74 2 0 4 -16 4 -36z m98 22 c15
-25 -9 -106 -33 -116 -31 -11 -52 25 -41 71 12 52 54 77 74 45z m184 -41 c-5
-66 2 -83 26 -64 18 16 22 13 22 -19 0 -37 -33 -78 -49 -62 -5 5 -5 18 -1 30
10 26 -27 28 -52 3 -30 -30 -39 0 -18 62 11 33 30 63 43 66 14 4 26 7 28 8 2
1 3 -10 1 -24z m-109 -30 c-12 -47 -33 -74 -47 -60 -13 13 24 101 42 101 9 0
11 -17 5 -41z m2131 -48 c-21 -46 -32 -6 -16 56 10 37 11 38 22 11 6 -17 3
-47 -6 -67z m-3119 -11 c-5 -5 -10 -1 -10 10 0 11 5 16 10 10 6 -5 6 -14 0
-20z m-799 -29 c37 -14 28 -33 -13 -31 -38 3 -47 11 -28 30 12 12 12 12 41 1z
m1984 -46 c-5 -5 -10 -1 -10 10 0 11 5 16 10 10 6 -5 6 -14 0 -20z m-1990 -5
c0 -8 10 -10 21 -6 21 8 63 -95 46 -112 -4 -4 -7 3 -7 14 -1 15 -6 13 -17 -6
-15 -26 -17 -26 -44 -2 -26 24 -27 24 -21 -12 7 -39 -75 -153 -100 -137 -7 4
-17 -3 -22 -16 -12 -31 -51 -30 -51 2 0 14 -4 21 -9 16 -5 -5 -19 -1 -30 10
-16 17 0 41 96 141 113 118 138 138 138 108z m2090 -16 c6 -26 2 -31 -21 -24
-16 4 -29 0 -29 -9 0 -9 -4 -12 -9 -7 -9 9 26 71 41 71 5 0 13 -14 18 -31z
m-2560 -21 c-5 -13 -3 -23 5 -23 9 0 9 -14 2 -34 -7 -18 -10 -56 -6 -83 5 -35
-1 -59 -20 -81 -16 -18 -20 -27 -10 -21 32 18 22 -29 -12 -60 -18 -15 -39 -42
-47 -58 -10 -19 4 -12 37 20 30 28 57 43 62 34 5 -8 -11 -29 -36 -47 -25 -18
-42 -38 -37 -45 4 -7 1 -17 -8 -22 -9 -6 -11 -17 -5 -26 6 -10 3 -12 -8 -6
-10 6 -14 18 -9 25 5 8 4 14 -3 13 -33 -6 -43 5 -45 46 -1 24 4 41 11 37 6 -4
16 -1 21 8 6 8 3 15 -4 15 -22 0 -17 77 7 124 12 23 17 48 12 56 -5 8 2 15 15
15 26 0 29 13 8 45 -12 19 -15 19 -15 1 0 -11 -4 -17 -9 -12 -5 5 -2 21 7 36
9 15 16 20 17 10 0 -9 11 -21 23 -26 18 -7 22 -2 15 21 -11 33 0 60 24 60 9 0
12 -10 8 -22z m1196 10 c4 -6 -6 -12 -21 -12 -15 0 -25 6 -21 12 4 7 14 12 21
12 7 0 17 -5 21 -12z m163 -86 c-54 -78 -79 -99 -79 -67 0 8 -12 10 -26 6 -22
-7 -22 -6 -5 7 12 8 27 12 33 8 14 -8 45 47 34 58 -5 5 -1 23 9 41 10 18 21
29 26 24 4 -4 2 -17 -5 -28 -7 -11 -1 -5 15 14 56 65 54 17 -2 -63z m1316 84
c0 -8 31 -19 69 -25 89 -13 58 -35 -50 -36 -94 0 -120 64 -30 74 6 0 11 -5 11
-13z m-1430 -35 c1 -18 4 -43 7 -55 3 -12 -5 -23 -17 -23 -12 -1 -22 -13 -20
-28 1 -21 -2 -22 -19 -9 -30 25 -26 64 10 109 38 48 36 48 39 6z m335 27 c0
-3 -8 -11 -17 -17 -11 -7 -14 -4 -7 7 11 17 24 23 24 10z m159 -42 c-1 -18
-13 -42 -28 -53 -14 -11 -26 -25 -26 -32 0 -23 52 -9 77 22 31 36 56 17 31
-23 -10 -16 -18 -38 -18 -49 -1 -27 -102 -139 -115 -126 -5 5 6 27 25 48 29
30 53 97 36 97 -3 0 -23 -30 -44 -67 -44 -74 -54 -80 -83 -45 -17 22 -20 22
-32 0 -8 -12 -20 -23 -29 -23 -23 0 44 104 110 170 31 32 53 64 49 71 -5 8 2
10 15 4 13 -5 23 -3 22 4 -3 18 0 36 7 36 3 0 4 -15 3 -34z m2082 21 c13 -20
-92 -62 -153 -61 l-55 1 75 36 c78 38 120 46 133 24z m-2408 -60 c-35 -45 -58
-58 -58 -34 0 19 75 97 85 87 5 -5 -7 -29 -27 -53z m113 41 c-8 -13 3 -15 37
-8 58 11 56 -6 -10 -73 -28 -28 -46 -58 -40 -67 5 -9 -3 -35 -18 -57 -14 -22
-25 -46 -23 -52 1 -6 -4 -11 -12 -11 -39 0 -92 -82 -59 -93 20 -7 -107 -252
-132 -252 -34 0 -19 40 73 190 19 32 23 49 12 53 -10 3 16 50 60 107 43 55 73
107 69 115 -5 8 3 33 17 56 l26 42 -33 -29 c-28 -25 -33 -25 -33 -5 0 14 9 30
20 37 11 6 24 23 29 38 6 14 14 26 19 26 5 0 4 -8 -2 -17z m-74 -59 c-37 -41
-45 -25 -13 24 15 23 30 33 33 23 3 -10 -6 -31 -20 -47z m-142 24 c0 -3 -8
-11 -17 -17 -11 -7 -14 -4 -7 7 11 17 24 23 24 10z m-262 -38 c5 -8 5 -15 1
-15 -4 0 -11 7 -16 15 -6 8 -6 15 -2 15 4 0 11 -7 17 -15z m112 -2 c0 -7 -7
-13 -15 -13 -8 0 -15 -7 -15 -15 0 -8 11 -15 24 -15 17 0 22 -9 17 -29 -6 -21
-2 -26 15 -20 17 7 20 1 12 -24 -10 -33 14 -46 26 -13 4 10 13 13 20 7 7 -7
-4 -42 -24 -79 -23 -41 -42 -61 -51 -52 -8 8 -4 28 12 52 13 21 19 38 13 38
-7 0 -24 -20 -39 -45 -15 -25 -20 -45 -11 -45 9 0 16 -10 16 -22 0 -13 9 -19
23 -13 12 4 22 2 22 -5 -1 -19 -24 -53 -37 -53 -7 0 -18 9 -25 20 -10 17 -13
16 -13 -2 0 -20 -2 -20 -14 -1 -9 14 -9 29 0 39 8 10 8 36 0 65 -11 37 -9 50
6 56 11 5 25 19 30 33 8 19 4 19 -21 -4 -44 -40 -56 -17 -17 32 20 25 26 44
17 47 -9 3 -24 19 -33 36 -12 22 -11 28 1 20 9 -5 16 -4 16 4 0 7 10 13 23 13
12 0 22 -6 22 -12z m450 2 c0 -8 -7 -15 -16 -15 -9 0 -12 7 -6 15 5 8 12 15
15 15 4 0 7 -7 7 -15z m498 -48 c-14 -14 -18 -10 -18 18 0 28 4 32 18 18 14
-14 14 -22 0 -36z m-1628 -7 c-5 -5 -14 -5 -20 0 -5 6 -1 10 10 10 11 0 16 -4
10 -10z m568 -5 c5 -8 5 -15 1 -15 -4 0 -11 7 -16 15 -6 8 -6 15 -2 15 4 0 11
-7 17 -15z m786 -62 c-13 -24 -20 -27 -29 -13 -12 19 -16 14 -68 -82 -9 -17
-28 -30 -42 -28 -16 1 -37 -19 -54 -53 -29 -56 -91 -123 -91 -97 0 8 22 48 49
88 70 108 69 107 84 84 9 -14 22 -1 46 48 25 51 43 70 73 74 22 4 42 8 45 9 2
1 -4 -12 -13 -30z m33 -48 c-9 -11 -12 -36 -8 -56 7 -29 5 -32 -7 -14 -14 19
-17 19 -17 1 0 -15 -5 -17 -16 -6 -17 17 2 81 35 116 24 27 37 -12 13 -41z
m-1666 -8 c-11 -20 -11 -33 -1 -39 23 -15 18 -35 -10 -41 -24 -4 -24 -6 0 -30
23 -23 22 -27 -26 -56 -60 -37 -78 -39 -90 -7 -13 34 -11 51 6 51 8 0 15 -10
15 -22 0 -14 9 -19 24 -13 19 7 20 12 4 22 -13 8 -14 13 -3 13 10 0 14 13 10
29 -10 37 -80 0 -80 -42 0 -18 -4 -20 -13 -5 -6 10 -23 15 -37 9 -43 -16 -27
15 21 43 25 14 42 32 37 41 -6 8 0 11 14 5 15 -5 23 -2 20 10 -3 11 17 25 44
32 26 8 52 21 57 29 18 29 25 2 8 -29z m862 13 c5 -8 5 -15 1 -15 -4 0 -11 7
-16 15 -6 8 -6 15 -2 15 4 0 11 -7 17 -15z m247 0 c0 -8 -14 -15 -31 -15 -17
0 -27 7 -21 15 5 8 18 15 30 15 12 0 22 -7 22 -15z m-1035 -30 c0 -8 -14 -15
-31 -15 -17 0 -27 7 -21 15 5 8 18 15 30 15 12 0 22 -7 22 -15z m1265 -71
c-110 -191 -205 -275 -117 -105 38 75 141 197 154 184 3 -3 -13 -39 -37 -79z
m242 41 c-15 -17 -30 -27 -34 -23 -10 10 27 53 46 53 9 0 3 -14 -12 -30z
m-506 -13 c17 -29 11 -47 -15 -47 -8 0 -10 10 -6 23 5 12 3 22 -5 22 -8 0 -15
7 -15 15 0 24 21 17 41 -13z m469 -54 c0 -25 -54 -113 -69 -113 -12 0 -8 20
14 60 28 51 55 77 55 53z m-503 -39 c-5 -8 -15 -11 -23 -6 -8 5 -11 15 -6 23
5 8 15 11 23 6 8 -5 11 -15 6 -23z m376 -117 c-37 -76 -75 -137 -82 -137 -17
0 82 222 115 259 45 50 35 13 -33 -122z m182 110 c0 -12 -5 -22 -10 -22 -6 0
-29 -25 -52 -56 l-41 -56 10 45 c6 24 23 59 39 76 16 17 24 36 18 42 -6 6 0 7
13 2 13 -5 23 -19 23 -31z m-1926 3 c9 6 11 3 5 -8 -12 -20 -54 -23 -54 -4 0
20 22 35 27 18 3 -9 13 -12 22 -6z m169 -25 c5 -8 -2 -15 -15 -15 -14 0 -21 7
-15 15 5 8 11 15 15 15 3 0 9 -7 15 -15z m1777 -23 c0 -17 -49 -82 -62 -82 -8
0 -3 20 10 45 20 39 52 62 52 37z m126 -34 c-7 -21 -4 -21 15 4 13 16 24 21
24 12 0 -17 -28 -41 -49 -41 -6 0 -10 -7 -10 -14 2 -17 -45 -45 -56 -34 -4 4
-2 17 5 28 6 11 12 26 12 35 0 8 11 15 23 15 12 1 21 9 18 20 -2 11 3 15 11
10 8 -5 11 -21 7 -35z m-1930 18 c-5 -5 -18 -6 -29 -1 -12 5 -8 8 9 9 16 0 25
-3 20 -8z m1536 -77 c-62 -115 -101 -239 -56 -180 29 38 39 16 14 -34 -22 -45
-71 -48 -54 -4 7 18 3 21 -12 12 -12 -7 -17 -7 -11 -1 6 7 4 25 -5 42 -10 19
-11 26 -1 20 9 -5 21 6 26 25 15 47 99 176 115 176 8 0 0 -25 -16 -56z m298
36 c0 -31 -55 -75 -78 -62 -11 7 -15 6 -9 0 6 -7 -2 -31 -18 -54 -17 -22 -30
-49 -30 -58 0 -9 -7 -16 -15 -16 -32 0 14 92 81 160 51 53 69 61 69 30z
m-1553 -41 c-4 -6 -24 -10 -46 -10 -26 0 -33 4 -20 12 23 14 75 12 66 -2z
m1336 -58 c-13 -25 -30 -46 -38 -46 -23 0 -18 16 19 70 40 58 53 42 19 -24z
m-1456 44 c6 -8 0 -11 -14 -6 -26 10 -30 21 -9 21 8 0 18 -7 23 -15z m1233
-25 c-5 -5 -14 -5 -20 0 -5 6 -1 10 10 10 11 0 16 -4 10 -10z m290 1 c0 -17
-63 -98 -71 -90 -9 9 44 99 59 99 7 0 12 -4 12 -9z m255 -6 c0 -8 -7 -15 -15
-15 -8 0 -15 7 -15 15 0 8 7 15 15 15 8 0 15 -7 15 -15z m-715 -22 c6 -14 1
-19 -13 -13 -24 9 -30 35 -9 35 8 0 18 -10 22 -22z m625 -38 c0 -32 22 -40 38
-15 5 8 0 15 -10 15 -27 0 -2 20 32 25 17 3 30 -2 30 -11 0 -9 7 -12 15 -6 8
5 15 -2 15 -15 0 -13 -8 -23 -19 -22 -54 8 -112 -22 -138 -69 -15 -28 -33 -47
-40 -43 -19 11 -58 -88 -43 -106 8 -10 -2 -16 -24 -18 -40 -2 -40 7 2 111 12
29 15 52 6 57 -16 10 20 89 48 106 18 11 17 6 -12 -64 -5 -12 4 -15 25 -9 20
5 35 24 40 51 10 49 35 58 35 13z m-2864 -272 c47 -65 3 -130 -220 -320 -96
-82 -380 -176 -322 -107 14 17 13 29 -1 51 -65 105 142 446 327 541 35 17 67
38 72 46 10 16 -125 -39 -148 -60 -7 -6 -34 -8 -60 -4 -37 6 -65 -5 -136 -54
l-90 -62 60 55 c74 68 163 110 232 111 29 0 73 12 98 28 l45 27 57 -106 c31
-58 70 -123 86 -146z m1221 227 c6 -8 -6 -13 -28 -12 -20 2 -34 9 -30 15 11
17 47 15 58 -3z m1890 -1 c-6 -10 1 -14 18 -11 40 7 43 -50 5 -94 l-32 -36 8
57 c8 58 7 58 -22 31 -28 -25 -32 -25 -55 -2 -14 14 -19 31 -12 37 7 6 15 3
19 -7 4 -13 16 -9 38 11 35 33 48 38 33 14z m-1934 -44 c5 -8 5 -15 1 -15 -4
0 -11 7 -16 15 -6 8 -6 15 -2 15 4 0 11 -7 17 -15z m1463 -17 c12 -22 12 -29
0 -21 -9 5 -16 0 -16 -14 0 -27 -17 -30 -40 -7 -11 11 -24 8 -43 -11 -27 -27
-27 -27 -17 0 5 15 10 37 10 49 0 11 11 21 23 21 13 0 20 -7 15 -15 -6 -8 4
-15 21 -15 21 0 27 7 21 23 -13 33 7 26 26 -10z m44 17 c0 -8 -7 -15 -15 -15
-8 0 -15 7 -15 15 0 8 7 15 15 15 8 0 15 -7 15 -15z m298 -36 c3 -17 -1 -24
-12 -17 -9 5 -16 3 -16 -5 0 -8 25 -18 56 -21 43 -5 37 -6 -21 -6 -79 0 -123
42 -76 73 29 19 63 7 69 -24z m-573 -4 c-5 -5 -10 -1 -10 10 0 11 5 16 10 10
6 -5 6 -14 0 -20z m15 -45 c-5 -5 -10 -1 -10 10 0 11 5 16 10 10 6 -5 6 -14 0
-20z m-2874 -49 c-91 -114 -128 -219 -131 -371 l-4 -138 -65 -60 c-36 -33 -81
-94 -100 -136 -20 -41 -41 -71 -48 -67 -19 12 -16 87 5 108 25 25 3 41 -25 18
-31 -25 -29 -112 3 -166 35 -60 41 -57 68 42 41 146 131 230 277 259 39 8 88
19 109 24 37 10 37 9 8 -14 -17 -13 -52 -24 -78 -25 -180 -1 -280 -120 -268
-316 5 -75 3 -119 -7 -119 -8 0 -15 14 -15 30 0 42 -37 37 -74 -10 -38 -47
-41 -140 -8 -260 27 -104 27 -105 -8 -60 -16 21 -29 59 -30 84 0 26 -10 55
-21 65 -53 44 -63 289 -15 338 20 19 19 28 -1 67 -37 71 -12 284 39 338 8 8 7
-6 -2 -32 -20 -55 -14 -218 8 -225 9 -3 15 38 15 104 1 163 129 379 311 523
94 74 116 74 57 -1z m3299 38 c0 -14 -45 -21 -53 -8 -5 8 5 14 22 14 17 0 31
-3 31 -6z m-80 -34 c-5 -5 -10 -1 -10 10 0 11 5 16 10 10 6 -5 6 -14 0 -20z
m-3368 -54 c-15 -15 -17 -13 -9 8 6 15 14 24 19 19 5 -5 0 -17 -10 -27z m3459
10 c-5 -5 -18 -6 -29 -1 -12 5 -8 8 9 9 16 0 25 -3 20 -8z m904 -28 c0 -68
-85 -298 -106 -285 -40 25 12 246 66 280 20 13 40 15 40 5z m-4395 -13 c0 -3
-15 -18 -34 -34 l-33 -28 28 33 c27 32 39 41 39 29z m3145 -92 c-6 -14 -16
-21 -24 -16 -8 5 -18 2 -23 -6 -5 -8 -1 -19 8 -24 11 -7 4 -19 -19 -35 -20
-13 -69 -51 -107 -83 -72 -59 -94 -67 -231 -80 -55 -5 -89 -17 -118 -44 -22
-20 -49 -33 -61 -29 -12 5 -17 2 -12 -6 5 -8 18 -15 30 -15 39 0 23 -27 -25
-43 -52 -18 -97 -4 -50 15 18 7 6 9 -28 3 -55 -8 -58 -7 -48 25 9 26 7 31 -9
22 -11 -7 -8 2 8 20 27 32 64 32 45 0 -6 -9 10 -1 36 18 26 20 56 30 70 25 27
-11 21 5 -21 58 l-23 30 35 -30 c26 -22 38 -25 43 -12 4 11 18 19 32 19 14 0
41 11 61 25 27 19 33 20 24 4 -10 -17 -9 -18 8 -3 29 27 49 23 37 -7 -7 -20
-6 -22 8 -9 10 10 26 14 37 10 10 -4 24 1 30 11 7 12 5 15 -5 9 -9 -6 -20 -5
-24 3 -10 16 24 92 41 92 6 0 8 6 3 14 -4 7 10 11 31 9 29 -3 42 4 47 24 4 15
13 28 21 28 22 0 15 -41 -11 -67 -32 -32 -22 -38 24 -13 21 11 29 20 18 20
-11 0 -15 7 -10 16 6 9 19 13 30 8 11 -4 28 3 38 14 10 12 27 22 38 22 12 0
21 8 21 18 0 13 4 14 17 1 9 -9 13 -28 8 -41z m375 42 c-5 -5 -14 -5 -20 0 -5
6 -1 10 10 10 11 0 16 -4 10 -10z m272 -36 c88 -67 123 -112 123 -159 0 -52
-34 -82 -75 -68 -34 11 -270 201 -270 216 0 50 160 57 222 11z m-2967 -136 c0
-6 -41 -45 -91 -89 l-91 -78 -43 51 c-56 64 -57 56 24 155 97 119 73 119 -32
0 l-86 -99 46 -43 c26 -23 51 -60 56 -81 10 -36 52 -57 52 -25 0 17 47 68 125
136 l57 50 118 -117 118 -118 -100 -109 c-77 -84 -105 -105 -120 -92 -16 13
-16 18 0 28 14 10 1 31 -52 82 -92 88 -96 143 -18 229 57 64 70 98 20 53 -106
-94 -142 -193 -88 -243 30 -28 30 -28 -13 -21 -31 4 -52 22 -74 61 -62 110
-198 204 -198 137 0 -8 14 -15 32 -15 137 0 172 -241 44 -307 -51 -26 -58 -45
-23 -59 42 -16 107 32 140 102 43 91 157 59 206 -59 27 -65 67 -55 118 28 44
74 121 160 143 160 25 0 19 -10 -86 -137 -56 -67 -100 -129 -98 -139 14 -75
18 -103 10 -84 -18 42 -71 90 -100 90 -16 0 -49 21 -73 47 -47 51 -71 50 -43
-1 9 -18 53 -48 98 -68 86 -38 105 -69 94 -152 l-6 -43 -17 38 c-31 74 -183
139 -185 80 -1 -26 -2 -26 -16 3 -22 44 -91 81 -152 81 -32 0 -61 11 -78 30
-15 17 -36 30 -45 30 -10 0 -31 14 -47 32 -38 42 -109 77 -135 67 -32 -12 -25
-42 8 -32 20 7 44 -6 82 -44 29 -29 63 -53 76 -53 13 0 37 -22 53 -49 40 -65
38 -77 -7 -33 -46 46 -102 48 -133 3 -23 -32 -23 -33 -24 -3 -1 17 7 39 18 50
15 15 11 24 -19 47 -38 29 -90 40 -90 19 0 -7 -15 -19 -34 -27 -36 -16 -60
-142 -27 -142 9 0 16 22 16 49 0 54 48 109 84 95 12 -4 21 -28 21 -53 0 -105
42 -151 70 -76 29 75 125 41 125 -44 -1 -67 -35 -84 -109 -54 -18 8 -26 4 -26
-13 0 -13 12 -24 28 -24 15 0 43 -13 62 -30 19 -16 37 -30 39 -30 18 0 66 129
66 176 1 109 90 121 143 18 30 -58 29 -60 -23 -34 -80 39 -109 -28 -31 -72 57
-33 76 -126 37 -191 -23 -39 -24 -48 -5 -71 20 -23 15 -25 -65 -18 -109 9
-107 5 -64 109 33 82 36 128 8 128 -7 0 -17 -20 -22 -45 -11 -46 -71 -103 -80
-75 -3 8 -32 19 -65 25 -56 8 -60 12 -57 56 5 101 -19 113 -69 35 -19 -31 -44
-50 -67 -52 -21 -1 -65 -7 -98 -12 -55 -9 -62 -7 -79 30 -25 56 -23 142 4 153
17 6 21 24 15 70 -6 47 -4 55 6 31 11 -24 24 -30 53 -25 45 9 47 15 16 56 -35
46 -28 109 16 137 20 13 37 34 37 46 0 12 7 18 15 13 8 -6 23 8 33 29 10 23
68 70 144 117 70 42 119 80 109 83 -22 8 40 78 68 78 11 0 61 51 112 114 l93
114 73 -80 c40 -44 73 -85 73 -90z m2395 142 c-5 -5 -10 -1 -10 10 0 11 5 16
10 10 6 -5 6 -14 0 -20z m-3340 -72 c0 -3 -8 -11 -17 -17 -11 -7 -14 -4 -7 7
11 17 24 23 24 10z m3361 -101 c-8 -19 -15 -26 -15 -15 -1 11 -8 16 -16 10 -9
-5 -11 -16 -5 -25 5 -10 3 -12 -6 -7 -9 6 -30 -7 -47 -29 -17 -21 -39 -40 -50
-42 -11 -1 -49 -24 -86 -51 -75 -55 -91 -59 -81 -22 6 24 64 68 125 96 35 15
150 130 150 148 0 10 9 8 22 -5 17 -17 19 -32 9 -58z m369 68 c-5 -5 -14 -5
-20 0 -5 6 -1 10 10 10 11 0 16 -4 10 -10z m2375 -125 c-17 -24 -39 -49 -48
-55 -10 -5 1 15 25 45 50 66 69 74 23 10z m-3560 -10 c-5 -5 -10 -1 -10 10 0
11 5 15 10 10 6 -5 6 -14 0 -20z m125 3 c0 -3 -8 -11 -17 -17 -11 -7 -14 -4
-7 7 11 17 24 23 24 10z m915 -25 c0 -7 27 -13 60 -13 74 0 76 -17 7 -50 -60
-28 -72 -31 -60 -12 4 8 -1 17 -13 22 -11 4 -23 24 -27 45 -5 27 -2 35 13 30
11 -5 20 -14 20 -22z m-1005 10 c0 -3 -8 -11 -17 -17 -11 -7 -14 -4 -7 7 11
17 24 23 24 10z m1178 -83 c13 0 18 -9 12 -22 -4 -13 -18 -23 -29 -23 -12 0
-21 -10 -21 -22 0 -13 7 -23 16 -23 9 0 12 -7 7 -15 -6 -8 -17 -15 -25 -15 -8
0 -10 7 -5 16 23 38 -52 -18 -83 -60 -35 -50 -117 -114 -130 -101 -10 10 166
190 185 190 8 0 14 13 14 29 0 16 -6 26 -12 22 -7 -4 -12 -1 -12 7 0 22 51 49
58 31 2 -8 14 -14 25 -14z m-240 -15 c-6 -8 2 -15 17 -16 34 0 -64 -89 -98
-89 -11 0 -36 -15 -54 -34 -18 -18 -50 -46 -72 -61 -26 -18 -37 -38 -33 -58 6
-30 5 -30 -25 -3 -17 16 -35 26 -40 24 -6 -3 -13 3 -16 13 -4 12 3 15 18 9 26
-9 62 38 44 56 -6 6 1 6 15 1 16 -6 42 4 72 29 25 21 53 39 62 39 29 0 89 57
69 65 -15 6 -14 11 3 24 29 20 50 21 38 1z m131 -46 c6 -5 -7 -25 -29 -45 -30
-28 -37 -30 -30 -10 5 14 4 26 -2 26 -21 0 -78 -47 -71 -59 4 -6 -17 -34 -45
-62 -58 -55 -72 -45 -18 14 18 20 25 32 15 26 -11 -6 -19 -4 -19 3 0 17 96 93
117 93 8 0 23 10 33 23 11 12 23 18 28 11 5 -6 15 -15 21 -20z m551 16 c0 -8
-7 -15 -15 -15 -8 0 -15 7 -15 15 0 8 7 15 15 15 8 0 15 -7 15 -15z m-3915
-30 c0 -8 -3 -15 -7 -15 -3 0 -10 7 -15 15 -6 8 -3 15 6 15 9 0 16 -7 16 -15z
m-72 -58 c-14 -32 -33 -55 -42 -52 -26 10 -66 -54 -66 -104 0 -25 -6 -39 -15
-33 -51 31 -10 148 74 209 70 51 78 48 49 -20z m2408 34 c-5 -5 -18 -6 -29 -1
-12 5 -8 8 9 9 16 0 25 -3 20 -8z m64 -6 c0 -8 -7 -15 -15 -15 -8 0 -15 7 -15
15 0 8 7 15 15 15 8 0 15 -7 15 -15z m1489 -17 c-9 -9 -13 -27 -8 -39 6 -17 1
-20 -22 -13 -19 6 -37 1 -51 -15 -18 -23 -17 -24 13 -15 20 7 34 5 34 -4 0 -8
-14 -19 -31 -25 -17 -5 -28 -13 -23 -18 4 -4 -7 -19 -24 -33 -19 -16 -26 -30
-16 -36 8 -5 27 4 42 20 15 17 34 30 42 30 8 0 0 -16 -18 -36 -19 -20 -29 -39
-22 -42 7 -4 5 -5 -5 -3 -9 2 -21 -10 -25 -26 -6 -23 -16 -28 -38 -21 -16 5
-34 2 -39 -6 -15 -25 -35 -19 -54 15 -20 39 -1 65 79 105 54 28 82 68 35 49
-37 -14 -26 21 16 51 21 14 56 41 78 59 40 32 69 35 37 3z m-327 -43 c-5 -8
-19 -15 -31 -15 -13 0 -18 -7 -13 -15 5 -9 4 -14 -3 -13 -44 10 -116 -48 -154
-124 -20 -41 -69 -66 -84 -43 -4 7 13 27 38 45 25 18 53 47 62 65 14 27 9 25
-29 -10 -25 -24 -52 -39 -60 -34 -8 5 -23 -1 -33 -14 -23 -27 -45 -29 -44 -3
1 25 139 139 145 120 3 -9 29 8 57 35 71 69 101 65 36 -5 -46 -49 -43 -48 22
10 68 61 129 62 91 1z m-142 30 c0 -8 -7 -15 -15 -15 -8 0 -15 7 -15 15 0 8 7
15 15 15 8 0 15 -7 15 -15z m2385 6 c0 -38 -299 -302 -319 -282 -5 5 -65 -48
-134 -118 -132 -133 -227 -214 -349 -296 -53 -35 -67 -40 -47 -18 30 35 14 46
-21 14 -12 -10 39 46 113 124 74 78 158 168 186 199 29 31 110 88 180 125 71
37 186 111 256 164 136 102 135 102 135 88z m-4689 -119 c95 -75 132 -95 189
-103 108 -14 138 -56 82 -114 -23 -25 -38 -49 -33 -54 21 -21 -156 -365 -188
-366 -18 0 -100 -95 -101 -116 -2 -119 309 237 368 421 36 109 53 125 103 92
21 -14 35 -32 29 -40 -5 -10 -13 -8 -20 4 -13 20 -60 -56 -60 -98 0 -28 24
-31 35 -4 4 10 8 5 9 -11 1 -17 5 -47 10 -68 l8 -37 -23 37 -23 38 0 -50 c-2
-160 -204 -316 -546 -421 -161 -50 -178 -45 -106 32 79 84 131 161 118 173 -6
6 -25 -10 -42 -34 -18 -25 -72 -84 -120 -132 -87 -85 -103 -156 -27 -118 13 7
63 20 111 31 229 49 489 190 592 322 45 57 44 24 -2 -48 -105 -166 -614 -431
-738 -383 -12 5 -26 -6 -34 -28 -29 -76 -139 -105 -239 -64 -66 28 -93 28 -93
-1 0 -45 -143 9 -235 89 -73 63 -170 228 -170 289 -1 55 -12 70 -71 94 -58 23
-64 46 -12 46 54 0 113 -26 113 -51 0 -12 17 -42 39 -68 41 -48 38 -56 -10
-30 -22 11 -29 10 -29 -4 0 -70 472 -99 606 -37 46 21 84 46 84 54 0 9 -29 2
-64 -16 -95 -49 -594 -60 -520 -11 17 11 14 20 -20 45 -22 17 -41 40 -41 52 0
61 -168 122 -218 80 -14 -11 -22 -12 -22 -2 0 8 -19 22 -42 30 -73 25 -129
330 -69 379 19 16 22 3 18 -109 -6 -180 11 -210 116 -197 70 8 80 5 88 -21 17
-52 139 -97 257 -94 58 2 158 -2 223 -8 113 -11 118 -10 107 17 -6 16 -14 42
-17 59 -4 18 -3 21 3 7 54 -126 131 -91 230 107 29 60 61 111 71 114 27 9 31
-46 5 -74 -38 -42 -126 -297 -108 -315 17 -17 55 39 41 62 -9 15 60 210 83
233 28 28 2 -81 -38 -157 -34 -66 -45 -165 -17 -165 13 0 24 6 24 13 0 7 34
52 76 100 99 112 154 195 146 220 -4 11 -25 -10 -49 -48 -22 -37 -57 -84 -77
-105 -20 -21 -49 -54 -66 -75 l-29 -37 -1 33 c0 19 9 34 21 34 14 0 21 17 21
52 0 28 18 90 41 138 23 48 40 105 39 127 -2 38 96 147 169 188 31 17 21 50
-15 50 -41 0 -117 -47 -192 -118 -40 -38 -69 -57 -64 -42 6 15 10 47 10 70 0
29 25 77 74 141 40 53 69 101 64 106 -41 41 73 -30 168 -105z m1708 96 c19 3
26 -6 26 -35 0 -21 8 -36 17 -34 9 2 20 -5 24 -15 3 -11 -4 -19 -17 -19 -14 0
-20 -9 -15 -21 4 -12 0 -26 -10 -32 -12 -8 -15 -5 -8 6 17 27 -8 20 -31 -9
-19 -24 -20 -23 -15 11 3 21 3 29 -1 19 -3 -11 -12 -19 -20 -19 -7 0 -10 9 -5
21 4 11 -3 31 -17 45 -13 13 -17 24 -7 24 9 0 13 6 8 14 -5 8 -2 18 7 24 9 5
11 16 5 25 -6 11 -3 12 11 3 12 -7 33 -11 48 -8z m298 -54 c-27 -48 -107 -102
-107 -71 0 4 20 28 46 53 51 50 83 59 61 18z m-2702 -41 c0 -3 -8 -11 -17 -17
-11 -7 -14 -4 -7 7 11 17 24 23 24 10z m2640 -60 c0 -3 -8 -11 -17 -17 -11 -7
-14 -4 -7 7 11 17 24 23 24 10z m-2103 -112 c-85 -83 -103 -109 -90 -125 13
-16 12 -28 -4 -50 -21 -27 -22 -26 -23 14 0 39 -4 42 -37 34 -32 -8 -38 -4
-38 24 0 27 4 30 14 13 11 -17 28 -6 82 55 53 58 169 139 199 139 2 0 -45 -47
-103 -104z m5032 -10 c-134 -140 -192 -319 -120 -375 131 -103 -37 -406 -312
-561 -166 -94 -284 -150 -363 -174 -44 -13 -114 -46 -156 -75 -42 -28 -82 -51
-90 -51 -30 0 -218 -191 -248 -253 -58 -118 -171 -216 -252 -218 -17 -1 -30
-8 -30 -17 0 -8 -20 -35 -43 -60 -24 -24 -50 -64 -59 -88 l-15 -43 -28 58
c-16 32 -39 63 -52 71 -42 23 -51 78 -28 168 12 46 18 91 14 98 -24 39 75 248
107 228 16 -11 37 -2 28 12 -5 8 -2 25 8 36 10 12 13 36 7 54 -6 18 -3 47 5
65 9 17 19 48 24 69 10 46 199 285 225 285 73 0 131 -158 85 -230 -17 -26 -50
-85 -73 -131 -23 -47 -57 -103 -75 -126 -18 -23 -33 -50 -33 -60 0 -11 -13
-36 -30 -57 -36 -46 -37 -56 -7 -56 12 0 35 21 50 46 15 25 48 60 72 78 125
94 216 184 212 211 -6 36 88 115 143 121 22 2 52 15 67 29 15 14 36 25 45 25
10 0 18 9 18 19 0 11 30 50 68 86 47 46 67 79 67 107 0 46 66 109 150 144 29
12 58 32 64 43 7 11 27 28 45 38 28 14 30 13 15 -3 -36 -38 -19 -46 32 -15 27
17 74 31 103 31 l53 0 -40 -48 c-101 -121 -177 -197 -219 -218 -169 -86 -404
-378 -290 -361 17 2 35 14 39 26 5 14 -1 18 -17 11 -39 -15 -32 -5 89 117 119
121 257 203 341 203 79 0 280 227 280 315 0 36 -30 10 -43 -37 -21 -78 -174
-225 -253 -244 l-64 -16 73 85 c41 46 88 97 105 113 35 31 43 83 13 86 -40 3
-108 -5 -145 -19 -44 -15 -43 -14 91 82 99 71 159 152 172 232 7 47 18 65 50
78 23 9 74 46 115 82 95 84 99 78 10 -16z m-3350 -49 c-8 -2 -10 -11 -6 -18 5
-8 -9 -22 -30 -31 -21 -10 -38 -22 -38 -28 0 -6 -37 -9 -83 -7 -68 2 -86 -2
-98 -25 -8 -15 -24 -28 -35 -28 -27 0 -44 46 -24 66 10 10 15 7 15 -10 0 -15
6 -26 14 -26 7 0 10 14 5 30 -9 36 -22 37 -80 7 -24 -12 -44 -16 -44 -8 0 8
-19 5 -41 -7 -48 -25 -79 -28 -79 -8 0 7 8 17 19 22 10 5 3 5 -17 0 -26 -7
-34 -4 -29 11 5 14 35 21 88 23 120 3 122 3 110 24 -8 12 -4 12 14 -2 23 -19
32 -13 26 18 -1 7 7 10 17 6 11 -3 20 -15 20 -26 0 -19 19 -22 105 -16 27 1
30 41 3 50 -10 3 7 6 38 6 34 0 49 -5 38 -12 -13 -8 -8 -11 14 -9 18 1 30 5
27 8 -4 4 2 15 11 25 15 15 22 14 36 -5 10 -14 12 -27 4 -30z m278 44 c13 -22
-25 -75 -51 -73 -64 5 -94 -4 -86 -24 9 -24 -45 -44 -58 -23 -5 9 -20 8 -36
-1 -21 -11 -30 -9 -37 8 -5 14 1 22 19 22 41 0 50 17 21 39 -26 18 20 51 72
51 23 0 16 -26 -11 -36 -13 -5 -21 -13 -16 -18 5 -5 26 3 47 17 22 14 39 21
39 15 0 -6 11 0 24 13 26 27 60 31 73 10z m-1454 -17 c6 -9 -4 -31 -21 -50
-18 -18 -32 -47 -32 -63 0 -32 -86 -180 -148 -255 l-35 -43 33 52 c57 93 121
235 127 284 9 72 52 114 76 75z m2298 -8 c-18 -18 -103 -22 -93 -5 6 9 18 13
29 9 10 -4 28 -1 39 6 22 13 41 6 25 -10z m-1471 -1 c-5 -5 -14 -5 -20 0 -5 6
-1 10 10 10 11 0 16 -4 10 -10z m-1674 -20 c57 -31 78 -99 58 -185 -26 -113
-48 -139 -37 -45 10 91 -18 120 -98 102 -27 -6 -44 -3 -44 7 0 9 6 16 13 16 7
0 20 27 30 60 19 63 31 70 78 45z m-321 -63 c-5 -12 -8 -8 -9 9 0 16 3 25 8
20 5 -5 6 -18 1 -29z m172 3 c20 -16 31 -29 25 -30 -21 0 -87 35 -87 47 0 21
25 15 62 -17z m2492 20 c-23 -9 9 -65 38 -65 11 0 15 -8 9 -18 -7 -11 -3 -14
13 -8 16 6 22 3 17 -9 -8 -20 -156 -73 -156 -56 0 6 15 19 34 28 27 13 28 16
7 17 -30 1 -35 26 -7 35 10 4 4 4 -14 1 -18 -3 -43 -9 -56 -14 -37 -14 -28 16
10 33 18 8 25 13 14 11 -11 -3 -15 2 -10 11 12 19 65 42 97 42 14 0 16 -3 4
-8z m-3178 -162 c23 -36 23 -38 -4 -38 -36 0 -47 29 -45 110 1 62 1 62 13 14
6 -26 22 -65 36 -86z m2837 97 c-6 -8 -20 -15 -32 -15 -13 0 -19 7 -13 15 5 8
19 15 31 15 13 0 19 -7 14 -15z m-2539 -56 c-5 -15 -17 -32 -25 -38 -11 -7 -9
-16 6 -26 17 -11 12 -15 -25 -15 -52 0 -77 -35 -48 -69 9 -12 10 -21 3 -21
-23 0 -50 34 -50 62 0 15 -14 29 -34 32 -19 4 -7 8 27 9 47 2 72 13 105 47 49
52 55 54 41 19z m2796 1 c-5 -5 -10 -1 -10 10 0 11 5 16 10 10 6 -5 6 -14 0
-20z m-2267 -6 c25 -41 -9 -181 -43 -176 -20 3 -32 15 -31 31 0 14 2 56 3 94
3 67 43 96 71 51z m-90 -29 c5 -8 2 -15 -7 -15 -9 0 -16 7 -16 15 0 8 3 15 7
15 3 0 10 -7 16 -15z m2520 0 c-42 -18 -56 -18 -45 0 5 8 24 15 42 14 31 -1
31 -2 3 -14z m-83 -30 c-12 -7 -25 -10 -29 -6 -4 4 2 14 14 21 12 7 25 10 29
6 4 -4 -2 -14 -14 -21z m100 5 c-5 -5 -14 -5 -20 0 -5 6 -1 10 10 10 11 0 16
-4 10 -10z m2118 -54 c-129 -185 -209 -248 -269 -210 l-46 29 117 69 c65 37
141 89 170 114 67 58 70 58 28 -2z m-5058 24 c-5 -5 -14 -5 -20 0 -5 6 -1 10
10 10 11 0 16 -4 10 -10z m390 -23 c-5 -12 -8 -8 -9 9 0 16 3 25 8 20 5 -5 6
-18 1 -29z m2496 -8 c-44 -19 -83 -32 -87 -28 -5 5 10 16 31 26 22 9 36 22 33
27 -3 6 19 10 49 10 l54 0 -80 -35z m-2830 -16 c-45 -24 -159 -18 -167 8 -5
14 21 18 99 15 96 -3 102 -5 68 -23z m114 12 c0 -8 -9 -15 -20 -15 -11 0 -33
-13 -47 -30 -21 -23 -45 -29 -97 -28 -55 2 -59 4 -20 9 27 3 78 22 113 42 73
42 71 42 71 22z m1240 -33 c-5 -12 -8 -8 -9 9 0 16 3 25 8 20 5 -5 6 -18 1
-29z m-1727 -95 c10 -8 46 -28 80 -44 48 -21 62 -36 62 -65 0 -31 -3 -34 -23
-18 -12 11 -49 21 -81 23 -108 8 -181 74 -181 165 0 19 103 -25 143 -61z
m2572 -62 c0 -25 12 -40 41 -50 67 -24 85 -38 114 -88 l28 -47 -65 30 c-36 16
-82 30 -103 30 -96 1 -105 11 -105 112 0 51 5 98 10 103 18 18 80 -53 80 -90z
m109 22 c-5 -19 -13 -24 -22 -15 -8 8 -10 30 -4 48 13 42 37 11 26 -33z m-687
12 c-16 -12 -33 -18 -37 -14 -8 8 31 34 52 35 7 0 1 -10 -15 -21z m120 -41
c-10 -15 -99 -58 -120 -58 -5 0 -5 7 0 15 6 9 -1 11 -16 5 -18 -7 -22 -5 -15
8 6 10 24 14 40 9 17 -5 39 1 53 14 26 27 73 33 58 7z m3402 -7 c4 -4 -22 -35
-58 -69 -40 -37 -66 -74 -66 -94 0 -18 -23 -59 -52 -92 -56 -64 -69 -55 -25
17 15 25 28 68 29 96 3 103 117 197 172 142z m-3604 -28 c0 -15 -29 -22 -37
-8 -6 8 1 15 14 15 12 0 23 -3 23 -7z m23 -52 c-5 -9 -24 -24 -43 -33 -31 -16
-31 -15 4 22 34 38 60 45 39 11z m58 17 c4 -7 -2 -13 -14 -13 -12 0 -22 6 -22
13 0 6 6 12 14 12 8 0 18 -6 22 -12z m-151 -37 c-26 -41 -9 -70 42 -77 27 -4
22 -19 -14 -45 -33 -25 -37 -26 -29 -4 7 16 -1 30 -23 42 -19 10 -34 19 -36
19 -1 1 -16 -11 -33 -27 -36 -32 -44 -19 -10 16 13 12 29 18 36 14 16 -10 51
27 38 40 -12 12 7 41 26 41 8 0 9 -8 3 -19z m840 -55 c11 -11 -4 -16 -51 -16
-36 0 -92 -5 -123 -10 -52 -8 -56 -6 -56 28 0 36 0 36 107 25 59 -7 115 -19
123 -27z m-255 -26 c-9 -22 4 -23 125 -14 216 17 254 -3 84 -45 -75 -18 -150
-31 -164 -28 -15 2 -39 5 -54 6 -29 1 -34 34 -10 77 18 35 32 38 19 4z m3324
-273 c-106 -75 -170 -107 -212 -106 -24 0 -10 12 47 38 45 20 102 52 128 72
25 19 56 38 68 43 54 21 45 7 -31 -47z m-1388 -141 c-6 -10 -23 -32 -37 -48
-15 -17 -38 -51 -50 -75 -21 -41 -24 -42 -24 -12 0 19 7 34 15 34 8 0 15 10
15 23 0 13 18 40 40 60 43 41 57 47 41 18z m-2121 -137 c0 -3 -10 -10 -23 -15
-14 -5 -20 -2 -14 6 8 14 37 21 37 9z m55 -184 c-5 -5 -10 -1 -10 10 0 11 5
16 10 10 6 -5 6 -14 0 -20z m2781 -270 c-36 -410 -55 -495 -154 -702 -123
-258 -422 -525 -531 -475 -21 9 -36 24 -33 32 8 25 243 195 325 236 64 31 75
42 54 49 -27 10 -11 24 135 123 10 7 10 16 -1 27 -12 12 -35 2 -84 -40 -37
-32 -94 -76 -126 -99 -32 -23 -122 -89 -200 -147 -130 -96 -212 -137 -168 -84
20 24 7 41 -22 30 -63 -24 24 124 156 267 46 50 94 88 111 88 26 0 28 7 18 71
-12 79 -12 102 1 194 7 45 18 64 40 70 26 7 27 12 11 38 -16 25 -15 35 6 58
14 16 21 41 17 58 -10 39 81 123 146 136 36 7 72 45 175 183 l131 175 4 -56
c3 -30 -2 -135 -11 -232z m-710 171 c-4 -18 -7 -3 -7 34 0 37 3 52 7 34 3 -19
3 -49 0 -68z m-2064 -36 c10 -12 6 -23 -15 -34 -44 -23 -44 -23 -26 63 14 67
17 72 21 34 3 -25 12 -53 20 -63z m1853 15 c-5 -5 -10 -1 -10 10 0 11 5 16 10
10 6 -5 6 -15 0 -20z m195 -84 c-4 -10 -8 -2 -8 19 0 21 4 29 8 19 4 -11 4
-27 0 -38z m-225 -15 c-4 -10 -8 -2 -8 19 0 21 4 29 8 19 4 -11 4 -27 0 -38z
m0 -90 c-4 -10 -8 -2 -8 19 0 21 4 29 8 19 4 -11 4 -27 0 -38z m-319 -815 c42
-16 9 -36 -56 -35 l-62 1 45 21 c24 11 46 21 47 21 1 1 13 -3 26 -8z m-647
-69 c-18 -18 -37 -29 -42 -24 -11 11 35 57 57 57 10 0 3 -15 -15 -33z m-74
-83 c-7 -28 -13 -30 -55 -15 l-46 16 52 18 c61 21 60 22 49 -19z m2817 -98
c-15 -15 -17 -13 -9 8 6 15 14 24 19 19 5 -5 0 -17 -10 -27z m-3557 -139 c25
-12 45 -31 46 -41 4 -67 16 -108 38 -133 34 -37 5 -36 -44 3 -36 28 -107 124
-145 194 -18 33 9 27 105 -23z m319 -344 c67 -50 65 -60 -8 -34 -81 28 -146
92 -135 133 9 33 9 33 48 -12 21 -24 64 -64 95 -87z m577 48 c143 4 191 -9
128 -33 -21 -8 -22 -12 -5 -22 46 -29 -246 -67 -357 -47 -3 1 3 11 13 24 22
26 10 28 -30 7 -17 -9 -25 -25 -20 -38 9 -24 -114 -30 -189 -9 -45 13 65 62
137 62 49 0 66 23 40 55 -17 20 -11 21 55 10 41 -7 144 -11 228 -9z m509 9
c-5 -5 -14 -5 -20 0 -5 6 -1 10 10 10 11 0 16 -4 10 -10z m-45 -15 c-5 -5 -14
-5 -20 0 -5 6 -1 10 10 10 11 0 16 -4 10 -10z"/>
<path d="M3018 8546 c-18 -35 -84 -124 -146 -198 -179 -217 -192 -233 -183
-242 25 -25 386 431 386 487 0 35 -23 15 -57 -47z"/>
<path d="M3260 8122 c-5 -13 -5 -27 0 -32 32 -32 -150 -236 -332 -373 -44 -32
-72 -61 -64 -64 9 -3 62 30 117 73 143 111 151 116 109 68 -59 -68 -193 -193
-249 -233 -34 -24 -47 -41 -37 -51 17 -17 49 9 226 185 70 70 138 148 150 172
12 25 44 78 71 118 27 40 49 92 49 117 0 46 -25 59 -40 20z"/>
<path d="M2417 7915 c-217 -116 -422 -359 -513 -609 -23 -63 -29 -97 -18 -108
10 -10 19 3 26 42 22 122 205 404 340 523 102 89 104 90 65 8 -53 -110 -46
-117 38 -41 41 37 100 81 131 99 41 24 25 5 -56 -68 -351 -315 -493 -486 -403
-486 25 0 28 4 15 20 -30 37 59 134 399 434 84 75 149 141 145 148 -4 7 10 21
31 30 40 19 51 43 19 43 -11 0 -78 -41 -150 -90 -72 -50 -131 -86 -131 -81 0
31 67 111 105 124 25 8 45 23 45 31 0 23 -16 20 -88 -19z"/>
<path d="M3493 7683 c-54 -55 -360 -223 -467 -257 -73 -24 -73 -48 0 -28 63
17 331 149 402 196 38 27 37 22 -15 -32 -38 -39 -82 -69 -120 -79 -103 -28
-148 -56 -127 -81 14 -17 12 -24 -7 -31 -26 -10 -33 -51 -9 -51 8 0 15 6 15
14 0 19 86 46 151 46 50 0 74 18 74 56 0 4 -39 5 -86 0 -83 -8 -76 6 11 25 69
15 255 204 255 260 0 30 -18 21 -77 -38z"/>
<path d="M3816 7663 c-16 -18 -91 -82 -168 -144 -174 -138 -183 -177 -11 -46
l45 35 -35 -50 c-27 -38 -38 -94 -12 -62 141 178 176 221 203 245 33 29 42 54
19 54 -7 0 -25 -14 -41 -32z"/>
<path d="M2422 7586 c-180 -98 -307 -217 -307 -290 0 -49 -3 -51 127 83 63 65
146 134 184 153 86 44 125 75 115 91 -12 18 -21 15 -119 -37z m-195 -180 c-24
-27 -49 -55 -56 -63 -6 -8 -11 -10 -11 -4 0 13 90 116 102 116 5 0 -11 -22
-35 -49z"/>
<path d="M1884 7578 c-28 -55 -73 -276 -65 -321 8 -45 16 -22 45 134 13 68 34
145 47 171 28 56 28 58 9 58 -8 0 -24 -19 -36 -42z"/>
<path d="M2751 7352 c-115 -40 -226 -102 -211 -117 4 -4 23 1 42 12 47 25 132
29 123 5 -5 -13 14 -16 69 -10 42 4 84 0 95 -9 19 -16 270 -49 359 -47 67 1
12 26 -63 29 l-52 1 46 21 c26 11 52 27 58 37 13 21 -1 20 -42 -2 -38 -20
-273 -18 -309 3 -19 12 -18 14 8 15 18 0 42 11 53 25 22 26 14 26 -167 -2
l-52 -8 45 21 c24 12 77 26 116 32 39 5 71 16 71 23 0 25 -65 15 -189 -29z
m34 -72 c-5 -5 -14 -5 -20 0 -5 6 -1 10 10 10 11 0 16 -4 10 -10z"/>
<path d="M3334 7333 c-44 -16 -79 -37 -79 -46 0 -9 11 -11 26 -4 15 6 64 25
109 41 45 16 85 32 89 35 17 17 -77 1 -145 -26z"/>
<path d="M3495 7325 c-54 -20 -116 -43 -138 -52 -77 -29 -64 -58 26 -58 88 0
114 25 34 33 -44 4 -38 8 56 40 57 20 111 42 119 49 30 27 -4 23 -97 -12z"/>
<path d="M2190 7238 c-28 -29 -58 -53 -66 -53 -9 0 -45 -29 -82 -64 l-66 -63
42 75 c23 41 48 81 54 89 36 40 6 37 -36 -3 -27 -26 -55 -46 -63 -45 -9 2 -34
-30 -58 -71 -41 -73 -46 -61 -16 41 5 14 1 26 -7 26 -9 0 -20 -25 -25 -56 -16
-101 -18 -103 -20 -14 -1 60 -7 84 -19 76 -17 -10 -8 -217 10 -247 12 -19 52
1 52 25 0 12 7 21 15 21 8 0 15 8 15 19 1 38 29 66 44 42 11 -17 21 -12 54 23
22 24 32 32 22 17 -11 -15 -15 -31 -9 -37 5 -5 20 5 33 23 12 18 29 33 38 33
8 0 44 13 80 30 79 36 193 135 156 135 -13 0 -33 -10 -43 -22 -10 -13 -32 -23
-49 -23 -29 0 -29 2 -6 27 61 68 16 63 -50 -4z"/>
<path d="M3120 7158 c0 -9 29 -19 64 -22 l64 -6 -64 -2 c-48 -2 -64 -9 -64
-27 0 -14 8 -21 20 -16 11 4 57 12 103 18 89 11 131 28 112 47 -19 19 -235 26
-235 8z"/>
<path d="M3172 7065 c-11 -19 8 -25 109 -37 91 -10 111 16 23 30 -31 5 -71 12
-89 15 -18 4 -37 0 -43 -8z"/>
<path d="M3678 6945 c-10 -17 -32 -65 -49 -108 l-30 -77 54 -56 c47 -47 52
-60 38 -86 -31 -59 29 -203 68 -164 6 6 -4 27 -21 46 -36 37 -45 91 -14 81 10
-3 19 -18 19 -34 0 -15 8 -30 18 -33 36 -12 21 82 -20 130 -45 53 -44 63 6 45
21 -8 37 -30 43 -59 10 -49 35 -77 35 -38 0 62 -43 128 -84 128 -38 0 -39 1
-16 27 29 33 33 124 6 152 -15 16 -13 16 14 0 23 -14 36 -41 42 -89 10 -72 30
-118 45 -103 5 5 2 27 -7 49 -18 50 -20 119 -2 108 7 -5 18 -47 23 -95 9 -83
29 -139 44 -124 4 4 -2 44 -14 90 -11 45 -21 93 -21 107 0 32 -105 116 -133
106 -13 -4 -17 0 -11 10 6 9 5 17 -2 17 -6 0 -20 -14 -31 -30z m43 -92 c21
-52 7 -92 -38 -101 -46 -9 -56 20 -30 86 30 74 42 77 68 15z"/>
<path d="M1695 6945 c0 -13 47 -45 67 -45 22 0 4 27 -29 42 -22 10 -38 11 -38
3z"/>
<path d="M2663 6887 c-353 -183 -359 -190 -420 -452 -21 -91 -19 -103 12 -77
17 14 24 13 31 -6 13 -35 12 -37 -13 -27 -13 4 -23 1 -23 -8 0 -10 5 -17 12
-17 7 0 25 -10 41 -22 29 -21 28 -21 -4 -13 -66 17 -15 -39 75 -82 17 -8 13
54 -4 65 -9 5 -11 16 -6 24 5 8 -7 32 -26 53 -30 32 -35 53 -35 143 l0 106 75
66 c91 81 243 184 347 236 43 21 82 45 87 54 19 29 -46 11 -149 -43z"/>
<path d="M2640 6673 c-45 -24 -96 -57 -113 -74 -17 -16 -42 -29 -56 -29 -13 0
-28 -7 -33 -15 -6 -8 0 -15 12 -15 29 0 22 -45 -10 -62 -49 -28 -30 -70 19
-43 30 15 71 -93 53 -139 -6 -15 6 -25 39 -31 89 -18 98 -13 56 31 -156 167
-79 283 216 324 51 7 56 4 71 -38 40 -115 -11 -199 -153 -252 -41 -15 -65 -34
-68 -53 -3 -21 -1 -24 9 -10 7 11 42 20 76 21 71 1 214 121 182 153 -22 22
-18 39 7 39 13 0 19 9 14 21 -5 13 4 25 23 31 17 6 31 17 31 25 0 8 -13 11
-28 6 -34 -11 -51 23 -38 74 11 47 -66 75 -144 53 -65 -19 -79 -19 -68 -1 20
33 -21 26 -97 -16z m71 -7 c-5 -5 -18 -6 -29 -1 -12 5 -8 8 9 9 16 0 25 -3 20
-8z"/>
<path d="M2595 6479 c0 -86 68 -156 113 -118 38 31 26 83 -29 125 -67 51 -84
49 -84 -7z m99 -82 c-14 -38 -69 14 -69 66 l0 39 40 -40 c26 -26 36 -48 29
-65z"/>
<path d="M2640 6435 c0 -8 7 -15 15 -15 8 0 15 7 15 15 0 8 -7 15 -15 15 -8 0
-15 -7 -15 -15z"/>
<path d="M2480 6218 c5 -13 3 -23 -5 -23 -33 0 -12 -27 25 -34 83 -16 103 14
36 53 -53 32 -67 33 -56 4z"/>
<path d="M3154 6025 c-6 -11 -25 -25 -41 -31 -45 -16 0 -38 78 -39 73 0 79 11
29 57 -40 38 -49 40 -66 13z"/>
<path d="M2396 5766 c-35 -19 -62 -63 -30 -48 6 2 37 14 68 26 31 12 56 27 56
34 0 19 -49 13 -94 -12z"/>
<path d="M5780 7568 c6 -16 -4 -26 -32 -32 -221 -50 -319 -99 -431 -215 -33
-34 -91 -82 -129 -105 -38 -24 -96 -70 -127 -101 -32 -32 -63 -56 -70 -53 -7
2 -9 -2 -5 -10 5 -8 -1 -38 -14 -67 -30 -73 -29 -115 4 -114 15 1 19 5 9 9
-20 8 -8 63 29 133 42 80 193 202 249 202 19 0 47 24 75 65 62 90 265 217 297
185 5 -5 23 -2 39 7 24 13 29 12 22 -4 -5 -11 -32 -78 -60 -148 -88 -218 -191
-337 -375 -430 -89 -45 -85 -61 6 -26 186 73 306 202 389 419 71 183 93 217
143 217 47 0 59 26 28 61 -32 34 -59 38 -47 7z"/>
<path d="M3900 6344 c0 -32 50 -89 132 -151 47 -35 114 -95 149 -132 35 -38
64 -62 64 -53 0 19 -86 125 -131 162 -19 15 -30 34 -26 41 5 8 0 10 -11 6 -21
-8 -147 103 -147 129 0 8 -7 14 -15 14 -8 0 -15 -7 -15 -16z"/>
<path d="M3882 6067 c-5 -5 12 -74 36 -154 25 -80 51 -170 58 -201 8 -30 26
-88 42 -127 15 -40 32 -85 37 -101 6 -16 14 -25 18 -21 9 9 -155 585 -171 601
-6 6 -15 8 -20 3z"/>
<path d="M4928 6390 c5 -8 12 -15 15 -15 4 0 7 7 7 15 0 8 -7 15 -16 15 -9 0
-12 -7 -6 -15z"/>
<path d="M5136 6330 c0 -19 6 -24 15 -15 10 10 10 20 0 30 -9 10 -15 4 -15
-15z"/>
<path d="M4823 6090 c5 -8 12 -15 16 -15 4 0 4 7 -1 15 -6 8 -13 15 -17 15 -4
0 -4 -7 2 -15z"/>
<path d="M5406 6088 c-7 -11 -4 -14 7 -7 9 6 17 14 17 17 0 13 -13 7 -24 -10z"/>
<path d="M4335 4650 c-30 -19 -8 -36 23 -18 14 7 20 18 12 22 -8 5 -24 3 -35
-4z"/>
<path d="M7780 4128 c-22 -31 -40 -65 -40 -75 0 -29 27 -21 37 11 5 15 20 37
33 48 43 36 8 -43 -85 -191 -90 -144 -578 -741 -605 -741 -9 0 12 29 46 64 34
35 72 89 84 120 39 94 252 402 353 510 53 56 91 107 85 113 -21 20 -338 -354
-338 -400 0 -8 -5 -17 -12 -20 -14 -6 -108 -157 -108 -174 0 -11 -46 -72 -272
-361 -53 -69 -60 -85 -45 -109 24 -39 -121 -193 -183 -193 -120 0 -124 123 -7
250 17 18 26 39 22 47 -5 7 11 32 35 55 33 32 42 52 36 81 -5 24 20 130 61
263 37 123 68 230 68 236 0 23 -23 13 -42 -19 -15 -23 -16 -28 -2 -20 14 8 16
4 9 -13 -34 -91 -130 -414 -130 -441 0 -18 -19 -55 -43 -82 -163 -189 -167
-387 -7 -387 93 0 223 136 227 238 1 31 68 152 84 152 4 0 -10 -33 -29 -74
-28 -57 -33 -83 -23 -118 10 -34 6 -55 -15 -87 -51 -78 -31 -171 24 -111 24
27 24 30 2 30 -32 0 -33 -4 20 99 50 100 55 126 23 126 -51 0 19 100 314 444
50 58 107 126 127 150 20 24 68 81 106 126 121 143 285 419 285 479 0 51 -52
36 -95 -26z"/>
<path d="M5910 2948 c0 -7 11 -25 25 -40 32 -36 -129 -244 -191 -247 -60 -3
-66 -5 -48 -23 26 -26 87 -3 136 51 24 27 72 79 106 117 l61 69 -44 43 c-25
23 -45 37 -45 30z"/>
<path d="M5541 2642 c-49 -31 -101 -72 -117 -90 -16 -17 -44 -32 -63 -32 -48
0 -111 -26 -111 -46 0 -11 10 -13 26 -6 15 6 53 16 86 22 34 7 73 28 91 49 56
65 209 156 157 94 -27 -33 6 -28 35 4 70 78 12 81 -104 5z"/>
<path d="M5580 2570 c-85 -30 -214 -112 -245 -157 -39 -55 -16 -51 49 7 108
98 240 150 306 122 22 -9 27 -6 23 17 -7 37 -50 41 -133 11z"/>
<path d="M5042 2433 c-1 -33 6 -52 22 -58 28 -11 158 53 167 82 4 11 -23 3
-64 -19 -91 -48 -109 -48 -116 3 -6 38 -7 38 -9 -8z"/>
<path d="M6317 2425 c-10 -12 -52 -30 -93 -40 -113 -27 -208 -136 -149 -172 8
-6 15 7 15 28 0 49 86 109 178 123 62 10 86 31 74 67 -4 12 -12 10 -25 -6z"/>
<path d="M5463 1939 c-53 -76 -78 -137 -78 -193 0 -60 51 -156 83 -156 25 0
33 -27 46 -161 5 -60 18 -120 29 -135 16 -22 18 -10 11 72 -7 93 -6 99 32 124
51 34 50 79 -3 106 -139 72 -189 220 -100 298 28 26 52 55 52 66 0 34 -42 22
-72 -21z m56 -323 c82 -78 87 -86 55 -86 -12 0 -25 -8 -28 -19 -4 -10 -12 7
-18 39 -7 32 -23 61 -36 66 -33 12 -77 50 -77 68 0 22 23 7 104 -68z"/>
<path d="M5946 1968 c-52 -34 -66 -171 -35 -341 21 -115 51 -150 38 -44 -31
254 -24 358 21 330 7 -5 18 -1 23 8 14 22 -26 61 -47 47z"/>
<path d="M5801 1871 c-4 -10 -1 -62 7 -115 16 -105 -3 -171 -47 -162 -18 3
-23 23 -23 79 l0 74 -60 8 c-33 5 -82 21 -108 37 -57 33 -99 22 -92 -26 4 -27
16 -34 62 -38 72 -6 115 -88 119 -228 2 -49 8 -90 14 -90 6 0 5 -17 -3 -38
-26 -67 -17 -92 58 -175 61 -66 71 -85 60 -113 -24 -65 -103 -14 -103 67 0 19
-7 34 -15 34 -42 0 7 -137 59 -165 45 -23 58 -19 83 29 35 68 28 97 -37 149
-83 67 -90 86 -66 179 18 70 18 83 -2 103 -12 12 -22 38 -22 58 0 20 -13 70
-28 110 l-28 73 36 0 c30 0 35 -7 35 -55 0 -53 42 -121 75 -121 46 0 77 91 66
197 -8 79 -6 105 7 97 11 -7 17 1 17 20 0 35 -52 44 -64 12z m-251 -101 c0 -8
-10 -15 -22 -15 -13 0 -23 7 -23 15 0 8 10 15 23 15 12 0 22 -7 22 -15z"/>
<path d="M6210 1579 c-1 -31 -21 -104 -45 -161 -51 -118 -49 -113 -33 -113 36
0 131 261 113 309 -16 40 -35 21 -35 -35z"/>
<path d="M5828 1522 c-58 -30 -97 -67 -71 -67 11 0 36 11 57 25 28 18 42 20
55 7 27 -27 44 -20 38 16 -6 42 -25 47 -79 19z"/>
<path d="M6398 360 c5 -8 18 -15 30 -15 12 0 22 7 22 15 0 8 -14 15 -31 15
-17 0 -27 -7 -21 -15z"/>
<path d="M4821 5368 c-7 -11 -4 -14 7 -7 9 6 17 14 17 17 0 13 -13 7 -24 -10z"/>
<path d="M4851 5338 c-7 -11 -4 -14 7 -7 17 11 23 24 10 24 -3 0 -11 -8 -17
-17z"/>
<path d="M4296 5173 c-7 -11 -4 -14 7 -7 17 11 23 24 10 24 -3 0 -11 -8 -17
-17z"/>
<path d="M4296 5098 c-7 -11 -4 -14 7 -7 17 11 23 24 10 24 -3 0 -11 -8 -17
-17z"/>
<path d="M5585 5330 c6 -5 15 -5 20 0 6 6 1 10 -10 10 -11 0 -15 -4 -10 -10z"/>
<path d="M6001 5173 c-30 -24 -32 -32 -15 -47 12 -10 16 -13 11 -5 -6 7 4 25
22 40 19 14 30 30 26 34 -4 4 -24 -6 -44 -22z"/>
<path d="M5900 5300 c6 -5 15 -5 20 0 6 6 1 10 -10 10 -11 0 -15 -4 -10 -10z"/>
<path d="M5743 4174 c-19 -24 -18 -25 6 -6 14 11 26 23 26 26 0 13 -12 5 -32
-20z"/>
<path d="M5676 4123 c-7 -11 -4 -14 7 -7 9 6 17 14 17 17 0 13 -13 7 -24 -10z"/>
<path d="M5483 4065 c5 -8 12 -15 16 -15 4 0 4 7 -1 15 -6 8 -13 15 -17 15 -4
0 -4 -7 2 -15z"/>
<path d="M6621 3633 c-9 -6 -21 -24 -26 -40 -11 -28 -11 -28 23 0 19 16 37 30
39 32 3 1 -1 6 -8 10 -7 4 -20 3 -28 -2z"/>
<path d="M6651 3583 c-7 -11 -4 -14 7 -7 17 11 23 24 10 24 -3 0 -11 -8 -17
-17z"/>
<path d="M6230 3710 c6 -5 15 -5 20 0 6 6 1 10 -10 10 -11 0 -15 -4 -10 -10z"/>
<path d="M3999 3546 c-84 -87 -124 -193 -78 -210 40 -15 39 -52 -6 -123 -31
-49 -39 -75 -27 -85 10 -11 18 -10 22 2 4 10 27 46 52 80 37 51 42 69 31 102
-23 70 92 258 158 258 10 0 19 7 19 15 0 52 -171 -99 -195 -173 -10 -29 -24
-48 -31 -44 -22 14 28 115 87 176 30 31 47 56 38 56 -10 0 -41 -24 -70 -54z"/>
<path d="M3338 2847 c-75 -8 -174 -16 -222 -17 -47 -1 -86 -3 -86 -5 0 -89
163 -179 353 -195 159 -13 201 17 142 100 -22 30 -27 55 -21 88 7 35 4 46 -11
45 -11 -1 -81 -9 -155 -16z m127 -58 c0 -18 14 -49 30 -70 39 -49 21 -63 -77
-64 -127 0 -348 90 -310 128 12 12 175 33 271 35 78 2 86 -1 86 -29z"/>
<path d="M5675 3757 c0 -12 6 -22 12 -22 7 0 13 6 13 14 0 8 -6 18 -13 22 -6
4 -12 -2 -12 -14z"/>
<path d="M5415 3480 c0 -11 5 -15 10 -10 6 6 6 15 0 20 -5 6 -10 1 -10 -10z"/>
<path d="M5870 3335 c6 -5 15 -5 20 0 6 6 1 10 -10 10 -11 0 -15 -4 -10 -10z"/>
<path d="M5205 8543 c0 -11 14 -18 30 -17 17 1 30 8 30 17 0 8 -13 15 -30 16
-16 1 -30 -6 -30 -16z"/>
<path d="M2228 4050 c-12 -19 12 -30 35 -16 15 9 14 14 -4 21 -13 5 -27 3 -31
-5z"/>
<path d="M8044 2306 c-104 -111 -140 -428 -62 -545 57 -86 118 -141 155 -141
76 0 243 -204 281 -342 20 -73 38 -93 82 -93 46 0 43 50 -3 57 -21 3 -42 34
-72 104 -72 166 -173 280 -285 320 -74 27 -139 100 -161 183 -44 160 39 445
133 458 18 3 30 11 25 19 -15 25 -61 15 -93 -20z"/>
<path d="M8440 2255 c-17 -17 -11 -35 11 -35 74 0 118 -457 80 -821 -14 -139
9 -142 32 -5 58 353 -28 956 -123 861z"/>
<path d="M8106 1414 c-69 -47 -49 -113 54 -176 42 -26 83 -66 96 -94 13 -27
33 -49 44 -49 41 0 154 -180 160 -255 6 -63 2 -67 -63 -71 -77 -5 -197 -42
-263 -82 -27 -16 -49 -25 -49 -19 0 25 -136 -154 -151 -198 -30 -92 -179 -53
-182 48 -2 66 16 112 40 103 64 -25 32 393 -34 447 -25 21 -27 35 18 -171 25
-117 16 -219 -22 -255 -65 -63 -46 -205 33 -246 88 -45 163 -24 189 54 33 98
150 224 187 201 7 -4 12 -2 12 6 0 22 118 59 213 68 107 10 117 16 117 71 0
132 -166 383 -307 462 -95 54 -113 81 -77 120 36 40 27 64 -15 36z"/>
<path d="M8351 356 c-7 -70 -25 -126 -76 -226 -72 -141 -63 -171 13 -44 59 97
97 214 97 298 0 99 -25 79 -34 -28z"/>
<path d="M7452 332 c-3 -5 -49 -32 -103 -58 -128 -64 -190 -128 -203 -210 -8
-51 -5 -64 13 -64 15 0 25 21 30 61 13 94 92 159 265 216 42 14 76 31 76 37 0
15 -72 31 -78 18z"/>
<path d="M6885 235 c-56 -39 -100 -92 -141 -173 -28 -53 -18 -89 12 -42 77
125 113 170 156 195 53 31 79 25 49 -11 -26 -32 -61 -156 -51 -182 15 -40 35
-23 35 31 0 71 37 140 86 158 48 19 30 42 -42 53 -39 6 -64 -1 -104 -29z"/>
<path d="M7879 182 c-43 -15 -118 -55 -167 -89 -48 -34 -91 -59 -95 -55 -4 4
-7 -3 -7 -16 0 -24 48 -30 62 -7 21 33 171 119 247 141 133 39 144 36 168 -55
11 -43 27 -77 36 -74 14 4 12 148 -3 172 -13 21 -162 10 -241 -17z"/>
<path d="M5154 35 c-5 -13 -7 -27 -3 -31 12 -12 39 12 39 34 0 30 -25 28 -36
-3z"/>
</g>
</svg>
