<?xml version="1.0" standalone="no"?>
<!DOCTYPE svg PUBLIC "-//W3C//DTD SVG 20010904//EN"
 "http://www.w3.org/TR/2001/REC-SVG-20010904/DTD/svg10.dtd">
<svg version="1.0" xmlns="http://www.w3.org/2000/svg"
 width="600.000000pt" height="600.000000pt" viewBox="0 0 600.000000 600.000000"
 preserveAspectRatio="xMidYMid meet">
<g transform="translate(0.000000,600.000000) scale(0.066667,-0.066667)"
fill="#000000" stroke="none">
<path d="M2340 7333 c0 -67 -286 -272 -448 -320 -51 -16 35 143 134 247 l72
75 -44 0 c-83 0 -355 -166 -432 -263 -28 -35 -28 -35 -20 108 5 106 3 142 -10
134 -9 -6 -17 -44 -17 -85 0 -41 -7 -74 -15 -74 -8 0 -15 -22 -15 -49 0 -105
-28 -155 -152 -276 -66 -65 -147 -157 -179 -205 -98 -146 -62 48 57 309 63
137 58 154 -21 76 -200 -198 -289 -390 -291 -625 l0 -92 -37 45 c-69 83 -191
380 -191 466 0 49 -38 46 -50 -3 -39 -153 44 -484 150 -604 l32 -36 -80 9
c-178 20 -391 180 -469 353 -45 102 -57 97 -41 -16 27 -196 247 -388 471 -409
40 -4 60 -3 44 2 -91 26 -91 50 -2 50 95 0 294 -110 294 -162 0 -15 -6 -17
-19 -7 -38 29 -201 77 -288 85 -60 5 -78 3 -53 -5 21 -7 56 -14 79 -15 59 -2
251 -79 251 -101 0 -22 -110 -14 -195 16 -33 11 -60 15 -60 8 0 -35 298 -92
302 -57 2 11 3 28 4 37 1 8 14 33 28 55 31 48 33 103 5 195 -11 38 -17 73 -13
77 5 5 -6 42 -24 83 -37 86 -41 193 -11 319 11 48 16 90 12 94 -7 7 109 167
132 180 6 4 -12 -49 -39 -116 -93 -232 -100 -542 -12 -576 16 -6 19 -23 13
-63 -8 -57 13 -10 99 216 67 173 212 447 225 425 26 -40 14 -102 -29 -151
-100 -116 -261 -470 -225 -494 33 -21 39 -16 50 43 13 67 88 236 111 250 9 6
17 18 17 27 0 9 -14 4 -32 -12 -37 -33 48 120 88 159 21 20 22 19 12 -15 -5
-21 -13 -51 -18 -67 -4 -17 22 20 57 82 76 133 218 288 236 258 20 -31 393
177 502 280 l58 55 -10 -53 c-16 -75 -81 -219 -115 -249 -15 -14 -28 -33 -28
-41 0 -8 17 1 38 20 l37 35 0 -39 c0 -46 -13 -61 -163 -175 -63 -48 -124 -98
-135 -112 -36 -42 18 -29 59 15 45 47 110 87 76 46 -52 -63 11 -31 225 114
127 86 258 172 291 192 l60 35 -43 -56 c-23 -30 -46 -78 -50 -106 -7 -45 -20
-57 -101 -98 -103 -52 -353 -235 -365 -267 -17 -44 11 -33 75 30 136 131 376
273 437 257 45 -11 247 30 311 62 64 33 68 20 20 -64 -61 -107 -140 -184 -189
-184 -48 0 -69 -23 -33 -36 13 -5 48 5 77 22 47 27 51 28 32 4 -44 -58 -81
-87 -106 -83 -47 8 -238 -58 -238 -83 0 -17 -13 -21 -52 -16 -29 3 -53 1 -53
-4 0 -6 -78 -36 -173 -67 -95 -31 -177 -63 -181 -69 -13 -21 11 -16 204 47
102 33 199 60 216 60 66 1 275 63 398 119 71 32 147 62 170 67 23 6 38 16 34
24 -6 8 -41 1 -86 -16 -89 -35 -136 -29 -54 7 100 43 402 73 402 39 0 -8 -9
-15 -20 -15 -58 0 -316 -170 -336 -220 -25 -67 78 -95 236 -65 44 8 83 12 87
8 27 -27 -273 -85 -529 -104 -50 -3 -87 -11 -83 -18 8 -13 19 -13 248 10 215
22 329 52 425 112 90 55 116 64 97 33 -6 -10 -13 -29 -15 -41 -5 -37 -169
-181 -216 -190 -46 -9 -57 -27 -25 -41 10 -5 -29 -7 -86 -4 -58 3 -186 0 -285
-7 -99 -7 -204 -8 -233 -3 l-52 10 42 12 c74 20 297 42 458 45 127 3 151 7
131 22 -20 14 -21 20 -6 26 36 14 -205 10 -333 -6 -168 -20 -288 -52 -310 -82
-14 -20 -34 -22 -112 -13 -103 12 -106 10 50 47 79 20 70 49 -15 49 -42 0 -78
6 -81 14 -4 13 -154 1 -262 -22 l-42 -9 42 25 c80 46 29 38 -89 -14 -65 -28
-137 -56 -160 -62 -40 -10 -66 -32 -52 -46 3 -3 34 4 69 16 34 12 62 15 62 7
0 -8 27 -14 60 -14 43 0 60 6 60 23 0 26 40 30 48 4 4 -10 30 -18 58 -19 218
-7 231 -9 209 -23 -14 -9 -17 -19 -7 -26 8 -6 15 -22 15 -34 0 -15 31 -31 97
-47 110 -28 227 -70 199 -72 -35 -2 -19 -27 22 -36 33 -6 47 -23 72 -86 16
-43 40 -82 52 -87 46 -19 120 -69 120 -80 0 -23 -38 -12 -94 26 -39 27 -56 32
-56 17 0 -11 27 -33 60 -47 33 -15 60 -33 60 -40 0 -19 -11 -16 -53 11 -20 13
-44 21 -54 18 -10 -3 7 -21 37 -39 30 -17 55 -41 55 -51 -1 -13 -7 -12 -19 5
-23 30 -86 51 -86 29 0 -9 16 -23 36 -30 20 -8 41 -22 47 -32 8 -13 3 -13 -20
0 -69 36 -65 5 4 -40 66 -42 64 -43 57 9 -6 40 51 177 105 248 55 74 326 -186
326 -313 0 -52 -223 -451 -251 -448 -14 1 -52 7 -84 13 -80 16 -85 4 -85 -245
0 -179 4 -215 23 -223 34 -13 34 -12 18 168 -23 240 -10 268 107 237 35 -9 35
-10 -22 -61 -49 -43 -53 -50 -23 -44 34 8 34 7 8 -21 -30 -34 -18 -57 16 -29
14 12 23 13 23 3 0 -9 -7 -20 -15 -26 -8 -5 -15 -16 -15 -26 0 -13 4 -13 17 0
23 23 38 6 120 -135 51 -87 71 -112 85 -98 13 13 6 30 -25 71 -79 100 -84 119
-47 170 19 24 28 49 21 54 -16 12 -17 48 -1 73 22 36 -14 19 -58 -26 -28 -29
-48 -40 -57 -31 -10 10 8 36 51 75 37 33 59 60 50 60 -9 1 -32 -16 -51 -36
-19 -21 -42 -38 -51 -38 -9 0 11 25 44 54 33 29 48 50 35 46 -21 -7 115 309
197 458 8 14 9 27 3 30 -27 12 -62 102 -40 102 12 0 22 -5 22 -11 0 -6 24 -38
53 -70 28 -33 52 -65 52 -73 0 -7 10 -23 23 -36 12 -12 22 -35 22 -51 0 -16 6
-29 14 -29 12 0 35 -68 39 -112 0 -9 8 -29 17 -45 64 -119 63 -559 -2 -780
-93 -313 -222 -515 -358 -556 -206 -63 -635 -39 -544 31 37 27 50 16 23 -19
-11 -15 1 -7 27 17 26 23 62 81 79 127 82 213 114 281 142 305 36 31 58 34 49
8 -3 -10 -14 -18 -25 -18 -20 0 -65 -54 -54 -65 3 -3 29 12 58 34 30 22 56 33
61 25 5 -8 -11 -29 -36 -47 -25 -18 -41 -39 -36 -47 5 -9 27 2 51 25 23 21 46
33 51 25 5 -8 -1 -23 -14 -33 -12 -10 -22 -26 -22 -34 0 -9 12 -4 27 9 35 31
54 32 43 3 -5 -13 -1 -23 10 -23 11 0 46 -47 79 -105 54 -97 81 -126 81 -90 0
9 -28 60 -62 113 -37 60 -57 107 -52 122 13 33 19 25 85 -118 83 -177 101
-164 22 17 -36 83 -60 154 -52 159 8 5 14 16 14 25 0 11 -6 10 -20 -1 -22 -18
-63 47 -47 74 5 8 -3 14 -17 14 -22 0 -21 5 9 38 19 20 28 37 20 37 -8 0 -28
-14 -43 -30 -25 -28 -29 -29 -55 -5 -24 22 -25 27 -5 50 53 58 2 34 -68 -33
-43 -39 -83 -72 -91 -72 -24 0 -14 29 16 44 36 20 127 135 116 146 -5 5 -40
-19 -77 -53 -82 -75 -124 -83 -53 -10 28 29 46 57 41 62 -5 5 -173 -156 -374
-357 -415 -417 -435 -431 -637 -443 -152 -10 -173 5 -286 193 -37 63 -115 178
-172 255 -93 124 -162 236 -162 260 0 5 29 -9 64 -30 l64 -39 -45 41 c-40 36
-41 40 -12 31 92 -27 104 -29 72 -8 -17 11 -61 23 -98 27 l-67 9 5 162 c3 115
0 160 -12 153 -9 -5 -16 -36 -16 -67 0 -32 -10 -65 -22 -76 -13 -10 -19 -25
-14 -32 5 -8 -19 -44 -52 -80 -132 -143 -221 -401 -228 -661 -2 -77 -12 -120
-37 -164 -173 -306 -213 -941 -75 -1207 48 -93 315 -285 511 -368 180 -76 631
-217 767 -240 68 -11 97 -60 118 -203 25 -176 85 -239 258 -277 27 -6 49 -16
49 -23 0 -7 23 -9 50 -5 54 9 115 -16 200 -79 94 -71 174 -10 168 129 l-4 82
85 17 c134 26 250 82 251 120 0 18 12 48 27 68 16 19 33 48 38 64 6 16 16 23
23 15 15 -17 76 -358 75 -422 0 -87 68 -242 210 -473 34 -56 62 -108 62 -117
0 -19 41 -86 79 -129 27 -31 28 -33 1 -47 -36 -21 -16 -40 21 -20 44 23 72
-10 39 -46 -14 -15 -18 -27 -9 -27 8 0 24 10 34 23 15 17 24 18 40 5 18 -15
17 -22 -5 -45 -13 -16 -21 -32 -17 -36 4 -4 16 3 27 15 10 13 28 23 39 23 38
0 216 -96 216 -117 0 -14 13 -18 41 -12 69 13 173 -74 189 -157 7 -37 15 -82
19 -100 4 -20 18 -34 33 -34 32 0 13 159 -44 382 l-31 120 49 41 c27 23 45 46
39 52 -5 5 -26 -5 -45 -22 -19 -18 -42 -33 -52 -33 -31 0 -19 53 19 90 21 19
35 38 30 43 -4 4 -24 -8 -44 -27 l-37 -35 -18 39 c-13 29 -13 44 0 60 20 24 8
40 -29 40 -47 0 -64 130 -21 165 12 10 22 25 22 34 0 8 -11 6 -24 -5 -21 -18
-23 -15 -19 29 3 30 -3 53 -16 61 -18 11 -18 18 -2 37 11 13 15 25 10 26 -5 1
-16 3 -24 6 -8 2 -22 4 -30 5 -8 1 -15 13 -15 26 0 18 9 22 35 15 45 -11 58 2
39 37 -11 22 2 66 60 193 135 299 179 451 131 451 -13 0 -21 -20 -22 -54 -1
-29 -36 -136 -76 -236 -113 -277 -121 -295 -137 -295 -36 0 -5 486 39 620 28
83 79 90 151 22 39 -36 66 -27 34 11 -26 32 -125 82 -162 82 -24 0 -34 -18
-52 -101 -45 -201 -55 -282 -55 -449 0 -141 -4 -170 -22 -170 -26 0 -31 23 -8
38 24 15 18 52 -7 42 -14 -5 -23 0 -23 14 0 13 10 27 23 31 12 5 22 20 22 34
0 23 -3 23 -30 -2 -35 -31 -45 12 -15 67 14 27 -109 166 -147 166 -8 0 -51 36
-97 79 -96 93 -116 149 -78 222 30 58 -3 56 -36 -3 -51 -89 7 -188 189 -322
89 -66 109 -88 101 -112 -5 -16 0 -53 10 -82 18 -48 16 -55 -14 -86 l-33 -33
-210 210 c-194 193 -292 322 -255 334 29 10 15 36 -15 29 -24 -7 -30 -1 -30
26 0 19 -11 60 -25 92 -14 32 -27 68 -29 80 -11 61 -25 88 -73 141 -44 48 -50
63 -37 87 20 38 53 28 47 -15 -4 -24 1 -30 19 -22 17 6 27 -1 33 -23 5 -18 18
-32 30 -32 12 0 18 -7 13 -15 -6 -8 -2 -15 8 -15 24 0 156 -150 156 -178 0
-13 12 -26 27 -29 50 -10 27 44 -56 131 -99 103 -98 100 -26 170 65 64 85 69
108 26 16 -31 60 -42 60 -15 0 8 -17 25 -37 39 -47 30 -48 57 -5 88 43 30 57
29 57 -3 0 -15 13 -46 29 -71 16 -24 26 -49 22 -56 -4 -7 3 -12 16 -12 14 0
23 -13 23 -35 0 -168 196 -442 291 -406 40 15 28 53 -45 146 -104 133 -127
309 -40 310 11 0 19 -9 19 -21 0 -25 60 -43 83 -24 10 9 35 2 67 -17 l52 -32
-60 -49 c-32 -28 -54 -55 -48 -61 6 -6 34 11 62 38 61 58 68 55 129 -52 51
-89 90 -105 116 -48 24 52 95 132 110 123 7 -5 36 24 65 64 68 94 191 169 278
169 60 0 64 3 55 34 -36 131 -29 197 27 248 71 64 59 168 -13 109 -12 -10 -35
-6 -74 15 -83 45 -140 27 -331 -103 -355 -242 -329 -228 -345 -187 -7 18 3 37
32 62 621 519 1052 1038 1059 1277 2 56 9 99 15 95 6 -4 11 17 11 47 0 32 -7
53 -19 53 -13 0 -13 4 2 14 12 7 16 20 11 29 -6 9 -4 17 5 17 9 0 16 11 16 26
0 16 5 20 15 10 45 -45 -35 -408 -155 -707 -21 -52 -32 -97 -26 -101 17 -10
146 359 168 478 l18 95 69 -43 c37 -23 86 -50 108 -59 69 -28 -6 -197 -146
-329 l-56 -52 45 67 c82 123 123 281 80 308 -9 5 -15 -17 -15 -58 0 -145 -268
-507 -487 -657 -51 -34 -55 -49 -39 -131 1 -3 25 16 54 41 142 125 565 368
523 300 -5 -9 -2 -21 8 -27 11 -7 -47 -60 -159 -144 -259 -193 -264 -197 -301
-208 -19 -6 -34 -21 -34 -33 0 -33 58 -25 94 14 19 19 127 104 240 190 117 87
204 163 200 173 -3 10 10 27 30 38 34 18 51 74 23 74 -69 0 -364 -151 -527
-269 -153 -111 -145 -95 46 92 94 92 178 166 185 164 38 -10 249 245 280 338
22 67 25 66 118 -63 45 -61 90 -112 99 -112 24 0 164 -197 261 -368 94 -167
105 -229 113 -681 7 -371 6 -392 -14 -305 -12 51 -41 120 -66 153 -79 109
-141 368 -175 725 -9 93 -37 145 -37 67 0 -268 72 -601 175 -812 28 -56 67
-164 88 -240 20 -75 49 -177 65 -226 16 -50 36 -178 46 -285 23 -265 26 -282
69 -344 36 -53 36 -55 8 -83 -81 -81 -34 -541 81 -792 28 -61 34 -89 23 -109
-25 -47 -19 -210 8 -210 17 0 22 19 22 85 0 61 7 89 25 102 22 16 21 24 -15
86 -97 165 -178 577 -146 744 57 298 208 -324 190 -781 -10 -253 11 -328 29
-106 28 335 -16 675 -117 913 -31 73 -43 125 -21 96 2 -4 35 -44 72 -89 257
-311 473 -795 392 -876 -6 -6 -11 -33 -12 -59 0 -26 -6 -63 -12 -81 -9 -25 -6
-34 10 -34 25 0 68 163 81 309 l8 92 -123 211 c-148 256 -351 540 -398 558
-47 18 -83 72 -83 125 0 24 -11 85 -24 135 -13 51 -24 133 -25 183 0 59 -14
123 -39 187 -37 96 -38 105 -46 630 l-8 533 -40 75 c-112 209 -362 567 -458
653 -23 21 -67 66 -97 100 -31 34 -80 69 -113 79 -105 34 -143 120 -94 211 12
23 8 40 -20 78 -34 46 -35 56 -25 199 6 82 12 215 12 295 2 135 4 147 36 164
51 27 252 182 417 322 82 69 156 126 165 126 30 0 213 109 349 207 151 108
189 119 325 88 556 -124 549 -122 823 -260 271 -137 482 -265 482 -293 0 -9
18 -41 41 -71 22 -29 28 -44 14 -32 -20 16 -31 16 -44 3 -13 -13 -10 -22 12
-39 21 -16 23 -22 8 -23 -12 0 -33 11 -49 25 -29 26 -38 7 -10 -21 9 -9 20
-50 23 -89 3 -41 19 -91 37 -115 18 -24 27 -55 23 -72 -5 -21 -2 -28 11 -23
11 4 31 -6 44 -21 26 -31 70 -39 70 -14 0 8 7 15 15 15 8 0 10 -10 5 -22 -14
-39 42 -48 67 -11 14 22 37 33 69 33 87 1 217 40 267 82 186 153 393 413 330
413 -7 0 -23 -22 -36 -49 -55 -112 -331 -371 -397 -371 -37 0 -54 92 -20 113
33 20 63 97 38 97 -12 0 -36 -27 -53 -60 -27 -53 -60 -80 -60 -49 0 34 -33
213 -47 255 -29 93 -88 69 -89 -37 l-2 -86 -18 86 c-10 47 -34 107 -52 132
-28 37 -33 58 -25 109 9 58 8 61 -14 33 -14 -17 -23 -59 -23 -105 0 -41 -4
-100 -9 -131 l-10 -55 -33 40 c-44 54 -53 96 -29 139 24 44 26 74 6 74 -8 0
-15 -9 -15 -21 0 -46 -39 -55 -79 -19 -49 46 -324 209 -426 253 -44 19 -80 43
-80 53 0 11 -17 19 -38 19 -21 0 -65 14 -98 31 -33 16 -66 27 -73 22 -19 -11
-107 8 -98 22 3 6 -49 19 -117 29 -226 31 -413 78 -409 102 1 13 44 52 94 88
l91 66 37 -43 c73 -87 201 -144 416 -183 54 -10 111 -26 128 -37 17 -10 84
-33 150 -51 66 -18 135 -43 154 -55 32 -21 63 -18 63 8 0 6 -49 27 -109 46
-60 18 -166 52 -236 75 -70 23 -158 47 -195 53 -178 29 -375 142 -375 216 0
44 -8 41 -126 -57 -215 -176 -602 -404 -633 -373 -4 4 19 67 52 141 132 299
169 479 123 584 -17 38 -31 93 -31 121 0 64 -32 114 -115 177 -73 56 -62 67
64 68 34 0 83 7 109 17 74 25 612 -57 665 -103 14 -12 37 -18 52 -13 33 10
253 -95 253 -121 0 -9 37 -43 82 -74 191 -130 547 -437 604 -520 42 -62 53
-95 26 -78 -24 14 -17 -17 8 -39 39 -32 59 5 31 59 -26 48 -6 54 47 13 11 -8
19 -11 19 -6 0 5 25 -8 55 -28 30 -20 59 -37 64 -37 16 0 19 -236 3 -246 -17
-11 -164 96 -254 184 -35 35 -71 59 -80 53 -10 -6 13 -38 57 -79 41 -38 62
-60 47 -48 -15 11 -32 16 -37 11 -5 -5 8 -24 30 -41 53 -42 134 -160 122 -179
-11 -18 30 -37 52 -23 10 6 -8 42 -44 91 -76 103 -75 110 6 52 109 -78 135
-63 144 83 7 115 9 120 45 121 92 4 234 25 248 36 25 22 105 -24 190 -108 44
-45 92 -86 106 -91 31 -12 34 -46 5 -70 -11 -9 -29 -37 -39 -62 -12 -27 -28
-43 -43 -40 -15 2 -24 -7 -23 -23 4 -83 7 -101 21 -101 8 0 19 17 24 38 12 49
20 47 96 -23 65 -60 98 -76 86 -41 -6 19 -117 109 -147 119 -13 4 -11 19 7 54
31 60 30 60 76 -8 42 -61 52 -44 15 27 -13 25 -19 59 -14 80 13 48 -113 172
-302 299 -76 51 -250 175 -388 276 -246 181 -290 207 -272 161 5 -15 3 -20 -8
-13 -10 6 -14 2 -10 -11 3 -11 53 -53 110 -92 153 -105 426 -317 427 -330 0
-26 -42 -8 -83 35 -52 55 -205 172 -378 288 -68 46 -142 98 -164 115 -21 17
-45 31 -52 31 -32 0 -6 -27 80 -82 275 -178 545 -388 529 -414 -5 -7 -67 37
-139 99 -72 62 -171 141 -220 174 -50 34 -119 83 -154 108 -35 25 -68 41 -72
37 -5 -5 47 -48 116 -95 137 -96 402 -304 402 -316 0 -4 -25 -5 -56 -2 -61 6
-139 38 -139 58 0 7 -8 13 -19 13 -10 0 -49 27 -86 60 -86 76 -71 76 56 -2 56
-34 108 -65 115 -70 8 -4 9 0 3 10 -6 9 -42 35 -81 57 -155 89 -255 166 -414
319 -92 88 -190 177 -219 196 -61 41 -168 129 -336 276 l-119 103 -189 -10
c-104 -5 -266 -20 -361 -32 -95 -12 -345 -25 -555 -30 -505 -10 -484 -10 -746
1 -301 13 -345 1 -712 -201 -185 -102 -271 -120 -524 -111 -247 8 -338 -7
-546 -93 -70 -29 -132 -53 -138 -53 -6 0 48 56 119 124 106 100 132 134 140
180 10 54 -2 70 -31 43 -8 -7 -53 -25 -100 -40 -48 -14 -83 -32 -78 -40 5 -7
-7 -10 -26 -5 -20 4 -85 3 -146 -4 -88 -10 -112 -8 -118 8 -29 75 345 266 413
211 39 -33 39 7 -1 41 -85 73 -358 91 -474 30 -68 -34 -73 -22 -25 60 133 228
198 459 85 307 -59 -80 -335 -195 -393 -164 -29 15 -29 16 0 71 65 127 138
187 320 264 50 21 84 63 37 46 -10 -3 -95 -20 -188 -36 -176 -30 -296 -77
-423 -163 -81 -56 -81 -56 -46 35 29 78 51 247 36 285 -12 33 -35 27 -35 -10z
m-382 -94 c-22 -28 -61 -66 -87 -85 -68 -47 -166 -167 -248 -302 -82 -136 -83
-136 -64 -7 17 120 73 210 188 298 63 50 226 147 245 147 2 0 -13 -23 -34 -51z
m825 -113 c-5 -8 -64 -44 -132 -82 -68 -37 -204 -121 -303 -187 -99 -66 -185
-116 -192 -112 -17 10 51 63 243 188 53 35 88 65 79 68 -9 4 -48 -15 -86 -41
-85 -59 -105 -50 -26 11 112 89 455 216 417 155z m-950 -76 c-38 -66 -168
-200 -168 -172 0 26 176 247 198 247 7 0 -7 -34 -30 -75z m1212 -96 c0 -10
-100 -65 -137 -75 -19 -6 -9 4 24 21 33 17 66 37 74 45 15 15 39 20 39 9z
m-1656 -206 c6 -10 4 -14 -3 -9 -8 5 -50 -103 -94 -239 -85 -266 -115 -299
-114 -128 1 146 168 445 211 376z m-667 -147 c-12 -31 -15 -19 -14 59 0 92 1
94 14 39 8 -37 8 -74 0 -98z m331 -42 c-5 -119 -2 -158 20 -206 15 -33 28 -74
29 -90 1 -17 7 -62 14 -102 7 -39 8 -88 3 -108 l-10 -38 -93 67 c-51 36 -108
77 -126 90 -18 12 -48 44 -67 70 -35 50 119 -62 163 -119 13 -16 19 -17 19 -5
0 11 -18 34 -41 52 -169 136 -254 270 -234 371 13 66 24 55 70 -69 44 -118
110 -216 179 -267 51 -38 58 -31 41 43 -30 127 -3 457 36 457 3 0 1 -66 -3
-146z m6137 -118 c161 -138 158 -148 -17 -60 -123 62 -160 72 -388 110 -293
48 -282 60 55 62 l218 1 132 -113z m-1359 90 c-5 -5 -18 -6 -29 -1 -12 5 -8 8
9 9 16 0 25 -3 20 -8z m-4669 -88 c-11 -42 -20 -61 -21 -44 -1 32 29 131 37
123 2 -2 -5 -38 -16 -79z m4066 68 c-48 -19 -218 -34 -218 -19 0 26 18 30 132
30 72 1 104 -3 86 -11z m-2503 -11 c-5 -5 -14 -5 -20 0 -5 6 -1 10 10 10 11 0
16 -4 10 -10z m-45 -15 c-5 -5 -14 -5 -20 0 -5 6 -1 10 10 10 11 0 16 -4 10
-10z m3110 -5 c0 -8 -7 -15 -15 -15 -8 0 -15 7 -15 15 0 8 7 15 15 15 8 0 15
-7 15 -15z m-435 -15 c0 -8 -3 -15 -7 -15 -3 0 -10 7 -15 15 -6 8 -3 15 6 15
9 0 16 -7 16 -15z m-390 -29 c0 -8 -14 -18 -30 -24 -17 -5 -27 -14 -23 -21 4
-6 -11 -8 -34 -4 -40 8 -40 8 20 35 71 32 67 32 67 14z m970 -11 c-16 -16 -56
-19 -47 -4 5 8 20 14 33 14 13 0 19 -5 14 -10z m-925 -48 c0 -15 -62 -35 -73
-24 -5 5 41 29 69 36 2 1 4 -5 4 -12z m-330 -9 c0 -12 -92 -56 -100 -48 -4 4
12 18 35 31 44 24 65 29 65 17z m462 -1 c-25 -25 -288 -171 -295 -164 -15 15
39 55 150 112 97 50 169 76 145 52z m663 -14 c20 -24 5 -30 -36 -14 -13 5 -20
15 -16 23 13 19 31 16 52 -9z m-593 -7 c4 -7 -12 -20 -37 -29 -54 -19 -62 -55
-9 -41 20 5 47 13 60 18 13 5 24 2 24 -6 0 -24 -105 -54 -123 -36 -11 11 -45
-7 -108 -56 -95 -75 -188 -136 -208 -136 -33 0 1 31 105 98 64 41 145 103 180
138 61 62 98 78 116 50z m524 -9 c35 -26 40 -21 -85 -90 -130 -71 -147 -55
-42 40 91 82 88 80 127 50z m-299 -21 c-21 -20 -288 -151 -308 -151 -48 0 11
40 144 99 150 65 191 79 164 52z m-142 -8 c0 -3 -7 -10 -15 -15 -8 -6 -15 -3
-15 6 0 9 7 16 15 16 8 0 15 -3 15 -7z m-4762 -103 c8 -7 -6 -3 -31 9 -24 13
-58 38 -75 57 -28 33 55 -20 106 -66z m5509 51 c-36 -28 -124 -76 -140 -76
-20 0 11 29 78 73 71 48 122 50 62 3z m-312 -1 c-21 -16 -55 -43 -77 -59 -44
-34 -108 -45 -76 -13 22 22 156 98 176 100 8 1 -2 -12 -23 -28z m1673 15 c5
-8 5 -15 1 -15 -4 0 -11 7 -16 15 -6 8 -6 15 -2 15 4 0 11 -7 17 -15z m-1853
-11 c0 -21 -58 -49 -82 -40 -33 13 -11 39 23 28 16 -5 29 -2 29 7 0 9 7 16 15
16 8 0 15 -5 15 -11z m344 0 c-1 -17 -225 -156 -243 -150 -13 4 44 46 184 135
42 27 60 32 59 15z m236 1 c-5 -5 -14 -5 -20 0 -5 6 -1 10 10 10 11 0 16 -4
10 -10z m1228 -5 c5 -8 5 -15 1 -15 -4 0 -11 7 -16 15 -6 8 -6 15 -2 15 4 0
11 -7 17 -15z m-1268 -30 c0 -8 -7 -15 -16 -15 -9 0 -12 7 -6 15 5 8 12 15 15
15 4 0 7 -7 7 -15z m1567 -200 c50 -49 64 -67 31 -40 -33 27 -116 92 -184 146
-68 54 -124 101 -124 105 0 16 197 -134 277 -211z m-1774 181 c-29 -35 -153
-118 -153 -103 0 8 32 38 71 68 72 54 111 70 82 35z m-1597 -5 c-5 -5 -18 -6
-29 -1 -12 5 -8 8 9 9 16 0 25 -3 20 -8z m147 -21 c-33 -36 -62 -39 -74 -7 -7
18 -2 22 20 15 16 -5 33 -2 38 6 5 9 17 16 26 16 9 0 4 -13 -10 -30z m1542
-49 c-42 -43 -80 -90 -85 -105 -5 -14 -21 -26 -36 -26 -25 1 -25 2 0 21 14 11
22 23 17 28 -5 5 0 24 11 43 11 20 18 44 15 54 -2 11 4 19 13 19 9 0 13 -7 8
-15 -15 -24 2 -18 61 23 82 55 81 46 -4 -42z m-5346 24 c20 -18 -28 -1 -52 18
-28 22 -27 23 8 6 21 -10 40 -21 44 -24z m5536 -66 c0 -49 -6 -74 -19 -74 -13
0 -17 24 -13 83 6 101 32 94 32 -9z m-3802 60 c-33 -7 -101 -12 -150 -11 -78
1 -83 2 -38 12 29 6 96 11 150 11 89 1 93 0 38 -12z m2677 2 c0 -25 -91 -81
-107 -65 -16 16 25 57 70 68 16 4 31 8 33 9 2 1 4 -4 4 -12z m2573 -31 c14
-16 23 -30 19 -30 -4 0 -20 14 -34 30 -15 17 -24 30 -20 30 4 0 20 -13 35 -30z
m-3945 0 c5 -8 -7 -15 -27 -15 -20 0 -79 -25 -131 -56 -52 -31 -99 -56 -104
-55 -5 0 -34 -28 -66 -64 -32 -35 -66 -63 -75 -61 -10 2 -16 -5 -14 -16 13
-60 -21 -75 -146 -67 -85 6 -120 3 -120 -9 0 -9 7 -17 15 -17 22 0 18 -24 -7
-50 -12 -12 -17 -27 -11 -33 6 -7 2 -7 -8 -1 -11 6 -16 17 -11 25 5 8 -1 14
-12 14 -11 0 -48 24 -82 53 -69 59 -82 63 -70 26 7 -22 6 -22 -7 -5 -24 35 -6
46 78 46 55 0 71 -5 55 -15 -15 -10 20 -14 113 -13 118 1 126 3 67 14 -209 38
-213 40 -82 44 l120 4 -195 19 c-210 19 -560 116 -394 108 39 -2 71 1 71 8 0
6 29 12 64 13 l64 2 -60 10 -60 9 52 13 c29 8 177 16 330 18 260 4 443 23 495
52 31 18 146 17 158 -1z m2197 -7 c-10 -13 -25 -23 -34 -23 -8 0 -6 10 4 23
10 12 25 22 34 22 8 0 6 -10 -4 -22z m-765 -8 c0 -17 -289 -211 -299 -201 -12
12 51 66 165 141 118 77 134 84 134 60z m-2542 -45 c12 -19 -98 -19 -128 0
-16 11 -3 15 48 15 39 0 74 -7 80 -15z m5739 -236 c172 -126 241 -184 218
-184 -4 0 -106 74 -226 164 -120 90 -238 176 -264 191 -25 14 -45 32 -45 38 0
17 94 -45 317 -209z m-2198 135 c-16 -16 -25 6 -14 35 11 27 12 27 17 1 3 -15
2 -31 -3 -36z m-1379 3 c-8 -19 -5 -20 24 0 22 14 41 17 56 8 25 -15 -78 -135
-116 -135 -27 0 -24 12 15 49 19 19 22 23 6 11 -24 -18 -31 -19 -36 -3 -5 15
-17 11 -43 -14 -24 -22 -41 -29 -51 -19 -10 10 12 34 64 69 91 64 92 64 81 34z
m1142 4 c-7 -21 -552 -389 -552 -372 0 33 280 244 465 350 77 44 95 49 87 22z
m408 -33 c0 -3 -8 -11 -17 -17 -11 -7 -14 -4 -7 7 11 17 24 23 24 10z m-1946
-36 c22 -1 41 -10 41 -19 0 -9 46 -62 103 -116 56 -55 107 -112 112 -126 41
-115 281 -106 408 16 101 96 131 93 82 -8 -16 -35 -30 -70 -30 -78 0 -9 -6
-16 -14 -16 -8 0 -18 -13 -23 -28 -12 -37 -87 -68 -134 -56 -21 5 -41 2 -47
-6 -5 -9 -14 -12 -21 -8 -31 19 -242 -110 -230 -141 2 -4 -2 -8 -10 -8 -7 0
-19 -6 -25 -12 -6 -6 2 -11 18 -11 44 0 71 -52 40 -77 -18 -15 -22 -15 -13 -2
6 11 3 19 -9 19 -14 0 -13 4 3 15 18 12 16 15 -12 15 -21 0 -39 -12 -48 -34
-7 -18 -14 -26 -14 -16 -1 10 -14 14 -33 9 -27 -7 -28 -10 -8 -22 13 -7 20
-23 15 -35 -39 -103 249 -301 462 -317 174 -14 168 -1 160 -335 -7 -280 -26
-360 -87 -360 -21 0 -75 140 -75 196 0 236 -229 380 -528 331 -77 -13 -87 -5
-87 67 0 117 -148 251 -285 258 -117 7 -114 4 -186 202 -52 143 -127 286 -205
392 -78 106 -11 215 156 257 22 6 40 19 40 30 0 30 187 39 484 24z m543 -48
c-26 -28 -111 -40 -132 -19 -19 19 38 66 59 49 14 -12 29 -10 54 7 43 30 56 4
19 -37z m-2127 36 c-5 -5 -14 -5 -20 0 -5 6 -1 10 10 10 11 0 16 -4 10 -10z
m3395 -12 c0 -22 -27 -46 -39 -34 -10 10 10 56 26 56 7 0 13 -10 13 -22z
m-330 -15 c-10 -13 -30 -23 -43 -23 -21 1 -20 4 5 23 38 29 62 28 38 0z m2123
-38 c5 -8 5 -15 1 -15 -4 0 -11 7 -16 15 -6 8 -6 15 -2 15 4 0 11 -7 17 -15z
m-2213 -6 c0 -4 -41 -35 -92 -69 -50 -34 -87 -55 -81 -46 16 26 173 130 173
115z m71 -43 c-25 -38 -308 -233 -348 -240 -51 -9 -134 -50 -156 -76 -11 -14
-29 -25 -39 -25 -27 0 -9 76 20 86 14 5 40 23 59 40 33 29 36 29 50 6 12 -23
20 -21 77 20 279 204 388 265 337 189z m214 7 c0 -20 -69 -79 -79 -69 -6 6 5
26 23 45 34 36 56 45 56 24z m-2837 -12 c55 -11 65 -58 15 -74 -24 -8 -44 2
-78 36 -52 52 -41 58 63 38z m-254 -71 c37 -25 59 -48 49 -51 -21 -7 -153 81
-153 103 0 17 9 12 104 -52z m2976 -116 c-135 -131 -170 -154 -170 -114 0 24
72 92 183 173 46 34 89 69 95 78 5 9 14 12 20 6 5 -5 -53 -70 -128 -143z
m-365 99 c0 -3 -8 -11 -17 -17 -11 -7 -14 -4 -7 7 11 17 24 23 24 10z m390 -6
c0 -8 -10 -18 -22 -22 -23 -9 -31 7 -13 25 14 14 35 12 35 -3z m-2685 -34 c0
-21 -26 -15 -35 9 -6 14 -1 19 13 13 12 -4 22 -14 22 -22z m25 -38 c-5 -5 -10
-1 -10 10 0 11 5 16 10 10 6 -5 6 -14 0 -20z m155 -110 c0 -8 -3 -15 -7 -15
-3 0 -10 7 -15 15 -6 8 -3 15 6 15 9 0 16 -7 16 -15z m2745 -112 c0 -4 -15
-14 -34 -23 -32 -16 -32 -16 -4 7 30 24 38 28 38 16z m-1470 -120 c0 -3 -8
-11 -17 -17 -11 -7 -14 -4 -7 7 11 17 24 23 24 10z m154 -40 c-10 -10 -31 -19
-47 -20 -15 -1 -50 -21 -77 -43 -47 -40 -50 -40 -75 -14 -25 26 -25 72 1 56 6
-4 16 -1 22 8 5 9 16 11 24 6 9 -5 7 -18 -5 -33 -11 -13 2 -8 28 11 26 19 54
30 63 25 8 -5 19 -3 24 6 6 8 21 15 34 15 19 0 21 -4 8 -17z m101 4 c0 -7 -15
-25 -34 -38 -18 -14 -25 -21 -15 -16 12 5 19 -3 19 -22 0 -34 -2 -35 -36 -22
-13 5 -19 16 -14 25 6 9 2 11 -8 5 -10 -6 -14 -17 -10 -23 14 -22 -29 -44 -71
-35 -60 11 -51 25 53 85 99 56 116 62 116 41z m277 -3 c-16 -25 -200 -104
-222 -95 -11 4 -32 -7 -47 -23 -15 -17 -42 -31 -59 -31 -30 1 -30 2 6 29 21
16 38 37 38 45 0 19 81 76 108 76 15 0 15 -6 1 -29 -10 -16 -27 -25 -41 -20
-18 7 -20 4 -6 -11 14 -15 27 -12 66 16 27 19 73 39 103 45 29 6 56 11 58 12
3 1 0 -5 -5 -14z m218 5 c-1 -16 -234 -152 -281 -164 -33 -8 -37 -6 -28 18 10
27 9 27 -19 1 -17 -15 -39 -24 -50 -20 -12 4 -1 15 26 29 24 13 51 21 60 18 8
-3 55 25 105 61 82 61 188 93 187 57z m90 -86 c0 -13 -25 -29 -61 -38 -33 -9
-71 -20 -82 -25 -12 -4 -22 -2 -22 5 0 18 59 53 113 66 24 6 46 12 48 12 2 1
4 -8 4 -20z m-180 -20 c0 -6 -20 -23 -45 -38 -52 -31 -61 -10 -11 25 38 26 56
31 56 13z m-697 -18 c5 -8 5 -15 1 -15 -4 0 -11 7 -16 15 -6 8 -6 15 -2 15 4
0 11 -7 17 -15z m378 -19 c-3 -10 -19 -21 -34 -24 -25 -5 -26 -2 -8 19 23 28
51 32 42 5z m3244 -246 c21 -146 19 -185 -7 -185 -13 0 -23 10 -23 22 0 49
-31 105 -46 82 -11 -18 -14 -17 -14 5 0 14 7 26 15 26 8 0 10 12 4 26 -8 23
-6 24 16 6 31 -25 33 -6 3 28 -28 30 -44 126 -30 178 16 57 61 -48 82 -188z
m119 4 c27 -158 26 -162 -48 -180 -39 -9 -41 -7 -41 50 0 32 7 63 15 69 8 5
15 54 15 109 1 126 33 100 59 -48z m-4192 66 c6 -8 0 -11 -14 -6 -26 10 -30
21 -9 21 8 0 18 -7 23 -15z m0 -45 c6 -8 0 -11 -14 -6 -26 10 -30 21 -9 21 8
0 18 -7 23 -15z m3976 0 c5 -8 5 -15 1 -15 -4 0 -11 7 -16 15 -6 8 -6 15 -2
15 4 0 11 -7 17 -15z m-9 -79 c-1 -27 -5 -40 -9 -30 -13 33 -38 21 -27 -13 7
-21 5 -28 -6 -21 -21 12 -22 68 -2 68 8 0 15 10 15 23 0 12 7 22 15 22 8 0 14
-22 14 -49z m-4023 -3 c0 -21 -5 -34 -12 -30 -14 9 -118 -94 -167 -165 -17
-25 -3 -15 30 22 90 98 77 55 -19 -65 -45 -56 -101 -132 -124 -169 -23 -36
-51 -66 -62 -66 -14 0 -16 6 -6 19 84 108 135 190 122 194 -8 3 12 46 46 95
34 49 79 115 99 146 44 66 93 76 93 19z m3972 -90 c15 -11 17 -23 7 -38 -17
-28 -53 13 -68 78 -14 63 11 89 27 27 7 -28 23 -58 34 -67z m-4928 77 c0 -3
-15 -18 -34 -34 l-33 -28 28 33 c27 32 39 41 39 29z m-15 -78 c-11 -12 -23
-19 -28 -14 -5 5 1 15 13 23 32 20 36 17 15 -9z m904 -77 c-17 -24 -52 -86
-80 -140 -107 -210 -209 -343 -237 -310 -17 20 98 202 264 420 66 86 110 111
53 30z m4391 33 c0 -13 -7 -23 -15 -23 -8 0 -15 10 -15 23 0 12 7 22 15 22 8
0 15 -10 15 -22z m-311 -23 c5 -16 2 -30 -5 -30 -8 0 -14 14 -14 30 0 17 3 30
6 30 3 0 9 -13 13 -30z m185 -25 l-39 -42 0 40 c0 30 9 41 34 45 48 8 49 4 5
-43z m-99 -23 c0 -21 -26 -13 -36 12 -16 42 -9 59 14 29 12 -16 22 -34 22 -41z
m34 18 c-10 -41 -19 -38 -19 8 0 21 6 35 14 30 7 -4 10 -22 5 -38z m150 8 c6
-33 2 -38 -36 -38 -49 0 -53 9 -18 48 33 36 45 34 54 -10z m-3638 -77 c-5 -5
-18 -6 -29 -1 -12 5 -8 8 9 9 16 0 25 -3 20 -8z m-71 -43 c0 -13 -7 -23 -15
-23 -8 0 -15 10 -15 23 0 12 7 22 15 22 8 0 15 -10 15 -22z m-214 -25 c-2 -19
-42 -66 -100 -116 -54 -47 -183 -167 -286 -268 -103 -100 -190 -175 -193 -166
-4 10 57 79 134 153 78 75 139 142 137 149 -2 7 2 9 10 4 7 -5 26 6 41 24 28
31 28 31 -9 13 -50 -26 30 57 158 162 102 85 111 89 108 45z m169 -10 c0 -7
-59 -62 -131 -123 -72 -61 -124 -101 -115 -89 82 109 127 157 178 188 69 41
68 40 68 24z m130 -25 c0 -13 -3 -20 -7 -16 -4 4 -17 -4 -30 -17 -30 -30 -45
0 -18 33 24 29 55 28 55 0z m-189 -94 c-111 -128 -274 -339 -342 -444 -36 -57
-72 -111 -80 -120 -8 -10 -30 -41 -48 -69 -32 -49 -71 -77 -71 -51 0 86 250
440 440 624 148 142 200 173 101 60z m87 43 c-11 -15 -80 -101 -153 -191 -72
-90 -176 -233 -231 -317 -83 -130 -124 -178 -124 -147 0 37 486 683 514 683 8
0 5 -13 -6 -28z m-1648 -58 c0 -14 -94 -79 -112 -79 -18 0 -83 -62 -83 -78 0
-8 6 -10 14 -5 7 4 10 -5 6 -21 -8 -28 -91 -113 -245 -249 -37 -33 -61 -54
-53 -48 24 19 42 12 24 -10 -10 -12 -11 -25 -4 -30 18 -11 188 151 177 168 -4
8 8 28 27 47 l35 33 -30 -95 c-16 -52 -43 -108 -60 -124 l-30 -30 10 30 c8 21
-6 14 -46 -25 -56 -53 -59 -54 -110 -35 -29 11 -78 20 -109 21 -33 1 -56 8
-56 19 0 14 -4 14 -18 0 -10 -10 -32 -18 -48 -18 -42 0 -1 43 50 52 36 7 53
18 54 35 1 29 63 96 171 183 102 83 162 147 104 111 -11 -7 -14 -4 -7 7 6 10
18 13 26 8 8 -5 28 3 45 18 17 15 29 21 27 13 -9 -46 17 -35 149 64 66 49 92
60 92 38z m1551 -157 c-218 -303 -345 -434 -168 -173 123 182 257 349 264 329
2 -9 -41 -79 -96 -156z m-1521 125 c0 -19 -44 -53 -55 -42 -11 11 23 55 42 55
7 0 13 -6 13 -13z m683 -40 c-14 -22 -29 -36 -34 -31 -4 4 4 26 18 47 14 22
29 36 34 31 4 -4 -4 -26 -18 -47z m-672 -18 c-14 -13 -30 -20 -36 -14 -6 6 3
20 19 31 37 28 49 16 17 -17z m814 28 c0 -19 -62 -95 -71 -86 -7 7 52 99 65
99 3 0 6 -6 6 -13z m-788 -62 c-15 -17 -30 -27 -34 -23 -10 10 27 53 46 53 9
0 3 -14 -12 -30z m833 17 c0 -7 -41 -62 -90 -121 -50 -59 -101 -124 -114 -144
-25 -38 -61 -53 -43 -18 5 10 -4 2 -21 -19 -18 -21 -35 -49 -40 -64 -9 -27
-67 -37 -67 -11 0 8 6 15 14 15 8 0 42 39 75 86 75 108 157 200 145 164 -13
-40 14 -17 68 58 45 63 73 84 73 54z m-795 -69 c-13 -16 -25 -19 -35 -9 -10
10 -8 23 5 39 13 15 25 18 35 8 10 -10 8 -23 -5 -38z m1123 -69 c-65 -93 -118
-146 -67 -66 87 134 104 157 117 157 8 0 -15 -41 -50 -91z m-84 -47 c-40 -60
-99 -157 -131 -214 -84 -154 -141 -233 -168 -233 -44 0 160 340 294 489 92
103 94 91 5 -42z m626 51 c0 -7 -17 -29 -37 -48 -43 -40 -54 -12 -13 33 26 28
50 36 50 15z m-802 -174 c-71 -88 -153 -197 -183 -242 -56 -84 -99 -103 -155
-67 -21 14 -17 17 25 21 9 1 69 63 133 137 136 157 295 324 303 316 3 -3 -52
-77 -123 -165z m808 79 c-46 -48 -66 -54 -66 -20 0 34 56 83 83 72 20 -7 17
-16 -17 -52z m69 -6 c0 -22 -33 -55 -130 -132 -67 -52 -39 13 36 86 77 74 94
82 94 46z m-2220 -97 c-26 -33 -55 -64 -65 -70 -10 -6 -9 0 3 15 11 14 15 25
8 25 -11 0 84 88 97 89 2 1 -17 -26 -43 -59z m2220 3 c0 -18 -285 -278 -295
-268 -14 14 48 84 164 184 106 92 131 108 131 84z m-1045 -83 c-23 -28 -45
-48 -49 -45 -6 5 74 95 86 95 3 0 -13 -23 -37 -50z m227 -83 c-30 -59 -64
-107 -76 -107 -26 0 -16 23 66 146 71 108 76 90 10 -39z m-176 -44 c-27 -51
-57 -93 -68 -93 -25 0 -24 2 48 109 74 110 82 103 20 -16z m-2360 -130 c250
-241 344 -279 543 -220 70 21 105 26 109 15 3 -9 18 -27 34 -41 76 -65 20
-111 -92 -75 -73 23 -195 40 -195 27 0 -23 -209 -55 -437 -68 -155 -8 -221 -5
-274 10 l-69 21 0 85 c0 89 105 430 140 451 9 6 27 1 40 -11 12 -12 103 -99
201 -194z m3295 189 c-8 -15 -47 -53 -86 -85 -40 -32 -134 -114 -209 -183 -75
-68 -141 -124 -146 -124 -27 0 2 37 121 153 219 214 365 324 320 239z m-121
-181 c0 -8 -7 -18 -15 -23 -8 -6 -15 1 -15 14 0 12 7 23 15 23 8 0 15 -6 15
-14z m-1101 -114 c104 -82 169 -112 254 -112 24 0 70 -5 102 -10 64 -10 61 6
31 -160 -7 -41 2 -66 53 -145 74 -114 73 -107 8 -156 -92 -71 -140 -85 -209
-59 -33 12 -118 41 -188 65 -70 23 -195 70 -277 104 -83 35 -169 70 -192 78
-70 27 -69 76 6 172 75 96 95 130 113 193 37 128 161 141 299 30z m-909 -53
c0 -9 7 -12 15 -6 8 5 15 -3 15 -16 0 -21 4 -22 23 -7 12 10 22 14 22 9 0 -5
17 2 38 15 76 50 66 -1 -11 -56 -42 -30 -46 -31 -37 -6 11 28 -26 8 -53 -29
-6 -8 -15 -10 -21 -4 -6 6 -1 22 11 36 11 15 -4 8 -34 -15 -33 -24 -59 -35
-65 -26 -5 8 8 26 29 39 21 14 34 32 29 39 -5 8 -32 -6 -60 -31 -81 -71 -117
-56 -40 17 58 53 139 78 139 41z m203 -14 c-15 -16 -35 -30 -44 -30 -9 1 -1
14 19 30 46 39 59 38 25 0z m-413 -8 c0 -11 4 -30 9 -43 12 -32 -29 -32 -60 0
-35 34 -29 58 14 61 22 1 37 -6 37 -18z m68 -7 c-15 -16 -34 -30 -41 -30 -7 0
-6 14 3 30 9 17 27 30 40 30 22 0 21 -4 -2 -30z m407 5 c-5 -5 -10 -1 -10 10
0 11 5 16 10 10 6 -5 6 -14 0 -20z m170 1 c0 -12 -8 -22 -19 -22 -10 -1 -32
-4 -48 -8 -17 -3 -57 -10 -90 -15 l-60 -8 45 37 c51 43 172 54 172 16z m1350
-15 c0 -14 -138 -141 -153 -141 -8 0 -10 -6 -6 -13 5 -7 -11 -12 -35 -12 -59
2 -126 -75 -102 -118 14 -26 13 -27 -8 -10 -17 14 -26 15 -34 2 -17 -27 -41 9
-30 44 5 17 18 30 27 28 9 -2 17 4 18 14 1 19 61 70 103 85 19 7 23 4 16 -9
-12 -21 35 17 113 90 48 44 91 63 91 40z m-1255 -58 c-4 -13 -15 -23 -23 -23
-9 0 -8 10 3 23 10 12 21 22 24 22 3 0 1 -10 -4 -22z m964 -87 c6 -10 5 -13
-1 -7 -7 6 -23 2 -37 -8 -21 -16 -21 -15 -3 8 25 31 27 31 41 7z m-74 -21 c-5
-5 -10 -1 -10 10 0 11 5 16 10 10 6 -5 6 -14 0 -20z m-12 -145 c12 -15 12 -20
-3 -20 -11 0 -20 9 -20 20 0 11 1 20 3 20 2 0 11 -9 20 -20z m-3188 -108 c141
-69 365 -119 407 -91 32 21 503 45 503 26 -1 -30 -35 -40 -150 -42 -175 -2
-286 -35 -540 -156 -120 -57 -226 -104 -236 -104 -11 0 -19 -10 -19 -22 0 -37
52 -27 176 35 180 91 358 160 510 199 l139 35 64 -33 c35 -18 83 -36 106 -41
62 -13 223 -124 258 -178 50 -77 360 -260 487 -287 76 -16 80 -22 39 -54 -70
-56 -363 33 -546 165 -66 48 -100 59 -89 27 11 -32 207 -134 369 -191 l156
-55 -90 -9 c-161 -14 -274 -105 -274 -218 0 -58 -12 -60 -167 -19 -61 16 -212
56 -335 89 -124 33 -207 60 -184 61 43 1 301 -24 375 -36 27 -5 41 -1 41 12 0
13 -64 24 -229 38 -369 32 -432 50 -626 183 -162 110 -204 172 -233 337 -3 16
-12 57 -21 90 -16 64 -22 292 -7 292 5 0 58 -24 116 -53z m985 -5 c0 -8 -17
-17 -37 -21 -21 -4 -38 -1 -38 5 0 7 15 15 34 18 18 4 35 8 37 9 2 1 4 -4 4
-11z m235 -53 c209 -73 471 -115 789 -125 146 -4 266 -12 266 -17 0 -5 -14
-33 -32 -61 l-31 -52 31 -76 c45 -110 45 -115 -2 -121 -23 -3 -66 -20 -95 -38
-29 -18 -79 -35 -111 -37 -31 -2 -87 -17 -123 -33 -109 -49 -465 87 -604 230
-59 61 -273 204 -347 232 -46 17 -32 51 43 110 60 48 41 49 216 -12z m-602
-84 c-17 -7 -41 -13 -53 -13 -14 0 -11 5 8 13 16 7 40 13 52 13 14 0 11 -5 -7
-13z m-178 -55 c-5 -5 -14 -5 -20 0 -5 6 -1 10 10 10 11 0 16 -4 10 -10z
m1930 -54 c24 -17 21 -24 -33 -76 l-58 -57 -10 40 c-17 67 51 130 101 93z
m122 -36 c61 -30 63 -36 23 -73 -31 -28 -45 -25 -50 10 -2 11 -12 34 -22 51
l-19 30 3 -30 c3 -37 -15 -83 -34 -83 -25 0 -14 88 13 104 33 19 25 20 86 -9z
m803 -5 c0 -18 -99 -83 -147 -97 -79 -24 -32 55 50 83 90 32 97 33 97 14z
m-932 -123 c-16 -31 -42 -48 -54 -36 -5 5 4 24 20 41 28 33 28 33 -1 22 -28
-10 -28 -10 0 21 33 37 60 1 35 -48z m241 64 c28 -18 -18 -76 -60 -76 -41 0
-50 28 -21 61 29 32 49 35 81 15z m1432 -57 c9 -62 8 -64 -44 -86 -30 -12 -74
-36 -98 -54 -24 -17 -44 -27 -44 -21 0 10 169 233 173 228 2 -2 7 -32 13 -67z
m-1593 15 c-8 -15 -11 -35 -7 -45 9 -27 -25 -23 -36 4 -4 12 0 32 10 45 26 31
49 28 33 -4z m228 13 c12 -19 -61 -82 -81 -69 -12 7 -7 21 16 46 36 38 52 44
65 23z m89 -12 c13 -13 -64 -95 -89 -95 -37 0 -39 33 -5 69 33 35 74 46 94 26z
m130 -13 c0 -12 -15 -29 -34 -37 -18 -8 -55 -32 -82 -54 -63 -52 -89 -12 -32
49 57 61 148 87 148 42z m-500 -99 c-34 -55 -65 -22 -37 40 16 36 20 37 37 14
14 -20 14 -32 0 -54z m125 63 c18 -12 16 -20 -14 -52 -38 -40 -61 -39 -61 4 0
48 37 72 75 48z m34 -84 c-44 -53 -64 -64 -64 -33 0 28 74 103 91 93 8 -5 -4
-32 -27 -60z m94 23 c9 -16 -76 -135 -98 -135 -33 0 -25 50 17 98 48 54 65 62
81 37z m-227 -76 c-38 -43 -60 -12 -27 38 23 35 28 37 40 16 10 -18 6 -34 -13
-54z m294 33 c0 -16 -109 -137 -124 -137 -23 0 -9 34 37 91 43 54 87 77 87 46z
m-446 -23 c25 -19 21 -25 -52 -66 -90 -53 -94 -53 -72 6 28 75 75 97 124 60z
m-173 -99 c4 -17 15 -30 24 -30 47 -1 -65 -59 -113 -60 -61 0 -139 -65 -124
-103 6 -16 3 -17 -11 -5 -11 8 -48 32 -83 52 l-63 36 102 66 c123 79 253 100
268 44z m343 -36 c53 -52 66 -75 65 -116 l0 -50 -39 63 c-21 35 -47 64 -59 64
-31 0 -26 -11 28 -75 27 -32 65 -88 85 -125 l37 -68 -61 -66 c-33 -36 -68 -62
-78 -59 -9 3 -17 -9 -17 -26 0 -169 -302 -360 -409 -259 -19 18 -58 37 -87 42
-28 6 -68 25 -89 44 -91 82 -176 115 -214 81 -10 -9 -40 -29 -67 -45 -32 -19
-49 -40 -49 -63 0 -33 1 -32 34 8 56 70 128 71 235 5 48 -29 105 -54 127 -54
107 0 182 -179 110 -263 l-36 -41 -77 57 c-90 68 -112 142 -41 142 31 0 40
-12 62 -82 15 -46 35 -83 46 -83 25 0 25 2 -2 55 -13 23 -23 60 -23 82 0 41
-23 58 -81 58 -44 0 -69 -27 -69 -77 0 -39 -3 -41 -56 -33 -64 10 -124 57
-124 98 0 15 -8 27 -17 27 -11 0 -14 -16 -8 -44 9 -43 8 -44 -34 -29 -68 24
-92 62 -121 198 -15 69 -46 162 -69 205 -50 95 -51 144 -8 214 63 102 250 151
343 90 38 -25 40 -25 30 0 -13 33 9 33 61 1 70 -44 108 -84 108 -114 0 -19 7
-26 21 -21 67 26 73 -72 7 -124 l-40 -31 -10 83 c-10 77 -73 187 -95 165 -4
-4 3 -20 16 -34 42 -47 59 -146 42 -240 -22 -116 -20 -154 6 -154 17 0 20 11
13 45 -8 40 1 54 77 127 47 45 81 89 76 98 -6 8 1 15 14 15 50 0 78 -197 31
-215 -53 -21 -21 -176 36 -175 19 1 19 4 -3 16 -17 10 -26 34 -26 72 0 71 13
86 41 47 11 -17 30 -30 42 -30 29 0 28 24 -1 36 -28 10 -56 81 -45 111 7 19
15 17 43 -10 36 -33 85 -43 85 -17 0 8 -10 15 -22 15 -62 0 -152 165 -132 242
6 23 3 30 -12 25 -12 -4 -24 -25 -26 -47 -6 -48 -23 -50 -63 -10 -40 40 -39
44 40 109 99 82 186 78 244 -11 80 -123 189 -263 193 -249 5 16 -45 94 -164
258 -64 87 -78 98 -113 91 -26 -5 -36 -2 -29 9 16 26 141 39 185 19 43 -19 64
-10 37 17 -10 10 -52 18 -93 18 -87 0 -88 1 -34 30 81 44 151 31 223 -42z
m1280 -25 c-9 -17 -20 -28 -25 -23 -4 4 0 19 11 31 27 33 34 28 14 -8z m-1724
-69 c0 -19 -50 -65 -70 -65 -25 0 -25 7 -1 45 17 28 71 43 71 20z m-890 -255
c-5 -5 -15 -5 -20 0 -5 6 -1 10 10 10 11 0 16 -4 10 -10z m1505 -36 c0 -51 77
-146 276 -342 207 -203 202 -196 159 -234 -28 -26 -31 -26 -78 11 -131 100
-342 321 -351 368 -5 26 -19 48 -30 48 -80 0 76 -196 324 -408 l83 -71 -91
-87 c-49 -47 -112 -105 -138 -128 l-48 -41 -25 47 c-48 94 -98 244 -90 275 4
17 -2 59 -14 93 -11 34 -36 141 -54 237 l-33 174 43 45 c50 52 67 55 67 13z
m566 -550 c-21 -20 -29 -22 -45 -6 -15 15 -13 23 11 41 40 29 69 1 34 -35z
m28 -57 c-10 -27 -39 -29 -39 -2 0 27 36 61 42 40 3 -9 2 -26 -3 -38z m-84 25
c0 -7 -13 -24 -29 -38 -33 -31 -59 -6 -30 29 19 24 59 30 59 9z m165 -66 c0
-6 -7 -11 -15 -11 -8 0 -15 15 -15 34 0 32 29 10 30 -23z m-135 5 c0 -18 -29
-37 -40 -26 -11 11 8 40 26 40 8 0 14 -6 14 -14z m93 -12 c8 -37 -262 -307
-294 -295 -64 24 132 235 204 221 40 -8 44 -6 40 27 -8 60 39 104 50 47z
m-208 1 c16 -16 -160 -192 -192 -193 -21 0 -30 -10 -30 -31 0 -48 -37 -85 -63
-64 -18 15 2 42 118 158 142 142 149 148 167 130z m125 -45 c-5 -5 -10 -1 -10
10 0 11 5 16 10 10 5 -5 5 -14 0 -20z m-70 -2 c0 -21 -189 -199 -200 -188 -6
6 31 53 83 105 89 90 117 110 117 83z m180 -45 c0 -35 -237 -252 -256 -233
-13 13 218 260 243 260 7 0 13 -12 13 -27z m-54 -160 c-48 -45 -102 -82 -118
-82 -23 0 -3 25 75 96 63 57 110 90 118 82 9 -8 -21 -46 -75 -96z m114 3 c0
-35 -4 -43 -14 -27 -12 18 -18 17 -41 -10 -15 -18 -48 -37 -72 -42 -44 -9 -44
-7 27 59 87 82 100 85 100 20z m-465 -31 c0 -27 -70 -91 -81 -73 -10 16 46 93
67 93 8 0 14 -9 14 -20z m33 -44 c-8 -10 -18 -39 -20 -63 -6 -48 -26 -55 -50
-17 -11 17 -5 33 21 61 36 38 79 55 49 19z m39 -25 c-21 -33 -35 -29 -22 6 5
13 16 23 25 23 10 0 9 -11 -3 -29z m364 3 c-41 -69 -177 -203 -196 -192 -14 9
12 42 92 115 121 111 126 115 104 77z m-317 -43 c-42 -44 -67 -32 -35 16 14
22 32 33 45 28 19 -7 17 -15 -10 -44z m181 -35 c-81 -73 -102 -86 -125 -73
-39 21 66 132 124 132 21 0 49 7 61 15 52 33 32 9 -60 -74z m-90 49 c0 -19
-65 -80 -85 -80 -28 0 -25 15 13 55 30 33 72 47 72 25z m258 -45 c38 -34 37
-36 -57 -117 -76 -65 -86 -70 -107 -49 -21 22 -16 32 48 107 81 94 78 93 116
59z m-408 -27 c0 -27 -25 -43 -46 -30 -10 7 -10 16 2 31 23 27 44 27 44 -1z
m45 -36 c0 -19 -44 -53 -55 -42 -11 11 23 55 42 55 7 0 13 -6 13 -13z m338
-77 c-41 -41 -77 -70 -82 -66 -8 8 132 140 148 141 4 0 -26 -34 -66 -75z
m-279 46 c18 -12 15 -19 -15 -44 -51 -41 -87 -6 -41 40 21 21 28 22 56 4z
m383 -41 c16 -65 -72 -147 -122 -114 l-37 24 64 65 c75 76 82 78 95 25z m-326
-2 c14 -9 10 -22 -19 -48 -49 -46 -89 -20 -45 30 31 33 37 35 64 18z m-131
-50 c0 -8 -7 -11 -15 -5 -8 5 -15 16 -15 24 0 8 7 11 15 6 8 -6 15 -17 15 -25z
m203 1 c12 -19 -34 -74 -62 -74 -33 0 -40 31 -13 61 29 32 60 37 75 13z m-158
-37 c16 -19 15 -21 -5 -13 -14 5 -25 15 -25 23 0 19 9 16 30 -10z m450 -13 c0
-35 -73 -92 -93 -72 -14 14 -8 28 25 62 42 44 68 48 68 10z m-274 -35 c-22
-22 -45 -35 -52 -28 -6 6 8 28 31 49 56 48 73 31 21 -21z m96 2 c25 -23 25
-27 2 -64 l-25 -39 33 28 c43 37 85 10 46 -30 -22 -21 -30 -20 -93 10 -81 37
-81 38 -37 84 38 42 40 42 74 11z m161 -76 c-36 -38 -88 -73 -88 -58 0 20 112
129 117 114 4 -10 -10 -35 -29 -56z m64 -50 c6 -41 -23 -54 -86 -39 l-36 10
49 43 c52 47 66 45 73 -14z"/>
<path d="M3253 5944 c-19 -24 -18 -25 6 -6 25 20 33 32 20 32 -3 0 -15 -12
-26 -26z"/>
<path d="M3179 5885 c-20 -21 -27 -36 -15 -32 19 6 73 72 58 72 -4 0 -23 -18
-43 -40z"/>
<path d="M3127 5731 c9 -15 46 -13 63 4 5 5 -8 10 -31 10 -22 0 -37 -6 -32
-14z"/>
<path d="M4416 4391 l-28 -33 33 28 c19 16 34 31 34 34 0 12 -12 3 -39 -29z"/>
<path d="M4326 4316 l-28 -33 33 28 c32 27 41 39 29 39 -3 0 -18 -15 -34 -34z"/>
<path d="M2760 4156 c0 -8 -71 -73 -157 -145 -165 -136 -175 -146 -132 -131
18 6 12 -6 -18 -38 -24 -26 -36 -47 -27 -47 8 0 19 10 24 21 5 13 24 20 46 17
21 -2 36 1 35 7 -2 6 51 51 117 101 66 50 136 110 157 133 21 23 0 10 -45 -29
-114 -98 -129 -88 -25 18 71 71 83 90 62 97 -32 13 -37 13 -37 -4z m-16 -70
c-28 -29 -87 -80 -131 -114 -43 -34 -75 -65 -71 -69 5 -5 27 10 50 32 23 22
47 40 53 40 21 0 -1 -22 -74 -74 -39 -29 -67 -44 -61 -35 6 9 2 19 -7 22 -10
3 18 36 62 73 44 36 111 95 149 129 81 75 103 72 30 -4z"/>
<path d="M3756 4018 c-7 -11 -4 -14 7 -7 17 11 23 24 10 24 -3 0 -11 -8 -17
-17z"/>
<path d="M3718 3964 c-19 -24 -18 -25 6 -6 14 11 26 23 26 26 0 13 -12 5 -32
-20z"/>
<path d="M2130 2401 c0 -36 383 -211 460 -211 57 0 40 25 -24 36 -70 11 -311
113 -374 158 -49 34 -62 38 -62 17z"/>
<path d="M2158 7070 c-180 -132 -523 -471 -523 -516 0 -37 48 2 230 186 109
110 221 218 250 241 29 22 41 37 26 33 -44 -13 -30 1 49 52 41 27 75 55 75 62
0 19 -6 16 -107 -58z"/>
<path d="M2670 6708 c-87 -56 -209 -135 -273 -176 -63 -41 -116 -84 -116 -95
-1 -18 3 -18 28 0 16 11 133 89 259 173 267 179 295 198 275 199 -9 1 -86 -45
-173 -101z"/>
<path d="M2448 6669 c-155 -105 -194 -138 -179 -153 6 -6 27 6 47 25 20 20 94
74 164 119 115 74 151 106 119 105 -6 -1 -74 -44 -151 -96z"/>
<path d="M1766 6471 c-296 -91 -686 -491 -651 -667 6 -29 0 -49 -21 -68 -25
-22 -104 -159 -104 -180 0 -23 44 2 79 45 22 29 84 81 138 116 53 35 94 67 90
71 -4 4 -15 0 -25 -10 -24 -24 -42 -23 -42 2 0 61 271 229 544 338 59 23 51
45 -15 41 -99 -8 -404 -176 -535 -295 l-84 -77 0 43 c0 178 374 536 642 615
51 15 93 33 93 39 0 15 -26 12 -109 -13z m-136 -391 c-5 -5 -14 -5 -20 0 -5 6
-1 10 10 10 11 0 16 -4 10 -10z m-410 -320 c23 -1 -28 -30 -65 -38 -28 -5 -28
-3 4 40 25 34 35 40 38 22 3 -13 13 -24 23 -24z"/>
<path d="M6405 6438 c-41 -16 -69 -37 -73 -54 -5 -26 -2 -26 40 4 90 64 282
60 361 -6 46 -38 87 -24 45 15 -72 66 -255 86 -373 41z"/>
<path d="M1890 6426 c-218 -68 -545 -291 -521 -356 5 -12 1 -29 -8 -38 -64
-64 30 -14 172 92 204 153 424 296 453 296 12 0 26 7 32 15 12 21 -46 16 -128
-9z m-90 -71 c0 -3 -42 -35 -94 -71 -51 -35 -140 -101 -196 -144 -117 -91
-146 -101 -97 -34 61 82 387 292 387 249z"/>
<path d="M6795 6330 c0 -8 9 -15 20 -15 58 0 86 -182 42 -273 -39 -81 -217
-264 -283 -292 -27 -11 -49 -27 -49 -35 0 -87 348 225 377 338 29 118 -16 292
-76 292 -17 0 -31 -7 -31 -15z"/>
<path d="M312 6100 c-78 -22 -162 -74 -226 -138 -36 -36 -42 -50 -41 -90 0 -4
-10 -27 -22 -51 -27 -52 -28 -61 -8 -61 8 0 25 21 38 47 19 36 32 45 60 39 26
-5 43 3 57 25 44 67 300 116 447 85 101 -21 200 -85 154 -99 -218 -70 -546
-342 -546 -452 0 -31 27 -24 38 11 5 17 13 28 18 23 4 -4 -3 -38 -16 -75 -15
-44 -18 -72 -8 -78 8 -5 19 5 23 22 5 18 14 32 20 32 6 0 29 27 51 61 43 64
153 141 264 186 37 14 77 30 88 34 60 24 -278 -383 -394 -474 -129 -101 172
67 343 191 57 41 71 47 61 24 -14 -33 -76 -252 -97 -341 -24 -102 9 -72 59 53
67 170 112 256 167 318 58 67 59 67 67 -77 24 -402 43 -516 83 -491 7 4 13 -2
13 -14 0 -12 11 -21 25 -20 30 3 94 -85 105 -144 5 -22 16 -41 24 -41 9 0 29
-11 44 -25 44 -40 51 -9 9 36 -40 43 -102 138 -102 158 0 24 88 10 126 -20 68
-54 72 -25 8 53 -79 95 -140 132 -204 125 -68 -8 -69 -6 -73 372 l-4 332 51
72 c28 40 47 76 43 80 -13 13 -99 -77 -189 -200 -124 -168 -129 -174 -236
-245 -149 -98 -154 -84 -21 54 60 62 86 108 47 84 -11 -7 -14 -4 -6 8 6 10 15
14 20 9 10 -10 63 36 63 56 0 8 -12 6 -26 -6 -22 -17 -22 -15 2 13 15 18 33
31 39 30 6 -2 39 27 74 64 86 92 61 49 -62 -108 -56 -72 -102 -136 -102 -141
0 -19 49 31 94 98 26 38 51 72 55 76 35 29 106 137 99 149 -5 8 8 26 29 40 54
35 48 57 -14 47 -161 -27 -431 -197 -568 -358 -24 -28 -13 -7 24 47 40 58 98
118 144 149 87 59 92 81 6 33 l-56 -33 45 39 c68 58 216 127 271 127 27 0 53
6 58 14 4 7 22 10 38 5 17 -4 30 -1 30 8 0 8 -16 19 -35 23 -19 5 -62 39 -97
76 -126 134 -430 132 -635 -5 -93 -62 -100 -39 -11 36 105 88 158 105 331 105
88 0 155 6 149 12 -22 22 -233 26 -305 6z m369 -106 c28 -12 55 -29 61 -38 6
-10 -14 -6 -47 8 -33 15 -119 30 -200 36 l-142 10 139 3 c90 1 157 -5 189 -19z
m-446 -49 c-6 -5 -14 -5 -20 0 -5 6 -1 10 10 10 11 0 15 -4 10 -10z m-40 -12
c0 -3 -8 -11 -17 -17 -11 -7 -14 -4 -7 7 11 17 24 23 24 10z m673 -201 c-28
-31 -55 -54 -62 -51 -16 8 -217 -67 -294 -109 -96 -54 -45 -2 64 64 100 62
290 152 322 153 12 1 -1 -24 -30 -57z m79 -100 c-17 -28 -29 -60 -26 -71 2
-10 1 -13 -2 -7 -4 7 -26 -17 -48 -52 -46 -72 -121 -146 -121 -121 0 9 9 26
19 37 11 11 36 47 55 80 40 67 134 187 146 187 4 0 -6 -24 -23 -53z m-512 -14
c0 -3 -8 -11 -17 -17 -11 -7 -14 -4 -7 7 11 17 24 23 24 10z m-30 -45 c0 -3
-8 -11 -17 -17 -11 -7 -14 -4 -7 7 11 17 24 23 24 10z m640 -678 c-5 -5 -14
-5 -20 0 -5 6 -1 10 10 10 11 0 16 -4 10 -10z m22 -47 c-11 -3 -27 1 -35 9
-12 12 -6 14 19 7 20 -5 27 -12 16 -16z m95 12 c6 -8 0 -11 -14 -6 -26 10 -30
21 -9 21 8 0 18 -7 23 -15z m-22 -30 c17 -11 9 -15 -30 -15 -39 0 -47 4 -30
15 12 8 26 15 30 15 4 0 18 -7 30 -15z"/>
<path d="M650 6080 c6 -5 15 -5 20 0 6 6 1 10 -10 10 -11 0 -16 -4 -10 -10z"/>
<path d="M1597 5812 c-41 -29 -98 -69 -127 -89 -58 -41 -162 -70 -144 -40 15
24 -8 21 -49 -7 -19 -13 -37 -21 -41 -17 -4 4 17 23 47 41 29 18 50 37 45 42
-11 11 -263 -158 -263 -177 0 -25 15 -18 79 38 34 28 69 52 77 51 9 0 -9 -21
-40 -46 -31 -25 -56 -52 -56 -60 0 -8 26 7 58 34 41 34 76 50 113 51 l55 2
-49 -41 c-27 -23 -46 -45 -41 -49 14 -15 74 8 74 27 0 18 278 158 313 158 9 0
17 14 17 30 0 29 -2 30 -44 8 -70 -36 -71 -27 -3 22 34 25 62 52 62 60 0 21 1
21 -83 -38z"/>
<path d="M1703 5698 c-163 -85 -244 -137 -223 -144 22 -7 140 52 140 69 0 7
54 37 120 67 66 30 120 57 120 62 0 19 -45 4 -157 -54z"/>
<path d="M1530 5655 c-150 -76 -255 -154 -236 -174 6 -6 33 9 60 34 60 55 175
128 270 170 65 29 89 46 60 44 -6 0 -76 -33 -154 -74z"/>
<path d="M1875 5661 c-159 -89 -257 -162 -355 -265 -100 -103 -107 -119 -115
-258 -3 -50 -13 -109 -23 -132 -18 -45 2 -125 28 -109 8 5 11 0 6 -12 -5 -15
4 -21 32 -21 27 0 36 6 31 20 -4 12 -2 21 6 21 8 0 15 7 15 16 0 10 -13 12
-34 5 -30 -9 -31 -8 -13 14 11 14 29 25 39 25 13 0 14 16 2 68 -9 37 -24 67
-35 67 -24 0 -25 48 0 73 10 10 19 23 19 29 1 62 331 391 452 450 76 38 101
63 61 63 -10 0 -62 -25 -116 -54z m-420 -688 c0 -3 -8 -11 -17 -17 -11 -7 -14
-4 -7 7 11 17 24 23 24 10z"/>
<path d="M3036 5591 c-25 -43 -58 -107 -73 -142 l-27 -63 47 -39 c52 -44 58
-69 25 -97 -49 -40 15 -190 66 -158 16 9 14 15 -6 27 -24 13 -23 16 6 43 49
46 37 97 -42 184 -31 34 -33 40 -9 28 16 -9 48 -24 70 -34 47 -22 66 -60 39
-77 -14 -8 -12 -14 8 -22 68 -26 44 74 -28 116 l-52 31 45 42 c45 42 61 109
30 128 -8 5 -15 -7 -15 -28 0 -58 -15 -84 -61 -108 -85 -44 -90 -32 -36 90 32
73 41 83 60 67 13 -10 27 -14 32 -9 46 46 85 -94 81 -294 -2 -127 33 -105 74
48 15 57 14 66 -22 108 -21 25 -38 60 -38 78 0 19 -21 49 -52 74 -54 43 -77
52 -59 24 7 -11 4 -14 -8 -6 -13 8 -14 16 -2 28 19 19 21 40 5 40 -7 0 -33
-35 -58 -79z m206 -261 c-14 -50 -16 -51 -10 -9 4 26 0 52 -7 57 -8 5 -15 20
-15 34 0 22 2 23 24 0 21 -20 22 -34 8 -82z m-167 -108 c0 -16 -13 -32 -30
-36 -34 -9 -40 18 -12 46 26 26 42 22 42 -10z"/>
<path d="M2535 5630 c-112 -12 -118 -16 -123 -83 l-4 -62 -143 -48 c-120 -39
-143 -52 -148 -81 -6 -43 24 -77 42 -48 7 11 82 37 168 57 162 38 177 48 178
112 0 39 94 73 205 73 38 0 39 4 26 56 -10 35 -47 40 -201 24z m138 -53 c-22
-5 -79 -17 -127 -27 -86 -17 -86 -18 -81 -66 l5 -50 -147 -41 c-81 -22 -156
-38 -166 -34 -25 10 45 37 176 70 l105 26 4 63 c6 73 9 76 148 90 105 10 164
-11 83 -31z"/>
<path d="M7500 5483 c0 -4 52 -34 116 -66 130 -66 334 -205 334 -227 0 -8 11
-15 24 -15 43 0 12 37 -92 110 -172 119 -382 228 -382 198z"/>
<path d="M8661 5464 c-27 -88 -73 -116 -253 -156 -142 -31 -206 -60 -184 -82
6 -6 34 1 63 15 178 85 338 74 338 -23 0 -57 54 -163 83 -163 12 0 22 10 22
23 0 12 -10 22 -22 22 -28 0 -60 105 -48 154 7 26 30 46 74 64 45 19 56 29 37
33 -15 4 -54 -7 -86 -24 -75 -40 -86 -22 -30 52 44 59 58 111 30 111 -9 0 -20
-12 -24 -26z"/>
<path d="M1756 5392 c-100 -61 -119 -56 -39 11 17 15 23 26 13 27 -23 0 -108
-98 -128 -148 -27 -68 -39 -135 -25 -140 7 -3 17 -47 23 -99 8 -78 16 -100 46
-119 57 -38 76 -3 30 58 -93 124 -33 269 149 363 98 51 219 42 147 -11 -32
-23 -23 -78 12 -72 54 9 36 -200 -22 -252 -42 -39 -146 -75 -216 -75 -35 0
-16 -37 20 -39 132 -7 273 101 274 209 0 42 7 60 26 65 21 5 26 22 25 85 -2
113 -4 119 -28 110 -15 -6 -30 8 -47 43 -27 58 -27 58 -66 37 -19 -10 -31 -10
-37 0 -17 26 -44 17 -157 -53z m59 -14 c0 -3 -8 -11 -17 -17 -11 -7 -14 -4 -7
7 11 17 24 23 24 10z m248 -67 c-11 -18 -83 -29 -83 -13 0 16 63 41 79 32 6
-4 8 -13 4 -19z m7 -53 c0 -13 -7 -23 -15 -23 -8 0 -15 10 -15 23 0 12 7 22
15 22 8 0 15 -10 15 -22z m-412 -293 c5 -8 2 -15 -7 -15 -9 0 -16 7 -16 15 0
8 3 15 7 15 3 0 10 -7 16 -15z"/>
<path d="M3370 5254 c-14 -151 -12 -247 5 -236 8 5 15 2 15 -7 0 -20 -1 -20
-67 7 -38 16 -54 18 -50 6 4 -11 155 -84 155 -74 0 0 0 93 0 206 1 140 -2 182
-10 132 -6 -42 -11 -108 -12 -147 0 -39 -8 -71 -16 -71 -9 0 -11 54 -5 143 11
162 -1 193 -15 41z"/>
<path d="M3450 5160 c-8 -122 2 -220 19 -194 2 4 0 67 -5 142 -8 118 -9 124
-14 52z"/>
<path d="M1704 5181 c-65 -64 20 -193 107 -162 24 8 47 31 55 55 31 87 -98
172 -162 107z m129 -43 c30 -68 -38 -105 -99 -54 -25 20 -32 63 -14 81 26 26
96 9 113 -27z"/>
<path d="M1755 5116 c0 -8 7 -18 15 -23 8 -6 15 1 15 14 0 12 -7 23 -15 23 -8
0 -15 -6 -15 -14z"/>
<path d="M8280 5181 c0 -12 10 -21 23 -21 119 0 433 -288 402 -369 -7 -17 -3
-23 11 -18 69 22 -21 166 -184 297 -98 78 -101 95 -9 41 101 -60 206 -159 218
-208 13 -50 39 -62 47 -21 8 43 -183 218 -298 273 -104 50 -210 63 -210 26z"/>
<path d="M3500 5078 c0 -58 3 -80 6 -49 3 31 3 78 0 105 -3 27 -6 1 -6 -56z"/>
<path d="M2055 5145 c0 -8 7 -15 15 -15 8 0 15 7 15 15 0 8 -7 15 -15 15 -8 0
-15 -7 -15 -15z"/>
<path d="M2055 5100 c0 -8 6 -15 14 -15 8 0 18 7 24 15 5 8 -2 15 -15 15 -12
0 -23 -7 -23 -15z"/>
<path d="M3555 5024 c0 -28 7 -61 14 -73 9 -14 11 2 5 45 -10 83 -19 96 -19
28z"/>
<path d="M2530 5015 c-17 -17 6 -35 47 -36 39 -2 39 -2 6 -12 -43 -12 -40 -41
3 -35 31 5 31 5 2 -17 -47 -35 -20 -42 34 -10 56 34 59 49 18 90 -29 29 -90
40 -110 20z"/>
<path d="M2359 4890 c-61 -37 -63 -60 -4 -60 25 0 70 -10 100 -23 72 -30 75
-22 25 51 -49 70 -56 72 -121 32z m76 -22 c6 -16 0 -23 -20 -23 -34 0 -53 24
-26 35 31 13 37 11 46 -12z"/>
<path d="M1570 4859 c-8 -33 3 -41 73 -47 24 -3 48 -10 53 -16 5 -7 26 -3 47
8 l38 20 -38 18 c-22 10 -49 18 -62 18 -21 0 -21 2 -1 15 17 11 6 15 -40 15
-50 0 -63 -6 -70 -31z"/>
<path d="M2614 4865 c-29 -12 -22 -35 11 -35 20 0 26 -7 20 -24 -7 -18 -1 -22
27 -19 52 8 51 79 -2 83 -21 2 -46 0 -56 -5z"/>
<path d="M1928 4815 c-6 -8 -6 -22 0 -30 5 -8 -2 -15 -16 -15 -57 0 -87 -30
-59 -60 24 -27 29 -27 83 -5 74 29 122 24 81 -10 -20 -16 -24 -17 -16 -2 13
21 -9 17 -96 -17 l-37 -14 34 -13 c45 -18 146 32 157 76 7 24 3 30 -16 25 -14
-4 -46 -11 -70 -16 l-45 -9 37 22 c21 12 49 22 64 22 30 1 33 18 8 43 -22 22
-97 24 -109 3z m47 -25 c-5 -5 -15 -5 -20 0 -5 6 -1 10 10 10 11 0 16 -4 10
-10z"/>
<path d="M2248 4736 c-26 -36 -237 -147 -291 -153 -18 -2 -40 -8 -48 -13 -18
-11 -17 17 1 46 8 12 3 19 -12 19 -32 0 -44 -36 -24 -73 14 -27 10 -34 -32
-56 -112 -58 -369 -320 -327 -333 10 -4 31 -18 46 -31 144 -130 138 -128 311
-125 87 2 163 9 167 15 5 7 47 21 95 31 82 18 108 37 68 50 -11 4 -7 17 13 37
19 19 49 101 80 217 28 102 66 217 85 255 47 94 45 114 -14 125 -27 6 -59 13
-71 16 -12 3 -33 -9 -47 -27z m-93 -126 c-5 -5 -14 -5 -20 0 -5 6 -1 10 10 10
11 0 16 -4 10 -10z m141 -6 c16 -8 29 -22 29 -30 0 -32 -110 -293 -131 -309
-12 -10 -18 -25 -12 -34 12 -19 -17 -76 -40 -76 -9 0 -24 -9 -33 -21 -21 -27
-114 -48 -114 -25 0 9 -7 16 -15 16 -8 0 -15 -9 -15 -21 0 -12 -23 -24 -56
-30 -31 -5 -70 -13 -87 -17 -22 -6 -39 4 -64 37 -19 26 -29 46 -22 44 29 -4
40 4 20 16 -28 18 82 65 121 53 16 -5 28 -2 28 7 0 9 9 16 19 16 20 0 63 58
51 70 -4 4 -23 -1 -42 -12 -20 -10 -47 -17 -62 -15 -14 2 -26 -5 -26 -16 -1
-11 -42 -39 -93 -62 l-92 -42 -36 36 c-42 42 -23 101 30 101 15 0 24 6 19 14
-9 15 74 85 110 94 12 2 37 19 57 36 36 33 219 126 246 126 8 0 14 10 14 23 0
20 5 19 38 -2 37 -24 40 -24 61 7 25 35 53 40 97 16z"/>
<path d="M2190 4429 c-12 -5 -31 -18 -42 -29 -24 -24 -43 -26 -56 -4 -6 9 -24
0 -46 -24 -45 -49 -47 -74 -3 -50 25 13 35 13 39 0 3 -9 12 -17 21 -17 8 0 11
10 6 23 -10 27 52 56 88 42 15 -5 23 1 23 16 0 13 7 24 15 24 8 0 15 7 15 15
0 16 -24 18 -60 4z"/>
<path d="M1166 4746 c-16 -16 33 -96 57 -96 29 0 28 30 -1 72 -24 34 -40 40
-56 24z m49 -53 c0 -8 -7 -11 -15 -5 -8 5 -15 16 -15 24 0 8 7 11 15 6 8 -6
15 -17 15 -25z"/>
<path d="M1928 4612 c-16 -12 -22 -22 -14 -22 9 0 28 10 44 22 16 12 23 22 15
22 -9 0 -29 -10 -45 -22z"/>
<path d="M1504 4485 c-35 -16 -64 -36 -64 -45 0 -9 18 -6 47 8 25 14 64 26 85
29 45 4 65 38 23 38 -15 -1 -56 -14 -91 -30z"/>
<path d="M2454 4487 c-5 -8 -32 -18 -61 -23 -29 -6 -53 -18 -53 -26 0 -9 11
-12 24 -7 73 28 102 25 47 -6 -31 -17 -56 -37 -56 -45 0 -22 22 -18 62 12 46
35 120 66 130 56 10 -10 13 -8 -79 -53 -71 -34 -73 -37 -34 -42 22 -3 41 -11
41 -18 0 -8 45 12 99 43 102 58 120 87 48 81 -31 -3 -39 1 -32 19 9 25 -121
34 -136 9z m166 -57 c-5 -5 -14 -5 -20 0 -5 6 -1 10 10 10 11 0 16 -4 10 -10z
m-76 -42 c-16 -12 -35 -18 -44 -12 -9 5 -3 14 13 21 47 18 62 14 31 -9z"/>
<path d="M2581 4353 c-37 -21 -59 -41 -48 -45 10 -3 36 5 59 19 l41 25 -43
-39 c-24 -22 -40 -43 -35 -48 10 -10 129 87 130 106 0 7 -10 4 -23 -6 -19 -16
-21 -15 -13 5 11 30 14 31 -68 -17z"/>
<path d="M3098 4350 c-15 -16 -21 -30 -13 -30 9 0 28 14 43 30 14 17 20 30 12
30 -9 0 -28 -13 -42 -30z"/>
<path d="M2401 4172 c-54 -15 -60 -51 -6 -39 40 9 41 8 14 -14 -16 -13 -25
-28 -19 -34 6 -6 18 -3 27 6 18 18 58 -9 58 -40 0 -26 21 -19 42 14 16 26 14
30 -11 30 -21 0 -27 7 -21 23 4 12 0 32 -10 45 -20 24 -20 24 -74 9z"/>
<path d="M1913 3994 c-171 -6 -238 -34 -81 -34 148 0 328 18 328 32 0 7 -22
12 -49 10 -27 -2 -116 -6 -198 -8z"/>
<path d="M2788 3769 c-19 -24 -18 -25 6 -6 14 11 26 23 26 26 0 13 -12 5 -32
-20z"/>
<path d="M5535 2927 c0 -7 32 -40 71 -71 39 -32 114 -101 166 -152 51 -52 100
-94 108 -94 37 0 5 43 -122 163 -157 149 -223 194 -223 154z"/>
<path d="M4695 2849 l-52 -46 63 41 c35 22 64 42 64 45 0 16 -28 1 -75 -40z"/>
<path d="M4611 2788 c-7 -11 -4 -14 7 -7 17 11 23 24 10 24 -3 0 -11 -8 -17
-17z"/>
<path d="M5475 2529 c-323 -91 -549 -221 -832 -478 -16 -14 -38 -26 -48 -26
-24 0 -26 -24 -5 -38 8 -5 54 27 101 72 272 254 679 450 938 453 107 0 136 9
103 29 -41 25 -140 20 -257 -12z"/>
<path d="M4611 1785 c-114 -46 -294 -450 -268 -603 11 -63 57 -125 83 -109 22
14 16 52 -9 52 -120 0 -1 422 168 596 36 37 65 70 65 73 0 7 0 7 -39 -9z"/>
<path d="M4761 1395 c-111 -39 -215 -99 -280 -162 -88 -85 -65 -105 25 -22
113 103 314 192 407 181 51 -6 65 -36 23 -49 -17 -6 -90 -50 -162 -98 -254
-171 -391 -263 -418 -279 -26 -15 -26 -19 1 -109 31 -103 50 -127 84 -106 17
11 18 16 2 27 -24 15 -67 154 -52 168 6 5 85 60 174 121 90 61 205 139 255
174 51 34 101 63 111 63 11 1 33 15 49 31 81 81 -57 118 -219 60z"/>
<path d="M6160 1324 c-9 -55 -139 -268 -202 -331 -77 -77 -94 -410 -30 -588
39 -111 87 -143 87 -59 0 35 -6 45 -21 39 -34 -13 -56 70 -65 247 -9 170 13
309 50 323 12 5 59 70 105 145 46 76 80 124 75 108 -84 -313 -97 -885 -21
-933 35 -21 39 24 12 113 -63 201 -1 849 83 882 29 11 28 35 0 35 -14 0 -23
14 -23 38 0 59 -40 45 -50 -19z"/>
<path d="M6645 713 c0 -4 21 -42 47 -83 127 -207 157 -428 81 -604 -8 -18 -5
-26 10 -26 50 0 78 254 43 390 -21 80 -121 303 -143 319 -18 12 -38 14 -38 4z"/>
</g>
</svg>
