<svg width="450" height="12" viewBox="0 0 450 12" fill="none" xmlns="http://www.w3.org/2000/svg">
<path d="M10.1091 0.444078C19.5226 -0.604643 25.9481 0.509642 34.6807 0.687235C53.9044 1.0774 79.255 0.725992 98.9164 0.753883C113.798 0.775019 128.92 0.849859 143.711 0.909884C144.47 0.912841 144.923 1.02781 145.267 1.02927C148.505 1.04279 153.936 0.938627 157.149 0.953828C163.907 0.985532 175.666 0.967619 181.856 1.07541C184.485 1.12105 187.181 1.14007 188.203 1.41378C189.163 1.42771 189.687 1.18041 189.938 1.16696C189.941 1.1672 189.944 1.16744 189.947 1.16769C190.754 1.12594 192.794 1.29933 193.244 1.28854C193.312 1.28684 192.897 1.10772 193.989 1.16183C194.087 1.16648 193.997 1.28827 194.916 1.29C195.156 1.29042 198.231 1.10367 199.11 1.09225C202.035 1.05508 209.02 1.2017 212.517 1.19918C213.052 1.19918 213.36 1.12794 213.924 1.12667C214.216 1.12594 214.654 1.20327 214.743 1.20284C215.137 1.20009 216.855 0.848907 216.238 1.54194C218.033 1.498 217.504 1.26888 217.545 1.12008C219.493 1.0986 220.432 1.42499 220.94 1.07907C230.519 1.12082 240.099 1.16256 249.678 1.20431C249.681 1.14791 249.684 1.09152 249.687 1.03512C252.51 1.26038 253.479 0.879365 255.091 1.20651C256.084 1.13449 257.078 1.06247 258.072 0.990448C283.616 1.21236 309.101 0.948592 334.357 0.949433C335.423 0.949433 335.689 1.06943 337.447 1.07028C339.388 1.07112 342.117 0.931659 344.675 0.933321C346.919 0.934589 350.23 1.04811 352.732 1.06589C353.296 1.06969 353.705 0.993688 353.768 0.99411C354.142 0.997079 354.161 1.1174 354.524 1.12082C354.957 1.12462 355.482 1.03549 355.983 1.04098C357.856 1.06083 359.896 1.03011 360.134 1.0322C361.276 1.04359 361.528 1.16126 361.622 1.16256C362.892 1.17692 362.416 1.07071 362.733 1.07687C364.374 1.10942 365.535 1.37456 367.783 1.12008C367.722 1.21847 367.66 1.31685 367.599 1.41524C369.319 1.4706 368.183 1.20917 368.535 1.16183C368.678 1.14429 372.381 1.17622 372.667 1.18087C373.661 1.19778 373.688 1.32852 373.774 1.33028C373.983 1.33451 376.485 1.18612 377.768 1.30025C379.286 1.4355 377.5 1.70147 377.876 1.75141C377.94 1.75986 379.529 1.73261 379.742 1.81586C379.978 1.90543 378.604 1.90354 378.625 1.9411C378.64 1.96689 380.921 2.15153 380.484 2.27581C380.133 2.40046 377.037 2.24064 376.381 2.29925C376.273 2.30895 376.477 2.46279 376.381 2.46843C375.996 2.48914 368.864 2.49376 368.538 2.46843C368.909 2.39836 369.281 2.3283 369.652 2.25823C369.158 2.25115 368.665 2.24407 368.171 2.23699C368.873 2.18084 369.575 2.12469 370.277 2.06854C369.234 1.49162 366.091 2.07647 365.961 2.36443C365.905 2.49758 367.826 2.84018 366.039 3.0397C366.31 3.07388 366.582 3.10806 366.854 3.14224C367.414 3.08609 367.974 3.02994 368.535 2.97379C368.162 2.93839 367.789 2.90299 367.415 2.86759C367.553 2.82755 367.69 2.78751 367.827 2.74747C368.875 2.68327 369.922 2.61906 370.969 2.55485C371.507 2.58444 371.395 2.70265 371.765 2.7255C376.38 3.01336 373.37 2.64706 376.392 2.69987C376.823 2.76334 377.255 2.82682 377.686 2.89029C377.534 2.62777 378.872 2.79261 380.491 2.67936C380.297 2.76432 380.104 2.84928 379.911 2.93424C382.256 2.88901 387.009 3.31734 385.727 2.84855C386.264 2.88858 386.801 2.92862 387.338 2.96866C387.792 2.892 388.246 2.81534 388.7 2.73869C389.327 2.74747 389.954 2.75626 390.581 2.76505C390.584 2.80655 390.587 2.84806 390.59 2.88956C390.09 2.8898 389.59 2.89005 389.089 2.89029C389.465 3.01675 389.84 3.14321 390.215 3.26968C390.585 3.24868 390.954 3.22768 391.323 3.20669C389.775 3.08708 391.816 2.89172 392.31 2.72477C393.615 2.66307 394.449 2.87979 394.886 2.88956C395.092 2.89421 397.515 2.51186 396.565 2.93204C397.812 2.88101 399.059 2.82999 400.306 2.77897C400.793 2.81119 401.281 2.84342 401.768 2.87564C400.71 3.07136 403.777 3.30717 401.518 3.38832C399.831 3.44919 399.415 3.26621 398.615 3.26748C397.893 3.26838 397.512 3.39162 396.727 3.39711C391.446 3.43178 387.144 3.40916 382.129 3.35463C381.138 3.34367 380.236 3.4041 379.571 3.39565C378.819 3.3859 379.761 3.23133 378.803 3.26894C377.798 3.30871 377.581 3.43486 377.315 3.4374C377.15 3.43883 376.626 3.32534 376.144 3.32534C374.164 3.32536 371.262 3.4351 370.981 3.43447C370.663 3.4332 365.062 3.33079 364.794 3.31215C364.652 3.30201 364.947 2.88292 363.713 3.32973C363.328 3.33803 362.943 3.34633 362.557 3.35463C362.62 3.2709 362.682 3.18716 362.745 3.10342C360.463 3.42087 361.248 3.24327 359.049 3.26821C353.783 3.32822 346.015 3.25766 340.255 3.28725C338.969 3.29403 338.479 3.39429 336.958 3.40151C335.544 3.40785 331.853 3.10867 332.656 3.52309C329.51 3.16424 329.005 3.78304 327.43 3.39711C327.24 3.45326 327.049 3.50941 326.859 3.56556C325.15 3.32463 324.622 3.53638 322.756 3.56556C321.952 3.57825 322.879 3.32198 321.256 3.60731C320.946 3.58607 320.635 3.56483 320.325 3.54359C320.397 3.48158 320.469 3.41957 320.542 3.35756C318.739 3.40829 318.623 3.37598 318.828 3.60804C317.958 3.56581 317.088 3.52357 316.217 3.48134C316.109 3.55751 316.001 3.63368 315.893 3.70985C316.31 3.85513 336.071 3.63603 338.824 3.5663C342.051 3.73871 348.535 3.52316 351.142 3.5641C352.185 3.58059 352.646 3.75285 354.165 3.77357C355.683 3.79426 357.593 3.6378 358.401 3.63221C361.094 3.61277 373.852 3.64714 365.175 3.86145C365.425 3.94544 365.674 4.02942 365.924 4.1134C369.372 3.82683 368.123 4.00325 370.984 4.03284C372.189 4.04546 375.053 3.85793 374.893 4.23937C372.656 4.31039 370.28 4.18847 368.336 4.19396C368.143 4.19456 365.84 4.36872 364.655 4.3214C363.586 4.27821 364.322 3.91458 361.996 4.32287C360.269 3.92403 359.27 4.28587 358.813 4.32433C358.025 4.39102 357.939 4.19418 357.15 4.17126C356.291 4.14594 355.7 4.2766 355.583 4.27746C354.405 4.28041 348.271 4.29823 347.99 4.21886C348.237 4.18395 348.483 4.14904 348.73 4.11413C347.137 4.05795 347.47 4.25922 347.051 4.28332C346.739 4.28258 346.428 4.28185 346.116 4.28112C346.239 4.23937 346.363 4.19763 346.486 4.15588C344.605 4.16476 346.045 4.30982 343.374 4.30602C341.679 4.30346 339.927 4.14409 339.763 4.15588C339.714 4.15926 340.248 4.26671 339.557 4.28112C338.412 4.30479 336.434 4.30205 336.213 4.15588C335.652 4.17657 335.7 4.31961 335.625 4.32287C335.3 4.33681 329.702 4.38545 328.699 4.39391C325.92 4.41716 322.826 4.38666 319.815 4.41075C319.506 4.41316 319.703 4.32137 319.393 4.32433C318.895 4.32903 316.338 4.47309 315.956 4.48326C315.003 4.50819 312.496 4.45105 312.101 4.49278C312.045 4.4987 312.87 4.62277 311.905 4.66123C310.834 4.70379 311.411 4.53693 311.353 4.53526C309.172 4.4782 307.796 4.59414 306.307 4.61656C305.825 4.62374 304.935 4.49816 304.254 4.53526C304.176 4.53948 304.331 4.65553 304.254 4.66123C303.226 4.7221 302.263 4.50673 301.818 4.49278C300.729 4.45868 301.323 4.61762 301.266 4.61875C300.54 4.62383 299.564 4.56649 298.461 4.57408C293.543 4.6079 289.529 4.6176 284.3 4.60704C283.644 4.60577 282.865 4.49366 282.764 4.49351C282.454 4.49436 282.542 4.62611 281.645 4.62315C279.752 4.61639 277.998 4.62276 276.124 4.62022C275.747 4.61969 275.586 4.49762 275.298 4.49498C274.334 4.48737 271.044 4.80701 270.99 4.40929C269.075 4.76138 267.803 4.45792 266.262 4.46129C262.612 4.4689 256.896 4.54063 253.257 4.49498C252.491 4.48519 252.132 4.38329 251.705 4.3778C250.941 4.36768 246.571 4.42461 246.343 4.40856C245.894 4.3777 246.163 3.92893 243.855 4.31994C242.502 4.3478 242.662 4.16361 242.382 4.15368C240.202 4.07971 238.081 4.49077 238.477 4.11413C235.938 4.2164 234.293 4.42454 233.257 4.07238C233.27 4.24424 232.076 4.34733 230.637 4.28185C232.111 3.99316 231.928 3.80865 235.492 3.86145C235.548 3.8623 235.441 3.98658 235.497 3.98743C236.006 3.99582 237.067 3.93308 237.935 3.93982C238.802 3.94658 238.32 4.03154 238.668 4.02991C238.986 4.02821 238.975 3.90929 239.435 3.90759C240.927 3.90294 242.248 3.87016 243.097 3.86805C243.631 3.86682 244.23 3.97131 244.645 3.97131C246.25 3.97046 249.65 3.88886 251.692 3.90027C252.117 3.90294 251.938 4.02019 252.869 4.02991C252.978 4.03104 253.374 3.90877 254.189 3.88343C255.004 3.85807 255.636 3.91878 256.16 3.90613C256.598 3.89556 256.415 3.78695 257.312 3.78016C258.06 3.77466 266.532 3.85291 266.992 3.87024C267.654 3.89522 267.968 4.04777 268.372 4.02917C268.443 4.02519 268.563 3.87786 268.81 3.86731C272.871 3.6932 281.861 3.8942 286.503 3.89295C296.204 3.89083 305.154 3.80415 314.942 3.7699C315.117 3.74427 315.291 3.71864 315.466 3.693C314.476 3.69203 313.487 3.69105 312.498 3.69007C312.491 3.62074 312.485 3.5514 312.479 3.48207C311.141 3.47109 311.318 3.63507 311.356 3.73402C310.861 3.69203 310.366 3.65003 309.871 3.60804C309.444 3.84967 306.143 3.68897 304.441 3.68934C303.335 3.68934 302.018 3.78145 301.434 3.7743C300.201 3.75952 300.233 3.61042 300.136 3.60804C299.972 3.60466 298.25 3.73616 297.009 3.73109C295.173 3.72385 294.974 3.49492 292.461 3.68934C289.241 3.57057 285.673 3.63034 282.203 3.64979C282.863 3.43818 279.753 3.63846 278.351 3.63514C269.794 3.61443 259.276 3.52402 250.607 3.44032C249.493 3.42976 248.651 3.3051 248.03 3.30923C247.693 3.31134 247.547 3.4583 247.079 3.43886C246.997 3.43512 246.94 3.29769 246.07 3.277C243.904 3.22501 238.51 3.45435 237.145 3.19058C229.741 3.23135 222.338 3.27212 214.934 3.31289C214.748 3.25674 214.562 3.20059 214.376 3.14443C212.969 3.43138 207.409 3.26276 204.698 3.27627C199.925 3.30036 193.836 3.38958 189.655 3.39931C188.746 3.40142 188.002 3.32002 187.142 3.32168C186.772 3.32252 186.312 3.42806 185.926 3.42861C181.603 3.43664 175.749 3.32793 171.392 3.33046C161.499 3.33596 152.183 3.31996 142.16 3.3246C108.394 3.34109 74.8236 3.49629 41.3464 3.43373C40.8976 3.43289 40.92 3.31154 40.5722 3.31069C38.5189 3.30477 33.9338 3.4048 31.6149 3.39931C29.7673 3.39508 26.8348 3.20954 26.199 3.39638C32.7628 3.67918 39.6974 3.6579 46.5305 3.73695C47.0163 3.74251 47.0767 3.85788 47.1365 3.85999C48.2427 3.90007 47.5442 3.7412 49.1484 3.73402C49.6845 3.73161 54.6368 4.09988 54.0476 3.73328C55.2336 3.87994 63.5939 3.95324 65.2073 3.90466C65.6973 3.88987 65.3504 3.78126 65.4476 3.77576C65.8699 3.75178 66.0606 3.90153 66.4381 3.9054C67.4442 3.9147 70.0031 3.79323 70.4893 3.79407C71.608 3.79537 74.9619 3.91728 76.4391 3.88855C77.793 3.86234 77.5395 3.70591 78.7102 3.69154C79.6328 3.68062 78.6278 3.8122 80.6877 3.85193C81.7087 3.87138 85.2802 3.77724 86.1483 3.77723C87.016 3.77723 87.9813 3.87084 89.1781 3.86365C90.9021 3.85351 94.6524 3.80138 96.4067 3.77137C96.5115 3.76968 96.7667 3.64799 97.0247 3.65052C97.5593 3.65562 97.3987 3.80591 97.8024 3.82117C98.2062 3.83639 105.201 3.81803 106.389 3.81971C107.208 3.82055 107.773 3.73103 108.226 3.73182C108.581 3.73266 108.619 3.85785 108.981 3.85926C109.093 3.85926 110.048 3.75052 111.001 3.75306C111.903 3.75561 115.324 3.85901 115.72 3.85999C115.978 3.86041 115.696 3.77145 116.459 3.77357C117.154 3.77574 117.611 3.89126 118.007 3.89295C118.927 3.89671 119.955 3.79821 120.93 3.79774C123.735 3.79647 123.591 3.93957 123.759 3.94421C124.226 3.95714 124.413 3.82607 124.566 3.82337C125.213 3.81238 126.798 3.78817 127.374 3.78309C128.093 3.77675 128.397 3.90131 129.16 3.90174C129.728 3.90165 130.877 3.78021 132.174 3.7743C135.099 3.76035 138.577 3.73742 141.449 3.74207C142.305 3.74334 142.437 3.85703 142.699 3.85999C144.075 3.87559 144.845 3.74847 145.238 3.75013C148.039 3.76154 153.036 3.961 155.635 3.97791C156.694 3.98467 161.327 3.89257 163.942 3.90906C164.241 3.91077 163.961 3.99991 164.294 3.98596C165.09 3.95251 165.016 3.771 165.42 3.7765C165.615 3.7797 166.059 3.88203 166.627 3.89221C169.57 3.94505 171.594 3.86548 172.937 3.87098C185.832 3.92381 198.982 3.97136 211.025 3.98743C212.368 3.98912 214.033 3.88113 216.06 3.98596C216.122 4.04236 216.185 4.09875 216.247 4.15515C216.318 4.09973 216.389 4.04431 216.46 3.98889C218.756 3.95888 219.624 3.88755 221.968 3.95813C222.17 3.96405 222.787 4.2215 223.168 3.90174C225.491 4.13338 224.217 3.89986 225.941 3.8783C227.665 3.85675 229.34 3.92814 231.012 3.94421C231.928 4.05877 228.083 4.32298 227.832 4.32213C227.429 4.32111 227.009 4.16213 226.62 4.15368C225.469 4.1284 224.355 4.25456 224.097 4.11267C222.609 4.26269 224.462 4.18773 224.276 4.32287C223.282 4.26696 222.289 4.21105 221.296 4.15515C220.79 4.61476 215.301 4.01538 215.682 4.36534C215.246 4.29528 214.809 4.22521 214.372 4.15515C212.458 4.5942 211.332 4.28504 208.778 4.15441C208.962 4.21056 209.146 4.26672 209.331 4.32287C209.278 4.3463 207.025 4.43609 207.83 4.19689C205.52 4.51206 205.617 3.98782 203.546 4.36681C202.315 4.41542 203.055 4.19529 200.852 4.19909C199.547 4.2012 197.927 4.3163 196.468 4.32433C196.132 4.32581 195.986 4.19836 195.687 4.19836C195.388 4.19841 195.242 4.32338 194.88 4.32653C194.132 4.33329 193.163 4.24557 192.695 4.25402C192.276 4.26123 191.677 4.37145 190.668 4.38878C187.142 4.45005 188.207 4.29265 187.65 4.23937C187.052 4.18273 186.621 4.39013 185.429 4.36608C185.309 4.36354 185.618 4.2343 185.229 4.23937C184.916 4.24335 184.758 4.38383 183.719 4.41002C183.305 4.42059 176.882 4.45068 175.903 4.45323C174.403 4.45704 171.063 4.33813 169.51 4.33898C168.912 4.339 168.273 4.45179 167.638 4.45104C165.532 4.4485 162.161 4.43895 159.491 4.43346C157.086 4.42836 152.865 4.1794 151.548 4.40416C148.171 4.43332 147.351 4.24126 147.097 4.23864C146.408 4.23145 146.09 4.35869 145.222 4.36461C133.983 4.43858 119.184 4.35447 108.54 4.36461C83.8483 4.38913 59.0222 4.45866 34.2447 4.40709C34.1784 4.46349 34.112 4.51988 34.0456 4.57628C36.9741 4.61263 40.4157 4.71061 43.3067 4.73301C47.1664 4.76257 52.8919 4.52772 55.723 4.91318C54.5748 4.94698 52.7043 4.79919 52.7378 4.99741C54.7903 5.01157 56.8428 5.02572 58.8953 5.03988C58.8341 4.94833 58.7729 4.85678 58.7116 4.76523C60.8546 4.73861 63.0465 4.75856 65.197 4.74546C65.5705 4.7433 65.306 4.66019 65.6313 4.65977C65.9952 4.65947 65.7485 4.74405 65.8167 4.74473C66.7366 4.74557 67.0142 4.66 67.1265 4.66123C67.4145 4.66462 67.1905 4.74607 68.0208 4.7689C69.5611 4.81153 70.664 4.59514 70.3022 4.95566C70.7994 4.95566 71.2967 4.95566 71.7939 4.95566C71.9227 4.85752 72.0514 4.75938 72.1802 4.66123C75.2388 5.05746 76.6491 4.36242 78.3394 4.91391C78.8967 4.82969 79.454 4.74546 80.0114 4.66123C80.3255 4.75938 80.6396 4.85752 80.9538 4.95566C81.015 4.87143 81.0762 4.78721 81.1375 4.70298C84.1404 4.76509 87.3377 4.66397 90.2098 4.67368C92.2104 4.68045 92.6897 4.7137 94.4618 4.70738C98.4036 4.693 94.4892 4.86013 97.7646 5.04062C97.5941 4.93735 97.4235 4.83408 97.253 4.73081C97.7955 4.69297 98.3379 4.65513 98.8804 4.61729C99.258 4.70152 99.6357 4.78574 100.013 4.86997C101.689 4.4331 102.774 4.78574 103.002 4.78574C103.186 4.78498 103.819 4.52198 105.802 4.74473C104.98 4.38516 107.314 4.74261 107.501 4.74473C107.679 4.74619 109.952 4.66591 110.874 4.66929C111.6 4.67185 113.148 4.74925 114.229 4.74546C115.183 4.74209 115.086 4.62002 115.156 4.61875C116.33 4.60861 115.594 4.70346 116.443 4.70811C117.292 4.71275 117.951 4.60872 118.134 4.61802C118.226 4.62297 117.918 4.73668 118.34 4.74766C119.473 4.77761 121.523 4.67805 122.82 4.68101C123.28 4.68193 123.86 4.77839 124.372 4.78135C125.157 4.78555 125.524 4.65743 125.981 4.66123C126.139 4.66291 127.152 4.86082 128.411 4.83042C128.651 4.82432 129.354 4.40551 130.289 4.99887C130.361 4.91538 130.433 4.83188 130.506 4.74839C134.728 4.54168 135.903 5.21997 137.781 4.61802C140.846 4.68525 138.742 4.91973 139.078 4.95566C139.296 4.97836 140.295 4.9139 140.405 4.91757C140.6 4.92476 140.566 5.00002 140.779 4.9996C144.688 4.98565 142.953 4.84355 144.19 4.75352C147.134 4.53921 149.43 5.015 144.311 4.87217C144.311 4.91416 144.311 4.95615 144.311 4.99814C145.571 4.958 148.771 4.97706 147.703 5.19003C146.861 5.35784 139.269 5.24831 143.569 5.48372C144.545 5.53698 145.051 5.3794 146.741 5.67487C147.859 5.69091 148.02 5.30811 149.534 5.46175C149.285 5.32821 149.036 5.19466 148.788 5.06112C150.852 4.88705 153.399 5.12056 154.984 5.04574C155.523 5.02025 157.464 4.38357 157.012 5.02011C157.918 4.98042 162.184 5.09768 162.977 5.04062C163.168 5.02683 163.416 4.68794 166.175 4.80625C166.367 4.84873 166.558 4.89121 166.75 4.93369C164.227 5.0571 168.683 5.18263 167.473 5.50423C167.061 5.35968 165.06 5.27152 164.738 5.19882C164.188 5.07369 165.826 4.91243 163.739 4.95639C162.424 5.49388 166.185 5.24655 165.61 5.7569C168.35 5.51867 168.624 5.74598 169.244 5.75544C171.896 5.7939 173.564 5.73981 176.066 5.79938C176.676 5.69455 172.147 5.54322 171.586 5.58845C173.65 5.21689 170.097 5.20008 168.597 5.42073C168.471 5.30843 168.345 5.19613 168.22 5.08383C170.172 5.1447 172.076 5.17597 174.01 5.08383C174.136 5.12582 174.261 5.16781 174.387 5.2098C173.954 5.27303 173.52 5.33626 173.086 5.39949C174.694 5.50304 173.73 5.17557 175.872 5.46248C175.939 5.33602 176.005 5.20956 176.071 5.0831C178.126 5.12509 180.18 5.16708 182.234 5.20907C183.303 4.95548 187.256 5.04994 186.532 5.37825C188.128 5.40143 186.158 5.2267 187.653 5.14681C188.304 5.11215 189.576 5.10241 189.89 5.19076C189.755 5.5034 187.852 5.54221 187.276 5.7569C187.625 5.82617 196.476 5.60295 195.687 5.96857C196.394 6.01252 196.069 5.82417 197.344 5.77595C200.915 5.64152 206.448 6.0138 209.324 5.5467C205.947 5.28674 204.948 5.56208 202.36 5.57307C200.706 5.58026 190.627 5.62459 192.879 5.29403C192.508 5.33602 192.138 5.37801 191.768 5.42C191.394 5.32161 191.02 5.22323 190.645 5.12484C191.7 5.11068 192.755 5.09652 193.809 5.08236C194.061 5.18051 194.313 5.27865 194.564 5.37679C194.681 5.30672 194.797 5.23666 194.913 5.16659C195.357 5.15267 195.801 5.13876 196.245 5.12484C196.12 5.20907 195.995 5.29329 195.871 5.37752C196.555 5.39192 197.239 5.40633 197.924 5.42073C197.74 5.30819 197.555 5.19564 197.371 5.0831C200.594 5.05479 199.503 5.12528 201.29 5.33577C202.625 5.3573 200.37 5.14097 203.194 5.08603C206.477 5.02222 204.323 5.36611 208.575 5.29256C208.637 5.23641 208.698 5.18026 208.759 5.12411C209.694 5.18026 210.629 5.23641 211.564 5.29256C211.441 5.22274 211.317 5.15292 211.193 5.0831C213.123 5.11015 215.783 4.9769 216.422 5.25082C214.466 5.11893 214.485 5.5972 214.994 5.68513C216.044 5.86554 231.555 5.6977 234.562 5.68586C238.406 5.67065 241.312 5.82385 244.823 5.58845C242.444 5.39538 234.075 5.55355 232.49 5.42C232.333 5.4069 232.377 4.96846 231.367 5.46175C228.113 5.37808 224.224 5.51785 220.159 5.50349C220.283 5.37728 220.408 5.25106 220.532 5.12484C223.03 5.39327 225.343 4.80368 225.017 5.29403C225.514 5.29403 226.012 5.29403 226.509 5.29403C226.509 5.20956 226.509 5.12509 226.509 5.04062C227.258 5.04062 228.008 5.04062 228.758 5.04062C228.758 5.12509 228.758 5.20956 228.758 5.29403C229.379 5.29403 229.999 5.29403 230.62 5.29403C230.685 5.2098 230.75 5.12558 230.814 5.04135C232.673 5.21629 239.011 4.74854 236.225 5.25155C237.098 5.25155 237.971 5.25155 238.844 5.25155C238.842 5.18978 238.839 5.12802 238.836 5.06625C239.211 5.05795 239.587 5.04965 239.962 5.04135C239.838 5.09726 239.715 5.15316 239.591 5.20907C241.311 5.1089 242.942 5.40322 244.072 5.2098C243.327 5.16757 242.582 5.12533 241.837 5.0831C243.265 5.16333 245.898 4.9971 246.133 4.99667C246.851 4.99583 247.23 5.1207 248.008 5.12704C248.71 5.13245 248.613 5.0365 248.744 5.03988C252.532 5.13756 251.089 5.65699 252.857 5.04208C253.045 5.12606 253.234 5.21005 253.422 5.29403C253.673 5.22396 253.923 5.15389 254.174 5.08383C255.293 5.09042 256.411 5.09701 257.53 5.1036C257.157 4.99863 256.784 4.89365 256.411 4.78867C258.087 4.74182 258.869 4.9523 259.032 4.95712C259.491 4.96937 259.702 4.83726 259.844 4.83701C266.677 4.84842 262.527 4.96475 265.941 5.46101C267.159 5.26626 265.927 5.07102 265.754 4.8729C267.373 4.96584 267.878 4.91098 269.587 4.92197C270.032 4.92496 270.51 5.03185 270.791 5.03329C271.034 5.03456 271.793 4.92097 272.377 4.9205C273.349 4.91966 274.644 4.98737 275.975 4.98569C277.082 4.984 280.471 4.90377 282.834 4.90293C283.843 4.90293 283.609 4.99794 283.87 4.99814C283.978 4.99814 284.764 4.88433 285.411 4.88388C290.688 4.88135 296.096 4.95337 301.4 4.95126C305.136 4.95 308.932 4.85848 312.676 4.86777C313.473 4.86988 313.051 4.95343 313.399 4.95639C313.518 4.95714 313.662 4.81135 314.894 4.86997C315.339 4.8911 314.827 4.99307 315.265 4.99814C315.478 5.00056 315.568 4.87276 316.813 4.8436C319.076 4.79037 320.292 4.96073 320.493 4.95566C320.874 4.94585 320.763 4.84008 321.268 4.83628C323.736 4.81768 325.796 4.79975 327.999 4.79087C329.027 4.78664 336.118 4.76526 336.508 4.78428C337.379 4.82654 336.568 5.0474 337.685 5.03988C337.998 4.98398 338.311 4.92807 338.624 4.87217C338.127 4.82969 337.63 4.78721 337.133 4.74473C338.502 4.81574 340.054 4.71529 341.067 4.71909C341.254 4.71996 342.978 4.82012 343.857 4.80918C343.483 4.85068 343.109 4.89218 342.736 4.93369C342.868 4.96909 343 5.00449 343.132 5.03988C344.89 4.98622 346.749 4.9876 348.552 4.99521C349.201 4.9978 348.982 5.0838 349.64 5.08676C353.473 5.10489 352.505 4.7473 356.192 5.41854C354.947 5.35768 350.405 5.44307 349.745 5.42073C349.285 5.40509 347.501 4.83792 348.155 5.42C344.475 5.41746 347.671 5.09642 344.234 5.16659C344.303 5.23763 344.372 5.30868 344.44 5.37972C343.24 5.4245 342.354 5.4604 341.625 5.33504C341.38 5.67969 337.304 5.47805 335.068 5.5013C331.836 5.53427 328.186 5.61833 324.984 5.63313C323.881 5.63814 323.257 5.50307 323.118 5.50349C322.916 5.50447 322.348 5.62276 321.944 5.62361C320.437 5.62698 315.851 5.427 314.71 5.75544C323.679 5.75544 332.648 5.75544 341.616 5.75544C340.489 5.594 349.561 5.57822 350.021 5.58625C350.447 5.59347 350.088 5.70682 350.215 5.71369C351.158 5.7623 351.962 5.59797 352.261 5.59797C352.489 5.598 352.95 5.6751 353.761 5.67341C353.91 5.67317 353.952 5.59163 354.112 5.59138C355.17 5.59138 356.215 5.59254 357.277 5.59211C357.342 5.5929 357.61 5.71202 357.878 5.71223C358.147 5.71223 358.413 5.59322 358.48 5.59285C359.329 5.59369 360.785 5.6711 361.593 5.67195C361.873 5.67191 361.679 5.58469 361.993 5.58552C362.958 5.58764 362.64 5.75839 363.833 5.71442C364.233 5.69961 364.207 5.56904 364.973 5.58625C365.515 5.59851 365.457 5.83121 365.543 5.83966C365.661 5.84988 367.533 5.66612 368.145 5.81843C366.807 6.22051 369.608 5.83941 369.474 5.66975C370.215 5.71247 370.957 5.75519 371.698 5.79792C371.951 5.75495 372.204 5.71198 372.457 5.66902C375.449 5.86262 377.275 5.74637 380.218 5.80597C380.36 5.80893 382.84 5.90446 382.724 5.9649C381.24 6.06887 379.759 6.07362 378.809 5.88141C377.245 6.2479 377.218 5.95584 374.694 6.00445C373.849 6.02094 373.789 6.12037 373.691 6.12164C370.404 6.17109 365.139 6.21387 362.925 5.92316C362.304 6.00178 364.536 6.03297 363.668 6.09088C363.195 6.12259 351.805 6.21544 355.444 5.88068C355.066 5.88996 354.689 5.89923 354.311 5.90851C353.933 6.2247 352.055 6.15239 352.268 5.83747C352.09 5.90192 351.912 5.96637 351.734 6.03082C351.383 6.08535 350.967 6.11456 350.383 6.13189C348.149 6.19781 334.858 6.08813 334.151 6.13336C334.135 6.20806 334.119 6.28277 334.103 6.35747C339.975 6.44201 345.671 6.25637 352.074 6.47026C351.888 6.40019 351.702 6.33013 351.516 6.26006C354.071 6.3582 356.626 6.45634 359.181 6.55449C356.477 6.6813 352.175 6.7878 349.336 6.68339C348.832 6.66477 349.201 6.56705 349.085 6.55522C348.783 6.52448 348.457 6.69401 347.369 6.71049C346.28 6.72695 343.546 6.60677 343.295 6.61015C342.812 6.61713 341.508 6.81109 340.686 6.80863C339.605 6.80525 340.33 6.68519 340.113 6.68266C339.215 6.67086 338.411 6.73035 337.708 6.72147C336.664 6.70827 334.496 6.49715 333.766 6.80716C334.512 6.82132 335.258 6.83548 336.003 6.84964C331.96 6.96082 328.799 6.56453 324.816 6.87015C323.911 7.24552 327.202 7.19479 324.419 7.355C324.925 7.34963 325.43 7.34426 325.935 7.33889C326.054 7.26027 326.172 7.18166 326.291 7.10305C327.161 7.1592 328.031 7.21535 328.901 7.27151C328.653 7.20144 328.405 7.13137 328.156 7.06131C331.242 7.00847 334.358 6.93662 335.435 7.31325C335.498 7.22219 335.562 7.13113 335.625 7.04007C338.49 7.15079 342.791 6.76482 341.987 7.27151C342.123 7.24465 342.258 7.2178 342.394 7.19094C344.126 7.29451 343.386 7.08498 344.037 7.06131C344.223 7.05464 347.588 7.16283 346.097 7.31325C349.38 7.42822 348.368 6.95465 349.273 6.93387C351.374 7.16848 355.155 6.81656 353.566 7.18728C353.879 7.20119 354.192 7.21511 354.505 7.22903C355.533 6.93736 356.547 7.26737 357.662 7.3777C358.039 7.38429 358.417 7.39089 358.795 7.39748C359.048 7.29934 359.3 7.20119 359.553 7.10305C363.106 7.57015 361.981 6.29271 363.605 7.36598C363.352 7.43019 363.099 7.4944 362.846 7.55861C362.246 7.58912 361.646 7.61964 361.047 7.65016C363.466 7.67847 365.884 7.70679 368.303 7.73511C371.373 8.03595 373.12 7.70954 376.531 7.94751C376.85 7.91895 377.169 7.89038 377.489 7.86182C377.163 8.10488 375.924 8.06916 378.232 8.17822C378.428 8.35006 376.87 8.3723 376.16 8.24047C375.989 8.2083 377.446 8.07667 375.808 8.07202C374.695 8.0687 376.716 8.27522 373.381 8.19872C373.504 8.24071 373.628 8.2827 373.751 8.3247C373.39 8.32347 373.028 8.32225 372.667 8.32103C372.345 8.22387 372.023 8.1267 371.702 8.02954C370.875 8.16988 370.411 8.36654 368.523 8.3247C369.035 8.26384 368.34 8.06872 367.405 8.07202C367.405 8.14233 367.405 8.21264 367.405 8.28295C365.142 8.32818 365.923 8.12189 364.042 8.28295C363.854 8.22704 363.666 8.17114 363.478 8.11523C362.453 8.34561 358.68 8.50233 359.368 8.15698C358.31 8.49261 356.087 8.34117 355.26 8.07275C355.197 8.14257 355.133 8.21239 355.07 8.28222C354.63 8.29638 354.19 8.31054 353.749 8.3247C353.504 8.28246 353.259 8.24023 353.013 8.19799C352.701 8.24023 352.389 8.28246 352.077 8.3247C351.889 8.25463 351.701 8.18456 351.513 8.1145C351.012 8.19848 350.51 8.28246 350.009 8.36644C349.702 8.31054 349.396 8.25463 349.089 8.19872C349.057 8.34487 346.019 8.37741 345.17 8.28148C344.917 8.32396 344.664 8.36644 344.411 8.40892C344.288 8.33934 344.164 8.26977 344.04 8.20019C343.852 8.25585 343.664 8.31151 343.476 8.36717C343.042 8.31151 342.608 8.25585 342.174 8.20019C340.405 8.54129 340.348 8.24202 339.944 8.24413C339.196 8.24805 336.646 8.46166 336.219 8.45067C335.794 8.4396 335.588 8.31717 335.244 8.30565C329.578 8.11333 331.907 8.44186 330.771 8.49388C330.158 8.5222 329.724 8.40799 329.181 8.42064C328.254 8.44178 323.575 8.5929 323.305 8.57811C322.913 8.55676 323.836 8.01817 322.562 8.15698C322.52 8.44618 319.795 8.15428 321.069 8.5576C319.946 8.5222 318.824 8.4868 317.702 8.4514C317.829 8.79422 316.446 8.57373 314.939 8.59275C312.803 8.61941 307.994 8.84482 308.17 8.49315C307.658 8.57396 307.147 8.65476 306.635 8.73557C303.135 8.62487 299.702 8.74087 296.227 8.74509C285.916 8.7582 274.729 8.68185 264.467 8.61253C263.973 8.6091 264.044 8.49422 263.689 8.49168C261.823 8.479 256.972 8.56026 254.358 8.53489C253.52 8.52686 253.112 8.4148 252.847 8.40965C251.946 8.39148 252.158 8.53912 251.743 8.53489C251.088 8.52811 247.625 8.39107 246.432 8.3767C245.841 8.36958 245.142 8.4869 244.451 8.45067C244.391 8.44773 244.501 8.32681 244.451 8.3247C243.191 8.3099 243.949 8.41442 243.522 8.40892C240.482 8.36961 237.232 8.36721 233.933 8.34227C233.114 8.33593 231.861 8.2507 231.158 8.24267C230.889 8.23983 231.37 8.33157 230.443 8.32396C230.126 8.32137 230.017 8.20207 229.659 8.19433C228.114 8.16178 227.598 8.54515 226.27 8.23681C223.708 8.2571 219.249 8.35554 216.911 8.35765C216.358 8.35801 216.089 8.28755 215.562 8.28881C215.188 8.28965 214.53 8.39881 213.947 8.40013C213.363 8.4014 212.442 8.29745 211.32 8.30126C210.139 8.30508 208.67 8.36682 208.404 8.36644C208.082 8.36644 207.932 8.23515 207.611 8.23681C206.638 8.24103 204.035 8.37007 202.782 8.38402C201.436 8.3988 200.627 8.33515 200.167 8.33641C199.741 8.33817 199.245 8.44896 199.05 8.44994C198.747 8.45163 198.676 8.32215 198.291 8.32323C197.663 8.32534 197.015 8.40676 196.073 8.40892C179.108 8.44908 162.475 8.37795 145.971 8.28368C144.131 8.27312 143.091 8.36392 140.38 8.3225C139.28 8.30559 139.743 8.17199 138.888 8.19726C138.506 8.20867 138.603 8.31375 138.12 8.31884C135.989 8.34082 133.505 8.24317 132.581 8.24486C132.215 8.24536 131.796 8.36471 131.045 8.36644C125.446 8.37997 118.822 8.34647 112.797 8.36717C109.607 8.37817 104.777 8.43897 101.115 8.44701C90.9989 8.46941 80.1157 8.44176 70.8893 8.4536C56.9576 8.47093 43.0928 8.58129 29.191 8.45067C35.6949 8.73938 44.5513 8.71528 51.792 8.74656C72.7062 8.83617 94.9746 8.66844 116.409 8.67478C123.866 8.6769 133.269 8.67025 141.434 8.73704C141.804 8.74 142.571 8.64822 143.372 8.65794C143.542 8.6602 145.65 8.82763 146.36 8.82932C145.687 8.53173 148.47 8.79696 149.33 8.78977C150.415 8.78042 152.677 8.63169 155.216 8.7158C157.52 8.79189 156.885 8.90636 157.012 8.91354C157.827 8.95994 158.111 8.77546 158.735 8.75681C161.286 8.68241 174.406 8.7896 178.068 8.79636C179.014 8.79805 179.041 8.91532 179.254 8.91574C179.819 8.91652 180.622 8.8007 181.527 8.80149C183.157 8.80318 185.036 8.91385 185.933 8.91428C188.08 8.91554 192.154 8.78498 194.944 8.78245C195.728 8.78168 195.68 8.90371 196.036 8.90329C197.599 8.90115 201.672 8.75735 203.613 8.75608C206.766 8.75397 210.009 8.83286 213.214 8.7927C213.417 8.84714 213.62 8.90158 213.823 8.95602C214.144 8.8989 214.464 8.84177 214.784 8.78464C220.204 8.82817 225.72 8.70557 231.109 8.7136C231.73 8.71445 234.804 8.81863 235.317 8.81907C235.743 8.81907 236.163 8.68421 236.795 8.70408C237.68 8.73164 236.847 8.98846 238.293 8.91501C238.682 8.89514 238.305 8.78521 239.087 8.75095C239.345 8.73954 244.353 8.695 244.623 8.70261C245.071 8.71543 245.471 8.95095 245.587 8.95602C246.189 8.98261 246.164 8.80186 246.568 8.78537C247.759 8.73603 249.316 8.85762 249.51 8.85495C251.851 8.82156 256.228 8.67728 258.685 8.76267C259.025 8.77457 258.984 8.90917 259.044 8.91354C259.429 8.94143 259.668 8.78819 260.034 8.78464C262.005 8.76731 265.092 8.87049 267.074 8.8967C267.302 8.89955 267.784 8.82584 268.192 8.83298C270.496 8.87441 269.748 8.9927 269.879 8.99777C270.19 9.01032 270.735 8.87986 271.561 8.8718C273.69 8.85024 277.77 8.86898 280.052 8.87912C281.761 8.88716 281.735 9.03656 281.847 9.03952C282.087 9.04489 282.753 8.9256 283.878 8.91208C286.043 8.88546 285.797 9.00283 286.687 8.99777C286.761 8.99777 286.631 8.8829 287.619 8.87107C289.526 8.84828 293.811 8.9612 295.853 8.95529C296.639 8.95318 296.822 8.84242 297.626 8.8403C298.901 8.83652 301.779 8.95633 302.006 8.95602C302.069 8.95602 302.212 8.82859 302.586 8.82859C302.997 8.82861 303.402 8.89419 303.708 8.89377C305.455 8.89201 308.464 8.66962 307.628 9.12448C308.187 9.01217 308.747 8.89987 309.306 8.78757C312.964 8.80998 316.517 8.76499 320.142 8.74216C320.957 8.7371 321.637 8.82325 322.325 8.81907C323.013 8.81484 326.048 8.67233 326.555 8.66966C327.46 8.66501 332.603 8.64999 333.243 8.66013C334.492 8.67958 335.704 8.86756 336.213 8.83078C336.62 8.80119 336.243 8.69527 337.021 8.66526C338.368 8.61335 340.656 8.7494 341.067 8.74729C341.243 8.74643 340.914 8.66387 342.559 8.65794C343.445 8.65456 343.921 8.74552 344.243 8.74509C344.343 8.74462 344.193 8.59711 345.947 8.61692C347.159 8.63087 347.676 8.74467 347.803 8.74509C347.994 8.74585 348.455 8.62442 349.221 8.62864C351.013 8.63924 354.288 8.77846 355.99 8.78904C356.319 8.79115 356.207 8.64445 357.519 8.65794C358.458 8.66766 358.294 8.78437 358.645 8.78904C359.202 8.79622 360.033 8.65331 361.263 8.65794C362.811 8.66386 374.308 8.81209 374.903 8.85056C375.303 8.87634 375.768 8.87797 375.966 8.94138C375.796 9.00216 375.626 9.06295 375.456 9.12374C373.695 8.91042 374.406 9.15423 373.939 9.16988C373.262 9.19229 370.71 9.16119 370.093 9.21529C369.873 9.23483 370.377 9.36459 369.196 9.43135C367.928 9.50272 367.364 9.27172 366.859 9.58735C365.06 9.23692 363.332 9.60886 365.416 9.7082C366.578 9.76359 377.986 9.8887 380.316 9.90814C382.205 9.92376 385.742 9.82986 388.065 9.85395C389.43 9.86832 392.792 9.88461 392.65 10.0524C393.861 10.0736 392.579 9.90649 392.833 9.88324C393.365 9.8347 397.147 9.95008 397.863 9.9455C401.394 9.92351 405.849 9.73591 409.279 9.94769C409.119 9.99261 408.959 10.0375 408.8 10.0825C408.029 10.1649 404.454 10.047 404.05 10.2626C409.278 10.2626 414.507 10.2626 419.736 10.2626C419.639 10.0792 426.124 10.0816 426.431 10.1645C426.317 10.2533 426.203 10.3422 426.089 10.4311C422.425 10.0938 422.753 10.5396 420.292 10.3029C419.29 10.2996 419.593 10.4464 419.099 10.4743C414.186 10.7515 419.02 10.173 415.259 10.3044C416.391 10.5173 413.311 10.5952 411.931 10.6222C411.616 10.6282 407.49 10.5742 407.001 10.5776C404.248 10.5966 399.521 10.7133 396.787 10.5966C394.633 10.5826 393.447 10.7343 391.491 10.7694C390.006 10.7961 390.432 10.6895 389.733 10.6881C388.267 10.6852 387.785 11.0098 386.846 10.557C385.852 10.6134 384.858 10.6698 383.864 10.7262C383.864 10.6559 383.864 10.5856 383.864 10.5153C383.24 10.5153 382.615 10.5153 381.991 10.5153C381.807 10.5854 381.624 10.6554 381.44 10.7255C379.459 10.6295 380.286 10.4602 379.916 10.2612C379.488 10.2475 379.06 10.2338 378.632 10.2201C378.3 10.373 377.969 10.5258 377.638 10.6786C375.727 10.6662 373.816 10.6537 371.904 10.6413C371.781 10.5712 371.657 10.5011 371.534 10.4311C371.53 10.5011 371.526 10.5712 371.522 10.6413C368.285 10.6557 365.049 10.6701 361.812 10.6845C360.952 10.7969 366.137 10.8821 366.53 10.8888C368.714 10.926 374.515 10.8133 374.522 11.0631C375.88 10.8767 379.968 10.923 381.239 11.1466C379.309 11.1332 377.379 11.1198 375.449 11.1063C375.512 11.1901 375.574 11.2738 375.636 11.3576C373.232 11.0198 372.88 11.0384 370.407 11.3576C370.405 11.2453 370.403 11.133 370.401 11.0207C368.677 11.4112 365.63 10.7487 365.543 11.2309C364.625 11.1918 363.707 11.1527 362.789 11.1137C360.807 11.1724 363.885 11.5432 356.125 11.3978C355.59 11.3877 355.702 11.2649 354.898 11.2733C354.666 11.2759 353.338 11.4545 350.799 11.4359C350.402 11.433 350.372 11.3264 349.961 11.3129C349.011 11.2808 347.119 11.4915 347.978 11.1481C344.216 11.0479 345.775 11.3298 344.608 11.4418C343.831 11.5161 343.987 11.313 343.314 11.359C342.481 11.4162 343.093 11.621 339.757 11.5267C340.132 11.5128 340.506 11.4989 340.88 11.485C340.692 11.4293 340.504 11.3737 340.315 11.318C338.412 11.4516 338.592 11.2564 337.694 11.5692C336.31 11.4297 335.113 11.4186 333.22 11.444C329.544 11.4934 331.429 11.8305 327.233 11.3766C326.553 11.4403 325.873 11.504 325.194 11.5678C324.076 11.4338 324.98 11.2661 323.312 11.2323C324.617 11.5633 321.098 11.4426 320.504 11.7377C320.441 11.6674 320.379 11.5971 320.317 11.5267C319.944 11.5267 319.572 11.5267 319.199 11.5267C319.198 11.5831 319.197 11.6395 319.196 11.6959C318.7 11.6537 318.204 11.6115 317.707 11.5692C317.334 11.6251 316.961 11.681 316.588 11.7369C315.975 11.619 315.361 11.5011 314.748 11.3832C314.363 11.3751 313.978 11.3671 313.593 11.359C313.715 11.443 313.836 11.527 313.958 11.611C313.463 11.5829 312.968 11.5548 312.473 11.5267C313.049 11.6646 312.687 11.8261 311.147 11.8219C309.875 11.8185 311.307 11.5309 308.573 11.6505C308.383 11.659 308.045 11.8642 305.461 11.8959C302.362 11.9339 303.868 11.7853 303.315 11.7802C303.207 11.7793 302.26 11.8825 301.374 11.8973C300.871 11.9058 300.386 11.8224 300.32 11.8226C300.009 11.8264 299.919 11.9443 299.489 11.9486C298.397 11.9588 296.931 11.901 295.862 11.9069C295.376 11.9094 294.918 11.9793 294.701 11.9801C294.365 11.9809 293.938 11.8742 293.598 11.8746C292.341 11.8769 290.434 12.2309 289.85 11.7391C288.642 12.1913 286.112 11.6446 286.297 11.9479C283.069 11.8334 274.459 12.2055 274.711 11.6959C272.883 12.1316 273.047 11.8161 272.281 11.8226C271.424 11.8298 271.868 11.9143 271.187 11.9105C269.598 11.9016 268.079 11.8653 266.497 11.8636C266.746 11.7938 266.994 11.724 267.242 11.6542C265.582 11.6318 266.154 11.7943 264.46 11.8256C261.344 11.8826 262.657 11.753 262.197 11.57C262.321 11.7467 258.647 11.7192 258.273 11.6959C258.05 11.6818 259.028 11.454 256.778 11.5275C256.901 11.5975 257.024 11.6676 257.147 11.7377C256.122 11.6418 253.338 11.7634 252.866 11.7399C252.649 11.7289 251.489 11.1638 250.426 11.611C250.298 11.5409 250.17 11.4708 250.042 11.4008C248.863 11.485 247.683 11.5692 246.504 11.6535C246.316 11.5272 246.128 11.401 245.939 11.2748C245.565 11.2748 245.191 11.2748 244.817 11.2748C245.065 11.3869 245.313 11.4989 245.562 11.611C243.251 11.5603 240.428 11.737 239.952 11.359C239.457 11.4291 238.962 11.4992 238.467 11.5692C238.145 11.4435 237.823 11.3178 237.5 11.192C235.208 11.2238 235.171 11.3078 233.604 11.4418C233.665 11.3436 233.726 11.2455 233.787 11.1474C232.632 11.2852 230.522 11.4135 228.854 11.4308C228.061 11.4388 226.699 11.3036 226.512 11.3158C226.323 11.3287 224.464 11.8601 224.262 11.4C221.524 11.6038 220.319 11.3957 219.208 11.4008C218.487 11.4042 218.157 11.5146 217.342 11.526C216.175 11.5425 215.001 11.4891 214.328 11.4967C213.943 11.5014 213.871 11.6091 213.605 11.6124C212.35 11.6289 213.085 11.5188 211.761 11.526C211.639 11.5273 210.672 11.6586 209.581 11.6417C208.972 11.6324 207.394 11.4846 207.255 11.485C206.638 11.4875 207.131 11.7829 205.022 11.4418C205.083 11.4979 205.145 11.5541 205.206 11.6102C202.595 11.7527 202.183 11.5023 201.656 11.485C201.589 11.4836 200.953 11.5804 200.573 11.567C199.93 11.5442 199.671 11.4117 199.529 11.4059C199.028 11.3856 197.34 11.4439 196.236 11.3158C196.468 11.6929 192.602 11.827 191.746 11.4C191.061 11.4843 190.377 11.5685 189.693 11.6527C189.383 11.5824 189.074 11.5121 188.764 11.4418C188.576 11.5119 188.387 11.5819 188.199 11.652C187.202 11.4977 186.205 11.3434 185.207 11.1891C185.144 11.3436 185.08 11.4982 185.017 11.6527C184.737 11.6351 184.458 11.6176 184.179 11.6C183.961 11.4772 183.743 11.3544 183.525 11.2316C183.176 11.255 182.827 11.2785 182.478 11.3019C182.391 11.3908 182.305 11.4796 182.219 11.5685C180.342 11.6709 181.306 10.8234 177.731 11.5685C177.175 11.4984 176.619 11.4284 176.063 11.3583C175.435 11.6993 174.257 11.4928 173.308 11.5311C172.638 11.5582 172.675 11.6937 171.763 11.6967C170.85 11.6996 170.883 11.5701 170.812 11.5692C170.068 11.5613 169.507 11.6755 168.961 11.6527C168.879 11.6493 168.673 11.4955 167.978 11.4857C167.282 11.476 166.863 11.6396 165.827 11.6088C165.296 11.5931 165.142 11.4635 164.671 11.452C162.427 11.3962 160.168 12.0526 158.485 11.2741C158.105 11.3727 155.354 11.718 154.176 11.6981C152.344 11.6664 153.05 11.5137 152.322 11.4857C152.217 11.4815 151.66 11.5331 150.123 11.5238C149.848 11.5221 149.912 11.6084 149.872 11.6095C148.081 11.6078 144.603 11.5397 142.635 11.5275C142.459 11.5262 141.539 11.7666 139.98 11.4433C137.668 11.6821 133.315 11.169 130.267 11.5289C129.844 11.5366 129.331 11.4506 129.144 11.4535C127.532 11.4801 128.123 11.7412 124.48 11.359C124.775 11.4921 123.923 11.6123 122.719 11.6022C120.909 11.587 122.195 11.3387 120.74 11.359C120.74 11.4291 120.74 11.4992 120.74 11.5692C117.393 11.3808 116.727 11.6803 113.369 11.682C112.161 11.6824 110.376 11.5272 110.088 11.5267C109.977 11.5272 108.656 11.6961 108.529 11.6974C107.819 11.7025 107.418 11.6246 106.804 11.6242C104.777 11.6225 102.358 11.8423 102.796 11.4433C102.239 11.5275 101.681 11.6117 101.124 11.6959C99.0183 11.2698 97.4437 11.8571 97.0024 11.4433C96.6259 11.5287 96.2494 11.6141 95.8729 11.6996C86.8418 11.6564 77.8107 11.6132 68.7796 11.57C68.4205 11.7031 64.4823 11.6559 64.2803 11.6351C63.353 11.5413 64.3325 11.2509 62.4401 11.3173C62.2307 11.4445 62.0213 11.5717 61.8118 11.6989C59.4333 11.7403 60.5773 11.6137 59.6386 11.5275C59.2463 11.5432 59.373 11.6419 58.8421 11.6491C55.9623 11.6884 50.0573 11.693 46.9082 11.7011C46.2732 11.7027 46.369 11.6105 46.1718 11.6102C45.6296 11.6111 44.5596 11.7274 43.4715 11.7274C36.7434 11.7266 27.2095 11.661 20.4363 11.5634C19.9763 11.5566 19.9193 11.4466 19.6089 11.4411C19.1787 11.4339 18.2177 11.5229 17.7652 11.5136C17.339 11.5051 17.066 11.4215 16.61 11.4118C14.523 11.3661 11.7171 11.5073 9.48429 11.2609C9.29651 11.2401 6.95715 10.797 6.90422 10.768C6.5938 10.5955 8.67266 10.3246 5.25799 10.0722C8.30988 9.85197 7.35649 9.46264 3.39203 9.27242C5.38044 9.22335 7.36885 9.17428 9.35726 9.12521C9.36012 9.07907 9.36298 9.03293 9.36584 8.98678C7.55577 8.75811 5.75991 8.68201 3.00751 8.66087C3.09334 8.61814 3.17917 8.57542 3.265 8.5327C5.69602 8.31923 8.62861 8.27977 10.4799 7.98852C7.76482 7.77295 5.04971 7.55738 2.33459 7.34182C2.47021 7.30813 2.60582 7.27443 2.74143 7.24074C4.04297 7.15324 6.88593 7.10188 7.9668 7.02029C12.095 6.70921 4.35376 6.78749 5.62534 6.5977C9.98383 6.60453 14.3423 6.61137 18.7008 6.61821C18.8536 6.47844 2.08635 6.0924 2.25906 5.67048C3.62892 5.64216 4.99878 5.61384 6.36864 5.58552C5.75809 5.47835 5.14755 5.37117 4.53701 5.264C4.70524 5.23006 4.87347 5.19613 5.04169 5.1622C7.35283 5.07895 9.66396 4.9957 11.9751 4.91245C4.94844 4.99613 1.68309 4.93539 0 4.09143C0.190544 4.06994 0.381088 4.04846 0.571632 4.02698C2.09384 4.55495 9.27917 4.38418 13.0978 4.27892C12.3195 4.12427 8.95717 4.24374 8.24661 4.15075C8.04526 4.12409 8.74743 4.01675 8.28094 3.96179C7.06173 3.81892 1.86625 3.6351 2.62127 3.4601C3.10748 3.34766 11.4671 3.19339 13.0978 3.20522C9.27551 3.00317 5.33723 2.94472 1.50375 2.69914C3.92348 2.35674 6.06649 1.93773 10.4834 1.91913C11.8296 1.73948 2.47942 1.4906 2.2625 1.39254C3.88069 1.28731 5.49889 1.18209 7.11708 1.07687C5.74837 1.10495 4.37965 1.13302 3.01094 1.1611C3.00694 1.12594 3.00293 1.09079 2.99892 1.05563C6.5445 0.892464 9.78825 0.592972 13.8462 0.613262C13.7153 0.427268 11.2873 0.445769 10.1091 0.444078ZM398.424 11.0229C398.506 11.1771 397.018 11.1518 396.181 11.1488C396.307 11.1769 396.432 11.205 396.558 11.2331C394.771 11.2039 391.443 11.1447 391.319 11.444C390.044 11.4812 390.608 11.2209 390.197 11.1913C390.036 11.1795 388.371 11.3309 387.04 11.1466C386.723 11.1474 386.407 11.1481 386.09 11.1488C386.029 11.247 385.968 11.3451 385.907 11.4433C385.466 11.3241 385.024 11.205 384.583 11.0858C389.195 11.0648 393.806 11.0439 398.417 11.0229C398.42 11.0229 398.422 11.0229 398.424 11.0229ZM352.459 11.1496C350.779 11.0942 348.207 11.0067 348.727 11.2755C349.788 11.2614 350.848 11.2472 351.909 11.2331C352.092 11.2052 352.275 11.1774 352.459 11.1496ZM185.403 10.9379C184 10.6733 182.709 10.9022 180.54 10.8544C180.543 10.9103 180.545 10.9662 180.548 11.0221C181.435 10.8879 183.78 10.9772 185.403 10.9379ZM440.093 10.0114C440.402 10.0322 440.711 10.0529 441.02 10.0737C439.764 10.3742 439.539 10.1624 438.118 10.1916C438.032 10.1934 438.062 10.2622 438.032 10.2626C437.684 10.2673 437.362 10.1845 437.048 10.1857C436.442 10.1883 435.948 10.2722 434.875 10.2692C434.045 10.2667 434.037 10.1347 433.745 10.1381C433.497 10.1414 431.034 10.5043 429.449 10.3476C426.434 10.0491 439.173 9.98351 440.093 10.0114ZM449.028 10.2597C448.73 10.2609 448.432 10.2621 448.134 10.2634C449.031 10.0606 447.221 10.0914 445.894 10.0956C445.935 9.90119 448.743 9.98436 450 9.92645C449.676 10.0375 449.352 10.1486 449.028 10.2597ZM411.328 9.84296C412.495 9.82314 412.3 10.0658 412.252 10.1381C411.88 10.1381 411.509 10.1381 411.138 10.1381C411.201 10.0397 411.265 9.94134 411.328 9.84296ZM420.102 9.75873C419.739 9.92359 417.206 9.99569 416.006 10.0092C415.954 10.0092 416.283 9.91877 415.434 9.92719C415.179 9.92983 412.672 10.259 413.223 9.88544C415.515 9.8432 417.807 9.80097 420.098 9.75873C420.099 9.75873 420.101 9.75873 420.102 9.75873ZM422.659 9.85614C422.182 9.9079 421.705 9.95966 421.228 10.0114C420.981 9.93402 420.735 9.85663 420.488 9.77924C421.031 9.75971 421.574 9.74018 422.117 9.72065C422.298 9.76581 422.479 9.81098 422.659 9.85614ZM63.6143 9.63642C63.7253 9.71918 63.8363 9.80194 63.9473 9.88471C64.3774 9.93543 66.4684 9.57507 65.8064 9.50532C65.0757 9.54902 64.345 9.59272 63.6143 9.63642ZM54.784 9.46284C54.3491 9.4211 53.9143 9.37935 53.4794 9.3376C52.9793 9.47798 52.4792 9.61836 51.9791 9.75873C54.1516 9.8534 56.4631 9.96248 56.0904 9.54853C56.5876 9.54853 57.0848 9.54853 57.5821 9.54853C57.1634 9.71969 57.2197 9.77608 58.5211 9.88471C58.8057 9.64654 60.1513 9.76788 61.6917 9.71552C60.5713 9.70161 59.4509 9.68769 58.3305 9.67378C58.3305 9.63178 58.3305 9.58979 58.3305 9.5478C60.8278 9.56297 57.724 9.29662 56.0972 9.46358C55.969 9.40767 55.8409 9.35176 55.7127 9.29586C55.4031 9.35152 55.0936 9.40718 54.784 9.46284ZM235.291 9.5478C234.982 9.50557 234.672 9.46333 234.362 9.4211C233.163 9.97119 235.605 9.44937 237.344 9.88471C236.77 9.554 239.421 9.56782 239.572 9.54561C239.267 9.43428 238.962 9.32296 238.657 9.21163C237.535 9.32369 236.413 9.43575 235.291 9.5478ZM226.516 9.16842C227.589 9.44276 222.316 9.45957 220.547 9.39913C220.117 9.38426 219.35 9.23363 219.04 9.25265C218.852 9.30831 218.663 9.36397 218.475 9.41963C218.252 9.22725 214.798 9.44354 213.437 9.54707C213.309 9.477 213.181 9.40694 213.052 9.33687C212.556 9.3647 212.06 9.39253 211.564 9.42037C211.626 9.35054 211.689 9.28072 211.751 9.2109C211.376 9.29488 211 9.37886 210.625 9.46284C209.152 9.55626 210.06 9.17561 208.953 9.29439C207.723 9.42628 209.739 9.65295 209.702 9.80048C210.7 9.76243 212.971 9.67727 213.984 9.67304C214.566 9.67077 213.907 9.93508 216.415 9.6313C216.965 9.70209 217.515 9.77289 218.065 9.84369C219.074 9.73115 220.084 9.6186 221.093 9.50606C221.281 9.60395 221.47 9.70185 221.658 9.79975C221.766 9.81507 224.1 9.59278 223.975 9.51924C224.921 9.70638 226.862 9.73974 228.907 9.74921C229.104 9.69599 229.301 9.64277 229.498 9.58955C227.52 9.70449 228.868 9.53324 228.279 9.43135C227.938 9.37259 226.897 9.25719 226.516 9.16842ZM77.3935 9.42183C74.0725 9.66065 76.1287 9.4636 72.5389 9.46358C72.7896 9.59004 73.0402 9.7165 73.2908 9.84296C75.0558 9.61191 77.9599 9.76556 77.397 9.42183C77.3958 9.42183 77.3947 9.42183 77.3935 9.42183ZM42.2665 9.84223C44.1661 9.76572 43.2128 9.56905 45.6207 9.50606C45.6219 9.50606 45.623 9.50606 45.6242 9.50606C44.379 9.4919 43.1339 9.47774 41.8888 9.46358C42.0147 9.58979 42.1406 9.71601 42.2665 9.84223ZM153.316 9.68916C155.137 9.74411 154.779 9.64571 156.432 9.84223C158.892 9.60383 156.809 9.63752 156.809 9.4211C156.247 9.48457 155.684 9.54805 155.122 9.61152C153.758 9.40913 155.051 9.30724 155.051 9.2878C155.05 9.2878 155.049 9.2878 155.048 9.2878C155.048 9.22283 155.092 9.20916 154.569 9.16988C154.151 9.34297 153.734 9.51607 153.316 9.68916ZM161.111 9.42183C160.486 9.56555 160.206 9.75008 161.848 9.84223C161.849 9.84223 161.85 9.84223 161.851 9.84223C161.983 9.52102 163.557 9.78028 164.275 9.75873C164.463 9.72382 164.651 9.68891 164.84 9.654C163.597 9.57661 162.354 9.49922 161.111 9.42183ZM188.577 9.12667C188.584 9.48151 187.206 9.51526 189.145 9.84223C189.522 9.83588 189.898 9.82953 190.275 9.82318C190.522 9.74531 190.769 9.66743 191.016 9.58955C195.792 10.2316 197.216 9.13831 189.145 9.54707C189.144 9.54731 189.143 9.54756 189.142 9.5478C188.953 9.40743 188.765 9.26705 188.577 9.12667ZM180.165 9.1567C180.105 9.34297 180.044 9.52925 179.984 9.71552C178.929 9.26618 177.566 9.69492 175.498 9.37789C175.311 9.43452 175.124 9.49116 174.937 9.5478C174.164 9.42316 166.571 9.38725 168.216 9.67378C168.934 9.7989 170.498 9.62896 170.633 9.63276C171.089 9.64682 171.684 9.80685 172.454 9.79755C172.9 9.79195 173.838 9.60386 174.746 9.6042C176.777 9.60504 180.484 10.1101 183.154 9.63203C183.346 9.68818 183.539 9.74433 183.731 9.80048C185.712 9.76622 185.051 9.5883 186.895 9.80048C188.168 8.91571 179.483 9.84412 181.292 9.12667C181.29 9.12667 181.289 9.12667 181.288 9.12667C180.914 9.13668 180.54 9.14669 180.165 9.1567ZM125.606 9.42183C125.487 9.26295 123.188 9.5081 123.728 9.12741C122.978 9.25997 122.228 9.39253 121.478 9.5251C121.484 9.5605 121.489 9.5959 121.495 9.6313C122.241 9.60346 122.986 9.57563 123.732 9.5478C123.735 9.60395 123.738 9.6601 123.74 9.71625C124.851 9.51312 129.488 9.60161 129.347 9.80048C129.595 9.7165 129.842 9.63252 130.09 9.54853C132.308 9.77722 134.216 9.53408 136.632 9.75727C136.819 9.68769 137.006 9.61811 137.193 9.54853C137.315 9.60469 137.437 9.66084 137.559 9.71699C138.439 9.72407 139.319 9.73115 140.199 9.73823C143.067 9.51213 137.495 9.21943 136.819 9.25265C136.729 9.2573 136.743 9.40267 136.182 9.42549C135.186 9.46556 129.609 9.32083 127.884 9.4167C127.869 9.32027 127.855 9.22384 127.84 9.12741C127.095 9.22555 126.351 9.32369 125.606 9.42183ZM199.234 9.50606C199.359 9.6042 199.485 9.70234 199.611 9.80048C201.784 9.70246 203.152 9.78814 202.595 9.46358C202.594 9.46358 202.592 9.46358 202.591 9.46358C201.472 9.47774 200.353 9.4919 199.234 9.50606ZM360.686 9.58955C360.629 9.39446 359.591 9.32153 358.249 9.46138C358.313 9.51802 358.378 9.57466 358.443 9.6313C359.142 9.46517 360.015 9.75472 362.173 9.71625C362.173 9.61811 362.173 9.51997 362.173 9.42183C361.677 9.47774 361.182 9.53364 360.686 9.58955ZM197.359 9.46358C196.697 9.34786 194.838 9.69893 196.061 9.71625C196.996 9.72935 197.714 9.52571 197.359 9.46358ZM34.794 9.65254C35.285 9.67304 35.7759 9.69355 36.2669 9.71406C36.5227 9.63056 36.7784 9.54707 37.0342 9.46358C37.0331 9.46358 37.0319 9.46358 37.0308 9.46358C36.2852 9.52656 35.5396 9.58955 34.794 9.65254ZM147.09 9.70527C148.755 9.69306 150.42 9.68086 152.085 9.66865C152.102 9.61421 152.118 9.55977 152.135 9.50532C150.467 9.704 149.796 9.48986 149.407 9.47676C149.409 9.47676 149.411 9.47676 149.412 9.47676C148.163 9.43365 146.974 9.40194 145.792 9.33687C146.225 9.45967 146.657 9.58247 147.09 9.70527ZM141.382 9.36177C141.663 9.74644 142.029 9.79123 144.587 9.5207C144.486 9.47334 144.384 9.42598 144.283 9.37862C142.958 9.40692 142.184 9.49574 142.417 9.29512C142.072 9.31734 141.727 9.33956 141.382 9.36177ZM167.457 9.48482C167.15 9.36236 164.714 9.48534 164.846 9.54707C164.899 9.57159 168.056 9.72492 167.457 9.48482ZM379.183 9.50459C378.622 9.47652 378.06 9.44844 377.499 9.42037C378.246 9.37862 378.992 9.33687 379.739 9.29512C379.554 9.36495 379.368 9.43477 379.183 9.50459ZM385.345 8.95749C385.746 9.00652 384.445 9.35237 386.837 9.4416C385.096 9.44893 383.355 9.45625 381.614 9.46358C382.43 9.40767 383.247 9.35176 384.063 9.29586C383.921 9.19649 383.778 9.09713 383.636 8.99777C384.206 8.98434 384.776 8.97092 385.345 8.95749ZM387.215 9.2109C386.277 8.94803 391.215 8.92829 391.675 8.96042C391.777 8.96806 392.264 9.16734 392.444 9.21017C391.698 9.21041 390.952 9.21065 390.207 9.2109C390.456 9.27364 390.706 9.33638 390.955 9.39913C390.083 9.42061 389.21 9.44209 388.338 9.46358C388.711 9.40059 389.084 9.3376 389.457 9.27462C388.709 9.25338 387.962 9.23214 387.215 9.2109ZM367.405 9.27462C368.029 9.28121 368.654 9.2878 369.278 9.29439C369.153 9.19625 369.028 9.09811 368.904 8.99997C368.53 8.99997 368.156 8.99997 367.783 8.99997C367.657 9.09152 367.531 9.18307 367.405 9.27462ZM380.125 9.14791C379.216 9.62045 376.74 8.5874 379.634 8.96994C379.926 9.00883 380.211 9.10226 380.125 9.14791ZM393.525 9.01681C395.466 8.6723 395.028 9.43294 393.196 9.21017C393.103 9.19831 393.379 9.04225 393.525 9.01681ZM408.079 9.00583C408.236 9.00838 408.511 9.25466 410.011 9.02047C410.259 9.04855 410.507 9.07663 410.755 9.1047C410.175 9.21913 405.215 9.2872 405.9 9.04318C406.659 9.03938 407.293 8.99822 408.079 9.00583ZM403.275 8.09472C402.531 8.10156 401.787 8.10839 401.042 8.11523C401.288 8.19238 401.533 8.26952 401.779 8.34667C401.412 8.36766 401.046 8.38866 400.68 8.40965C400.054 8.2766 399.428 8.14355 398.802 8.0105C400.42 7.98926 402.038 7.96802 403.657 7.94678C403.53 7.99609 403.403 8.04541 403.275 8.09472ZM383.483 7.9043C384.915 8.0011 386.67 7.89807 388.997 7.91455C388.998 7.9148 388.999 7.91504 389 7.91528C389.116 7.91641 389.322 8.02239 389.695 8.02661C390.014 8.02998 396.296 7.91361 395.807 8.09326C393.376 8.25429 392.467 8.00947 391.884 8.40892C391.766 8.3247 391.647 8.24047 391.529 8.15624C389.191 8.01041 388.524 8.30197 387.211 8.40892C387.217 8.34545 387.222 8.28197 387.227 8.2185C386.35 8.21215 385.474 8.2058 384.597 8.19946C384.721 8.2412 384.844 8.28295 384.968 8.3247C384.658 8.3247 384.348 8.3247 384.037 8.3247C383.282 8.13661 382.324 8.09278 383.483 7.9043ZM406.652 8.19946C407.34 7.718 414.046 8.04778 417.11 7.94678C415.501 8.23668 413.01 8.03689 411.256 8.03393C407.865 8.02847 410.209 8.20589 409.634 8.28368C409.35 8.32215 407.426 8.01346 406.652 8.19946ZM378.251 7.98852C379.941 8.02741 380.888 7.91656 382.35 8.09326C382.228 8.12841 382.105 8.16357 381.983 8.19872C381.482 8.16654 377.398 8.065 378.251 7.98852ZM421.599 8.07275C418.334 7.89986 419.944 8.33579 418.246 8.00903C419.364 7.98828 420.481 7.96753 421.599 7.94678C421.599 7.98877 421.599 8.03076 421.599 8.07275ZM193.622 7.65235C192.246 7.64134 190.709 7.55348 189.887 7.73511C190.822 7.76319 191.757 7.79126 192.692 7.81934C193.002 7.76368 193.312 7.70801 193.622 7.65235ZM232.86 5.87775C232.546 5.83421 231.304 5.96271 231.173 5.96271C230.93 5.96271 230.996 5.89941 230.993 5.88288C229.401 5.89435 230.869 6.09067 229.691 6.13336C229.49 6.1404 226.723 6.04336 225.597 6.05133C223.866 6.06359 222.137 6.05088 221.49 6.05426C220.397 6.05979 218.37 6.20705 216.575 6.21465C215.835 6.21754 215.577 6.09964 214.832 6.1026C210.056 6.12247 200.654 6.28434 196.417 6.20953C195.37 6.19093 194.371 6.03654 193.818 6.04913C193.381 6.10553 192.945 6.16192 192.508 6.21831C191.165 5.71066 190.716 6.16218 189.269 6.20953C188.349 6.23944 187.919 6.08904 187.796 6.08941C186.977 6.09237 186.573 6.16398 185.93 6.17584C185.208 6.18894 184.171 6.1211 183.913 6.13336C183.754 6.14157 184.26 6.34149 181.46 6.3377C178.606 6.33375 175.788 6.31262 172.885 6.30327C173.854 6.90685 174.687 6.49376 175.872 6.47172C176.19 6.46581 175.989 6.56164 176.265 6.55742C177.047 6.54599 178.543 6.45183 179.19 6.47465C179.889 6.49928 179.65 6.72139 180.536 6.63944C180.581 6.63522 180.439 6.54349 180.648 6.52812C182.742 6.37637 183.428 6.53592 186.076 6.54057C187.83 6.54393 198.485 6.45291 198.851 6.51274C200.758 6.834 189.531 6.83619 188.218 6.81083C187.759 6.80191 188.24 6.70063 187.822 6.68119C187.644 6.67342 186.048 6.86655 184.471 6.8826C182.563 6.90204 178.73 6.7703 176.913 6.77494C161.287 6.8151 145.878 6.69838 130.267 6.69584C129.934 6.69584 129.496 6.81155 128.411 6.81156C108.17 6.80944 87.1914 6.71821 66.6922 6.77274C62.223 6.78458 57.7906 6.89339 53.2803 6.80716C52.7206 6.89163 52.161 6.9761 51.6014 7.06057C53.0328 6.99341 55.6558 7.18447 55.8947 7.18728C55.9807 7.18812 56.5234 7.09287 57.3984 7.09793C58.6289 7.10469 59.1685 7.18728 59.2695 7.18728C59.5825 7.18754 59.3774 7.0997 59.6764 7.10012C61.9054 7.10393 63.6301 7.079 65.6759 7.07815C67.9869 7.07733 69.1583 7.24095 70.8412 7.06131C71.0318 7.13137 71.2223 7.20144 71.4128 7.27151C72.6702 6.96848 80.1575 7.00203 83.1905 7.0181C84.1475 7.0232 83.9796 7.14627 84.3012 7.14627C84.5065 7.14611 84.4255 6.98499 86.9293 7.01663C88.1897 7.03269 88.5203 7.15007 89.1523 7.14627C89.4958 7.14402 89.44 7.02762 89.9334 7.02762C92.7869 7.02762 95.1169 7.06538 97.9105 7.08694C98.6959 7.09286 98.7046 7.19001 98.8804 7.18874C99.5275 7.1844 100.653 7.01987 102.298 7.02029C105.006 7.02114 110.403 7.0217 112.617 7.10159C112.942 7.11342 113.212 7.22998 113.451 7.22829C113.813 7.22531 113.956 7.1037 114.019 7.10305C115.231 7.10094 114.502 7.21402 115.314 7.18655C115.751 7.17174 116.207 7.03304 117.224 7.01736C118.567 6.99665 118.302 7.16129 118.863 7.1448C118.923 7.14222 118.94 7.02774 119.492 7.02395C121.582 7.01043 124.615 6.98398 126.593 6.9844C127.162 6.9844 127.584 7.06147 128.377 7.06277C129.974 7.06531 139.051 7.01619 139.796 7.06057C139.874 7.06522 139.067 7.2341 140.354 7.22903C140.727 7.15872 141.101 7.08841 141.475 7.0181C142.1 7.13064 142.724 7.24319 143.349 7.35573C143.327 6.96687 147.003 6.90682 146.966 7.30446C147.368 7.32058 147.771 7.33669 148.173 7.3528C149.011 7.07807 149.568 7.17949 151.187 7.0181C151.44 7.10232 151.692 7.18655 151.944 7.27077C152.008 7.21462 152.071 7.15847 152.135 7.10232C152.999 7.40661 154.416 7.10108 154.588 7.09939C155.25 7.09264 155.747 7.16999 156.057 7.1675C157.217 7.15947 159.726 7.0529 161.08 7.10232C161.144 7.10486 161.081 7.23493 161.466 7.251C162.161 7.28001 162.229 7.08957 163.156 7.31325C163.343 7.2571 163.53 7.20095 163.717 7.1448C163.915 7.17385 164.114 7.2029 164.313 7.23196C165.484 7.21706 166.656 7.20217 167.828 7.18728C166.762 7.40751 167.989 7.53051 169.148 7.3572C169.541 7.29843 169.193 7.16437 169.323 7.14407C169.503 7.11659 174.762 7.18485 175.11 7.27151C175.359 7.22927 175.608 7.18704 175.857 7.1448C175.983 7.22927 176.109 7.31374 176.234 7.39821C176.372 7.36867 176.509 7.33913 176.646 7.30959C178.015 7.45837 181.568 7.11711 182.212 7.14407C182.556 7.15844 182.246 7.51848 183.896 7.4817C183.953 7.38283 184.01 7.28396 184.067 7.18508C184.445 7.17092 184.823 7.15676 185.2 7.1426C185.909 7.15142 186.941 7.32277 186.974 7.43996C187.195 7.36965 187.416 7.29934 187.638 7.22903C188.232 7.45811 191.404 7.37691 192.68 7.23196C193.053 7.30105 193.426 7.37013 193.799 7.43922C194.3 7.35524 194.801 7.27126 195.303 7.18728C196.464 7.16199 195.237 7.30161 195.485 7.31325C196.008 7.33735 198.676 7.10149 198.501 7.39528C198.865 7.39601 199.228 7.39675 199.592 7.39748C199.779 7.3135 199.967 7.22951 200.154 7.14553C200.778 7.43508 201.859 7.33286 204.076 7.43849C204.262 7.37184 204.448 7.3052 204.634 7.23855C205.32 7.33327 206.005 7.42799 206.691 7.52272C206.831 7.41237 206.972 7.30202 207.113 7.19167C207.411 7.17581 207.709 7.15994 208.007 7.14407C208.613 7.39125 209.701 7.12414 210.254 7.2261C211.062 7.37489 210.437 7.5522 208.938 7.58644C209.05 7.76646 213.517 7.6838 214.548 7.67066C214.479 7.63551 214.411 7.60035 214.343 7.5652C213.29 7.59303 212.236 7.62086 211.183 7.64869C210.3 7.19596 213.161 7.31739 214.474 7.25905C214.594 7.25346 215.274 7.08194 216.597 7.09793C217.11 7.10427 219.108 7.35496 219.49 7.36891C222.571 7.48339 220.305 7.12517 223.319 7.43922C222.691 7.1987 224.423 7.39857 226.226 7.35207C226.533 7.34412 229.135 7.14914 229.31 7.14407C230.406 7.11279 229.213 7.32539 230.799 7.27004C230.989 7.21413 231.18 7.15823 231.37 7.10232C231.739 7.10232 232.108 7.10232 232.478 7.10232C234.717 7.60055 235.238 7.23365 236.034 7.18655C236.356 7.16752 235.942 7.29752 236.776 7.27004C237.09 7.25982 237.438 7.15167 238.283 7.14407C240.927 7.12044 241.825 7.58338 244.255 7.10159C244.628 7.17141 245.001 7.24123 245.374 7.31105C245.626 7.22732 245.878 7.14358 246.13 7.05984C248.056 7.30283 247.36 7.05395 248.056 7.05691C249.892 7.06452 253.651 7.11216 253.98 7.31252C255.565 6.85228 257.461 7.37149 258.086 7.35353C258.457 7.29763 258.829 7.24172 259.2 7.18581C259.637 7.24196 260.073 7.29812 260.51 7.35427C260.298 6.90231 262.559 7.34675 262.776 7.35353C263.026 7.3603 266.504 7.22654 267.799 7.22903C269.091 7.23156 271.344 7.35403 271.543 7.35427C271.771 7.35427 273.971 7.23142 275.692 7.23269C277.197 7.23401 286.115 7.40852 285.554 7.20705C284.97 7.15126 284.14 7.1029 283.422 7.07669C281.192 6.99637 268.109 6.89349 264.765 6.86136C258.06 6.79754 251.066 6.80938 244.331 6.76542C243.934 6.76288 243.874 6.64574 243.534 6.64311C243.018 6.63972 241.708 6.75697 241.2 6.75443C239.3 6.74429 236.988 6.72516 235.971 6.72221C233.697 6.71628 232.138 6.64573 230.418 6.63432C229.879 6.63094 227.156 6.77615 225.29 6.71488C224.952 6.68192 224.614 6.64897 224.276 6.61601C225.237 6.57754 227.759 6.47801 228.929 6.4666C230.672 6.45013 231.58 6.54515 232.224 6.5435C232.762 6.54223 235.514 6.43402 236.767 6.43144C237.156 6.4306 237.236 6.55344 237.569 6.55302C239.375 6.55006 241.754 6.54678 243.321 6.42632C242.682 6.46563 246.676 6.54099 246.885 6.54057C247.244 6.54053 247.634 6.42558 248.367 6.42558C249.776 6.42565 249.597 6.66608 251.359 6.42558C251.795 6.49565 252.231 6.56572 252.667 6.63578C252.693 6.31547 258.203 6.75116 259.77 6.36187C259.811 6.3179 252.652 6.19316 252.061 6.18682C248.515 6.14837 243.269 6.22691 239.828 6.17071C238.793 6.15381 235.537 5.95908 235.291 5.96271C234.895 5.9682 235.253 6.07959 235.082 6.08355C231.578 6.16638 233.326 5.94251 232.86 5.87775ZM387.211 7.69337C386.147 7.68018 385.083 7.667 384.019 7.65382C384.096 7.58351 384.173 7.5132 384.25 7.44289C384.738 7.47023 385.225 7.49757 385.713 7.52492C386.088 7.48292 386.462 7.44093 386.837 7.39894C386.962 7.49708 387.087 7.59523 387.211 7.69337ZM389.834 7.39894C390.757 7.36354 390.802 7.51181 391.015 7.51906C391.651 7.54103 392.201 7.48108 392.818 7.48317C392.107 7.83537 390.594 7.67396 389.834 7.39894ZM370.771 7.27224C370.979 7.28909 372.369 7.66825 373.949 7.31545C375.131 7.42751 376.313 7.53956 377.495 7.65162C375.487 7.48042 372.708 7.65838 371.724 7.65162C371.351 7.64905 371.279 7.53267 370.981 7.53077C369.26 7.52147 367.588 7.78519 367.412 7.39967C369.039 7.51169 370.506 7.25152 370.771 7.27224ZM381.154 7.4092C381.429 7.48976 381.704 7.57032 381.979 7.65089C380.985 7.65089 379.99 7.65089 378.996 7.65089C379.265 7.56935 379.534 7.48781 379.803 7.40627C380.253 7.40724 380.703 7.40822 381.154 7.4092ZM304.646 7.1426C305.259 7.14358 305.873 7.14456 306.486 7.14553C306.452 7.08681 305.751 7.08705 305.492 7.04739C305.493 7.04739 305.494 7.04739 305.495 7.04739C305.207 7.00258 305.331 6.92698 304.807 6.89359C304.753 6.97659 304.7 7.0596 304.646 7.1426ZM50.8581 6.80863C49.8299 6.8044 40.3349 6.80397 41.1438 7.0181C41.5515 7.12504 44.7989 7.03178 45.7563 7.03348C47.047 7.03565 50.5328 7.26722 50.8581 6.80863ZM34.0422 6.76688C33.8777 6.98026 39.8117 7.0142 40.3919 6.97708C40.2687 6.94665 40.0789 6.87893 39.9147 6.86356C39.1144 6.79001 35.3214 6.82521 34.0422 6.76688ZM270.295 6.52665C270.773 6.63456 271.251 6.74247 271.73 6.85038C271.604 6.71 271.478 6.56962 271.352 6.42925C271 6.46172 270.647 6.49419 270.295 6.52665ZM223.891 6.68119C215.922 6.67436 207.953 6.66752 199.984 6.66068C200.685 6.60234 201.386 6.54399 202.087 6.48564C208.953 6.50635 216.276 6.56542 222.907 6.47539C223.235 6.54399 223.563 6.61259 223.891 6.68119ZM368.526 6.64018C366.484 6.63808 364.779 6.74119 362.557 6.57719C364.674 6.41825 365.722 6.66416 367.779 6.42998C367.78 6.42998 367.782 6.42998 367.783 6.42998C368.031 6.50004 368.278 6.57011 368.526 6.64018ZM322.94 6.5977C323.56 6.49956 324.181 6.40141 324.802 6.30327C324.055 6.30327 323.309 6.30327 322.562 6.30327C322.688 6.40141 322.814 6.49956 322.94 6.5977ZM154.379 6.13555C152.243 6.34976 146.779 5.96207 145.044 6.21978C144.931 6.23669 145.963 6.34544 144.295 6.55595C145.555 6.51285 146.445 6.46886 146.539 6.30327C146.913 6.35942 147.287 6.41557 147.661 6.47172C148.282 6.42925 148.903 6.38677 149.524 6.34429C149.457 6.50915 149.506 6.50036 150.459 6.3875C150.894 6.42925 151.329 6.47099 151.764 6.51274C151.948 6.44292 152.133 6.3731 152.317 6.30327C152.693 6.40093 153.07 6.49858 153.446 6.59623C154.914 6.49029 154.02 6.30108 154.379 6.13555ZM161.854 6.17584C161.507 6.13954 151.605 6.25794 156.105 6.58671C157.275 6.57621 158.445 6.56572 159.614 6.55522C158.645 6.01076 161.833 6.49766 162.095 6.50908C163.347 6.56226 164.944 6.43279 165.852 6.4395C166.634 6.44542 167.098 6.54309 167.648 6.54057C169.52 6.53212 172.478 6.52856 172.885 6.30327C171.43 6.29859 169.951 6.29616 168.438 6.30181C166.837 6.30773 165.43 6.09509 162.423 6.38677C161.679 6.35542 161.944 6.18513 161.854 6.17584ZM326.672 6.32598C326.597 6.55227 330.376 6.49816 330.4 6.40874C330.408 6.35632 329.177 6.35756 329.001 6.3377C329 6.3377 328.999 6.3377 328.998 6.3377C328.924 6.32902 329.296 6.24239 328.718 6.21831C328.036 6.2542 327.354 6.29009 326.672 6.32598ZM65.6261 6.30254C65.1153 6.17556 53.4455 6.22122 53.1017 6.28203C53.0084 6.29892 53.1386 6.35462 53.1017 6.38677C55.8242 6.2076 59.6945 6.41966 62.2787 6.43364C62.9991 6.43742 62.7838 6.34745 62.8246 6.34575C62.8263 6.34575 62.8281 6.34575 62.8298 6.34575C63.2386 6.34553 65.084 6.56532 65.6261 6.30254ZM141.306 6.32305C141.803 6.35845 142.299 6.39385 142.795 6.42925C142.921 6.35918 143.047 6.28911 143.172 6.21905C143.171 6.21905 143.17 6.21905 143.169 6.21905C142.548 6.25371 141.927 6.28838 141.306 6.32305ZM124.118 6.09234C124.239 6.14166 124.36 6.19097 124.48 6.24029C125.729 6.24712 126.978 6.25396 128.228 6.26079C128.102 6.28863 127.976 6.31646 127.85 6.34429C129.739 6.41869 130.521 6.24538 131.527 6.27032C131.526 6.27032 131.525 6.27032 131.524 6.27032C131.632 6.27321 131.763 6.37597 132.166 6.37944C133.089 6.38747 135.736 6.42571 136.055 6.32232C136.732 6.10172 131.406 6.20642 130.413 6.19634C129.964 6.19169 129.424 6.10178 129.151 6.09967C128.852 6.09769 128.445 6.21912 127.716 6.21539C127.503 6.21412 125.139 6.07126 124.118 6.09234ZM102.07 6.23955C102.455 6.35073 103.259 6.24335 103.555 6.26153C103.625 6.26582 103.076 6.35888 103.742 6.38677C103.93 6.32329 104.118 6.25982 104.307 6.19634C103.561 6.21075 102.815 6.22515 102.07 6.23955ZM333.021 6.21905C332.913 6.19519 330.884 6.20392 330.786 6.21905C329.571 6.42195 333.773 6.39997 333.021 6.21905ZM384.223 5.98688C383.29 5.69197 394.363 5.98189 395.436 5.96637C395.382 6.15171 392.748 5.96537 394.128 6.21978C392.811 6.07986 389.172 6.15416 388.315 6.11358C387.795 6.08905 387.664 5.92896 387.586 5.92389C387.277 5.90586 384.552 6.09083 384.223 5.98688ZM404.585 6.09234C403.533 6.05719 402.481 6.02203 401.428 5.98688C402.67 5.96588 403.912 5.94489 405.153 5.92389C404.964 5.98004 404.775 6.03619 404.585 6.09234ZM405.909 6.00812C405.875 5.82846 409.447 5.96532 410.386 5.92389C409.327 6.22949 407.562 5.94137 405.909 6.00812ZM346.48 5.75544C344.834 5.63666 344.127 6.18427 346.128 5.94586C346.189 5.93798 346.548 5.76173 346.48 5.75544ZM153.87 5.36507C153.59 5.36169 150.1 5.18413 149.898 5.27206C149.259 5.55255 151.549 5.44006 152.317 5.54597C153.555 5.71759 151.734 5.859 154.756 5.75544C154.633 5.81159 154.509 5.86774 154.385 5.92389C156.154 5.94249 155.575 5.55351 155.893 5.50349C155.99 5.48829 157.095 5.52099 157.295 5.49617C159.787 5.1828 154.131 5.36768 153.87 5.36507ZM305.743 5.71369C302.466 5.54884 303.876 5.79073 300.514 5.77595C300.402 5.89938 305.316 5.82191 305.743 5.71369ZM185.772 5.58699C182.384 5.63558 179.597 5.47415 176.437 5.69099C176.643 6.02493 186.651 5.67322 185.772 5.58699ZM26.5697 5.24862C39.7532 5.84335 54.9597 5.64756 68.9959 5.63825C70.5255 5.63741 70.6722 5.76981 71.2257 5.75544C71.5883 5.74613 71.5249 5.63949 72.0068 5.63899C89.4242 5.62166 106.102 5.48214 122.786 5.54597C123.837 5.5502 128.95 5.77921 130.042 5.43392C130.868 5.17195 127.195 5.3762 126.583 5.37386C126.123 5.37217 126.104 5.24905 125.797 5.24862C125.471 5.2482 125.74 5.33231 125.363 5.33358C123.762 5.33949 122.015 5.30662 120.568 5.3138C106.375 5.3827 92.5662 5.36299 78.4475 5.35115C76.7385 5.34988 77.0899 5.25124 77.0039 5.25082C77.0027 5.25106 77.0015 5.2513 77.0004 5.25155C67.8373 5.24225 57.3724 5.46353 47.6669 5.37899C40.8325 5.31112 33.9981 5.24325 27.1637 5.17538C26.9657 5.19979 26.7677 5.22421 26.5697 5.24862ZM161.106 5.71296C160.253 5.34098 160.063 5.71604 157.003 5.56428C156.754 5.62776 156.505 5.69123 156.256 5.75471C157.875 5.74079 159.493 5.72688 161.111 5.71296C161.109 5.71296 161.108 5.71296 161.106 5.71296ZM140.9 5.57747C140.383 5.07507 133.541 5.43013 130.461 5.33431C129.896 5.58661 134.375 5.47327 135.431 5.49983C135.958 5.51294 138.782 5.77243 140.929 5.62873C140.919 5.61164 140.909 5.59455 140.9 5.57747ZM372.637 5.24862C372.14 5.26327 371.642 5.27791 371.144 5.29256C372.39 5.34822 373.635 5.40389 374.881 5.45955C372.894 5.42366 370.906 5.38777 368.919 5.35189C369.289 5.24764 369.66 5.1434 370.03 5.03915C370.899 5.10897 371.768 5.1788 372.637 5.24862ZM366.19 5.30208C369.67 5.26283 366.037 5.54189 365.168 5.4178C364.648 5.34341 365.834 5.30631 366.19 5.30208ZM357.138 5.12265C358.761 4.93963 362.041 4.92703 360.875 5.29256C359.121 5.12136 357.99 5.26362 355.447 5.16512C355.819 5.09506 356.19 5.02499 356.561 4.95493C356.563 4.95493 356.565 4.95493 356.566 4.95493C356.757 5.01083 356.948 5.06674 357.138 5.12265ZM367.779 5.0809C370.059 5.2909 363.46 5.21909 365.534 5.0809C365.631 5.07456 367.69 5.07287 367.779 5.0809ZM41.1438 4.8707C40.8692 4.99015 42.6223 4.98791 43.2055 4.99594C45.7335 5.03144 48.9758 4.97947 51.6048 4.99594C51.4069 4.95663 51.2089 4.91733 51.0109 4.87802C47.7219 4.87558 44.4328 4.87314 41.1438 4.8707ZM59.8291 4.99667C61.6356 4.99667 63.442 4.99667 65.2485 4.99667C65.4168 4.99667 66.2065 4.89418 65.6193 4.86924C63.6892 4.91171 61.7592 4.95419 59.8291 4.99667ZM172.509 4.99667C171.124 4.92979 175.113 4.58693 174.933 4.95419C174.125 4.96835 173.317 4.98251 172.509 4.99667ZM185.398 4.85019C184.529 4.8851 183.661 4.92002 182.792 4.95493C182.791 4.91269 182.79 4.87046 182.788 4.82822C183.658 4.83555 184.528 4.84287 185.398 4.85019ZM34.0422 4.78647C34.9622 4.931 37.1571 4.90876 38.526 4.91171C37.5832 4.78754 35.336 4.84859 34.0422 4.78647ZM151.757 4.84873C151.869 4.94722 146.36 4.92243 148.267 4.74912C149.431 4.78232 150.594 4.81553 151.757 4.84873ZM140.567 4.70298C141.748 4.68143 142.664 4.71527 142.421 4.86997C141.794 4.86338 141.167 4.85678 140.541 4.85019C140.549 4.80112 140.558 4.75205 140.567 4.70298ZM350.96 4.82822C348.969 4.84214 346.977 4.85605 344.986 4.86997C345.06 4.82773 345.134 4.7855 345.208 4.74326C347.127 4.72959 349.047 4.71592 350.967 4.70225C350.965 4.74424 350.962 4.78623 350.96 4.82822ZM32.9161 4.40709C31.5485 4.43468 30.1809 4.46227 28.8134 4.48985C30.1821 4.51817 31.5508 4.54649 32.9195 4.57481C32.9195 4.51866 32.9195 4.46251 32.9195 4.40636C32.9184 4.4066 32.9172 4.40685 32.9161 4.40709ZM378.239 4.28112C372.155 4.08415 379.917 3.87594 381.523 4.1654C381.524 4.16516 381.526 4.16491 381.528 4.16467C381.668 4.19025 381.371 4.31396 381.605 4.36388C380.986 4.30797 380.367 4.25207 379.748 4.19616C379.183 4.26574 378.618 4.33532 378.053 4.40489C377.867 4.37755 377.681 4.35021 377.495 4.32287C377.743 4.30895 377.991 4.29503 378.239 4.28112ZM402.79 4.17126C408.306 4.1941 402.662 4.50347 399.932 4.25915C399.951 4.20261 402.282 4.16915 402.79 4.17126ZM388.334 4.23791C387.465 4.26598 386.596 4.29406 385.727 4.32213C385.616 4.28673 385.505 4.25133 385.394 4.21594C386.061 4.18078 386.728 4.14562 387.395 4.11047C387.708 4.15295 388.021 4.19543 388.334 4.23791ZM359.749 3.69154C358.35 3.65265 356.566 4.04627 361.057 3.94275C361.055 3.90052 361.053 3.85828 361.05 3.81604C360.871 3.82279 360.346 3.86241 360.317 3.85926C360.235 3.84869 360.332 3.70766 359.749 3.69154ZM413.004 3.05874C413.161 3.04267 413.246 2.59717 414.88 3.05801C415.374 3.02994 415.867 3.00186 416.361 2.97379C416.489 3.07193 416.616 3.17007 416.744 3.26821C414.833 3.19212 414.63 3.39069 414.492 3.39492C413.857 3.4135 414.327 3.31136 413.917 3.30996C412.859 3.30658 410.454 3.37516 411.544 3.08365C411.937 2.97924 412.847 3.07481 413.004 3.05874ZM409.266 2.80533C409.498 2.84252 408.752 2.97284 408.927 3.00967C409.08 3.04179 411.383 3.17475 410.76 3.39492C410.382 3.38564 410.003 3.37636 409.625 3.36708C409.497 3.30678 409.369 3.24648 409.241 3.18618C408.875 3.24184 408.508 3.29751 408.142 3.35317C407.525 3.20437 406.212 3.01161 407.771 2.89029C407.198 2.90299 406.625 2.91568 406.051 2.92838C405.754 2.99966 405.457 3.07095 405.16 3.14224C405.316 3.0336 405.472 2.92496 405.627 2.81632C406.84 2.81266 408.053 2.809 409.266 2.80533ZM427.04 2.84708C426.97 2.90323 426.901 2.95938 426.831 3.01553C428.937 2.91114 432.216 2.87145 430.353 3.22353C427.501 3.25283 424.648 3.28213 421.796 3.31142C421.607 3.26919 421.417 3.22695 421.228 3.18472C423.356 3.34744 422.698 2.655 424.549 2.85367C424.862 2.88735 423.956 3.1295 425.918 2.97452C425.848 2.91812 425.778 2.86173 425.708 2.80533C426.152 2.81925 426.596 2.83317 427.04 2.84708ZM445.142 2.93131C441.537 2.85015 445.508 2.64523 446.174 2.81559C446.173 2.81559 446.171 2.81559 446.17 2.81559C447.995 3.28175 444.072 3.05652 443.832 3.05948C443.514 3.0636 442.773 3.39733 441.043 2.9108C442.409 2.91763 443.776 2.92447 445.142 2.93131ZM433.371 2.84781C433.674 2.83682 433.506 2.92158 433.637 2.92032C433.638 2.92032 433.639 2.92032 433.641 2.92032C435.571 2.90214 440.161 2.82626 440.658 3.09976C439.23 3.12258 432.838 3.18168 432.451 2.99576C432.758 2.94644 433.064 2.89713 433.371 2.84781ZM419.791 3.05142C418.606 2.87435 421.273 2.85077 421.973 2.93277C422.105 2.95054 421.018 3.23485 419.791 3.05142ZM328.908 2.5944C326.302 2.70093 329.727 2.80724 328.541 2.97379C329.039 2.95963 329.537 2.94547 330.034 2.93131C329.659 2.81901 329.284 2.7067 328.908 2.5944ZM210.06 2.25823C209.453 2.23855 209.741 2.34022 209.688 2.34173C209.289 2.33889 208.912 2.25606 208.759 2.26482C205.927 2.43203 207.81 2.51742 207.839 2.53728C207.899 2.63786 207.154 2.75556 208.186 2.87052C208.812 2.83487 209.438 2.79923 210.064 2.76359C210.374 2.81949 210.685 2.8754 210.996 2.93131C212.24 2.81136 210.612 2.77846 210.428 2.6193C210.357 2.55674 211.526 2.48185 210.06 2.25823ZM324.237 2.2575C323.815 2.43419 322.779 2.65709 323.796 2.83463C323.797 2.83463 323.799 2.83463 323.8 2.83463C323.988 2.86711 324.754 2.88497 324.989 2.93057C326.667 2.69518 326.025 2.45191 324.237 2.2575ZM221.289 1.94183C222.298 1.98309 223.307 2.02435 224.317 2.06561C224.3 2.17156 224.282 2.27752 224.265 2.38347C223.725 2.35491 223.185 2.32634 222.645 2.29778C222.455 2.34612 222.266 2.39446 222.077 2.4428C222.747 2.56364 223.418 2.68449 224.088 2.80533C224.896 2.7631 225.704 2.72086 226.512 2.67863C226.141 2.62272 225.77 2.56682 225.398 2.51091C227.373 2.44919 226.943 2.70684 228.577 2.80533C229.137 2.70719 229.697 2.60905 230.256 2.51091C231.067 2.60954 231.877 2.70817 232.687 2.8068C234.048 2.76072 234.168 2.68561 233.252 2.57316C233.929 2.44467 234.67 2.64677 235.485 2.5944C235.552 2.59018 235.426 2.46916 235.485 2.4677C239.7 2.38611 239.476 2.70392 240.149 2.71745C240.624 2.72673 242.521 2.51226 242.551 2.43913C242.587 2.34059 238.643 1.95199 244.82 1.94183C241.626 1.67305 237.995 1.94666 240.343 2.34099C239.332 2.30131 234.875 2.3997 234.591 2.38787C234.176 2.37001 234.322 2.22039 233.803 2.21649C233.496 2.21437 232.684 2.55636 230.256 2.2575C229.946 2.31365 229.636 2.3698 229.326 2.42595C229.035 2.37981 228.745 2.33367 228.454 2.28753C229.052 2.12298 229.651 1.95844 230.249 1.79389C227.878 1.97268 225.911 1.63681 224.468 1.91986C223.22 1.88692 222.613 1.85435 223.149 1.70966C222.775 1.70966 222.4 1.70966 222.025 1.70966C221.78 1.78705 221.534 1.86444 221.289 1.94183ZM316.578 2.51018C315.337 2.3459 314.891 2.70031 315.084 2.72038C316.172 2.83066 317.223 2.59564 316.578 2.51018ZM212.312 2.44646C213.681 2.53776 215.05 2.62907 216.419 2.72038C216.419 2.60832 216.419 2.49626 216.419 2.3842C215.05 2.40496 213.681 2.42571 212.312 2.44646ZM329.289 2.34246C329.415 2.42644 329.541 2.51042 329.667 2.5944C331.166 2.28764 332.655 2.72778 333.396 2.63688C333.556 2.61702 333.232 2.46874 332.925 2.43694C332.734 2.41707 329.555 2.31414 329.289 2.34246ZM391.7 2.38274C391.142 2.43913 390.583 2.49553 390.025 2.55192C390.056 2.45744 390.087 2.36296 390.118 2.26849C390.393 2.25091 390.669 2.23333 390.945 2.21575C391.197 2.27141 391.449 2.32708 391.7 2.38274ZM385.345 2.53288C384.349 2.52531 383.353 2.51775 382.357 2.51018C386.157 2.42352 383.038 2.38123 385.345 2.25823C385.345 2.34978 385.345 2.44133 385.345 2.53288ZM375.262 2.34173C375.384 2.28533 375.507 2.22894 375.629 2.17254C376.626 2.17254 377.622 2.17254 378.618 2.17254C377.988 1.97675 377.358 1.78095 376.728 1.58516C376.363 1.58467 375.998 1.58418 375.633 1.58369C375.509 1.83637 375.386 2.08905 375.262 2.34173ZM183.151 1.8371C182.549 1.83372 180.453 2.00482 180.543 2.06781C181.413 2.1452 182.284 2.22259 183.154 2.29998C183.158 2.18768 183.162 2.07538 183.166 1.96307C183.289 2.01898 183.412 2.07489 183.535 2.13079C184.03 2.0888 184.525 2.04681 185.02 2.00482C185.27 2.10296 185.519 2.2011 185.769 2.29925C186.019 2.18719 186.27 2.07513 186.52 1.96307C184.131 1.76441 184.213 1.96298 183.715 1.96088C183.463 1.95993 183.304 1.8904 183.214 1.85541C183.193 1.84931 183.172 1.84321 183.151 1.8371ZM213.258 1.73164C210.405 1.70374 208.774 1.99939 206.709 1.75214C208.034 2.27882 216.583 1.73481 219.598 2.17401C219.911 2.08954 220.224 2.00506 220.537 1.9206C218.895 1.99582 217.758 1.82184 216.958 1.79682C216.322 1.77695 216.388 1.86547 216.34 1.8642C216.337 1.8642 216.335 1.8642 216.333 1.8642C214.844 1.82785 214.384 1.74264 213.258 1.73164ZM331.409 1.92938C330.643 1.79593 329.301 1.80927 329.286 2.00409C330.033 2.06048 330.779 2.11688 331.526 2.17327C331.373 2.12339 331.54 1.95221 331.409 1.92938ZM374.103 1.79755C373.505 1.73415 372.091 1.78971 372.701 1.95795C372.811 1.98781 374.219 1.86955 373.393 2.17327C374.765 2.16858 374.444 1.834 374.103 1.79755ZM262.021 2.13079C262.524 2.12518 263.027 2.11956 263.531 2.11395C263.648 2.03534 263.766 1.95673 263.883 1.87812C263.262 1.96234 262.641 2.04657 262.021 2.13079ZM337.881 1.79462C338.55 2.17934 339.694 1.80495 340.95 2.12127C341.414 2.12371 341.879 2.12616 342.343 2.1286C342.344 2.1286 342.345 2.1286 342.346 2.1286C342.359 2.02362 342.371 1.91864 342.384 1.81367C340.883 1.80732 339.382 1.80097 337.881 1.79462ZM230.624 1.9411C230.934 1.98993 231.244 2.03876 231.554 2.08758C232.106 2.0307 232.658 1.97382 233.211 1.91693C232.912 1.87616 232.613 1.83539 232.314 1.79462C231.751 1.84345 231.187 1.89228 230.624 1.9411ZM346.038 1.76166C344.415 1.71348 343.805 2.04792 345.88 2.04877C346.756 2.04877 347.739 1.81202 346.038 1.76166ZM152.142 1.96161C152.698 1.99017 153.254 2.01874 153.81 2.0473C154 1.97699 154.189 1.90668 154.379 1.83637C153.633 1.87812 152.887 1.91986 152.142 1.96161ZM381.801 1.83564C381.735 1.90595 381.67 1.97626 381.605 2.04657C381.109 2.03241 380.613 2.01825 380.117 2.00409C380.241 1.93427 380.366 1.86444 380.491 1.79462C380.927 1.80829 381.364 1.82197 381.801 1.83564ZM155.884 2.00482C156.329 2.01825 156.773 2.03168 157.218 2.0451C157.516 2.01092 157.815 1.97675 158.114 1.94257C157.698 1.90863 157.282 1.8747 156.866 1.84076C156.539 1.89545 156.211 1.95014 155.884 2.00482ZM361.424 1.79389C360.8 1.70935 358.305 1.97275 360.552 2.03998C361.984 2.08266 361.518 1.80675 361.424 1.79389ZM364.791 1.70966C362.412 1.54861 364.196 2.36603 367.034 1.83637C364.177 1.90899 364.931 1.71939 364.791 1.70966ZM385.708 1.2878C385.767 1.28823 385.817 1.40576 386.295 1.41011C388.015 1.42533 390.286 1.47177 391.517 1.47896C394.475 1.49629 403.536 1.28382 404.596 1.62397C404.816 1.69541 404.308 1.90887 404.398 1.91986C404.661 1.95052 406.177 1.84694 405.897 2.00409C404.41 2.00287 402.922 2.00165 401.435 2.00043C401.8 1.88959 402.165 1.77875 402.53 1.66792C398.825 1.72709 400.052 1.72026 398.986 1.96161C398.359 1.86811 397.731 1.7746 397.104 1.6811C395.739 1.77509 394.374 1.86908 393.008 1.96307C393.318 1.89301 393.628 1.82294 393.937 1.75288C391.88 1.62311 392.452 1.7082 391.326 1.87812C391.324 1.80805 391.322 1.73798 391.319 1.66792C389.333 1.83869 388.946 1.62871 388.513 1.62617C387.623 1.62204 386.488 2.45105 383.093 1.62617C381.662 2.02289 381.694 1.21581 380.853 1.62617C378.43 1.17944 383.038 1.34112 385.218 1.35592C385.22 1.35592 385.221 1.35592 385.222 1.35592C385.386 1.35718 385.125 1.28196 385.708 1.2878ZM373.262 1.69868C374.729 1.33451 368.934 1.30042 370.852 1.82612C371.138 1.84321 371.423 1.86029 371.709 1.87738C372.228 1.81781 372.747 1.75825 373.266 1.69868C373.264 1.69868 373.263 1.69868 373.262 1.69868ZM318.818 1.45699C313.451 1.60663 316.503 1.81612 318.32 1.61152C318.683 1.57094 318.882 1.51531 318.818 1.45699ZM209.181 1.45186C209.103 1.49556 209.025 1.53926 208.946 1.58296C210.746 1.54206 214.226 1.71063 214.178 1.41597C212.513 1.42793 210.847 1.4399 209.181 1.45186ZM223.419 1.25924C223.032 1.24147 221.453 1.19952 221.644 1.30977C222.328 1.3879 223.013 1.46602 223.697 1.54414C224.016 1.49532 224.335 1.44649 224.653 1.39766C224.208 1.38106 223.524 1.26389 223.419 1.25924Z" fill="black"/>
</svg>
