<svg version="1.0" xmlns="http://www.w3.org/2000/svg" height='360px' width='360px' viewBox="0 0 287.000000 179.000000"  preserveAspectRatio="xMidYMid meet"> <g transform="translate(0.000000,179.000000) scale(0.066667,-0.066667)" fill="#000000" stroke="none"> <path d="M2850 2376 c-281 -50 -392 -106 -485 -247 -26 -40 -66 -83 -89 -96 -30 -18 -41 -37 -41 -68 0 -24 -7 -47 -14 -52 -15 -9 -11 -280 5 -305 4 -7 15 -58 24 -113 23 -144 95 -314 161 -382 10 -11 19 -31 19 -45 0 -65 225 -551 291 -629 35 -41 46 -46 71 -33 63 34 415 409 436 464 6 15 49 53 96 83 98 62 111 57 141 -54 8 -30 28 -71 43 -91 60 -75 152 -513 116 -549 -24 -24 -1426 -12 -1429 12 -1 12 -2 30 -3 40 -1 11 -17 19 -36 19 -18 0 -65 10 -102 21 -43 13 -77 16 -90 8 -36 -23 -813 -18 -805 5 4 14 75 20 271 23 l264 4 84 78 84 79 -29 165 c-33 180 -100 524 -169 859 -24 118 -44 234 -44 257 0 64 -6 65 -643 70 l-591 6 -73 -62 -73 -61 0 -138 c0 -76 6 -144 14 -152 7 -8 24 -65 38 -127 13 -62 34 -156 46 -210 12 -54 29 -128 36 -165 16 -74 31 -136 69 -285 23 -93 22 -399 -2 -437 -4 -7 -105 -9 -224 -3 -215 10 -217 9 -217 -23 0 -36 12 -37 259 -32 144 3 145 2 100 -58 -69 -93 -52 -97 360 -85 202 6 379 16 391 22 12 7 117 10 233 8 148 -3 218 1 240 14 19 13 127 23 313 29 173 6 291 16 303 27 14 11 154 18 422 21 1222 14 1391 12 1186 -14 -44 -5 -110 -16 -147 -24 -37 -8 -165 -32 -285 -52 -120 -21 -234 -42 -255 -46 -21 -4 -78 -12 -127 -17 -163 -17 -144 -36 30 -30 163 5 302 26 762 114 316 61 295 64 295 -36 0 -73 4 -83 30 -83 27 0 30 10 30 104 0 152 -4 155 -249 149 l-198 -5 -10 107 c-6 59 -19 150 -30 203 -26 125 -20 125 38 2 61 -127 55 -121 85 -90 50 50 42 568 -13 836 -15 75 -14 93 15 169 125 336 -53 754 -370 868 -84 30 -452 52 -558 33z m447 -74 c264 -54 410 -210 454 -487 24 -147 -20 -415 -52 -314 -3 12 -24 81 -46 153 -21 72 -42 140 -47 151 -4 11 14 27 46 40 34 13 53 31 53 48 0 33 -20 35 -45 5 -33 -40 -41 -25 -48 91 -8 114 -35 171 -71 149 -13 -8 -12 -20 5 -45 12 -18 26 -60 30 -92 9 -57 9 -57 -8 -13 -23 61 -60 101 -77 84 -8 -8 -3 -30 13 -55 15 -22 28 -52 29 -65 1 -14 7 -40 13 -58 7 -21 5 -34 -5 -34 -8 0 -19 19 -24 41 -16 80 -43 116 -90 121 l-44 4 41 -35 c28 -24 45 -56 53 -102 9 -54 18 -67 46 -71 18 -3 37 -17 42 -30 4 -14 13 -39 20 -55 31 -74 90 -283 90 -317 0 -103 -229 -339 -416 -430 l-131 -63 -188 0 c-278 -1 -448 103 -562 344 -88 186 -88 188 20 190 51 1 99 3 107 6 8 2 22 4 30 5 9 1 12 25 6 59 -6 42 -3 62 15 77 13 11 24 29 24 41 0 12 6 18 14 13 22 -14 91 19 91 44 0 16 -15 23 -52 23 -40 0 -53 -6 -53 -25 0 -14 -5 -20 -10 -15 -6 6 -22 -1 -37 -14 -22 -20 -46 -23 -141 -14 l-114 11 9 77 c16 123 36 175 69 175 33 0 35 6 13 41 -21 34 35 138 116 216 120 115 541 180 812 125z m-1745 -471 c8 -14 72 -326 164 -811 21 -111 50 -261 65 -333 l25 -131 -36 -38 c-50 -53 -53 -50 -74 63 -30 163 -50 262 -164 797 -41 193 -82 358 -91 367 -22 22 -26 22 -607 24 l-509 1 35 38 35 37 574 0 c349 0 578 -6 583 -14z m-157 -130 c0 -4 -25 -51 -56 -104 l-56 -96 -480 9 c-543 10 -499 0 -512 114 l-10 86 557 0 c306 0 557 -4 557 -9z m67 -238 c37 -195 169 -812 193 -904 24 -91 22 -95 -41 -84 -67 13 -64 7 -116 253 -25 123 -52 248 -58 277 -13 59 -63 283 -89 398 -16 71 -14 81 23 148 49 87 55 81 88 -88z m1017 117 c39 -24 8 -65 -49 -65 -50 0 -60 5 -60 30 0 17 -10 30 -22 30 -13 0 -23 -13 -23 -30 0 -16 -6 -30 -13 -30 -16 0 -32 70 -19 83 8 8 167 -7 186 -18z m-1451 -135 l255 -9 58 -257 c31 -141 82 -360 112 -486 31 -126 52 -233 49 -236 -13 -13 -315 -7 -323 6 -5 7 -1 52 7 101 72 431 60 723 -28 673 -17 -10 -118 -10 -290 -1 -305 15 -313 14 -313 -57 0 -29 -6 -85 -14 -125 -8 -39 -19 -125 -24 -189 -12 -145 -27 -135 -65 43 -25 118 -92 417 -115 513 l-8 34 222 0 c122 0 336 -4 477 -10z m2704 -263 c53 -348 58 -418 39 -557 -13 -91 -24 -80 -105 93 -37 79 -90 192 -118 249 l-50 105 78 83 c44 45 87 98 97 117 28 51 41 30 59 -90z m-2617 -23 c-3 -14 -33 -264 -42 -353 -4 -35 -18 -159 -30 -277 -13 -117 -23 -223 -23 -236 0 -20 -36 -23 -265 -23 l-264 0 9 64 c6 35 16 107 25 161 8 54 18 128 23 165 4 37 14 111 22 165 7 54 21 157 31 229 l17 131 250 -7 c137 -5 248 -13 247 -19z m49 -386 c-14 -124 -32 -258 -40 -297 -8 -40 -14 -96 -14 -124 0 -52 -20 -70 -35 -31 -4 11 2 90 14 176 11 85 32 260 47 388 23 206 27 225 40 173 9 -42 6 -127 -12 -285z m1391 196 c135 -101 376 -147 539 -102 89 25 72 -3 -132 -214 l-187 -195 -31 37 c-47 58 -264 510 -245 510 5 0 29 -16 56 -36z m1070 -289 c-5 -6 -10 -1 -10 10 0 11 5 16 10 10 6 -5 6 -14 0 -20z m-2039 -254 c-5 -5 -18 -6 -29 -1 -12 5 -8 8 9 9 16 0 25 -3 20 -8z m497 -142 c103 -31 90 -89 -20 -89 l-83 0 0 62 c0 46 5 59 21 53 11 -4 49 -16 82 -26z m-155 -44 l0 -52 -157 -5 c-152 -4 -157 -3 -198 37 -52 49 -73 35 -38 -25 l27 -45 -226 0 c-213 0 -226 2 -226 29 0 16 -4 39 -9 52 -8 21 15 24 193 24 168 0 204 4 212 23 7 19 41 22 215 19 l207 -4 0 -53z m-866 -67 l4 -45 -331 -4 c-266 -4 -329 -1 -320 15 61 95 28 87 350 83 l293 -4 4 -45z"/> <path d="M2700 1674 c0 -19 9 -43 21 -53 32 -27 40 -95 13 -114 -56 -41 -3 -52 251 -52 248 0 286 7 260 49 -6 10 -9 40 -7 68 9 97 -28 125 -151 115 -59 -5 -112 -11 -118 -15 -32 -20 -199 -10 -212 13 -21 38 -57 31 -57 -11z m477 -103 l-4 -48 -147 -5 c-138 -4 -146 -2 -146 26 0 33 -29 41 -55 15 -11 -11 -19 -9 -25 7 -13 33 46 44 295 51 l87 3 -5 -49z"/> <path d="M2521 1330 c-76 -20 -91 -41 -42 -63 18 -8 36 -30 38 -49 5 -30 11 -33 56 -24 37 7 71 -1 133 -30 113 -53 136 -51 163 17 27 66 15 99 -46 129 -58 30 -224 41 -302 20z"/> <path d="M2610 1134 c0 -21 52 -42 67 -27 12 12 -23 48 -46 48 -12 0 -21 -9 -21 -21z"/> <path d="M2265 735 c0 -11 5 -16 10 -10 6 6 6 15 0 20 -5 6 -10 1 -10 -10z"/> <path d="M2258 615 c-6 -8 -3 -15 6 -15 9 0 16 7 16 15 0 8 -3 15 -7 15 -3 0 -10 -7 -15 -15z"/> </g> </svg>