<?xml version="1.0" standalone="no"?>
<!DOCTYPE svg PUBLIC "-//W3C//DTD SVG 20010904//EN"
 "http://www.w3.org/TR/2001/REC-SVG-20010904/DTD/svg10.dtd">
<svg version="1.0" xmlns="http://www.w3.org/2000/svg"
 viewBox="0 0 1800.000000 1098.000000" height='400px' width='400px'
 preserveAspectRatio="xMidYMid meet">
<g transform="translate(0.000000,1098.000000) scale(0.100000,-0.100000)"
fill="#000000" stroke="none">
<path d="M12035 9298 c-232 -13 -541 -51 -685 -83 -36 -9 -74 -15 -84 -15 -11
0 -42 -6 -70 -14 -28 -8 -80 -22 -116 -31 -90 -23 -258 -73 -302 -91 -21 -8
-55 -20 -75 -28 -372 -139 -676 -325 -932 -571 -226 -217 -410 -484 -525 -760
-7 -16 -19 -46 -28 -65 -24 -55 -64 -177 -93 -285 -65 -237 -105 -522 -105
-742 0 -83 -3 -158 -6 -167 -4 -9 -18 -16 -35 -16 -47 0 -78 -20 -84 -54 -10
-51 7 -81 57 -95 63 -19 68 -26 68 -95 -1 -98 40 -407 76 -586 54 -264 130
-493 240 -727 24 -51 44 -95 44 -98 0 -8 -72 -100 -81 -103 -5 -2 -9 -9 -9
-15 0 -6 -6 -18 -14 -26 -37 -43 -118 -224 -149 -331 -79 -277 -92 -673 -35
-1035 6 -38 14 -97 18 -130 4 -33 13 -87 19 -120 7 -33 19 -94 27 -135 8 -41
20 -95 26 -120 6 -25 14 -63 19 -85 12 -63 44 -185 72 -275 6 -19 14 -51 18
-70 4 -19 12 -48 17 -65 6 -16 18 -57 28 -90 9 -33 22 -76 29 -95 7 -19 20
-60 29 -90 10 -30 24 -71 31 -90 7 -19 22 -64 34 -100 11 -36 29 -90 41 -120
47 -122 52 -136 57 -155 2 -11 11 -33 18 -50 7 -16 20 -49 29 -72 9 -24 23
-62 32 -85 9 -24 22 -56 29 -73 7 -16 20 -50 30 -75 10 -25 24 -60 32 -77 7
-18 21 -50 29 -70 9 -21 23 -51 30 -66 8 -16 14 -37 14 -48 0 -19 -11 -19
-442 -17 l-443 3 -6 92 c-4 72 -10 98 -25 114 -22 25 -67 49 -109 60 -16 4
-75 24 -130 44 -55 20 -113 40 -130 45 -16 4 -55 18 -85 30 -30 12 -68 25 -85
30 -43 12 -95 30 -130 46 -42 19 -107 28 -149 20 -20 -4 -71 -33 -118 -69
l-83 -62 -570 3 c-313 2 -833 8 -1155 13 -322 6 -769 14 -995 18 l-410 6 2 62
c1 34 6 71 13 82 l11 21 947 0 c610 0 959 4 982 10 19 6 195 129 390 275 455
339 436 324 454 368 14 33 14 44 2 95 -8 31 -22 93 -31 137 -9 44 -23 107 -30
140 -7 33 -20 96 -30 140 -9 44 -23 107 -30 140 -8 33 -21 96 -30 140 -9 44
-21 98 -27 120 -5 22 -13 60 -17 85 -5 25 -13 65 -19 90 -5 25 -18 81 -27 125
-9 44 -22 98 -28 120 -5 22 -13 60 -17 85 -4 25 -12 65 -18 90 -6 25 -18 81
-27 125 -9 44 -23 103 -31 131 -8 28 -14 61 -14 73 0 12 -6 47 -14 79 -8 31
-20 80 -26 107 -7 28 -16 70 -20 95 -4 25 -12 66 -19 92 -6 27 -16 69 -22 95
-7 27 -15 68 -19 93 -4 25 -12 66 -19 93 -6 26 -16 68 -22 95 -7 26 -15 67
-19 92 -4 25 -12 63 -17 85 -6 22 -19 76 -28 120 -9 44 -23 106 -31 137 -8 32
-14 67 -14 79 0 12 -6 45 -14 73 -8 28 -22 87 -31 131 -16 76 -23 107 -59 270
-8 39 -17 84 -20 100 -2 17 -9 48 -14 70 -6 22 -17 76 -27 120 -9 44 -23 103
-31 131 -8 28 -14 63 -14 79 0 16 -6 51 -14 79 -8 28 -22 87 -31 131 -10 44
-23 107 -30 140 -8 33 -21 96 -30 140 -9 44 -23 103 -31 131 -8 28 -14 61 -14
73 0 12 -6 47 -14 79 -8 31 -22 93 -31 137 -25 122 -45 188 -64 209 -43 49 93
46 -2431 46 -2616 0 -2392 6 -2474 -67 -61 -54 -329 -306 -423 -399 l-83 -81
0 -496 c0 -336 4 -505 11 -524 12 -31 36 -110 49 -163 4 -19 13 -48 18 -65 6
-16 18 -57 27 -90 38 -133 48 -172 61 -215 30 -105 48 -168 59 -210 18 -62 45
-156 60 -210 8 -25 21 -72 30 -105 9 -33 21 -73 27 -90 5 -16 13 -46 17 -65 4
-19 13 -51 19 -70 6 -19 18 -62 28 -95 9 -33 23 -81 30 -107 8 -27 20 -69 28
-95 7 -27 20 -73 29 -103 15 -55 38 -137 62 -220 8 -25 21 -72 30 -105 9 -33
21 -73 27 -90 5 -16 14 -46 18 -65 5 -19 16 -57 24 -85 26 -90 45 -159 57
-205 6 -25 18 -60 25 -78 8 -18 14 -40 14 -50 0 -9 6 -37 14 -62 8 -25 22 -72
32 -105 36 -129 46 -161 56 -190 6 -16 14 -48 18 -70 4 -22 13 -53 18 -70 6
-16 18 -57 27 -90 9 -33 21 -73 27 -90 5 -16 14 -49 19 -73 5 -23 13 -51 19
-61 14 -28 12 -120 -5 -220 -16 -96 -35 -236 -41 -296 -5 -45 -29 -223 -45
-330 -6 -38 -15 -104 -19 -145 -4 -41 -13 -106 -19 -145 -6 -38 -16 -110 -22
-160 -14 -106 -23 -135 -43 -135 -7 0 -20 -7 -27 -17 -13 -15 -82 -16 -891 -9
l-878 7 0 -110 0 -111 118 0 c529 -2 1446 -20 1455 -29 7 -7 6 -16 -4 -28 -8
-10 -25 -38 -37 -63 -23 -46 -31 -60 -50 -95 -32 -59 -82 -164 -82 -174 0 -7
9 -29 20 -50 39 -77 -84 -71 1539 -71 1412 0 1453 1 1489 19 21 11 43 31 50
45 6 14 20 26 29 26 10 0 419 0 910 0 561 0 902 4 918 10 29 11 85 68 85 87 0
25 43 95 64 102 12 5 53 7 91 6 39 -2 320 -6 625 -10 l555 -7 28 -24 c16 -13
40 -27 54 -30 25 -7 198 3 563 31 107 9 232 15 277 15 138 0 202 37 203 117 0
77 -28 73 519 73 l487 0 34 -35 c29 -30 40 -35 79 -35 31 1 60 9 86 25 22 14
50 29 63 35 15 7 556 10 1587 10 l1565 0 31 -35 c29 -31 38 -35 84 -35 46 0
55 4 84 35 l32 35 1452 -2 1452 -3 3 -327 2 -328 115 0 115 0 0 393 c0 431 0
435 -60 477 -27 20 -43 20 -876 22 l-849 3 -6 235 c-3 129 -11 285 -18 345
-24 225 -61 467 -87 582 -8 34 -14 72 -14 84 0 12 -6 45 -14 73 -8 28 -21 78
-30 111 -32 130 -49 192 -62 230 -8 23 -14 48 -14 57 0 10 -6 32 -14 50 -17
42 -35 94 -46 133 -5 17 -18 55 -30 85 -12 30 -25 69 -29 85 -4 17 -13 39 -18
50 -6 11 -26 56 -43 100 -112 276 -267 573 -447 852 -29 46 -53 85 -53 87 0 2
75 80 168 173 92 92 193 200 224 238 31 39 78 97 105 130 87 108 114 146 227
316 93 139 95 142 103 159 4 8 18 33 32 55 48 75 200 371 257 500 7 17 24 55
38 86 28 62 53 129 66 174 4 17 14 46 21 65 6 19 17 51 24 70 15 42 35 120 45
175 4 22 12 67 18 100 36 195 44 292 40 535 -3 135 -10 283 -17 330 -32 216
-81 433 -117 518 -8 18 -14 39 -14 47 0 8 -6 29 -14 47 -8 18 -22 53 -31 78
-33 88 -130 291 -165 345 -11 17 -23 36 -27 44 -40 83 -189 272 -311 392 -127
126 -233 209 -357 283 -44 26 -87 51 -95 56 -8 6 -24 14 -35 19 -11 5 -54 25
-96 44 -148 70 -370 140 -569 181 -391 80 -964 113 -1465 84z m920 -237 c235
-23 467 -59 600 -92 67 -17 148 -40 180 -51 17 -5 45 -14 64 -18 18 -5 38 -13
44 -19 6 -6 19 -11 28 -11 15 0 47 -14 179 -78 77 -38 201 -114 259 -159 9 -7
34 -26 56 -43 136 -106 339 -346 424 -500 207 -378 302 -701 331 -1133 19
-284 -13 -598 -87 -857 -18 -63 -31 -100 -91 -255 -68 -177 -198 -436 -316
-631 -37 -60 -72 -118 -79 -129 -7 -11 -24 -36 -39 -56 -16 -20 -28 -40 -28
-43 0 -5 -98 -143 -133 -186 -7 -8 -34 -44 -62 -80 -49 -65 -59 -77 -195 -225
-136 -148 -342 -336 -495 -451 -84 -63 -263 -184 -272 -184 -3 0 -24 -12 -47
-28 -55 -37 -289 -152 -309 -152 -9 0 -18 -4 -21 -9 -3 -4 -38 -18 -78 -31
-40 -12 -91 -28 -113 -36 -73 -25 -90 -20 -126 39 -53 83 -58 91 -66 107 -4 8
-30 48 -57 88 -28 41 -55 81 -61 90 -5 9 -30 44 -55 77 -297 398 -624 681
-990 857 -88 42 -115 53 -217 92 -141 53 -377 106 -476 106 -84 0 -102 13 -51
36 58 26 197 31 230 9 40 -26 93 -24 115 4 42 52 10 110 -79 145 -95 36 -342
5 -389 -49 -26 -30 -29 -59 -8 -95 8 -14 14 -28 15 -32 0 -4 -35 -5 -77 -4
-43 1 -99 -2 -124 -7 -32 -7 -56 -6 -78 1 -21 8 -69 8 -158 1 -185 -13 -321
-48 -461 -116 -87 -42 -80 -46 -137 91 -20 50 -43 105 -51 123 -8 17 -14 36
-14 42 0 6 -6 25 -14 43 -7 18 -21 60 -30 93 -10 33 -24 80 -31 105 -20 67
-27 118 -16 124 5 3 55 -3 111 -14 128 -25 318 -27 399 -4 93 27 162 66 224
127 25 25 77 115 77 133 0 8 7 29 16 46 12 23 16 65 17 171 l2 141 50 14 c115
34 169 73 195 142 19 50 27 56 48 37 27 -24 50 -21 83 12 28 28 29 33 29 125
0 110 -9 140 -48 160 -25 13 -32 13 -59 -1 -37 -18 -43 -35 -43 -136 l0 -78
-33 25 c-69 53 -146 18 -134 -59 7 -44 -7 -59 -71 -80 -43 -14 -92 -17 -264
-17 -214 1 -401 16 -603 51 l-100 17 0 125 c0 295 49 647 116 844 6 17 14 44
19 60 63 229 239 550 404 735 82 92 242 244 315 299 124 94 296 203 386 244
17 8 64 30 105 50 107 50 259 109 325 127 17 4 41 12 55 18 43 17 219 63 330
85 41 9 107 23 146 31 40 9 87 16 105 16 19 0 52 5 74 10 22 6 96 15 165 21
69 6 161 14 205 19 112 11 815 5 960 -9z m-6701 -1983 c6 -30 35 -168 51 -243
7 -33 21 -96 30 -140 9 -44 23 -105 30 -135 12 -52 27 -120 62 -290 8 -41 21
-102 28 -135 8 -33 21 -94 30 -135 9 -41 21 -95 27 -120 6 -25 14 -65 18 -90
4 -25 13 -67 19 -95 29 -119 34 -143 41 -190 5 -27 13 -63 19 -78 6 -16 11
-40 11 -54 0 -15 6 -49 14 -77 23 -81 46 -189 46 -210 0 -11 6 -42 14 -70 8
-28 22 -87 31 -131 9 -44 22 -107 30 -140 7 -33 20 -96 30 -140 9 -44 22 -107
30 -140 23 -107 43 -198 60 -280 10 -44 23 -107 30 -140 7 -33 21 -96 30 -140
9 -44 23 -107 30 -140 8 -33 21 -96 30 -140 9 -44 23 -107 30 -140 7 -33 21
-96 30 -140 10 -44 23 -107 30 -140 8 -33 21 -96 30 -140 9 -44 23 -103 31
-131 8 -28 14 -59 14 -70 0 -21 23 -129 46 -210 8 -28 14 -61 14 -74 0 -13 6
-49 14 -79 13 -51 22 -90 57 -253 14 -65 17 -59 -75 -129 -98 -74 -181 -129
-190 -126 -9 3 -30 70 -41 132 -4 17 -12 53 -20 80 -8 28 -21 77 -29 110 -49
200 -76 307 -87 341 -5 16 -13 50 -18 75 -10 45 -23 97 -46 184 -13 47 -25 96
-59 233 -8 31 -22 85 -30 120 -9 34 -23 90 -31 125 -9 34 -22 83 -30 108 -8
26 -15 55 -15 65 0 11 -6 39 -14 64 -14 42 -23 79 -60 228 -57 229 -77 305
-88 342 -7 19 -15 53 -19 75 -10 52 -27 118 -45 176 -8 26 -14 55 -14 65 0 11
-6 39 -14 64 -8 25 -21 72 -30 105 -8 33 -22 88 -30 123 -9 34 -23 90 -31 125
-9 34 -22 83 -30 108 -8 26 -15 57 -15 68 0 12 -5 31 -11 42 -6 11 -14 41 -19
67 -9 46 -18 84 -45 187 -14 51 -35 131 -61 240 -8 33 -21 83 -29 110 -8 28
-16 61 -19 75 -5 28 -20 88 -41 165 -7 28 -20 77 -28 110 -9 33 -23 88 -31
123 -9 34 -23 89 -31 122 -8 33 -22 88 -31 123 -8 34 -21 82 -29 107 -19 67
-37 161 -32 167 10 10 -16 68 -41 91 l-25 22 -2158 0 c-1342 0 -2160 4 -2164
9 -3 6 31 45 76 88 45 43 96 93 113 110 l31 33 2297 0 2298 0 4 -22z m-652
-455 c23 -20 22 -50 -3 -88 -10 -16 -22 -37 -26 -45 -4 -8 -33 -59 -65 -113
-32 -53 -58 -100 -58 -102 0 -3 -12 -24 -27 -48 -15 -23 -38 -62 -51 -86 -13
-24 -33 -58 -43 -75 -10 -17 -22 -38 -26 -46 -4 -8 -33 -59 -65 -113 -32 -54
-58 -102 -58 -107 0 -5 -10 -17 -23 -27 -22 -17 -37 -17 -278 -6 -140 6 -324
12 -409 12 -85 0 -346 7 -580 16 -749 26 -1076 36 -1460 46 -206 5 -472 13
-590 19 -118 5 -296 9 -395 10 -127 0 -185 4 -193 12 -17 17 -17 729 0 746 9
9 501 12 2172 12 1991 0 2161 -1 2178 -17z m121 -430 c3 -21 15 -74 27 -118
12 -44 26 -98 30 -120 9 -40 20 -84 45 -180 8 -27 21 -79 30 -115 9 -36 22
-87 30 -115 24 -90 36 -139 45 -180 5 -22 14 -60 20 -85 7 -25 19 -72 27 -105
8 -33 22 -80 29 -104 8 -25 14 -53 14 -64 0 -11 7 -40 15 -66 8 -25 21 -74 30
-108 37 -150 47 -190 57 -223 7 -19 15 -53 19 -75 8 -39 17 -79 44 -180 16
-57 51 -197 91 -360 8 -33 21 -82 29 -110 23 -87 36 -139 41 -165 3 -14 11
-47 19 -75 8 -27 21 -78 29 -112 9 -35 23 -90 31 -123 8 -33 22 -88 31 -122 8
-35 21 -85 29 -113 8 -27 16 -61 19 -75 5 -26 18 -78 41 -165 8 -27 21 -77 29
-110 8 -33 22 -89 31 -125 21 -84 43 -170 61 -245 8 -33 21 -81 29 -106 8 -26
15 -54 15 -64 0 -10 7 -38 15 -64 8 -25 21 -73 29 -106 8 -33 21 -87 30 -120
29 -113 40 -165 35 -168 -38 -31 -178 -135 -193 -144 -23 -14 -274 -18 -291
-5 -12 9 -36 73 -46 127 -18 89 -40 179 -49 196 -6 10 -10 30 -10 44 0 14 -5
35 -11 46 -6 11 -14 41 -19 67 -11 55 -33 149 -49 212 -7 25 -19 70 -26 100
-25 101 -47 185 -61 234 -8 26 -14 55 -14 64 0 8 -6 38 -14 66 -8 28 -22 79
-30 114 -9 34 -23 89 -31 122 -8 33 -22 87 -30 120 -8 33 -22 87 -30 120 -8
33 -22 87 -30 120 -8 33 -22 87 -30 120 -8 33 -21 86 -29 118 -8 31 -20 77
-27 102 -7 25 -16 63 -20 85 -9 49 -38 161 -73 286 -9 31 -16 66 -16 78 0 12
-5 31 -11 42 -6 11 -14 41 -19 67 -5 26 -18 83 -30 127 -12 44 -26 96 -30 115
-4 19 -13 58 -20 85 -6 28 -18 77 -26 110 -8 33 -21 81 -29 106 -8 26 -15 55
-15 65 0 10 -6 36 -14 59 -8 22 -22 76 -31 120 -10 44 -24 98 -31 120 -8 23
-14 49 -14 59 0 11 -7 44 -16 75 -62 220 -66 245 -49 283 9 18 20 40 25 48 28
44 93 156 101 174 5 12 18 35 29 51 20 31 31 51 72 125 13 25 36 64 51 87 15
24 27 46 27 50 0 12 43 53 50 48 5 -3 10 -22 13 -42z m3652 18 c96 -16 358
-41 515 -49 l145 -7 3 -121 c2 -109 0 -125 -22 -176 -50 -113 -159 -168 -336
-168 -137 0 -365 49 -382 81 -10 21 -37 230 -43 343 -7 106 -1 121 40 112 11
-3 47 -9 80 -15z m-7520 -581 c242 -6 523 -15 625 -20 102 -5 255 -9 340 -9
85 -1 340 -7 565 -16 677 -24 1103 -37 1423 -44 339 -7 325 -3 338 -80 3 -20
12 -54 20 -76 8 -23 14 -49 14 -59 0 -11 6 -42 14 -70 8 -28 21 -78 30 -111 8
-33 22 -88 30 -122 9 -35 23 -91 32 -125 8 -35 22 -86 30 -114 8 -28 14 -61
14 -73 0 -12 5 -31 11 -42 6 -11 14 -41 19 -67 10 -54 19 -88 71 -282 7 -25
16 -63 20 -85 4 -22 13 -60 19 -85 7 -25 19 -72 27 -105 8 -33 21 -80 29 -105
8 -25 14 -55 14 -68 0 -13 5 -32 11 -43 6 -11 14 -41 19 -67 5 -26 14 -67 20
-92 7 -25 19 -72 27 -105 8 -33 20 -82 28 -110 8 -27 16 -61 19 -75 9 -43 33
-143 45 -190 7 -25 19 -71 27 -102 8 -32 20 -84 28 -115 8 -32 22 -86 30 -120
9 -35 23 -90 31 -123 8 -33 22 -88 31 -122 20 -80 42 -167 60 -240 8 -32 21
-86 30 -120 8 -35 22 -88 29 -118 24 -98 43 -174 56 -220 27 -102 41 -167 42
-200 l2 -35 -640 0 -640 0 -4 35 c-1 19 4 78 12 130 28 170 39 244 43 290 2
25 11 86 19 135 22 141 37 244 45 320 4 39 13 104 20 145 6 41 17 118 25 170
8 52 19 129 25 170 7 41 16 107 20 145 7 70 18 145 46 306 7 47 14 99 14 116
0 17 7 66 16 109 19 91 18 95 -62 307 -9 23 -22 59 -30 80 -8 20 -21 56 -30
80 -9 23 -23 60 -31 82 -9 22 -21 54 -28 70 -7 17 -20 48 -28 70 -27 74 -49
130 -63 163 -8 18 -14 38 -14 45 0 19 -50 56 -84 62 -17 3 -547 4 -1178 3
l-1146 -3 -25 -23 c-30 -29 -47 -84 -58 -192 -4 -47 -13 -116 -19 -155 -24
-152 -32 -213 -40 -285 -4 -41 -13 -106 -19 -145 -23 -155 -34 -234 -41 -305
-4 -41 -12 -104 -18 -140 -6 -36 -18 -117 -26 -180 -32 -241 -51 -351 -61
-351 -5 0 -11 11 -13 23 -2 13 -9 43 -17 68 -7 25 -21 72 -31 105 -9 33 -23
80 -30 105 -7 25 -20 72 -29 105 -9 33 -21 74 -27 90 -5 17 -14 46 -18 65 -18
72 -33 126 -45 160 -12 34 -27 88 -45 160 -4 19 -13 49 -18 65 -21 61 -36 111
-43 145 -4 19 -17 67 -29 105 -12 39 -25 86 -30 105 -5 19 -18 67 -30 105 -12
39 -25 86 -30 105 -5 19 -16 58 -24 85 -40 138 -58 203 -66 235 -4 19 -13 49
-18 65 -6 17 -18 57 -27 90 -24 87 -40 143 -58 205 -30 103 -48 165 -62 215
-37 133 -49 173 -61 210 -15 45 -18 88 -7 99 4 4 28 5 53 1 25 -3 243 -10 485
-15z m8395 -832 c7 -54 30 -85 74 -96 35 -9 59 -5 161 31 143 50 183 58 295
59 170 1 234 -32 346 -176 28 -37 33 -39 79 -38 42 0 54 5 77 31 15 17 37 31
48 31 28 0 207 -110 325 -199 177 -133 384 -346 541 -556 87 -116 211 -307
216 -330 5 -34 -85 -46 -382 -52 -272 -5 -419 5 -590 43 -36 8 -74 14 -84 14
-11 0 -42 7 -70 15 -28 8 -78 22 -111 31 -169 46 -382 127 -505 192 -79 42
-134 73 -162 90 -127 79 -160 101 -213 141 -91 68 -109 84 -261 236 -174 174
-372 432 -348 455 36 35 191 91 304 110 41 7 80 14 85 15 6 2 46 3 90 2 l80
-2 5 -47z m-712 -288 c12 -16 22 -32 22 -35 0 -10 119 -165 184 -240 101 -116
191 -202 360 -345 80 -68 291 -206 391 -256 28 -14 57 -29 65 -34 23 -15 181
-87 226 -103 309 -113 458 -153 709 -191 318 -48 684 -48 950 0 44 8 85 14 92
14 6 0 32 -43 58 -96 l47 -95 -26 -32 c-14 -18 -47 -59 -73 -92 -26 -33 -54
-67 -62 -76 -9 -9 -34 -38 -56 -64 -56 -69 -104 -124 -149 -173 -22 -23 -52
-57 -68 -75 -134 -152 -489 -507 -650 -650 -21 -18 -55 -49 -76 -68 -291 -263
-677 -559 -1052 -809 -252 -168 -304 -200 -330 -200 -41 0 -40 -1 -104 145 -8
17 -28 66 -46 110 -18 44 -38 94 -45 110 -7 17 -20 48 -28 70 -19 50 -74 189
-93 233 -8 18 -14 41 -14 50 0 10 -5 23 -11 29 -6 6 -14 26 -19 44 -5 19 -18
59 -30 89 -12 30 -25 69 -30 85 -5 17 -14 46 -21 65 -14 40 -31 89 -48 140
-11 31 -25 76 -51 165 -4 17 -13 44 -18 60 -10 28 -20 63 -56 198 -47 171 -65
240 -76 302 -4 22 -12 60 -18 85 -11 43 -20 90 -56 280 -9 47 -16 101 -16 120
0 19 -7 71 -15 115 -21 115 -20 536 1 664 31 190 91 359 162 459 29 40 42 40
70 2z m-5000 -30 c15 0 16 -95 2 -171 -6 -30 -15 -94 -20 -144 -4 -49 -13
-130 -20 -180 -22 -182 -39 -323 -55 -455 -18 -160 -40 -333 -55 -450 -6 -47
-15 -130 -20 -185 -5 -55 -13 -120 -19 -145 -6 -25 -11 -68 -11 -97 0 -28 -7
-87 -15 -130 -8 -43 -15 -99 -15 -125 0 -25 -7 -82 -15 -125 -8 -43 -15 -96
-15 -118 0 -22 -6 -85 -14 -140 -9 -55 -22 -163 -31 -240 -18 -159 -39 -330
-55 -455 -6 -47 -14 -113 -17 -147 -5 -55 -10 -66 -41 -95 -81 -75 24 -68
-1070 -68 -880 0 -983 2 -989 16 -3 8 1 61 10 117 9 56 23 156 32 222 8 66 20
152 26 190 6 39 15 104 19 145 4 41 13 107 19 145 6 39 18 124 26 190 9 66 21
152 27 190 6 39 13 88 15 110 4 44 27 219 44 330 6 39 15 104 19 145 4 41 13
108 19 148 6 39 16 105 22 145 6 39 15 108 19 152 4 44 12 109 18 145 6 36 18
119 27 185 9 66 21 152 26 190 6 39 15 104 19 145 4 41 13 107 19 145 11 74
37 267 47 347 3 26 11 53 18 60 10 10 216 13 1002 11 544 -1 995 -3 1002 -3z
m229 -422 c45 -100 53 -120 53 -136 0 -9 7 -26 15 -36 20 -26 19 -150 0 -231
-8 -33 -15 -79 -15 -102 0 -23 -6 -75 -14 -115 -16 -83 -32 -193 -46 -318 -5
-47 -14 -101 -20 -120 -5 -19 -10 -53 -10 -74 0 -22 -7 -78 -14 -125 -22 -128
-37 -228 -46 -301 -12 -105 -31 -229 -46 -315 -8 -44 -14 -93 -14 -109 0 -16
-7 -68 -15 -115 -8 -47 -21 -140 -30 -206 -9 -66 -22 -160 -30 -210 -33 -209
-39 -254 -43 -329 -2 -48 1 -89 9 -108 9 -22 9 -32 0 -41 -6 -6 -11 -35 -11
-65 0 -47 4 -56 32 -83 l32 -29 746 0 746 0 31 28 c20 19 33 42 38 70 3 22 12
42 18 45 14 5 1606 -23 1625 -29 10 -3 12 -37 10 -146 l-3 -143 -646 1 c-361
1 -652 5 -661 10 -8 5 -48 38 -87 74 -40 36 -82 70 -94 77 -66 37 -156 -21
-157 -100 0 -42 15 -66 87 -132 58 -54 64 -63 58 -88 l-7 -27 -872 2 -871 3 0
130 c0 151 0 151 -92 247 -44 46 -63 73 -60 85 10 36 53 359 67 508 5 50 14
114 20 144 5 29 10 72 10 95 0 22 7 86 15 141 18 125 35 263 45 380 5 50 13
110 19 135 6 25 11 68 11 97 0 28 7 87 15 130 8 43 15 96 15 118 0 22 6 87 15
145 8 58 21 168 30 245 15 130 27 233 55 445 6 47 15 128 20 180 5 52 14 119
20 149 5 29 10 77 10 107 0 47 7 84 15 84 2 0 12 -19 22 -42z m9084 -228 c24
-39 49 -79 54 -88 6 -9 24 -37 40 -62 30 -45 30 -45 28 -180 -2 -74 -10 -200
-18 -280 -33 -305 -46 -418 -60 -515 -9 -55 -15 -113 -15 -130 0 -16 -6 -63
-14 -105 -14 -72 -33 -181 -42 -245 -6 -37 -31 -173 -46 -240 -6 -27 -14 -70
-18 -95 -4 -25 -13 -67 -20 -95 -6 -27 -19 -77 -27 -110 -31 -128 -96 -356
-120 -420 -8 -22 -22 -58 -30 -80 -44 -120 -73 -154 -73 -87 0 15 -7 60 -15
100 -8 39 -22 107 -30 150 -32 163 -57 274 -85 382 -6 25 -15 63 -19 85 -4 22
-12 56 -18 75 -6 19 -18 60 -26 90 -29 109 -48 176 -59 205 -5 17 -14 46 -18
65 -4 19 -13 49 -19 65 -18 47 -91 267 -101 300 -12 42 -33 96 -48 122 -7 12
-12 28 -12 37 0 8 -6 27 -14 43 -8 15 -22 48 -32 73 -9 25 -29 72 -44 105 -50
111 -54 100 104 315 43 59 44 60 103 159 34 57 46 67 113 102 148 76 334 194
469 296 24 18 49 33 56 33 7 0 32 -32 56 -70z m359 -655 c0 -7 6 -26 14 -42 8
-15 22 -46 31 -68 10 -22 24 -53 31 -68 8 -16 14 -36 14 -46 0 -9 7 -26 15
-37 8 -10 15 -28 15 -39 0 -12 5 -26 11 -32 6 -6 14 -26 19 -44 4 -19 14 -50
21 -69 6 -19 17 -51 24 -70 7 -19 20 -62 30 -95 10 -33 23 -80 31 -105 12 -44
32 -119 59 -230 7 -30 21 -91 30 -135 9 -44 23 -109 31 -145 8 -36 14 -76 14
-90 0 -13 7 -58 15 -100 21 -110 43 -329 55 -545 13 -242 13 -298 -2 -313 -14
-14 -963 -18 -972 -4 -5 8 14 56 50 125 8 16 14 35 14 42 0 7 6 26 14 42 19
38 40 96 61 168 10 33 24 75 31 93 8 18 14 40 14 50 0 9 6 37 14 62 8 25 21
72 29 105 8 33 20 80 27 105 6 25 15 65 19 90 5 25 14 70 20 100 35 158 59
291 85 465 8 55 22 145 31 200 8 55 15 114 15 130 0 17 6 73 14 125 8 52 22
160 31 240 9 80 19 148 22 153 6 11 23 -2 23 -18z m-1440 -335 c6 -21 15 -42
20 -45 6 -3 10 -15 10 -25 0 -10 6 -31 14 -47 8 -15 21 -46 29 -68 8 -22 21
-58 29 -80 26 -70 40 -109 48 -140 5 -16 20 -64 34 -105 29 -82 45 -133 71
-225 9 -33 21 -73 27 -90 6 -16 13 -48 17 -70 4 -22 13 -50 19 -62 7 -12 12
-34 12 -48 0 -14 5 -35 11 -46 6 -11 14 -41 18 -67 5 -26 14 -69 21 -97 38
-157 50 -209 85 -387 29 -153 37 -195 45 -263 4 -38 6 -73 4 -77 -7 -12 -2714
-10 -2714 1 0 5 30 30 68 55 37 24 81 55 99 68 17 13 41 30 54 38 61 40 356
263 443 334 54 45 123 100 154 124 31 23 59 46 62 50 3 4 55 50 115 102 209
179 572 530 739 715 15 17 49 53 75 80 53 57 218 248 273 315 52 66 86 100 97
100 6 0 15 -18 21 -40z m-4585 -1716 c22 -9 54 -19 70 -24 33 -9 109 -36 140
-49 34 -14 89 -32 120 -41 30 -7 39 -11 123 -45 l42 -18 0 -118 c0 -80 -4
-120 -12 -125 -6 -4 -75 -11 -152 -16 -78 -5 -222 -15 -320 -23 -99 -8 -183
-12 -188 -9 -4 3 -8 96 -8 207 l1 202 51 38 c57 41 74 43 133 21z m-3943 -357
l38 -39 0 -144 c0 -108 -3 -144 -12 -144 -421 -3 -2543 2 -2546 5 -5 5 7 32
27 65 5 8 12 22 15 30 4 8 26 51 49 95 32 60 54 87 87 110 l45 30 1080 5
c1090 5 1119 6 1140 40 8 13 22 3 77 -53z"/>
<path d="M10669 6731 c-28 -29 -29 -32 -29 -128 0 -97 10 -131 44 -155 19 -14
61 -8 84 11 21 18 22 27 22 138 0 65 -4 123 -8 129 -10 15 -47 34 -67 34 -9 0
-30 -13 -46 -29z"/>
<path d="M10969 6644 c-20 -22 -24 -38 -27 -103 -4 -86 11 -132 63 -183 29
-29 97 -68 120 -68 22 0 28 -20 13 -38 -53 -62 -47 -289 10 -437 97 -252 164
-328 357 -405 45 -18 208 -40 294 -40 100 0 272 18 343 36 32 8 68 14 81 14
13 0 43 6 68 14 24 7 71 21 104 31 173 52 344 122 425 174 137 89 195 187 216
364 15 129 -94 504 -156 537 -23 12 -63 13 -76 1 -16 -15 -106 -39 -204 -55
-239 -37 -449 -48 -959 -50 l-499 -1 -27 25 c-24 22 -26 30 -23 98 2 67 0 76
-21 93 -33 27 -73 24 -102 -7z m1847 -304 c32 -66 64 -219 64 -306 0 -154 -48
-220 -222 -307 -239 -119 -601 -206 -858 -207 -163 0 -338 54 -397 124 -25 30
-89 156 -116 231 -42 116 -47 204 -17 305 23 77 38 94 83 93 151 -2 839 20
982 32 178 16 352 39 410 55 43 12 58 8 71 -20z"/>
<path d="M11482 6110 c-94 -39 -88 -182 8 -210 77 -22 140 27 140 109 0 39 -5
52 -27 73 -31 30 -86 42 -121 28z"/>
<path d="M9420 6139 c-41 -17 -69 -59 -70 -105 0 -33 6 -46 33 -72 28 -27 40
-32 83 -32 57 0 83 20 102 78 13 38 -1 84 -34 114 -25 21 -82 30 -114 17z"/>
<path d="M10790 4615 c-97 -13 -194 -34 -265 -59 -52 -19 -78 -51 -71 -90 12
-60 57 -81 123 -55 96 37 182 52 309 53 l132 1 40 -32 c53 -43 93 -44 121 -4
12 16 21 38 21 50 0 25 -58 84 -108 110 -33 17 -161 43 -194 40 -7 -1 -56 -7
-108 -14z"/>
</g>
</svg>
